<svg id="Layer_1" data-name="Layer 1" xmlns="http://www.w3.org/2000/svg" viewBox="0 0 94.37 89.51"><defs><style>.cls-1{fill:#416eb6;}</style></defs><title>arrow2</title><path class="cls-1" d="M6.09,14.43a33,33,0,0,0,6.74-9.95H8.51C10.67,8.79,14.3,12.06,18,15c2.5,2,6.07-1.56,3.53-3.54C18.16,8.78,14.81,5.9,12.83,2,12,.39,9.25.26,8.51,2a29.32,29.32,0,0,1-5.95,8.93c-2.25,2.3,1.28,5.84,3.53,3.54Z" transform="translate(-1.83 -0.73)"/><path class="cls-1" d="M8.28,9.31c.06,12.62.8,25.83,3.37,38.21,2.44,11.73,8.12,22,17.83,29.18C47.14,89.76,72.74,91,93.79,90c3.21-.15,3.22-5.15,0-5-19.36.89-42.5.07-59.32-10.88C24.23,67.44,18.6,57.16,16.3,45.34s-3-24.13-3-36c0-3.22-5-3.22-5,0Z" transform="translate(-1.83 -0.73)"/></svg>