<?xml version="1.0" standalone="no"?>
<!DOCTYPE svg PUBLIC "-//W3C//DTD SVG 1.1//EN" "http://www.w3.org/Graphics/SVG/1.1/DTD/svg11.dtd" >
<svg xmlns="http://www.w3.org/2000/svg">
<metadata>Generated by IcoMoon</metadata>
<defs>
<font id="icomoon" horiz-adv-x="1024">
<font-face units-per-em="1024" ascent="960" descent="-64" />
<missing-glyph horiz-adv-x="1024" />
<glyph unicode="&#x20;" horiz-adv-x="512" d="" />
<glyph unicode="&#xe900;" glyph-name="tableSortAscending" horiz-adv-x="1025" d="M520.987-42.615c-4.699-4.686-12.304-4.686-17.003 0l-450.421 449.132c-3.451 3.441-4.487 8.622-2.626 13.126s6.254 7.441 11.127 7.441h900.84c4.873 0 9.265-2.937 11.127-7.441s0.825-9.685-2.625-13.126l-450.421-449.132zM104.272 397.594l408.213-407.044 408.213 407.044h-816.428zM503.975 935.711c4.699 4.686 12.304 4.686 17.003 0 55.531-55.372 366.888-365.838 450.421-449.132 3.451-3.441 4.487-8.622 2.626-13.126s-6.254-7.441-11.127-7.441c-141.823 0-759.021 0-900.84 0-4.873 0-9.265 2.937-11.127 7.441s-0.825 9.685 2.625 13.126c83.532 83.294 394.89 393.759 450.421 449.132z" />
<glyph unicode="&#xe901;" glyph-name="tableSortDescending" horiz-adv-x="1025" d="M520.987-42.615c-4.699-4.686-12.304-4.686-17.003 0-55.531 55.372-366.888 365.838-450.421 449.132-3.451 3.441-4.487 8.622-2.626 13.126s6.254 7.441 11.127 7.441c141.823 0 759.021 0 900.84 0 4.873 0 9.265-2.937 11.127-7.441s0.825-9.685-2.625-13.126c-83.532-83.294-394.89-393.759-450.421-449.132zM503.985 935.711c4.699 4.686 12.304 4.686 17.003 0l450.421-449.132c3.451-3.441 4.487-8.622 2.625-13.126s-6.254-7.441-11.127-7.441h-900.84c-4.873 0-9.265 2.937-11.127 7.441s-0.825 9.685 2.626 13.126l450.421 449.132zM104.273 495.501h816.428l-408.213 407.044-408.213-407.044z" />
<glyph unicode="&#xe902;" glyph-name="tableSortNone" horiz-adv-x="1025" d="M520.987-42.615c-4.699-4.686-12.304-4.686-17.003 0l-450.421 449.132c-3.451 3.441-4.487 8.622-2.626 13.126s6.254 7.441 11.127 7.441h900.84c4.873 0 9.265-2.937 11.127-7.441s0.825-9.685-2.625-13.126l-450.421-449.132zM104.272 397.594l408.213-407.044 408.213 407.044h-816.428zM503.985 935.711c4.699 4.686 12.304 4.686 17.003 0l450.421-449.132c3.451-3.441 4.487-8.622 2.625-13.126s-6.254-7.441-11.127-7.441h-900.84c-4.873 0-9.265 2.937-11.127 7.441s-0.825 9.685 2.626 13.126l450.421 449.132zM104.273 495.501h816.428l-408.213 407.044-408.213-407.044z" />
<glyph unicode="&#xe903;" glyph-name="add_to_palette" d="M480.108 948.949c-259.88 0-470.563-207.652-470.563-463.813 0-302.509 271.831-439.745 402.304-457.797 91.524-12.654 131.783 21.649 137.721 60.161 0.799 5.138 1.163 9.822 1.163 14.123 0 34.831-23.805 44.622-33.875 73.146-5.658 11.249-4.973 34.986-3.53 42.668 3.115 16.459 25.372 61.36 61.614 63.769 31.944 2.12 65.237 1.199 128.056 1.199 30.947 0 63.192 7.858 100.275 30.075 124.433 74.593 122.139 145.775 129.271 198.513 25.372 187.688-144.905 437.946-452.447 437.946l0.011 0.010zM187.141 486.945c-43.374 0-78.526 35.007-78.526 78.202s35.152 78.201 78.526 78.201c43.374 0 78.526-35.007 78.526-78.201s-35.152-78.202-78.526-78.202zM344.193 690.276c-43.374 0-78.526 35.007-78.526 78.202s35.152 78.201 78.526 78.201c43.374 0 78.526-35.007 78.526-78.201s-35.152-78.202-78.526-78.202zM602.733 690.276c-43.374 0-78.526 35.007-78.526 78.202s35.152 78.201 78.526 78.201c43.374 0 78.526-35.007 78.526-78.201s-35.152-78.202-78.526-78.202zM753.753 486.945c-43.374 0-78.526 35.007-78.526 78.202s35.152 78.201 78.526 78.201c43.374 0 78.526-35.007 78.526-78.201s-35.152-78.202-78.526-78.202zM1011.362 137.197v-87.817h-103.981v-102.249h-88.181v102.249h-102.673v87.817h102.673v103.552h88.181v-103.552h103.981z" />
<glyph unicode="&#xe904;" glyph-name="bash" d="M56.887 796.202c-23.942 0-43.352-18.832-43.352-42.062v-612.198c0-23.23 19.409-42.062 43.352-42.062h911.404c23.943 0 43.352 18.832 43.352 42.062v612.198c0 23.23-19.409 42.062-43.352 42.062h-911.404zM198.593 727.302h55.206v-44.116h55.29v-44.033h55.206v-44.033h-55.206v44.033h-165.702v-88.067h165.702v-44.115h55.206v-88.067h-55.206v-44.033h-55.29v-44.116h-55.206v44.116h-55.206v44.033h-55.291v44.033h55.291v-44.033h165.702v88.067h-165.702v44.115h-55.291v88.067h55.291v44.033h55.206v44.116zM419.501 330.753h220.908v-44.033h-220.908v44.033z" />
<glyph unicode="&#xe905;" glyph-name="branch" d="M176.006 627.425l114.235 214.345c5.052 9.588-2.165 21.032-12.991 20.62l-244.656-10.516c-10.722-0.516-17.012-12.475-11.135-21.548l130.421-203.829c5.774-8.97 19.074-8.454 24.125 0.928zM423.55 654.747l-57.53-115.163c-3.402 5.052-7.011 10.207-10.619 15.155-15.156 20.62-16.393 24.435-31.652 43.199l55.777 107.018c18.661-18.558 21.754-23.919 40.312-45.776 1.34-1.546 2.474-2.99 3.815-4.536l-0.103 0.103zM347.36 731.453l-54.025-107.327c-23.61 21.754-38.766 32.476-58.767 45.467l53.406 104.44c20.517-12.784 35.363-22.373 59.386-42.683v0.103zM1002.251 828.161l-128.978-202.695c-6.702-10.722-22.476-10.001-28.353 1.237l-29.28 56.087c-38.353-22.373-118.771-75.985-178.878-181.147-60.726-106.296-65.984-206.2-65.778-250.739v-221.046h-117.637v222.593c0 1.237 0 2.578-0.206 4.021v0.928c0.309 56.396 8.351 169.6 74.026 291.051 75.572 139.597 185.271 210.633 234.037 238.883l-27.012 51.963c-5.877 11.238 2.577 24.435 15.155 23.919l239.708-9.898c12.681-0.515 20.002-14.537 13.197-25.156zM495.099 550.822c-6.289-11.032-12.269-22.785-18.146-35.157-22.373-47.735-34.745-93.099-41.549-132.174-10.516 41.756-19.589 74.232-43.302 123.514l59.076 117.122c20.002-31.343 29.384-47.014 43.818-73.304h0.103z" />
<glyph unicode="&#xe906;" glyph-name="build" d="M999.329 132.33l-413.371 413.371c40.883 104.479 18.17 227.127-68.138 313.436-90.851 90.851-227.127 109.021-336.147 59.053l195.33-195.33-136.276-136.276-199.872 195.33c-54.511-109.021-31.798-245.297 59.053-336.147 86.308-86.309 208.957-109.021 313.436-68.138l413.371-413.371c18.17-18.17 45.425-18.17 63.596 0l104.479 104.479c22.713 18.17 22.713 49.968 4.543 63.596z" />
<glyph unicode="&#xe907;" glyph-name="call_split" d="M637.36 948.99l143.43-143.43-180.051-180.051 88.935-88.935 180.051 180.051 143.43-143.43v375.796h-375.796zM387.119 948.99h-375.359v-375.359l143.43 143.43 294.706-293.835v-474.759h125.12v526.202l-331.328 330.891 143.43 143.43z" />
<glyph unicode="&#xe908;" glyph-name="collapse_component" d="M557.089 934.067c-10.8-16.286-20.13-33.632-27.799-51.836-4.049 8.852-5.497 18.274-2.131 28.941 3.284 10.392 14.155 17.846 29.931 22.894zM782.207 169.554c-10.014-10.004-66.256 22.914-155.14 29.38-64.644 4.701-109.504 13.502-119.886-17.632-10.575-31.726 45.941-62.849 52.886-99.898 7.057-37.61 2.101-61.146-28.207-99.898-38.67-49.47-157.659-46.451-202.152 17.632-23.975 34.54-28.799 88.191-4.701 121.049 25.862 35.264 33.837 45.054 29.39 59.943-7.944 26.545-91.75 24.403-126.933 23.506-112.115-2.855-138.436-20.732-170.426 2.356-41.566 29.992-36.631 96.88-32.908 130.451 5.252 47.369 27.096 124.71 64.644 129.288 27.483 3.355 42.953-39.914 82.276-38.782 33.847 0.969 51.713 29.38 55.232 38.782 18.315 48.848-1.173 125.76-4.701 133.99-11.554 26.973-41.566 47.073-75.219 37.61-37.61-10.585-57.271-71.313-78.748-67-31.165 6.272-26.882 141.475-25.851 173.945 2.876 90.649 9.555 135.509 41.138 165.725 27.024 25.852 99.898 38.783 143.382 38.783 65.113 0 144.085-1.703 146.921-39.965 4.701-63.461-63.472-41.128-45.839-102.244 11.564-40.088 100.469-80.084 177.779-67.826 9.27-146.35 117.806-265.747 259.025-291.598-18.448-13.522-9.912-99.643-0.765-148.317 16.357-87.018 27.034-121.049 18.805-129.278zM971.337 479.437c-10.167-45.972-41.036-107.832-86.876-101.856-41.872 5.466-76.412 51.234-100.449 66.582 12.339-1.458 24.903-2.213 37.64-2.213 54.13 0 105.099 13.563 149.684 37.487zM1003.174 770.024v-142.26c0-23.996-20.61-43.524-45.931-43.524h-279.34c-25.321 0-45.931 19.529-45.931 43.524v264.715c0 23.995 20.61 43.524 45.931 43.524h151.295c11.35 0 20.559-8.719 20.559-19.478s-9.209-19.478-20.559-19.478h-151.295c-2.651 0-4.813-2.050-4.813-4.569v-264.715c0-2.519 2.162-4.569 4.813-4.569h279.34c2.651 0 4.813 2.050 4.813 4.569v142.26c0 10.759 9.209 19.478 20.559 19.478s20.559-8.719 20.559-19.478zM981.186 886.259l-123.771-114.45h59.749c11.911 0 21.579-9.148 21.579-20.447s-9.667-20.447-21.579-20.447h-84.54c-11.85 0-22.67 4.273-30.818 11.299-3.457 2.978-6.425 6.445-8.78 10.279-3.987 6.435-6.262 13.91-6.262 21.895v80.114c0 11.289 9.647 20.447 21.569 20.447s21.579-9.158 21.579-20.447v-50.999l121.161 112.013c8.525 7.903 22.18 7.74 30.491-0.347 8.321-8.087 8.168-21.028-0.367-28.911h-0.010z" />
<glyph unicode="&#xe909;" glyph-name="comment" d="M1011.84 848.554c0 55.104-44.69 100.228-99.794 100.228h-800.522c-55.104-0.434-99.794-45.124-99.794-100.228v-600.5c0-55.104 45.124-100.228 100.228-100.228h700.729l200.022-200.022v900.749h-0.868zM812.252 348.282h-600.5v100.228h600.5v-100.228zM812.252 498.407h-600.5v100.228h600.5v-100.228zM812.252 648.532h-600.5v100.228h600.5v-100.228z" />
<glyph unicode="&#xe90a;" glyph-name="component_update" d="M561.17 935.617c-12.951-15.715-24.424-32.694-34.173-50.734-3.161 8.077-4.028 16.684-0.999 26.29 3.631 11.503 16.572 19.417 35.172 24.444zM762.24 298.831c16.357-87.018 27.034-121.049 18.805-129.278-10.014-10.004-66.256 22.914-155.14 29.38-64.644 4.701-109.504 13.502-119.886-17.632-10.575-31.726 45.941-62.849 52.886-99.898 7.057-37.61 2.101-61.146-28.207-99.898-38.67-49.47-157.659-46.451-202.152 17.632-23.975 34.54-28.799 88.191-4.701 121.049 25.862 35.264 33.837 45.054 29.39 59.943-7.944 26.545-91.75 24.403-126.933 23.506-112.115-2.855-138.436-20.732-170.426 2.356-41.566 29.992-36.631 96.88-32.908 130.451 5.252 47.369 27.096 124.71 64.644 129.288 27.483 3.355 42.953-39.914 82.276-38.782 33.847 0.969 51.713 29.38 55.232 38.782 18.315 48.848-1.173 125.76-4.701 133.99-11.554 26.973-41.566 47.073-75.219 37.61-37.61-10.585-57.271-71.313-78.748-67-31.165 6.272-26.882 141.475-25.851 173.945 2.876 90.649 9.555 135.509 41.138 165.725 27.024 25.852 99.898 38.783 143.382 38.783 65.113 0 144.085-1.703 146.921-39.965 4.701-63.461-63.472-41.128-45.839-102.244 10.83-37.538 89.445-74.985 162.88-69.549-0.020-0.795-0.020-1.601-0.020-2.397 0-156.986 114.42-287.233 264.411-311.921-4.293-32.603 2.080-88.262 8.77-123.873zM965.577 462.151c-13.278-42.698-41.995-89.823-82.276-84.571-26.565 3.467-50.173 23.159-70.028 41.016 55.507 1.387 107.455 17.092 152.305 43.555zM1002.756 859.674l-0.051-72.986-0.031-26.259c0-4.365-4.722-7.118-8.536-4.966l-86.182 48.501c-3.845 2.182-3.875 7.689-0.082 9.923l24.485 14.399c-8.75 12.023-19.111 22.629-30.726 31.573-26.8 20.671-60.116 32.5-94.993 32.5-12.35 0-24.893-1.499-37.406-4.609-60.83-15.083-104.375-64.287-115.307-122.181l-44.279-0.051c11.401 77.626 68.387 144.565 149.062 164.573 82.317 20.426 165.613-13.828 211.422-79.615l24.016 14.124c3.814 2.233 8.617-0.52 8.617-4.936l-0.010 0.010zM1003.441 707.022c-11.829-77.024-68.601-143.331-148.837-163.268-16.031-3.977-32.225-5.945-48.318-5.945-35.744 0-70.916 9.708-102.325 28.625-24.322 14.644-44.799 33.867-60.586 56.496l-25.607-15.246c-3.814-2.264-8.648 0.459-8.648 4.885l-0.326 72.986-0.112 26.259c-0.031 4.365 4.691 7.149 8.505 5.017l86.427-48.073c3.845-2.152 3.926-7.659 0.133-9.923l-22.741-13.522c12.023-16.521 27.371-30.645 45.421-41.495 35.581-21.426 77.351-27.728 117.622-17.724 60.341 14.97 103.692 63.553 115.032 120.865l44.36 0.061z" />
<glyph unicode="&#xe90b;" glyph-name="config" d="M629.489 700.759h-554.089c-32.932 0-59.668 26.736-59.668 59.668s26.736 59.668 59.668 59.668h554.089c-7.733-18.353-12.009-38.515-12.009-59.668s4.275-41.315 12.009-59.668zM913.351 820.095h34.99c32.932 0 59.668-26.736 59.668-59.668s-26.736-59.668-59.668-59.668h-34.99c7.733 18.353 12.009 38.515 12.009 59.668s-4.276 41.315-12.009 59.668zM250.697 388.38h-175.298c-32.932 0-59.668 26.736-59.668 59.668s26.736 59.669 59.668 59.669h175.298c-7.733-18.354-12.009-38.516-12.009-59.669s4.276-41.314 12.009-59.668zM534.559 507.717h413.783c32.932 0 59.668-26.736 59.668-59.669s-26.736-59.668-59.668-59.668h-413.783c7.733 18.354 12.009 38.516 12.009 59.668s-4.276 41.315-12.009 59.669zM504.222 76.002h-428.821c-32.932 0-59.668 26.736-59.668 59.668s26.736 59.668 59.668 59.668h428.821c-7.733-18.353-12.009-38.515-12.009-59.668s4.276-41.315 12.009-59.668zM788.085 195.338h160.258c32.932 0 59.668-26.736 59.668-59.668s-26.736-59.668-59.668-59.668h-160.258c7.733 18.353 12.009 38.515 12.009 59.668s-4.276 41.315-12.009 59.668zM771.421 885.692c69.137 0 125.268-56.131 125.268-125.268s-56.131-125.268-125.268-125.268c-69.137 0-125.268 56.131-125.268 125.268s56.131 125.268 125.268 125.268zM392.63 573.314c69.137 0 125.268-56.13 125.268-125.268s-56.131-125.268-125.268-125.268-125.268 56.131-125.268 125.268c0 69.138 56.13 125.268 125.268 125.268zM646.155 260.936c69.137 0 125.268-56.131 125.268-125.268s-56.131-125.268-125.268-125.268c-69.137 0-125.268 56.131-125.268 125.268s56.131 125.268 125.268 125.268z" />
<glyph unicode="&#xe90c;" glyph-name="config_file" d="M329.875 936.279c5.577 5.154 12.893 8.016 20.486 8.016h428.295c58.244 0 105.528-47.286 105.528-105.528v-781.27c0-58.243-47.285-105.528-105.528-105.528h-533.062c-58.242 0-105.528 47.285-105.528 105.528v690.197c0 8.42 3.517 16.458 9.701 22.171l180.107 166.413zM586.903 464.498c-4.434 10.526-6.885 22.086-6.885 34.215s2.452 23.691 6.885 34.215h-317.722c-18.885 0-34.215-15.33-34.215-34.215 0-18.883 15.33-34.215 34.215-34.215h317.722zM668.289 570.543c-39.644 0-71.83-32.186-71.83-71.83s32.186-71.83 71.83-71.83c39.644 0 71.83 32.186 71.83 71.83s-32.186 71.83-71.83 71.83zM173.553 742.528l177.607-0.765c1.608-0.007 3.154 0.628 4.292 1.765 1.139 1.137 1.776 2.681 1.772 4.29l-0.49 164.473c-0.007 2.395-1.43 4.56-3.627 5.518-2.195 0.956-4.75 0.524-6.509-1.103l-177.117-163.708c-1.821-1.684-2.427-4.309-1.529-6.622 0.898-2.311 3.121-3.838 5.6-3.849zM532.468 353.806c4.436-10.524 6.887-22.086 6.887-34.215s-2.452-23.689-6.887-34.213h237.27c18.883 0 34.215 15.33 34.215 34.213 0 18.885-15.332 34.215-34.215 34.215h-237.27zM515.073 106.256c-4.434 10.524-6.886 22.085-6.886 34.213 0 12.13 2.452 23.691 6.886 34.215h-245.893c-18.885 0-34.215-15.33-34.215-34.215 0-18.883 15.33-34.213 34.215-34.213h245.893zM749.674 532.928c4.434-10.524 6.886-22.086 6.886-34.215s-2.452-23.689-6.886-34.215h20.064c18.883 0 34.215 15.332 34.215 34.215 0 18.885-15.332 34.215-34.215 34.215h-20.064zM369.699 285.378c-4.434 10.524-6.886 22.084-6.886 34.213s2.452 23.691 6.886 34.215h-100.518c-18.885 0-34.215-15.33-34.215-34.215 0-18.883 15.33-34.213 34.215-34.213h100.518zM677.844 174.685c4.435-10.524 6.887-22.085 6.887-34.215 0-12.128-2.452-23.689-6.887-34.213h91.895c18.883 0 34.215 15.33 34.215 34.213 0 18.885-15.332 34.215-34.215 34.215h-91.895zM596.459 212.3c-39.644 0-71.831-32.186-71.831-71.831s32.186-71.83 71.831-71.83c39.644 0 71.83 32.186 71.83 71.83s-32.186 71.831-71.83 71.831zM451.084 391.422c-39.644 0-71.83-32.186-71.83-71.83s32.186-71.83 71.83-71.83c39.644 0 71.83 32.186 71.83 71.83s-32.186 71.83-71.83 71.83z" />
<glyph unicode="&#xe90d;" glyph-name="config_outline" d="M632.022 807.398c22.674 47.841 71.418 80.958 127.837 80.958s105.164-33.119 127.836-80.958l59.478-0.003c33.351 0 60.427-27.076 60.427-60.427s-27.076-60.427-60.427-60.427l-59.478-0.001c-22.672-47.841-71.417-80.958-127.836-80.958s-105.164 33.118-127.837 80.958l-555.415 0.001c-33.351 0-60.427 27.076-60.427 60.427s27.076 60.427 60.427 60.427l555.415 0.003zM619.488 729.962c-0.671 5.576-1.016 11.252-1.016 17.006 0 5.756 0.345 11.431 1.016 17.008l-542.88 0.001c-9.388 0-17.009-7.621-17.009-17.009 0-9.386 7.621-17.008 17.009-17.008l542.88 0.001zM852.584 715.279c1.739 5.081 5.244 26.269 5.244 31.689 0 11.089-1.843 21.748-5.244 31.69-13.187 38.538-49.741 66.28-92.725 66.28s-79.537-27.742-92.724-66.28c-3.402-9.942-5.245-20.602-5.245-31.69 0-11.087 1.843-21.748 5.245-31.689 13.187-38.539 49.74-66.28 92.724-66.28s79.537 27.741 92.725 66.28zM900.232 763.976c0.669-5.576 1.015-11.251 1.015-17.008 0-3.079-0.784-9.682-1.89-17.006l47.817-0.001c9.388 0 17.009 7.621 17.009 17.008s-7.621 17.009-17.009 17.009l-46.942-0.001zM197.834 508.958c22.673 47.841 71.419 80.958 127.836 80.958 56.419 0 105.164-33.118 127.838-80.958l493.666-0.001c33.351 0 60.427-27.076 60.427-60.427s-27.076-60.428-60.427-60.428l-493.666-0.002c-22.674-47.839-71.418-80.958-127.838-80.958-56.418 0-105.164 33.119-127.836 80.958l-121.227 0.002c-33.351 0-60.427 27.076-60.427 60.428s27.076 60.427 60.427 60.427l121.227 0.001zM185.299 431.521c-0.671 5.576-1.016 11.252-1.016 17.008 0 5.755 0.345 11.43 1.016 17.006l-108.693 0.003c-9.388 0-17.009-7.621-17.009-17.009s7.621-17.009 17.009-17.009l108.693 0.001zM418.391 416.825c0.001 0.005 0.004 0.010 0.005 0.014 1.739 5.083 5.244 26.27 5.244 31.69 0 11.087-1.843 21.748-5.245 31.689-13.187 38.539-49.74 66.28-92.724 66.28-42.978 0-79.528-27.734-92.719-66.265-0.001-0.004-0.004-0.009-0.005-0.014-3.401-9.941-5.244-20.602-5.244-31.689s1.843-21.749 5.244-31.69c0.001-0.004 0.004-0.009 0.005-0.014 13.191-38.531 49.741-66.265 92.719-66.265 42.98 0 79.53 27.734 92.72 66.265zM466.042 465.535c0.671-5.576 1.016-11.251 1.016-17.006 0-3.079-0.786-9.683-1.89-17.006l482.004-0.003c9.388 0 17.009 7.621 17.009 17.009s-7.621 17.009-17.009 17.009l-481.13-0.003zM469.201 210.52c22.674 47.839 71.419 80.958 127.838 80.958s105.164-33.119 127.836-80.958l222.298-0.002c33.351 0 60.427-27.076 60.427-60.428s-27.076-60.427-60.427-60.427l-222.298-0.001c-22.673-47.841-71.418-80.958-127.836-80.958s-105.164 33.118-127.838 80.958l-392.594 0.001c-33.351 0-60.427 27.076-60.427 60.427s27.076 60.428 60.427 60.428l392.594 0.002zM456.666 133.084c-0.671 5.576-1.016 11.251-1.016 17.006s0.345 11.431 1.016 17.008l-380.061 0.001c-9.388 0-17.009-7.621-17.009-17.009s7.621-17.009 17.009-17.009l380.061 0.003zM689.763 118.401c1.739 5.081 5.244 26.269 5.244 31.689 0 11.087-1.843 21.748-5.244 31.689-13.187 38.539-49.741 66.281-92.724 66.281-42.978 0-79.529-27.734-92.72-66.265-0.001-0.005-0.002-0.010-0.005-0.014-3.401-9.941-5.244-20.603-5.244-31.69s1.843-21.748 5.245-31.689c13.187-38.539 49.74-66.28 92.724-66.28 42.983 0 79.537 27.741 92.724 66.28zM737.411 167.097c0.669-5.576 1.015-11.252 1.015-17.008 0-3.079-0.784-9.682-1.89-17.006l210.638-0.003c9.388 0 17.009 7.621 17.009 17.009s-7.621 17.009-17.009 17.009l-209.762-0.001z" />
<glyph unicode="&#xe90e;" glyph-name="config_table" d="M31.007 542.166h242.94v-589.381h-166.694c-42.111 0-76.246 34.135-76.246 76.246v513.134zM587.711 441.003v-488.218h-258.205v589.381h146.041c29.079-41.703 67.465-76.429 112.163-101.161zM444.26 597.726h-413.251v134.019c0 42.111 34.135 76.246 76.246 76.246h317.307c-5.657-24.313-8.652-49.657-8.652-75.688 0-47.896 10.122-93.431 28.349-134.577zM886.213 429.219v-400.187c0-42.111-34.135-76.246-76.246-76.246h-166.694v463.798c33.116-11.056 68.56-17.046 105.401-17.046 49.045 0 95.622 10.616 137.539 29.68v0.001zM802.96 852.436h-278.206c-16.535 0-29.959 13.29-29.959 29.66s13.424 29.661 29.959 29.661h278.206c-3.883-9.123-6.030-19.146-6.030-29.661s2.147-20.537 6.030-29.66zM945.485 911.757h17.569c16.535 0 29.959-13.291 29.959-29.661s-13.424-29.66-29.959-29.66h-17.569c3.883 9.123 6.030 19.145 6.030 29.66s-2.147 20.537-6.030 29.661zM612.772 697.155h-88.016c-16.535 0-29.959 13.29-29.959 29.661s13.424 29.66 29.959 29.66h88.016c-3.883-9.123-6.030-19.146-6.030-29.66s2.147-20.537 6.030-29.661zM755.297 756.476h207.758c16.535 0 29.959-13.291 29.959-29.66s-13.424-29.661-29.959-29.661h-207.758c3.883 9.123 6.029 19.146 6.029 29.661s-2.147 20.537-6.029 29.66zM740.065 541.875h-215.309c-16.535 0-29.959 13.291-29.959 29.661s13.424 29.66 29.959 29.66h215.309c-3.883-9.123-6.030-19.145-6.030-29.66s2.147-20.537 6.030-29.661zM882.59 601.196h80.465c16.535 0 29.959-13.29 29.959-29.66s-13.424-29.661-29.959-29.661h-80.465c3.883 9.123 6.030 19.146 6.030 29.661s-2.147 20.537-6.030 29.66zM874.224 944.367c34.713 0 62.896-27.902 62.896-62.27s-28.183-62.27-62.896-62.27c-34.713 0-62.896 27.902-62.896 62.27s28.183 62.27 62.896 62.27zM684.034 789.087c34.713 0 62.896-27.902 62.896-62.27s-28.183-62.27-62.896-62.27c-34.713 0-62.896 27.902-62.896 62.27s28.183 62.27 62.896 62.27zM811.328 633.806c34.713 0 62.896-27.902 62.896-62.27s-28.183-62.27-62.896-62.27c-34.714 0-62.896 27.902-62.896 62.27s28.183 62.27 62.896 62.27z" />
<glyph unicode="&#xe90f;" glyph-name="copy_url" d="M414.004 270.198h391.43v580.943c0 26.545-21.505 48.050-48.050 48.050h-84.849v-92.476c0-14.887-12.086-26.973-26.973-26.973h-405.328c-14.897 0-26.973 12.086-26.973 26.973v92.476h-83.169c-26.545 0-48.050-21.505-48.050-48.050v-851.040c0-26.545 21.505-48.050 48.050-48.050h627.294c20.863 0 38.622 13.288 45.261 31.871h-388.639c-42.348 0-76.683 34.335-76.683 76.683v132.9c0 42.359 34.335 76.693 76.683 76.693zM208.219 657.249h471.035v-42.053h-471.035v42.053zM208.219 507.528h471.035v-42.063h-471.035v42.063zM208.219 315.743v42.053h471.035v-42.053h-471.035zM644.798 928.214v-110.075c0-8.777-7.126-15.903-15.903-15.903h-371.984c-8.777 0-15.903 7.126-15.903 15.903v110.075c0 8.777 7.126 15.903 15.903 15.903h371.984c8.777 0 15.903-7.126 15.903-15.903zM841.033 233.868h-160.423v-40.078h160.423c34.070 0 61.766-27.706 61.766-61.766v-10.131c0-34.070-27.696-61.766-61.766-61.766h-160.423v-40.078h160.423c56.166 0 101.844 45.678 101.844 101.844v10.131c0 56.156-45.678 101.844-101.844 101.844zM365.954 132.025v-10.131c0-56.166 45.688-101.844 101.844-101.844h160.423v40.078h-160.423c-34.050 0-61.766 27.696-61.766 61.766v10.131c0 34.050 27.706 61.766 61.766 61.766h160.423v40.078h-160.423c-56.156 0-101.844-45.688-101.844-101.844zM789.55 106.456h-270.259c-11.068 0-20.039 8.97-20.039 20.039s8.971 20.039 20.039 20.039h270.259c11.068 0 20.039-8.971 20.039-20.039s-8.971-20.039-20.039-20.039z" />
<glyph unicode="&#xe910;" glyph-name="database" d="M511.978 795.402c298.251 0 468.712-61.008 491.617-113.46 1.663-1.796 2.945-3.774 2.945-5.998v-465.249c0-2.152-1.048-2.389-2.508-5.998-24.134-59.629-232.74-104.050-492.002-104.050-259.855 0-457.184 50.703-492.328 104.486-1.215 1.86-2.29 3.581-2.29 5.562v465.357c1.137 2.604 1.093 4.224 2.945 5.889 22.888 52.452 193.369 113.46 491.62 113.46h0.002zM512.031 763.915c-268.144 0-455.028-50.699-455.028-94.080s186.884-93.971 455.028-93.971c268.143 0 454.919 50.59 454.919 93.971s-186.775 94.080-454.919 94.080zM57.002 610.536v-87.395c0-1.968 0.796-3.948 1.527-5.89 0.552-1.48 1.322-2.884 2.29-4.362 0.809-1.21 1.769-2.506 2.836-3.708 1.345-1.504 2.838-2.975 4.581-4.472 1.306-1.138 2.82-2.255 4.363-3.381 2.196-1.615 4.547-3.209 7.199-4.799 1.602-0.979 3.363-1.983 5.126-2.945 3.244-1.748 6.583-3.406 10.362-5.126 1.622-0.74 3.423-1.551 5.126-2.291 4.471-1.909 9.164-3.705 14.288-5.562 1.346-0.499 2.761-1.047 4.144-1.527 5.895-2.068 12.003-4.126 18.651-6.108 0.848-0.237 1.767-0.398 2.618-0.655 7.398-2.164 15.161-4.38 23.449-6.435 0.235-0.067 0.524-0.060 0.764-0.109 44.925-11.089 102.417-20.389 169.381-26.503 0.336-0.040 0.642-0.085 0.982-0.109 13.017-1.174 26.319-2.238 40.028-3.163 2.235-0.145 4.616-0.291 6.871-0.436 11.968-0.768 24.075-1.519 36.537-2.072 5.698-0.24 11.655-0.344 17.451-0.545 9.376-0.336 18.743-0.672 28.358-0.873 15.727-0.335 31.739-0.546 48.099-0.546s32.392 0.124 48.099 0.436c9.614 0.204 18.871 0.63 28.248 0.982 5.797 0.204 11.754 0.288 17.451 0.545 12.462 0.565 24.569 1.296 36.537 2.072 2.255 0.145 4.636 0.182 6.871 0.327 13.709 0.93 27.011 1.981 40.028 3.163 0.327 0.040 0.635 0.085 0.982 0.109 66.961 6.113 124.456 15.524 169.381 26.612 0.236 0.067 0.529 0.048 0.764 0.109 8.289 2.055 16.030 4.162 23.449 6.326 0.877 0.237 1.759 0.507 2.618 0.764 6.647 1.981 12.755 4.052 18.65 6.108 1.404 0.48 2.796 0.915 4.145 1.418 5.123 1.859 9.817 3.766 14.288 5.672 1.72 0.74 3.503 1.442 5.126 2.182 3.779 1.724 7.118 3.478 10.362 5.235 1.781 0.966 3.522 1.983 5.126 2.945 2.649 1.589 5.003 3.081 7.199 4.69 1.542 1.125 3.051 2.345 4.362 3.49 1.759 1.504 3.25 2.974 4.581 4.472 1.075 1.21 2.051 2.396 2.836 3.599 0.964 1.491 1.743 2.993 2.29 4.472 0.766 1.981 1.527 3.921 1.527 5.89v87.395c-2.374-1.332-5.064-2.614-7.635-3.927-1.443-0.74-2.775-1.442-4.253-2.181-5.935-2.898-12.362-5.732-19.305-8.507-1.443-0.575-3.084-1.172-4.581-1.745-5.816-2.251-11.964-4.404-18.432-6.544-2.374-0.788-4.726-1.623-7.198-2.4-7.221-2.272-14.823-4.502-22.795-6.653-1.307-0.369-2.487-0.741-3.818-1.091-9.258-2.432-19.092-4.732-29.339-6.98-2.828-0.626-5.816-1.246-8.725-1.854-8.151-1.698-16.58-3.228-25.304-4.799-3.146-0.554-6.264-1.191-9.489-1.745-11.572-1.97-23.559-3.824-36.101-5.562-1.721-0.22-3.501-0.416-5.235-0.655-11.058-1.491-22.567-2.96-34.356-4.253-3.996-0.443-8.032-0.774-12.107-1.2-11.236-1.137-22.834-2.201-34.683-3.163-3.047-0.239-5.858-0.524-8.944-0.764-14.717-1.093-30.051-2.041-45.699-2.836-3.877-0.207-7.862-0.367-11.779-0.545-12.522-0.552-25.296-0.94-38.392-1.309-4.788-0.145-9.55-0.33-14.397-0.436-17.052-0.351-34.35-0.654-52.352-0.654s-35.41 0.303-52.461 0.654c-4.866 0.112-9.629 0.302-14.397 0.436-13.096 0.35-25.87 0.756-38.392 1.309-3.917 0.168-7.922 0.344-11.779 0.545-15.648 0.807-30.872 1.728-45.59 2.836-3.086 0.239-6.006 0.524-9.053 0.764-11.849 0.953-23.467 2.018-34.683 3.163-4.075 0.424-8.111 0.755-12.107 1.2-11.79 1.295-23.189 2.756-34.247 4.253-1.74 0.22-3.623 0.416-5.344 0.655-12.542 1.737-24.529 3.581-36.101 5.562-3.224 0.536-6.343 1.191-9.489 1.745-8.724 1.576-17.153 3.1-25.304 4.799-2.908 0.626-5.788 1.228-8.616 1.854-10.247 2.249-20.17 4.547-29.448 6.98-1.326 0.35-2.512 0.74-3.818 1.091-7.972 2.139-15.465 4.378-22.686 6.653-2.472 0.788-4.914 1.604-7.308 2.4-6.469 2.152-12.617 4.306-18.432 6.544-1.504 0.575-3.137 1.172-4.581 1.745-6.943 2.776-13.371 5.621-19.305 8.507-1.504 0.74-2.829 1.442-4.253 2.181-2.571 1.321-5.261 2.596-7.635 3.927zM57.002 463.84v-87.395c0-1.968 0.796-3.947 1.527-5.889 0.552-1.48 1.322-2.993 2.29-4.472 0.809-1.21 1.769-2.378 2.836-3.599 1.345-1.504 2.838-2.975 4.581-4.472 1.306-1.138 2.82-2.255 4.363-3.381 2.196-1.615 4.547-3.209 7.199-4.799 1.602-0.98 3.363-1.983 5.126-2.945 3.244-1.748 6.583-3.515 10.362-5.235 1.622-0.74 3.423-1.442 5.126-2.181 4.471-1.909 9.164-3.814 14.288-5.671 1.346-0.499 2.761-0.938 4.144-1.418 5.895-2.068 12.003-4.126 18.651-6.108 0.848-0.237 1.767-0.506 2.618-0.764 7.398-2.164 15.27-4.27 23.558-6.326 0.235-0.067 0.415-0.060 0.655-0.109 44.925-11.089 102.419-20.5 169.381-26.613 0.336-0.041 0.642 0.024 0.982 0 13.017-1.174 26.319-2.347 40.028-3.272 2.235-0.145 4.616-0.182 6.871-0.327 11.968-0.768 24.075-1.519 36.537-2.072 5.698-0.237 11.655-0.344 17.451-0.545 9.376-0.334 18.743-0.781 28.358-0.981 15.727-0.335 31.739-0.546 48.099-0.546s32.392 0.233 48.099 0.546c9.614 0.204 18.871 0.629 28.248 0.981 5.797 0.205 11.754 0.288 17.451 0.545 12.462 0.565 24.569 1.296 36.537 2.072 2.255 0.145 4.636 0.182 6.871 0.327 13.709 0.93 27.011 1.979 40.028 3.163 0.327 0.040 0.635 0.085 0.982 0.109 66.961 6.113 124.456 15.415 169.381 26.503 0.236 0.067 0.529 0.157 0.764 0.218 8.289 2.053 16.030 4.162 23.449 6.326 0.877 0.237 1.759 0.507 2.618 0.764 6.647 1.981 12.755 4.052 18.65 6.108 1.404 0.48 2.796 0.915 4.145 1.418 5.123 1.859 9.817 3.766 14.288 5.671 1.72 0.74 3.503 1.442 5.126 2.181 3.779 1.724 7.118 3.478 10.362 5.235 1.781 0.967 3.522 1.874 5.126 2.836 2.649 1.589 5.003 3.191 7.199 4.799 1.542 1.126 3.051 2.236 4.362 3.381 1.759 1.504 3.25 3.084 4.581 4.581 1.075 1.21 2.051 2.378 2.836 3.599 0.964 1.491 1.743 2.993 2.29 4.472 0.766 1.981 1.527 3.923 1.527 5.889v87.395c-5.063-2.823-10.386-5.598-16.36-8.289-74.835-34.626-223.49-61.514-438.56-61.514-215.979 0-365.020 27.117-439.541 61.95-4.946 2.251-9.321 4.525-13.634 6.871-0.577 0.317-1.298 0.669-1.854 0.981h0.002zM57.002 317.145v-89.903c0.255-0.519 0.496-1.083 0.654-1.636 11.217-42.292 196.497-87.581 454.373-87.581s443.047 45.289 454.264 87.581c0 0 0.381 1.1 0.655 1.636v89.903c-5.063-2.823-10.495-5.598-16.469-8.289-74.835-34.626-223.381-61.514-438.448-61.514-215.979 0-365.020 27.117-439.541 61.95-4.946 2.251-9.321 4.525-13.634 6.871-0.575 0.317-1.298 0.669-1.854 0.982h-0.001z" />
<glyph unicode="&#xe911;" glyph-name="description" horiz-adv-x="1023" d="M611.093 947.277h-399.355c-55.083 0-99.408-44.755-99.408-99.839v-798.708c-0.43-55.083 43.895-99.839 98.978-99.839h599.461c55.083 0 99.839 44.755 99.839 99.839v599.031l-299.516 299.516zM710.932 148.57h-399.355v99.839h399.355v-99.839zM710.932 348.247h-399.355v99.838h399.355v-99.838zM561.174 597.844v274.555l274.555-274.555h-274.555z" />
<glyph unicode="&#xe912;" glyph-name="docker" horiz-adv-x="1023" d="M1000.91 535.228c-2.762 2.275-27.787 21.287-81.493 21.287-13.894 0-28.275-1.381-42.168-3.738-10.156 70.849-68.98 105.136-71.337 106.924l-14.381 8.369-9.262-13.406c-11.537-18.037-20.394-38.431-25.431-59.23-9.75-40.299-3.738-78.243 16.656-110.661-24.537-13.894-64.349-17.144-72.718-17.631h-657.547c-17.143 0-31.037-13.894-31.037-31.037-0.894-57.443 8.775-114.805 28.681-168.998 22.668-59.23 56.468-103.267 100.017-130.079 49.074-30.062 129.186-47.206 219.453-47.206 40.706 0 81.493 3.738 121.792 11.131 56.062 10.156 109.767 29.656 159.248 57.849 40.787 23.644 77.349 53.706 108.386 88.886 52.324 58.824 83.361 124.554 106.030 182.891h9.262c56.955 0 92.136 22.668 111.555 42.168 13 12.025 22.668 26.894 29.656 43.55l4.144 12.025-9.506 6.906zM593.935 486.154h87.992c4.144 0 7.881 3.25 7.881 7.881v78.73c0 4.144-3.25 7.881-7.881 7.881h-87.992c-4.144 0-7.881-3.25-7.881-7.881v-78.73c0.488-4.631 3.737-7.881 7.881-7.881zM471.249 711.619h87.993c4.144 0 7.881 3.25 7.881 7.881v78.73c0 4.144-3.737 7.881-7.881 7.881h-87.993c-4.144 0-7.881-3.25-7.881-7.881v-78.73c0-4.144 3.656-7.881 7.881-7.881zM471.249 598.683h87.993c4.144 0 7.881 3.738 7.881 7.881v78.73c0 4.144-3.737 7.881-7.881 7.881h-87.993c-4.144 0-7.881-3.25-7.881-7.881v-78.73c0-4.225 3.656-7.881 7.881-7.881zM349.457 598.683h87.992c4.144 0 7.881 3.738 7.881 7.881v78.73c0 4.144-3.25 7.881-7.881 7.881h-87.992c-4.144 0-7.881-3.25-7.881-7.881v-78.73c0-4.225 3.25-7.881 7.881-7.881zM225.796 598.683h87.992c4.144 0 7.881 3.738 7.881 7.881v78.73c0 4.144-3.25 7.881-7.881 7.881h-87.992c-4.144 0-7.881-3.25-7.881-7.881v-78.73c0.487-4.225 3.737-7.881 7.881-7.881zM471.249 486.154h87.993c4.144 0 7.881 3.25 7.881 7.881v78.73c0 4.144-3.25 7.881-7.881 7.881h-87.993c-4.144 0-7.881-3.25-7.881-7.881v-78.73c0-4.631 3.656-7.881 7.881-7.881zM349.457 486.154h87.992c4.144 0 7.881 3.25 7.881 7.881v78.73c0 4.144-3.25 7.881-7.881 7.881h-87.992c-4.144 0-7.881-3.25-7.881-7.881v-78.73c0-4.631 3.25-7.881 7.881-7.881zM225.796 486.154h87.992c4.144 0 7.881 3.25 7.881 7.881v78.73c0 4.144-3.25 7.881-7.881 7.881h-87.992c-4.144 0-7.881-3.25-7.881-7.881v-78.73c0.487-4.631 3.737-7.881 7.881-7.881zM104.492 486.154h87.993c4.144 0 7.881 3.25 7.881 7.881v78.73c0 4.144-3.25 7.881-7.881 7.881h-87.993c-4.144 0-7.881-3.25-7.881-7.881v-78.73c0.488-4.631 3.738-7.881 7.881-7.881z" />
<glyph unicode="&#xe913;" glyph-name="dynamic_library" d="M132.526 112.94l-1.778-61.84c0-54.564 44.147-99.206 98.711-99.206h595.734c54.564 0 97.873 44.659 99.206 99.206l1.512 61.84zM924.399 442.903v203.437l-297.62 297.62h-396.826c-54.563 0-98.71-44.643-98.71-99.206l-0.23-401.849zM577.175 596.739v272.817l272.817-272.817h-272.817zM25.92 425.907v-298.686h973.077v298.686h-973.077zM89.959 398.877h60.066c23.467 0 42.122-1.69 55.901-5.135 13.886-3.337 25.587-7.933 35.168-13.854 16.362-10.226 29.118-23.876 38.268-40.884s13.757-37.192 13.757-60.551c0-21.852-4.855-41.627-14.435-59.388-9.473-17.762-22.057-31.573-37.881-41.369-10.98-6.782-23.252-11.712-36.815-14.726-13.456-3.014-31.217-4.456-53.285-4.456h-60.745v240.363zM345.048 398.877h31.971v-211.977h120.133v-28.386h-152.104v240.363zM529.122 398.877h31.971v-211.977h120.133v-28.386h-152.104v240.363zM121.931 371.46v-185.528h30.033c15.393 0 28.795 1.13 40.206 3.391 11.518 2.26 22.1 6.459 31.68 12.594 11.949 7.643 20.819 17.74 26.739 30.227 6.028 12.487 9.107 28.063 9.107 46.794 0 18.838-3.316 34.748-9.882 47.666s-16.33 23.090-29.355 30.517c-9.473 5.382-19.57 9.096-30.227 11.141-10.657 2.153-23.413 3.197-38.268 3.197h-30.033z" />
<glyph unicode="&#xe914;" glyph-name="dynamic_library_member_function" d="M118.908 109.798l-1.76-59.974c0-52.941 43.845-96.242 98.071-96.242h591.863c54.205 0 97.241 43.321 98.556 96.242l1.517 59.974h-788.247zM267.612 315.391c-6.13 11.754-15.236 21.018-27.375 27.794-8.842 4.899-18.25 8.277-28.205 10.134-9.935 1.975-21.832 2.924-35.691 2.924h-28.003v-168.938h28.003c14.365 0 26.87 1.027 37.512 3.082 10.744 2.054 20.597 5.887 29.541 11.477 11.148 6.953 19.424 16.159 24.927 27.518 5.625 11.378 8.498 25.562 8.498 42.61s-3.096 31.646-9.206 43.4zM267.612 315.391c-6.13 11.754-15.236 21.018-27.375 27.794-8.842 4.899-18.25 8.277-28.205 10.134-9.935 1.975-21.832 2.924-35.691 2.924h-28.003v-168.938h28.003c14.365 0 26.87 1.027 37.512 3.082 10.744 2.054 20.597 5.887 29.541 11.477 11.148 6.953 19.424 16.159 24.927 27.518 5.625 11.378 8.498 25.562 8.498 42.61s-3.096 31.646-9.206 43.4zM267.612 315.391c-6.13 11.754-15.236 21.018-27.375 27.794-8.842 4.899-18.25 8.277-28.205 10.134-9.935 1.975-21.832 2.924-35.691 2.924h-28.003v-168.938h28.003c14.365 0 26.87 1.027 37.512 3.082 10.744 2.054 20.597 5.887 29.541 11.477 11.148 6.953 19.424 16.159 24.927 27.518 5.625 11.378 8.498 25.562 8.498 42.61s-3.096 31.646-9.206 43.4zM267.612 315.391c-6.13 11.754-15.236 21.018-27.375 27.794-8.842 4.899-18.25 8.277-28.205 10.134-9.935 1.975-21.832 2.924-35.691 2.924h-28.003v-168.938h28.003c14.365 0 26.87 1.027 37.512 3.082 10.744 2.054 20.597 5.887 29.541 11.477 11.148 6.953 19.424 16.159 24.927 27.518 5.625 11.378 8.498 25.562 8.498 42.61s-3.096 31.646-9.206 43.4zM58.805 405.806v-271.955h907.523v271.955h-907.523zM294.543 217.469c-8.842-16.179-20.577-28.742-35.348-37.671-10.238-6.163-21.67-10.648-34.316-13.393-12.565-2.746-29.116-4.069-49.713-4.069h-56.653v218.857h56.026c21.892 0 39.293-1.521 52.141-4.662 12.949-3.042 23.855-7.23 32.798-12.623 15.256-9.304 27.153-21.73 35.691-37.217s12.828-33.878 12.828-55.134c0-19.912-4.532-37.908-13.455-54.087zM498.292 162.335h-141.855v218.857h29.804v-192.999h112.052v-25.858zM669.951 162.335h-141.855v218.857h29.824v-192.999h112.032v-25.858zM240.237 343.185c-8.842 4.899-18.25 8.277-28.205 10.134-9.935 1.975-21.832 2.924-35.691 2.924h-28.003v-168.938h28.003c14.365 0 26.87 1.027 37.512 3.082 10.744 2.054 20.597 5.887 29.541 11.477 11.148 6.953 19.424 16.159 24.927 27.518 5.625 11.378 8.498 25.562 8.498 42.61s-3.096 31.646-9.206 43.4c-6.13 11.754-15.236 21.018-27.375 27.794zM267.612 315.391c-6.13 11.754-15.236 21.018-27.375 27.794-8.842 4.899-18.25 8.277-28.205 10.134-9.935 1.975-21.832 2.924-35.691 2.924h-28.003v-168.938h28.003c14.365 0 26.87 1.027 37.512 3.082 10.744 2.054 20.597 5.887 29.541 11.477 11.148 6.953 19.424 16.159 24.927 27.518 5.625 11.378 8.498 25.562 8.498 42.61s-3.096 31.646-9.206 43.4zM267.612 315.391c-6.13 11.754-15.236 21.018-27.375 27.794-8.842 4.899-18.25 8.277-28.205 10.134-9.935 1.975-21.832 2.924-35.691 2.924h-28.003v-168.938h28.003c14.365 0 26.87 1.027 37.512 3.082 10.744 2.054 20.597 5.887 29.541 11.477 11.148 6.953 19.424 16.159 24.927 27.518 5.625 11.378 8.498 25.562 8.498 42.61s-3.096 31.646-9.206 43.4zM905.637 429.855h-35.483c12.22 4.972 24.065 10.648 35.483 16.976v-16.976zM215.703 915.888h267.733c-41.088-53.339-65.449-119.643-65.449-191.458 0-132.659 83.126-246.511 201.255-294.574h-501.834l0.223 389.79c0 52.941 43.866 96.242 98.071 96.242zM938.319 831.592l-65.116 37.597c0.028-0.311 0.028-0.651 0.028-0.963 0-9.484-4.586-16.902-12.853-21.262l57.557-33.237-138.414-79.895c-0.141-9.088-0.34-19.251-0.594-30.010l151.833 87.652v-206.304c0-3.766-2.038-7.276-5.294-9.173l-178.701-103.166v45.298c-7.361-10.73-15.996-19.733-25.65-26.783v-18.544l-15.826 9.145c-11.211-5.266-23.442-8.239-36.38-8.607l46.912-27.094c5.606-3.228 11.863-4.841 18.119-4.841s12.514 1.614 18.119 4.841l186.26 107.526c11.155 6.455 18.091 18.459 18.091 31.397v215.024c0 12.938-6.936 24.942-18.091 31.397zM537.12 585.171v206.304l158.855-91.728c0.283 9.626 0.566 19.393 0.849 29.189l-146.851 84.792 178.673 103.166c3.284 1.897 7.304 1.897 10.588 0l12.429-7.163c9.173 5.917 19.365 9.994 30.378 12.089l-29.982 17.298c-11.183 6.455-25.055 6.455-36.238 0l-186.26-107.526c-11.155-6.455-18.091-18.459-18.091-31.397v-215.024c0-12.938 6.936-24.942 18.091-31.397l77.29-44.619c-0.566 2.633-0.849 5.379-0.849 8.21 0 7.078 3.114 13.306 8.21 17.157l-71.826 41.476c-3.228 1.897-5.266 5.407-5.266 9.173zM620.469 528.518c-3.709-2.123-6.002-6.228-6.002-11.155 0-21.29 20.611-35.616 51.3-35.616 46.204 0 81.791 33.945 95.182 90.823 8.182 34.228 9.994 147.473 10.334 181.362l0.056 4.19h4.19c22.508 0 37.513 0.906 45.78 2.774 5.775 8.89 9.711 25.508 10.050 42.665-14.467-2.944-31.595-4.275-55.179-4.275h-4.445l0.198 4.445c2.661 57.897 30.35 64.154 42.127 64.154 12.57 0 27.745-6.172 37.796-15.232 6.285 1.869 12.825 6.087 12.825 15.571 0 22.083-26.697 46.714-65.003 46.714-51.045 0-86.463-43.062-92.465-112.424l-0.34-3.879h-3.907c-12.57 0-30.152 1.274-36.607 1.784-2.435-3.454-3.567-7.276-3.567-11.919 0-9.116 19.478-27.264 39.409-29.755l3.822-0.481-0.17-6.851c-1.925-74.062-3.935-150.644-9.796-185.099-7.078-45.128-31.029-51.895-44.703-51.895s-23.753 4.841-30.916 14.099h0.028z" />
<glyph unicode="&#xe915;" glyph-name="dynamic_library_object" d="M117.68 110.065l-1.763-60.076c0-53.031 43.92-96.406 98.238-96.406h592.872c54.297 0 97.407 43.395 98.724 96.406l1.52 60.076h-789.59zM266.638 316.007c-6.141 11.774-15.262 21.054-27.422 27.841-8.857 4.907-18.282 8.291-28.253 10.151-9.951 1.979-21.869 2.929-35.752 2.929h-28.051v-169.226h28.051c14.39 0 26.915 1.029 37.576 3.087 10.762 2.058 20.633 5.897 29.591 11.497 11.168 6.965 19.457 16.187 24.97 27.565 5.635 11.398 8.513 25.605 8.513 42.682s-3.101 31.7-9.222 43.474zM266.638 316.007c-6.141 11.774-15.262 21.054-27.422 27.841-8.857 4.907-18.282 8.291-28.253 10.151-9.951 1.979-21.869 2.929-35.752 2.929h-28.051v-169.226h28.051c14.39 0 26.915 1.029 37.576 3.087 10.762 2.058 20.633 5.897 29.591 11.497 11.168 6.965 19.457 16.187 24.97 27.565 5.635 11.398 8.513 25.605 8.513 42.682s-3.101 31.7-9.222 43.474zM266.638 316.007c-6.141 11.774-15.262 21.054-27.422 27.841-8.857 4.907-18.282 8.291-28.253 10.151-9.951 1.979-21.869 2.929-35.752 2.929h-28.051v-169.226h28.051c14.39 0 26.915 1.029 37.576 3.087 10.762 2.058 20.633 5.897 29.591 11.497 11.168 6.965 19.457 16.187 24.97 27.565 5.635 11.398 8.513 25.605 8.513 42.682s-3.101 31.7-9.222 43.474zM266.638 316.007c-6.141 11.774-15.262 21.054-27.422 27.841-8.857 4.907-18.282 8.291-28.253 10.151-9.951 1.979-21.869 2.929-35.752 2.929h-28.051v-169.226h28.051c14.39 0 26.915 1.029 37.576 3.087 10.762 2.058 20.633 5.897 29.591 11.497 11.168 6.965 19.457 16.187 24.97 27.565 5.635 11.398 8.513 25.605 8.513 42.682s-3.101 31.7-9.222 43.474zM57.475 406.576v-272.419h909.069v272.419h-909.069zM293.614 217.918c-8.857-16.206-20.612-28.791-35.408-37.736-10.255-6.174-21.707-10.666-34.374-13.416-12.586-2.751-29.165-4.076-49.798-4.076h-56.75v219.23h56.121c21.93 0 39.36-1.524 52.23-4.67 12.971-3.047 23.896-7.242 32.854-12.644 15.282-9.32 27.199-21.767 35.752-37.28s12.85-33.936 12.85-55.228c0-19.946-4.54-37.973-13.478-54.179zM497.71 162.69h-142.097v219.23h29.854v-193.328h112.243v-25.902zM669.662 162.69h-142.097v219.23h29.875v-193.328h112.222v-25.902zM239.216 343.848c-8.857 4.907-18.282 8.291-28.253 10.151-9.951 1.979-21.869 2.929-35.752 2.929h-28.051v-169.226h28.051c14.39 0 26.915 1.029 37.576 3.087 10.762 2.058 20.633 5.897 29.591 11.497 11.168 6.965 19.457 16.187 24.97 27.565 5.635 11.398 8.513 25.605 8.513 42.682s-3.101 31.7-9.222 43.474c-6.141 11.774-15.262 21.054-27.422 27.841zM266.638 316.007c-6.141 11.774-15.262 21.054-27.422 27.841-8.857 4.907-18.282 8.291-28.253 10.151-9.951 1.979-21.869 2.929-35.752 2.929h-28.051v-169.226h28.051c14.39 0 26.915 1.029 37.576 3.087 10.762 2.058 20.633 5.897 29.591 11.497 11.168 6.965 19.457 16.187 24.97 27.565 5.635 11.398 8.513 25.605 8.513 42.682s-3.101 31.7-9.222 43.474zM266.638 316.007c-6.141 11.774-15.262 21.054-27.422 27.841-8.857 4.907-18.282 8.291-28.253 10.151-9.951 1.979-21.869 2.929-35.752 2.929h-28.051v-169.226h28.051c14.39 0 26.915 1.029 37.576 3.087 10.762 2.058 20.633 5.897 29.591 11.497 11.168 6.965 19.457 16.187 24.97 27.565 5.635 11.398 8.513 25.605 8.513 42.682s-3.101 31.7-9.222 43.474zM905.75 430.667h-35.543c12.241 4.98 24.106 10.666 35.543 17.005v-17.005zM214.64 917.528h268.189c-41.158-53.429-65.56-119.847-65.56-191.784 0-132.885 83.268-246.934 201.598-295.077h-502.688l0.223 390.453c0 53.031 43.94 96.406 98.238 96.406zM938.488 833.088l-186.577 107.71c-11.202 6.466-25.098 6.466-36.3 0l-186.577-107.71c-11.174-6.466-18.122-18.49-18.122-31.451v-215.391c0-12.96 6.948-24.985 18.122-31.451l186.577-107.71c5.615-3.233 11.883-4.849 18.15-4.849s12.535 1.616 18.15 4.849l186.577 107.71c11.174 6.466 18.122 18.49 18.122 31.451v215.391c0 12.96-6.948 24.985-18.122 31.451zM720.914 473.688l-179.034 103.37c-3.233 1.9-5.275 5.417-5.275 9.189v206.656l184.309-106.405v-212.81zM549.481 815.193l178.977 103.342c3.29 1.9 7.317 1.9 10.606 0l179.006-103.342-184.309-106.405-184.28 106.405zM930.916 586.246c0-3.772-2.042-7.288-5.303-9.189l-179.005-103.342v212.781l184.308 106.405v-206.656z" />
<glyph unicode="&#xe916;" glyph-name="force_node" d="M67.566 546.791c0 27.238 22.194 49.432 49.432 49.432h247.162v247.162c0 27.238 22.194 49.432 49.432 49.432s49.432-22.194 49.432-49.432v-346.027h-346.027c-27.238 0-49.432 22.093-49.432 49.432zM401.285 629.715l-300.225 299.518c-18.058 18.159-48.524 17.251-67.793-2.118s-20.177-49.634-2.018-67.793l300.225-299.418c18.159-18.159 48.524-17.251 67.793 2.119 19.268 19.168 20.176 49.533 2.018 67.692zM957.345 546.791c0 27.238-22.194 49.432-49.432 49.432h-247.162v247.162c0 27.238-22.194 49.432-49.432 49.432s-49.432-22.194-49.432-49.432v-346.027h346.027c27.339 0 49.432 22.093 49.432 49.432zM623.729 629.715l300.125 299.518c18.159 18.159 48.524 17.251 67.793-2.118s20.177-49.634 2.119-67.793l-300.125-299.518c-18.159-18.159-48.524-17.251-67.793 2.118-19.369 19.268-20.378 49.634-2.118 67.793zM67.566 349.062c0-27.238 22.194-49.432 49.432-49.432h247.162v-247.162c0-27.238 22.194-49.432 49.432-49.432s49.432 22.194 49.432 49.432v346.027h-346.027c-27.238 0-49.432-22.194-49.432-49.432zM401.285 266.138l-300.225-299.518c-18.159-18.159-48.524-17.251-67.793 2.118s-20.177 49.634-2.119 67.793l300.225 299.418c18.159 18.159 48.524 17.251 67.793-2.118 19.268-19.268 20.277-49.634 2.118-67.692zM957.345 349.062c0-27.238-22.194-49.432-49.432-49.432h-247.162v-247.162c0-27.238-22.194-49.432-49.432-49.432s-49.432 22.194-49.432 49.432v346.027h346.027c27.339 0 49.432-22.194 49.432-49.432zM623.729 266.138l300.125-299.418c18.159-18.159 48.524-17.251 67.793 2.118s20.177 49.634 2.119 67.793l-300.125 299.418c-18.159 18.159-48.524 17.251-67.793-2.118-19.369-19.369-20.378-49.735-2.118-67.793z" />
<glyph unicode="&#xe917;" glyph-name="gather" d="M18.111 484.168h532.347v-73.182h-532.347v73.182zM536.658 410.985c-147.828 0-222.578 98.482-288.441 185.464-63.668 83.95-118.66 156.505-230.105 156.505v73.182c147.828 0 222.578-98.587 288.441-185.465 63.668-83.95 118.66-156.505 230.105-156.505v-73.182zM18.111 69.014v73.182c111.446 0 166.437 72.555 230.105 156.505 65.864 86.877 140.614 185.464 288.441 185.464v-73.182c-111.446 0-166.437-72.555-230.105-156.505-65.864-86.982-140.614-185.464-288.441-185.464zM860.020 594.358c81.023 0 146.782-65.759 146.782-146.782s-65.759-146.782-146.782-146.782c-81.023 0-146.782 65.759-146.782 146.782s65.759 146.782 146.782 146.782zM661.8 451.339c2.718-2.404 3.764-4.6-0.209-7.527l-105.173-76.946c-3.973-2.927-9.618 0-9.618 4.914v151.696c0 4.914 5.645 7.841 9.618 4.914z" />
<glyph unicode="&#xe918;" glyph-name="group" d="M512.010 939.213c-271.364 0-491.638-220.274-491.638-491.638s220.273-491.638 491.638-491.638c271.364 0 491.638 220.273 491.638 491.638s-220.273 491.638-491.638 491.638zM315.606 177.469c-67.841 0-122.7 54.859-122.7 122.7s54.859 122.7 122.7 122.7c67.841 0 122.7-54.859 122.7-122.7s-54.859-122.7-122.7-122.7zM389.31 644.399c0 67.841 54.859 122.7 122.7 122.7s122.7-54.859 122.7-122.7c0-67.841-54.859-122.7-122.7-122.7s-122.7 54.859-122.7 122.7zM708.832 177.469c-67.841 0-122.7 54.859-122.7 122.7s54.859 122.7 122.7 122.7c67.841 0 122.7-54.859 122.7-122.7s-54.859-122.7-122.7-122.7z" />
<glyph unicode="&#xe919;" glyph-name="hard_drive" d="M819.421 939.213h-614.785c-38.995 0-70.873-31.915-70.873-70.837v-841.602c0-38.958 31.878-70.836 70.873-70.836h614.785c38.958 0 70.837 31.915 70.837 70.836v841.602c0 38.922-31.915 70.837-70.837 70.837zM171.62 12.689v226.89l226.963-226.89h-226.963zM254.856 209.901c0.88 0.844 1.101 2.018 1.944 2.825 10.932 10.895 213.904 107.043 213.904 107.043s-95.928-203.045-106.897-213.94c-0.88-0.807-2.164-1.027-3.045-2.128l-105.906 106.2zM852.399 12.689h-227l227 226.89v-226.89zM512.010 201.721c-25.055 0-49.34 3.155-72.891 8.327 16.068 32.832 33.052 68.415 48.679 101.651l22.671 47.799-47.726-22.671c-49.853-23.624-105.026-50.037-147.763-71.46-86.464 61.776-143.36 162.363-143.36 276.669 0 188.042 152.348 340.39 340.39 340.39s340.39-152.348 340.39-340.39c0-187.821-152.348-340.316-340.39-340.316zM512.010 655.574c-62.693 0-113.463-50.77-113.463-113.537 0-62.583 50.77-113.316 113.463-113.316 62.656 0 113.463 50.734 113.463 113.316 0 62.766-50.807 113.537-113.463 113.537zM512.010 466.396c-41.856 0-75.642 34.006-75.642 75.679 0 41.82 33.786 75.715 75.642 75.715s75.642-33.896 75.642-75.715c0-41.673-33.786-75.679-75.642-75.679z" />
<glyph unicode="&#xe91a;" glyph-name="hide_data_node" d="M779.58 479.481c-26.822-160.565-166.468-283.091-334.805-283.091-24.983 0-49.204 3.139-72.693 8.301 16.032 32.745 32.958 68.233 48.553 101.374l22.616 47.66-47.599-22.606c-49.722-23.551-104.747-49.895-147.347-71.24-86.247 61.609-142.979 161.906-142.979 275.908 0 171.782 127.475 313.694 293.029 336.309 3.495 20.604 8.859 40.598 15.91 59.76h-276.021c-38.892 0-70.702-31.831-70.702-70.621v-839.309c0-38.841 31.81-70.651 70.702-70.651h613.091c38.841 0 70.651 31.831 70.651 70.651v466.294c-13.807-3.79-27.96-6.716-42.417-8.738h0.010zM190.273 207.361c10.891 10.871 213.305 106.759 213.305 106.759s-95.654-202.495-106.607-213.366c-0.863-0.782-2.154-1.016-3.038-2.123l-105.621 105.906c0.894 0.843 1.118 2.032 1.961 2.814v0.010zM105.317 7.864v226.289l226.35-226.289h-226.35zM784.234 7.864h-226.38l226.38 226.289v-226.289zM518.422 552.236c1.179-5.293 1.788-10.79 1.788-16.428 0-41.553-33.7-75.467-75.436-75.467s-75.436 33.903-75.436 75.467c0 41.564 33.7 75.528 75.436 75.528 6.38 0 12.588-0.782 18.501-2.286-9.642 12.568-18.41 25.836-26.222 39.694-58.917-3.962-105.428-52.963-105.428-112.967s50.626-113.007 113.149-113.007c58.774 0 107.074 44.744 112.611 102.004-13.645 8.25-26.659 17.424-38.963 27.452v0.010zM998.040 767.417c-1.139 1.116-28.543 27.709-72.854 54.515-40.777 24.657-104.098 54.010-175.039 54.55h-3.158c-27.181-0.117-53.258-4.473-77.375-11.201l31.924-31.373c13.573 8.383 29.541 13.244 46.613 13.314h0.763c49.325-0.2 89.387-40.39 89.387-89.774 0-16.649-4.556-32.265-12.505-45.638l21.346-20.97c12.904 19.021 20.43 41.94 20.43 66.608 0 26.887-8.947 51.708-24.034 71.657 25.561-9.381 48.033-21.099 65.857-31.831 25.22-15.181 44.828-30.527 56.417-40.319-11.589-9.792-31.197-25.126-56.417-40.319-16.179-9.734-36.187-20.301-58.859-29.165l22.719-22.32c19.749 8.512 37.29 17.964 51.932 26.817 44.312 26.794 71.716 53.399 72.854 54.515l10.72 10.473-10.72 10.473v-0.012zM794.893 680.59c-13.549-8.207-29.423-12.939-46.378-12.939-49.501 0-89.785 40.273-89.785 89.785 0 16.403 4.426 31.784 12.14 45.040l-21.369 21.005c-12.669-18.903-20.043-41.623-20.043-66.033 0-27.674 9.487-53.176 25.385-73.418-26.441 9.51-49.654 21.58-67.982 32.617-25.22 15.193-44.816 30.527-56.405 40.319 11.589 9.792 31.197 25.126 56.405 40.319 16.332 9.828 36.515 20.465 59.411 29.388l-22.708 22.332c-19.972-8.571-37.713-18.117-52.483-27.040-44.312-26.794-71.716-53.399-72.866-54.515l-10.708-10.473 10.708-10.473c1.151-1.115 28.555-27.709 72.866-54.515 41.165-24.88 105.296-54.562 177.058-54.562 27.827 0 54.503 4.462 79.148 11.377l-32.383 31.819-0.012-0.035zM710.027 763.988l45.709-44.922c-2.336-0.435-4.767-0.669-7.233-0.669-21.557 0-39.040 17.483-39.040 39.040 0 2.231 0.188 4.426 0.552 6.563l0.012-0.012zM787.545 757.425c0-2.512-0.247-4.99-0.705-7.373l-46.378 45.58c2.595 0.552 5.284 0.834 8.055 0.834 21.557 0 39.040-17.483 39.040-39.040h-0.012zM617.263 906.438l282.028-277.148-20.516-20.877-282.028 277.148 20.516 20.877z" />
<glyph unicode="&#xe91b;" glyph-name="key_attribute_table" horiz-adv-x="1023" d="M29.991 547.353h245.701v-596.078h-168.588c-42.589 0-77.113 34.523-77.113 77.113v518.965zM593.021 445.042v-493.769h-261.138v596.078h147.701c29.41-42.177 68.232-77.297 113.438-102.31zM447.938 603.544h-417.947v135.541c0 42.589 34.523 77.113 77.113 77.113h320.914c-5.721-24.59-8.75-50.221-8.75-76.548 0-48.441 10.238-94.494 28.672-136.106zM894.916 433.122v-404.734c0-42.589-34.523-77.113-77.113-77.113h-168.588v469.071c33.492-11.182 69.34-17.24 106.598-17.24 49.603 0 96.708 10.737 139.102 30.018zM992.86 812.453c4.125-85.754-173.81-265.231-236.408-320.327-4.212 5.189-213.609 190.377-234.909 304.293-20.301 130.808 157.96 201.711 234.909 97.002 70.447 98.13 240.826 42.155 236.408-80.956v-0.011z" />
<glyph unicode="&#xe91c;" glyph-name="loop" horiz-adv-x="1023" d="M511.467 809.204v135.355l-180.473-180.473 180.473-180.474v135.355c149.342 0 270.711-121.369 270.711-270.711 0-45.57-11.279-88.883-31.583-126.332l65.873-65.873c35.192 55.496 55.947 121.368 55.947 192.204 0 199.423-161.524 360.948-360.948 360.948zM511.467 177.548c-149.342 0-270.711 121.368-270.711 270.711 0 45.57 11.28 88.883 31.583 126.332l-65.873 65.873c-35.192-55.496-55.947-121.369-55.947-192.204 0-199.423 161.524-360.948 360.948-360.948v-135.355l180.474 180.474-180.474 180.473v-135.355z" />
<glyph unicode="&#xe91d;" glyph-name="many_to_many" d="M368.228 714.105v-42.419h46.661v-449.674h-50.903v-42.419h93.322v534.513h-89.080zM359.744 468.075v-42.419h296.933v42.419h-296.933zM380.958 111.025v195.127h-364.803v-195.127h364.803zM338.539 153.444h-279.966v110.29h279.966v-110.29zM380.958 590.359v195.127h-364.803v-195.127h364.803zM338.539 632.778h-279.966v110.29h279.966v-110.29zM380.958 349.254v195.128h-364.803v-195.128h364.803zM338.539 391.673h-279.966v110.29h279.966v-110.29zM567.597 714.102v-534.513h93.322v42.419h-50.903v449.674h46.661v42.419h-89.080zM643.951 306.149v-195.127h364.803v195.127h-364.803zM686.37 263.73h279.966v-110.29h-279.966v110.29zM643.951 785.484v-195.127h364.803v195.127h-364.803zM686.37 743.065h279.966v-110.29h-279.966v110.29zM643.951 544.425v-195.127h364.803v195.127h-364.803zM686.37 502.006h279.966v-110.289h-279.966v110.289z" />
<glyph unicode="&#xe91e;" glyph-name="memory" d="M993.778 500.295c8.021 0 14.532 6.511 14.532 14.532v109.666c0 8.021-6.511 14.532-14.532 14.532h-803.583c-8.021 0-14.532-6.511-14.532-14.532s6.511-14.532 14.532-14.532h789.050v-82.316c-26.942-6.552-47.005-30.881-47.005-59.803s20.063-53.251 47.005-59.803v-121.483h-25.758v44.209c0 8.021-6.511 14.532-14.532 14.532h-524.857c-8.021 0-14.532-6.511-14.532-14.532v-44.209h-25.758v14.838c0 24.207-19.696 43.923-43.923 43.923s-43.923-19.696-43.923-43.923v-14.838h-25.758v44.209c0 8.021-6.511 14.532-14.532 14.532h-160.59c-8.021 0-14.532-6.511-14.532-14.532v-44.209h-25.758v121.483c26.942 6.552 47.006 30.881 47.006 59.803s-20.064 53.251-47.006 59.803v82.316h77.478c8.021 0 14.532 6.511 14.532 14.532s-6.511 14.532-14.532 14.532h-92.031c-8.021 0-14.532-6.511-14.532-14.532v-109.666c0-8.021 6.511-14.532 14.532-14.532 17.9 0 32.453-14.553 32.453-32.453s-14.553-32.453-32.453-32.453c-8.021 0-14.532-6.511-14.532-14.532v-148.834c0-8.021 6.511-14.532 14.532-14.532h118.83c8.021 0 14.532 6.511 14.532 14.532s-6.511 14.532-14.532 14.532h-49.455v29.677h131.505v-29.677h-13.798c-8.021 0-14.532-6.511-14.532-14.532s6.511-14.532 14.532-14.532h83.173c8.021 0 14.532 6.511 14.532 14.532v29.371c0 8.185 6.654 14.839 14.839 14.839s14.839-6.654 14.839-14.839v-29.371c0-8.021 6.511-14.532 14.532-14.532h434.764c8.021 0 14.532 6.511 14.532 14.532s-6.511 14.532-14.532 14.532h-365.39v29.677h495.772v-29.677h-62.375c-8.021 0-14.532-6.511-14.532-14.532s6.511-14.532 14.532-14.532h131.75c8.021 0 14.532 6.511 14.532 14.532v148.834c0 8.021-6.511 14.532-14.532 14.532-17.9 0-32.453 14.553-32.453 32.453s14.553 32.473 32.453 32.473l0.020-0.020zM872.357 386.71c8.021 0 14.532 6.511 14.532 14.532v156.671c0 8.021-6.511 14.532-14.532 14.532h-78.336c-8.021 0-14.532-6.511-14.532-14.532v-156.671c0-8.021 6.511-14.532 14.532-14.532h78.336zM808.553 543.381h49.251v-127.586h-49.251v127.586zM711.767 386.71c8.021 0 14.532 6.511 14.532 14.532v156.671c0 8.021-6.511 14.532-14.532 14.532h-78.336c-8.021 0-14.532-6.511-14.532-14.532v-156.671c0-8.021 6.511-14.532 14.532-14.532h78.336zM647.964 543.381h49.251v-127.586h-49.251v127.586zM312.252 386.71h78.336c8.021 0 14.532 6.511 14.532 14.532v156.671c0 8.021-6.511 14.532-14.532 14.532h-78.336c-8.021 0-14.532-6.511-14.532-14.532v-156.671c0-8.021 6.511-14.532 14.532-14.532zM326.785 543.381h49.251v-127.586h-49.251v127.586zM151.661 386.71h78.336c8.021 0 14.532 6.511 14.532 14.532v156.671c0 8.021-6.511 14.532-14.532 14.532h-78.336c-8.021 0-14.532-6.511-14.532-14.532v-156.671c0-8.021 6.511-14.532 14.532-14.532zM166.193 543.381h49.251v-127.586h-49.251v127.586zM551.178 386.71c8.021 0 14.532 6.511 14.532 14.532v156.671c0 8.021-6.511 14.532-14.532 14.532h-78.336c-8.021 0-14.532-6.511-14.532-14.532v-156.671c0-8.021 6.511-14.532 14.532-14.532h78.336zM487.374 543.381h49.251v-127.586h-49.251v127.586z" />
<glyph unicode="&#xe91f;" glyph-name="merge_type" d="M805.481-48.045l82.823 82.823-200.296 200.296-82.823-82.823 200.296-200.296zM247.697 680.456h205.366v-327.911l-317.347-317.347 82.823-82.823 351.997 351.997v376.084h205.366l-264.104 264.104-264.104-264.104z" />
<glyph unicode="&#xe920;" glyph-name="mpi" d="M350.75 639.341h79.776v-55.364h-29.817c-8.841 0-16.008-7.165-16.008-16.008s7.167-16.008 16.008-16.008h223.488c8.843 0 16.008 7.165 16.008 16.008s-7.165 16.008-16.008 16.008h-29.817v55.364h79.776c31.435 0 57.007 25.572 57.007 57.007v191.146c0 31.435-25.572 57.007-57.007 57.007h-323.406c-31.435 0-57.007-25.572-57.007-57.007v-191.146c0-31.435 25.574-57.007 57.007-57.007zM562.367 583.978h-99.824v55.364h99.824v-55.364zM325.759 887.495c0 13.779 11.21 24.991 24.991 24.991h323.408c13.78 0 24.991-11.212 24.991-24.991v-191.146c0-13.78-11.212-24.991-24.991-24.991h-323.408c-13.782 0-24.991 11.212-24.991 24.991v191.146zM396.569 344.557h-323.408c-31.435 0-57.007-25.574-57.007-57.007v-191.146c0-31.435 25.572-57.007 57.007-57.007h79.776v-55.363h-29.817c-8.841 0-16.008-7.165-16.008-16.008s7.167-16.008 16.008-16.008h223.486c8.841 0 16.008 7.165 16.008 16.008s-7.167 16.008-16.008 16.008h-29.815v55.363h79.776c31.435 0 57.007 25.572 57.007 57.007v191.146c0.002 31.433-25.572 57.007-57.005 57.007zM284.777-15.967h-99.825v55.363h99.825v-55.363zM421.56 96.403c0-13.779-11.21-24.991-24.991-24.991h-323.408c-13.781 0-24.991 11.212-24.991 24.991v191.146c0 13.779 11.21 24.991 24.991 24.991h323.408c13.782 0 24.991-11.212 24.991-24.991v-191.146zM951.753 344.557h-323.411c-31.435 0-57.007-25.572-57.007-57.007v-191.146c0-31.435 25.572-57.007 57.007-57.007h79.776v-55.363h-29.815c-8.843 0-16.008-7.165-16.008-16.008s7.165-16.008 16.008-16.008h223.486c8.843 0 16.008 7.165 16.008 16.008s-7.165 16.008-16.008 16.008h-29.815v55.363h79.776c31.435 0 57.007 25.572 57.007 57.007v191.146c0.002 31.433-25.572 57.007-57.005 57.007zM839.961-15.967h-99.827v55.363h99.827v-55.363zM976.744 96.403c0-13.779-11.212-24.991-24.991-24.991h-323.411c-13.779 0-24.991 11.212-24.991 24.991v191.146c0 13.779 11.212 24.991 24.991 24.991h323.408c13.779 0 24.991-11.212 24.991-24.991v-191.146h0.002zM774.039 392.58c0-8.843 7.165-16.008 16.008-16.008s16.008 7.165 16.008 16.008v55.679c0 8.843-7.165 16.008-16.008 16.008h-261.585v39.672c0 8.843-7.165 16.008-16.008 16.008-8.841 0-16.008-7.165-16.008-16.008v-39.672h-261.583c-8.841 0-16.008-7.165-16.008-16.008v-55.679c0-8.843 7.167-16.008 16.008-16.008s16.008 7.165 16.008 16.008v39.672h523.166v-39.672z" />
<glyph unicode="&#xe921;" glyph-name="ngas" d="M203.533 924.431c-103.845 0-187.379-83.534-187.379-187.379v-578.402c0-103.845 83.534-187.46 187.379-187.46h617.847c103.845 0 187.379 83.615 187.379 187.46v578.402c0 103.845-83.534 187.379-187.379 187.379h-617.847zM512.498 793.087c222.396 0 349.464-38.475 366.543-77.587 1.24-1.339 2.196-2.814 2.196-4.473v-337.267c0-1.605-0.686-3.163-1.871-4.473-17.996-44.463-173.547-77.587-366.87-77.587-193.765 0-349.692 33.285-367.113 77.912-1.092 1.24-1.708 2.67-1.708 4.148v337.348c0 1.659 0.956 3.056 2.196 4.392 17.067 39.112 144.229 77.587 366.624 77.587zM512.498 774.869c-199.946 0-339.3-36.050-339.3-68.397s139.353-68.315 339.3-68.315c199.946 0 339.219 35.968 339.219 68.315s-139.272 68.397-339.219 68.397zM173.199 671.908v-67.665c0.622-1.305 0.856-2.689 0.488-4.066-0.265-1.023-0.488-2.059-0.488-3.090 0-1.467 0.593-2.944 1.139-4.392 0.412-1.103 0.986-2.15 1.708-3.253 0.603-0.902 1.319-1.868 2.115-2.765 1.003-1.121 2.116-2.218 3.416-3.334 0.974-0.849 2.103-1.681 3.253-2.521 1.638-1.204 3.391-2.393 5.368-3.578 1.195-0.73 2.508-1.479 3.822-2.196 2.419-1.303 4.909-2.54 7.726-3.822 1.209-0.552 2.552-1.157 3.822-1.708 3.334-1.423 6.834-2.762 10.654-4.148 1.003-0.372 2.059-0.781 3.090-1.139 4.396-1.542 8.951-3.077 13.907-4.554 0.632-0.177 1.318-0.297 1.952-0.488 5.517-1.613 11.305-3.266 17.485-4.798 0.175-0.050 0.391-0.045 0.569-0.081 33.499-8.269 76.369-15.203 126.302-19.763 0.25-0.030 0.478-0.063 0.732-0.081 9.706-0.875 19.625-1.669 29.847-2.359 1.666-0.108 3.442-0.217 5.124-0.325 8.924-0.573 17.952-1.133 27.245-1.545 4.248-0.179 8.691-0.257 13.012-0.407 6.992-0.25 13.976-0.501 21.145-0.651 11.727-0.25 23.666-0.407 35.866-0.407s24.154 0.092 35.866 0.325c7.168 0.152 14.072 0.47 21.064 0.732 4.323 0.152 8.765 0.215 13.012 0.407 9.293 0.421 18.321 0.967 27.245 1.545 1.682 0.108 3.457 0.136 5.124 0.244 10.222 0.693 20.141 1.477 29.847 2.359 0.244 0.030 0.474 0.063 0.732 0.081 49.931 4.559 92.803 11.576 126.302 19.844 0.176 0.050 0.394 0.036 0.569 0.081 6.181 1.532 11.953 3.104 17.485 4.717 0.654 0.177 1.311 0.378 1.952 0.569 4.957 1.477 9.511 3.022 13.907 4.554 1.047 0.358 2.085 0.683 3.091 1.057 3.82 1.386 7.32 2.808 10.654 4.229 1.283 0.552 2.612 1.075 3.822 1.627 2.818 1.285 5.307 2.594 7.726 3.904 1.328 0.72 2.626 1.479 3.822 2.196 1.976 1.185 3.731 2.297 5.368 3.497 1.15 0.839 2.275 1.748 3.253 2.603 1.312 1.121 2.424 2.218 3.416 3.334 0.802 0.902 1.529 1.787 2.115 2.684 0.719 1.112 1.3 2.232 1.708 3.334 0.571 1.477 1.139 2.923 1.139 4.392 0 1.031-0.119 2.071-0.407 3.090-0.369 1.377-0.22 2.757 0.407 4.066v67.665c-1.77-0.993-3.776-1.95-5.693-2.928-1.076-0.552-2.069-1.075-3.172-1.626-4.425-2.161-9.218-4.274-14.395-6.344-1.076-0.428-2.299-0.874-3.416-1.301-4.337-1.678-8.921-3.284-13.744-4.88-1.77-0.588-3.524-1.21-5.367-1.789-5.385-1.694-11.053-3.357-16.998-4.961-0.974-0.275-1.854-0.552-2.847-0.813-6.903-1.813-14.236-3.528-21.877-5.205-2.109-0.467-4.337-0.929-6.506-1.383-6.078-1.266-12.363-2.407-18.868-3.578-2.346-0.413-4.671-0.888-7.075-1.301-8.629-1.469-17.567-2.852-26.92-4.148-1.283-0.164-2.611-0.31-3.904-0.488-8.246-1.112-16.827-2.207-25.618-3.172-2.98-0.33-5.989-0.577-9.027-0.895-8.378-0.848-17.026-1.641-25.862-2.359-2.272-0.178-4.368-0.391-6.669-0.569-10.974-0.815-22.408-1.522-34.076-2.115-2.891-0.154-5.862-0.273-8.783-0.407-9.337-0.411-18.862-0.701-28.627-0.976-3.57-0.108-7.121-0.246-10.735-0.325-12.715-0.261-25.614-0.488-39.037-0.488s-26.404 0.226-39.119 0.488c-3.629 0.083-7.18 0.225-10.735 0.325-9.765 0.261-19.29 0.564-28.628 0.976-2.921 0.125-5.907 0.257-8.783 0.407-11.668 0.601-23.020 1.288-33.995 2.115-2.301 0.178-4.479 0.391-6.75 0.569-8.836 0.711-17.499 1.505-25.862 2.359-3.039 0.316-6.048 0.563-9.027 0.895-8.792 0.966-17.291 2.055-25.537 3.172-1.298 0.164-2.701 0.31-3.985 0.488-9.352 1.295-18.29 2.67-26.92 4.148-2.404 0.399-4.73 0.888-7.075 1.301-6.505 1.175-12.791 2.312-18.868 3.578-2.169 0.467-4.316 0.916-6.425 1.383-7.641 1.677-15.040 3.39-21.958 5.205-0.988 0.261-1.873 0.552-2.847 0.813-5.944 1.595-11.532 3.265-16.916 4.961-1.843 0.588-3.664 1.196-5.449 1.789-4.823 1.605-9.408 3.211-13.744 4.88-1.121 0.428-2.339 0.874-3.416 1.301-5.177 2.070-9.97 4.191-14.395 6.344-1.121 0.552-2.109 1.075-3.172 1.626-1.917 0.985-3.923 1.936-5.693 2.928zM173.199 562.523v-67.665c0.622-1.305 0.856-2.689 0.488-4.067-0.265-1.022-0.488-2.058-0.488-3.090 0-1.467 0.593-2.943 1.139-4.392 0.412-1.104 0.986-2.232 1.708-3.334 0.603-0.902 1.319-1.773 2.115-2.684 1.003-1.121 2.116-2.218 3.416-3.334 0.974-0.849 2.103-1.681 3.253-2.521 1.638-1.204 3.391-2.393 5.368-3.578 1.195-0.731 2.508-1.479 3.822-2.196 2.419-1.303 4.909-2.621 7.726-3.904 1.209-0.552 2.552-1.075 3.822-1.626 3.334-1.423 6.834-2.844 10.654-4.229 1.003-0.372 2.059-0.699 3.090-1.057 4.396-1.542 8.951-3.077 13.907-4.554 0.632-0.177 1.318-0.378 1.952-0.569 5.517-1.613 11.386-3.184 17.567-4.717 0.175-0.050 0.31-0.045 0.488-0.081 33.499-8.269 76.371-15.286 126.302-19.844 0.25-0.030 0.478 0.018 0.732 0 9.706-0.875 19.625-1.75 29.847-2.44 1.666-0.108 3.442-0.136 5.124-0.244 8.924-0.573 17.952-1.133 27.245-1.545 4.248-0.177 8.691-0.257 13.012-0.407 6.992-0.249 13.976-0.582 21.145-0.732 11.727-0.25 23.666-0.407 35.866-0.407s24.154 0.174 35.866 0.407c7.168 0.152 14.072 0.469 21.064 0.732 4.323 0.153 8.765 0.215 13.012 0.407 9.293 0.421 18.321 0.967 27.245 1.545 1.682 0.108 3.457 0.136 5.124 0.244 10.222 0.693 20.141 1.475 29.847 2.359 0.244 0.030 0.474 0.063 0.732 0.081 49.931 4.559 92.803 11.494 126.302 19.763 0.176 0.050 0.394 0.117 0.569 0.163 6.181 1.531 11.953 3.103 17.485 4.717 0.654 0.177 1.311 0.378 1.952 0.569 4.957 1.477 9.511 3.022 13.907 4.554 1.047 0.358 2.085 0.683 3.091 1.057 3.82 1.386 7.32 2.808 10.654 4.229 1.283 0.552 2.612 1.075 3.822 1.626 2.818 1.285 5.307 2.594 7.726 3.904 1.328 0.721 2.626 1.397 3.822 2.115 1.976 1.185 3.731 2.379 5.368 3.578 1.15 0.84 2.275 1.667 3.253 2.521 1.312 1.121 2.424 2.299 3.416 3.416 0.802 0.902 1.529 1.773 2.115 2.684 0.719 1.112 1.3 2.232 1.708 3.334 0.571 1.477 1.139 2.925 1.139 4.392 0 1.031-0.119 2.071-0.407 3.090-0.369 1.378-0.22 2.757 0.407 4.067v67.665c-3.775-2.105-7.745-4.175-12.199-6.181-55.802-25.819-166.649-45.869-327.020-45.869-161.048 0-272.184 20.22-327.751 46.194-3.688 1.678-6.951 3.374-10.166 5.124-0.43 0.236-0.968 0.499-1.382 0.732zM173.199 453.137v-76.692c0.19-0.387 0.37-0.807 0.488-1.22 8.364-31.536 146.521-65.306 338.811-65.306s330.366 33.77 338.73 65.306c0.122 0.413 0.284 0.82 0.488 1.22v76.692c-3.775-2.105-7.826-4.175-12.28-6.181-55.802-25.819-166.568-45.869-326.936-45.869-161.048 0-272.184 20.22-327.751 46.194-3.688 1.678-6.951 3.374-10.166 5.124-0.428 0.236-0.968 0.499-1.382 0.732zM435.4 195.654c11.383 0 22.977-0.878 34.808-2.521 11.92-1.59 24.755-4.263 38.468-8.133v-18.705h-2.359c-2.778 1.272-6.83 2.894-12.118 4.961s-10.506 3.826-15.615 5.205c-6.184 1.643-13.258 3.006-21.145 4.066-7.797 1.113-16.645 1.626-26.594 1.626-22.407 0-40.103-4.233-53.188-12.768-12.996-8.482-19.519-19.957-19.519-34.483 0-15.321 6.79-27.249 20.413-35.784 13.624-8.482 32.146-12.768 55.628-12.768 8.604 0 17.185 0.538 25.7 1.545 8.604 1.007 16.156 2.313 22.609 3.904v28.953h-53.676v13.907h80.027v-50.83c-10.935-2.969-22.869-5.581-35.866-7.808-12.906-2.173-25.474-3.253-37.574-3.253-15.595 0-29.864 1.278-42.86 3.822s-24.040 6.378-33.182 11.467c-9.232 5.142-16.37 11.506-21.389 19.193-5.019 7.74-7.564 16.826-7.564 27.163 0 18.926 9.334 33.809 27.977 44.73 18.732 10.974 44.393 16.509 77.017 16.509zM811.052 195.654c14.072 0 26.971-0.849 38.712-2.44s22.177-3.523 31.23-5.856v-18.624h-1.871c-7.618 3.817-17.714 6.942-30.173 9.434-12.369 2.545-25.065 3.823-38.061 3.823-14.251 0-25.708-1.706-34.402-5.205-8.604-3.499-12.85-7.987-12.85-13.501 0-4.93 2.123-8.82 6.425-11.63s11.845-4.941 22.69-6.425c5.736-0.742 13.904-1.705 24.48-2.765s19.57-2.14 26.919-3.253c14.878-2.333 26.060-5.854 33.588-10.573s11.305-11.28 11.305-19.763c0-4.612-1.856-9.157-5.53-13.663-3.585-4.506-8.666-8.34-15.208-11.467-7.17-3.393-15.54-6.062-25.13-7.97-9.501-1.909-20.958-2.847-34.402-2.847-14.43 0-27.394 0.768-38.956 2.359-11.472 1.59-23.213 3.948-35.134 7.075v19.763h1.871c10.128-4.983 21.869-8.845 35.134-11.549s25.678-4.066 37.329-4.066c16.492 0 29.326 1.872 38.468 5.53 9.232 3.658 13.826 8.461 13.826 14.558 0 5.248-2.196 9.138-6.588 11.63-4.302 2.492-10.889 4.477-19.763 5.856-6.722 1.060-13.99 1.913-21.877 2.602-7.798 0.689-16.103 1.542-24.886 2.603-17.746 2.226-30.921 6.031-39.525 11.386-8.515 5.407-12.768 12.423-12.768 21.064 0 9.914 7.065 18.009 21.227 24.317 14.161 6.362 32.141 9.597 53.92 9.597zM135.87 193.458h41.315l86.533-96.699v96.699h24.886v-118.413h-32.938l-94.909 105.97v-105.97h-24.886v118.413zM604.806 193.458h35.54l72.87-118.413h-28.384l-19.681 33.019h-86.533l-19.6-33.019h-27.082l72.869 118.413zM621.884 179.713l-35.215-58.149h70.348l-35.134 58.149z" />
<glyph unicode="&#xe922;" glyph-name="none" d="M512.010 944.112c-274.099 0-496.302-222.205-496.302-496.302s222.205-496.302 496.302-496.302c274.099 0 496.302 222.205 496.302 496.302s-222.204 496.302-496.302 496.302zM512.010 50.767c-219.276 0-397.042 177.756-397.042 397.042 0 219.276 177.766 397.042 397.042 397.042 219.286 0 397.042-177.766 397.042-397.042 0-219.286-177.755-397.042-397.042-397.042zM895.977 899.062l70.187-70.187-842.246-842.246-70.187 70.187 842.246 842.246z" />
<glyph unicode="&#xe923;" glyph-name="overwrite" d="M334.58 579.506v-243.241c0-19.017-15.442-34.458-34.461-34.458h-243.238c-19.020 0-34.461 15.441-34.461 34.458v243.241c0 19.017 15.441 34.458 34.461 34.458h243.238c19.019 0 34.461-15.441 34.461-34.458zM311.788 579.506c0 6.441-5.229 11.662-11.669 11.662h-243.238c-6.441 0-11.67-5.222-11.67-11.662v-243.241c0-6.441 5.23-11.672 11.67-11.672h243.238c6.441 0 11.669 5.232 11.669 11.672v243.241zM923.492 579.506c0 5.841 4.742 10.585 10.582 10.585s10.582-4.744 10.582-10.585c0-5.841-4.742-10.585-10.582-10.585s-10.582 4.744-10.582 10.585zM923.492 538.963c0 5.841 4.742 10.585 10.582 10.585s10.582-4.744 10.582-10.585c0-5.841-4.742-10.575-10.582-10.575s-10.582 4.734-10.582 10.575zM923.492 498.429c0 5.831 4.742 10.575 10.582 10.575s10.582-4.744 10.582-10.575c0-5.841-4.742-10.585-10.582-10.585s-10.582 4.744-10.582 10.585zM923.492 457.886c0 5.841 4.742 10.585 10.582 10.585s10.582-4.744 10.582-10.585c0-5.841-4.742-10.585-10.582-10.585s-10.582 4.744-10.582 10.585zM923.492 417.342c0 5.841 4.742 10.585 10.582 10.585s10.582-4.744 10.582-10.585c0-5.841-4.742-10.575-10.582-10.575s-10.582 4.734-10.582 10.575zM923.492 376.809c0 5.841 4.742 10.575 10.582 10.575s10.582-4.734 10.582-10.575c0-5.841-4.742-10.585-10.582-10.585s-10.582 4.744-10.582 10.585zM923.492 336.266c0 5.841 4.742 10.585 10.582 10.585s10.582-4.744 10.582-10.585c0-5.841-4.742-10.585-10.582-10.585s-10.582 4.744-10.582 10.585zM911.009 323.78c5.84 0 10.581-4.734 10.581-10.575s-4.741-10.585-10.581-10.585c-5.84 0-10.582 4.744-10.582 10.585s4.742 10.575 10.582 10.575zM870.469 323.78c5.84 0 10.581-4.734 10.581-10.575s-4.741-10.585-10.581-10.585c-5.841 0-10.582 4.744-10.582 10.585s4.741 10.575 10.582 10.575zM829.93 323.78c5.84 0 10.581-4.734 10.581-10.575s-4.741-10.585-10.581-10.585c-5.84 0-10.582 4.744-10.582 10.585s4.742 10.575 10.582 10.575zM789.389 323.78c5.841 0 10.582-4.734 10.582-10.575s-4.741-10.585-10.582-10.585c-5.84 0-10.581 4.744-10.581 10.585s4.741 10.575 10.581 10.575zM748.85 323.78c5.84 0 10.582-4.734 10.582-10.575s-4.742-10.585-10.582-10.585c-5.84 0-10.582 4.744-10.582 10.585s4.742 10.575 10.582 10.575zM708.31 323.78c5.84 0 10.581-4.734 10.581-10.575s-4.741-10.585-10.581-10.585c-5.84 0-10.582 4.744-10.582 10.585s4.742 10.575 10.582 10.575zM667.771 323.78c5.84 0 10.582-4.734 10.582-10.575s-4.742-10.585-10.582-10.585c-5.84 0-10.582 4.744-10.582 10.585s4.742 10.575 10.582 10.575zM655.287 336.266c0-5.841-4.741-10.585-10.581-10.585s-10.582 4.744-10.582 10.585 4.741 10.585 10.581 10.585c5.841 0 10.582-4.744 10.582-10.585zM655.287 376.809c0-5.841-4.741-10.585-10.582-10.585s-10.581 4.744-10.581 10.585 4.741 10.575 10.581 10.575c5.841 0 10.582-4.734 10.582-10.575zM655.287 417.342c0-5.841-4.741-10.575-10.582-10.575s-10.581 4.734-10.581 10.575 4.741 10.585 10.581 10.585c5.841 0 10.582-4.744 10.582-10.585zM655.287 457.886c0-5.841-4.741-10.585-10.582-10.585s-10.581 4.744-10.581 10.585 4.741 10.585 10.581 10.585c5.841 0 10.582-4.744 10.582-10.585zM655.287 498.419c0-5.831-4.741-10.575-10.582-10.575s-10.581 4.744-10.581 10.575c0 5.841 4.741 10.585 10.581 10.585s10.582-4.744 10.582-10.585zM655.287 538.963c0-5.841-4.741-10.575-10.582-10.575s-10.581 4.734-10.581 10.575 4.741 10.585 10.581 10.585c5.841 0 10.582-4.744 10.582-10.585zM655.287 579.506c0-5.841-4.741-10.585-10.582-10.585s-10.581 4.744-10.581 10.585 4.741 10.585 10.581 10.585c5.841 0 10.582-4.744 10.582-10.585zM667.771 591.991c-5.84 0-10.582 4.734-10.582 10.575s4.742 10.585 10.582 10.585c5.84 0 10.581-4.744 10.581-10.585s-4.741-10.575-10.581-10.575zM708.31 591.991c-5.84 0-10.582 4.734-10.582 10.575s4.742 10.585 10.582 10.585c5.84 0 10.582-4.744 10.582-10.585s-4.742-10.575-10.582-10.575zM748.85 591.991c-5.84 0-10.582 4.734-10.582 10.575s4.742 10.585 10.582 10.585c5.84 0 10.582-4.744 10.582-10.585s-4.742-10.575-10.582-10.575zM789.389 591.991c-5.84 0-10.582 4.734-10.582 10.575s4.742 10.585 10.582 10.585c5.84 0 10.582-4.744 10.582-10.585s-4.742-10.575-10.582-10.575zM829.929 591.991c-5.84 0-10.582 4.734-10.582 10.575s4.742 10.585 10.582 10.585c5.84 0 10.582-4.744 10.582-10.585s-4.742-10.575-10.582-10.575zM870.469 591.991c-5.84 0-10.582 4.734-10.582 10.575s4.742 10.585 10.582 10.585c5.84 0 10.582-4.744 10.582-10.585s-4.742-10.575-10.582-10.575zM911.009 591.991c-5.84 0-10.582 4.734-10.582 10.575s4.742 10.585 10.582 10.585c5.84 0 10.581-4.744 10.581-10.585s-4.741-10.575-10.581-10.575zM388.949 436.525v42.711h112.419v56.214l77.571-77.57-77.571-77.57v56.214h-112.419zM576.011 647.742c-1.686 1.615-1.744 4.294-0.127 5.98s4.299 1.751 5.985 0.136l419.090-401.63c1.69-1.615 1.742-4.303 0.127-5.99s-4.298-1.741-5.979-0.126l-419.096 401.63z" />
<glyph unicode="&#xe924;" glyph-name="plasma" d="M512.010 944.112c-247.307 0-448.505-201.2-448.505-448.505 0-125.082 52.383-244.492 144.050-329.278l-40.447-194.073c-1.059-5.077 0.227-10.36 3.497-14.385 3.274-4.023 8.183-6.361 13.367-6.361h500.341c9.517 0 17.229 7.714 17.229 17.229s-7.712 17.229-17.229 17.229h-479.151l35.371 169.729h542.961l35.369-169.727h-77.117c-9.517 0-17.229-7.714-17.229-17.229s7.712-17.229 17.229-17.229h98.308c5.188 0 10.097 2.336 13.369 6.361 3.271 4.023 4.556 9.306 3.497 14.385l-40.456 194.133c28.886 26.715 54.169 57.009 75.149 90.267 5.078 8.047 2.668 18.689-5.38 23.766-8.055 5.078-18.691 2.67-23.768-5.38-19.772-31.347-43.69-59.843-71.062-84.883h-217.37v179.231c46.54 22.964 78.639 70.901 78.639 126.212 0 18.328-3.476 36.158-10.331 53-3.589 8.815-13.639 13.051-22.452 9.465-8.815-3.589-13.051-13.641-9.462-22.454 5.166-12.696 7.788-26.159 7.788-40.010 0-58.564-47.645-106.207-106.205-106.207-58.564 0-106.207 47.645-106.207 106.207s47.645 106.207 106.207 106.207c24.664 0 47.798-8.201 66.9-23.716 7.39-6.002 18.239-4.872 24.239 2.511 5.998 7.386 4.872 18.239-2.512 24.237-24.951 20.265-56.429 31.428-88.626 31.428-77.565 0-140.667-63.102-140.667-140.667s63.106-140.667 140.667-140.667c9.434 0 18.648 0.948 27.566 2.73v-167.512h-55.13v135.277c0 9.515-7.712 17.229-17.229 17.229s-17.229-7.714-17.229-17.229v-135.277h-217.423c-85.616 78.361-134.6 189.254-134.6 305.447 0 228.308 185.741 414.049 414.049 414.049 228.305 0 414.044-185.741 414.044-414.046 0-60.407-12.712-118.63-37.781-173.039-3.982-8.643-0.204-18.877 8.437-22.859 8.646-3.984 18.879-0.202 22.859 8.437 27.17 58.965 40.945 122.038 40.945 187.46-0.004 247.307-201.202 448.505-448.508 448.505zM597.973 848.475c-6.731 6.729-17.638 6.729-24.367 0l-44.367-44.367v44.551c0 9.515-7.712 17.229-17.229 17.229s-17.229-7.714-17.229-17.229v-172.29c0-9.515 7.712-17.229 17.229-17.229s17.229 7.714 17.229 17.229v79.007l68.734 68.734c6.729 6.729 6.729 17.638 0 24.365zM795.56 733.737c-6.118 7.288-16.989 8.234-24.274 2.113l-72.704-61.059-8.076 140.002c-0.545 9.499-8.732 16.769-18.193 16.207-9.502-0.547-16.76-8.693-16.209-18.193l9.558-165.664-26.31-22.095c-7.287-6.118-8.233-16.987-2.113-24.274 3.406-4.060 8.286-6.149 13.203-6.149 3.91 0 7.844 1.324 11.072 4.036l131.935 110.801c7.288 6.122 8.233 16.991 2.113 24.274zM391.028 385.573c-6.403 7.039-17.301 7.555-24.34 1.153l-47.963-43.622-59.67 44.126c-7.646 5.655-18.437 4.044-24.096-3.61-5.659-7.652-4.044-18.441 3.61-24.1l54.169-40.059-53.507-48.665c-7.037-6.4-7.553-17.297-1.153-24.338 3.4-3.738 8.069-5.638 12.752-5.638 4.137 0 8.286 1.481 11.588 4.484l127.456 115.927c7.039 6.403 7.555 17.299 1.155 24.34zM880.355 572.986c-6.729 6.729-17.636 6.731-24.367 0l-99.061-99.061-63.697 10.178c-9.422 1.506-18.231-4.903-19.734-14.296-1.501-9.397 4.901-18.231 14.296-19.732l170.133-27.182c0.921-0.147 1.836-0.219 2.739-0.219 8.319 0 15.639 6.037 16.993 14.515 1.501 9.397-4.901 18.231-14.296 19.732l-64.415 10.291 81.407 81.407c6.729 6.727 6.729 17.638 0.002 24.367zM789.273 276.363l-129.773 113.325c-7.165 6.258-18.047 5.523-24.313-1.644-6.26-7.167-5.521-18.053 1.644-24.313l49.993-43.655-13.125-64.081c-1.911-9.323 4.1-18.427 13.421-20.337 1.167-0.239 2.33-0.353 3.476-0.353 8.013 0 15.19 5.618 16.862 13.776l9.203 44.939 49.944-43.612c3.267-2.854 7.307-4.252 11.328-4.252 4.802 0 9.577 1.997 12.985 5.898 6.26 7.163 5.519 18.049-1.646 24.309zM336.673 542.816l-100.216 16.997-25.339 103.424c-2.264 9.242-11.591 14.899-20.835 12.634-9.24-2.265-14.899-11.592-12.632-20.835l21.793-88.945-32.634 5.535c-9.374 1.582-18.276-4.726-19.867-14.108-1.59-9.379 4.726-18.278 14.108-19.868l58.441-9.91c0.029-0.008 0.062-0.012 0.097-0.019l111.323-18.881c0.973-0.165 1.946-0.244 2.902-0.244 8.253 0 15.54 5.944 16.967 14.352 1.59 9.381-4.726 18.278-14.108 19.867zM210.226 423.344l-36.92 27.304c-7.642 5.653-18.439 4.044-24.096-3.61s-4.044-18.441 3.61-24.1l36.92-27.304c3.081-2.278 6.669-3.377 10.23-3.377 5.277 0 10.486 2.417 13.867 6.987 5.655 7.652 4.040 18.441-3.612 24.1zM392.955 693.050l31.566 144.707c2.028 9.298-3.864 18.477-13.162 20.505-9.306 2.036-18.48-3.866-20.507-13.162l-24.877-114.047-44.301 62.4c-5.504 7.759-16.263 9.585-24.022 4.073-7.76-5.51-9.585-16.265-4.073-24.022l99.741-140.484c3.358-4.732 8.67-7.257 14.065-7.257 3.449 0 6.933 1.033 9.959 3.181 7.76 5.51 9.585 16.265 4.073 24.022l-28.462 40.082z" />
<glyph unicode="&#xe925;" glyph-name="plasma_flight" d="M512.457 705.282c-188.192 0-341.298-153.107-341.298-341.298 0-95.183 39.862-186.051 109.617-250.569l-30.779-147.684c-0.806-3.864 0.173-7.884 2.661-10.947 2.492-3.061 6.227-4.84 10.172-4.84h380.743c7.242 0 13.111 5.87 13.111 13.111s-5.869 13.111-13.111 13.111h-364.619l26.916 129.159h413.177l26.915-129.157h-58.683c-7.242 0-13.111-5.87-13.111-13.111s5.869-13.111 13.111-13.111h74.81c3.948 0 7.683 1.778 10.173 4.84s3.467 7.081 2.662 10.947l-30.786 147.729c21.982 20.329 41.22 43.382 57.186 68.69 3.864 6.124 2.030 14.222-4.094 18.085-6.13 3.864-14.223 2.032-18.087-4.094-15.046-23.854-33.247-45.539-54.076-64.594h-165.412v136.389c35.415 17.475 59.841 53.954 59.841 96.043 0 13.947-2.645 27.515-7.862 40.331-2.731 6.708-10.379 9.931-17.085 7.202-6.708-2.731-9.932-10.38-7.201-17.087 3.932-9.661 5.926-19.906 5.926-30.447 0-44.565-36.256-80.82-80.818-80.82-44.565 0-80.82 36.256-80.82 80.82 0 44.565 36.256 80.82 80.82 80.82 18.768 0 36.373-6.24 50.909-18.047 5.624-4.568 13.879-3.707 18.445 1.911 4.564 5.621 3.707 13.879-1.912 18.444-18.987 15.421-42.941 23.916-67.442 23.916-59.024 0-107.043-48.019-107.043-107.043s48.021-107.043 107.043-107.043c7.179 0 14.191 0.722 20.977 2.077v-127.471h-41.952v102.942c0 7.241-5.869 13.111-13.111 13.111s-13.111-5.87-13.111-13.111v-102.942h-165.452c-65.151 59.631-102.427 144.016-102.427 232.437 0 173.735 141.343 315.078 315.078 315.078 173.733 0 315.073-141.343 315.073-315.076 0-45.968-9.673-90.274-28.75-131.677-3.030-6.577-0.155-14.365 6.42-17.395 6.58-3.032 14.366-0.153 17.395 6.42 20.676 44.87 31.158 92.867 31.158 142.651-0.003 188.192-153.108 341.298-341.301 341.298zM577.874 632.504c-5.122 5.12-13.422 5.12-18.543 0l-33.762-33.762v33.902c0 7.24-5.869 13.111-13.111 13.111s-13.111-5.87-13.111-13.111v-131.108c0-7.241 5.869-13.111 13.111-13.111s13.111 5.87 13.111 13.111v60.122l52.305 52.304c5.12 5.121 5.12 13.422 0 18.541zM728.231 545.193c-4.656 5.545-12.928 6.266-18.472 1.608l-55.326-46.464-6.146 106.537c-0.415 7.229-6.645 12.761-13.844 12.333-7.23-0.416-12.754-6.615-12.335-13.844l7.273-126.065-20.021-16.814c-5.546-4.656-6.266-12.926-1.608-18.472 2.592-3.089 6.305-4.68 10.047-4.68 2.976 0 5.969 1.008 8.425 3.072l100.398 84.316c5.546 4.659 6.266 12.929 1.608 18.472zM420.392 280.252c-4.873 5.357-13.165 5.749-18.522 0.878l-36.498-33.195-45.408 33.579c-5.818 4.303-14.030 3.077-18.336-2.747s-3.077-14.033 2.747-18.339l41.22-30.484-40.717-37.032c-5.355-4.87-5.748-13.162-0.878-18.521 2.588-2.844 6.14-4.29 9.705-4.29 3.148 0 6.305 1.127 8.818 3.413l96.99 88.217c5.357 4.873 5.749 13.164 0.879 18.522zM792.757 422.865c-5.121 5.12-13.421 5.122-18.543 0l-75.382-75.382-48.471 7.745c-7.17 1.146-13.873-3.731-15.017-10.879-1.142-7.151 3.729-13.873 10.879-15.015l129.465-20.685c0.701-0.112 1.397-0.167 2.085-0.167 6.33 0 11.901 4.594 12.931 11.045 1.142 7.151-3.729 13.873-10.879 15.015l-49.017 7.831 61.948 61.948c5.121 5.119 5.121 13.422 0.001 18.543zM723.446 197.143l-98.753 86.237c-5.453 4.762-13.733 4.203-18.501-1.251-4.764-5.454-4.202-13.738 1.251-18.501l38.043-33.22-9.988-48.764c-1.455-7.095 3.12-14.022 10.213-15.476 0.888-0.181 1.773-0.269 2.645-0.269 6.097 0 11.559 4.275 12.832 10.483l7.003 34.197 38.006-33.188c2.486-2.172 5.56-3.235 8.62-3.235 3.654 0 7.288 1.519 9.881 4.488 4.764 5.451 4.2 13.735-1.252 18.499zM379.030 399.908l-76.261 12.934-19.282 78.703c-1.723 7.033-8.82 11.338-15.855 9.614-7.031-1.723-11.337-8.821-9.613-15.855l16.583-67.684-24.833 4.212c-7.133 1.204-13.907-3.597-15.118-10.735-1.21-7.137 3.597-13.909 10.735-15.119l44.472-7.542c0.022-0.006 0.047-0.009 0.074-0.015l84.713-14.368c0.741-0.125 1.481-0.186 2.209-0.186 6.28 0 11.826 4.523 12.912 10.922 1.21 7.139-3.597 13.909-10.736 15.118zM282.809 308.993l-28.095 20.778c-5.816 4.302-14.031 3.077-18.336-2.747s-3.077-14.033 2.747-18.339l28.095-20.778c2.344-1.733 5.075-2.57 7.785-2.57 4.016 0 7.98 1.84 10.553 5.317 4.303 5.823 3.074 14.033-2.748 18.339zM421.861 514.232l24.020 110.117c1.543 7.075-2.94 14.061-10.016 15.604-7.081 1.549-14.063-2.942-15.606-10.016l-18.931-86.786-33.711 47.485c-4.188 5.904-12.376 7.294-18.28 3.099-5.905-4.192-7.294-12.377-3.099-18.28l75.9-106.904c2.555-3.601 6.597-5.522 10.703-5.522 2.624 0 5.276 0.786 7.578 2.421 5.905 4.193 7.294 12.377 3.099 18.28l-21.658 30.501zM307.382 712.283c-28.756 6.091-52.182 25.202-63.985 51.327l116.932-24.779c5.197-14.919 12.692-29.361 21.931-42.413l-74.878 15.864zM140.076 842.16l211.48-44.812c-0.658-12.759 0.389-25.615 3.123-38.439l-150.62 31.913c-28.755 6.091-52.182 25.213-63.983 51.338zM43.168 919.341l321.881-68.201c-4.995-10.402-8.668-21.445-10.962-32.966l-0.004-0.033c-0.156-0.804-0.303-1.585-0.442-2.356l-246.466 52.218c-28.809 6.102-52.242 25.224-64.008 51.338v0zM413.040 688.352c-16.698 16.787-29.763 38.504-36.787 61.154l-0.035 0.119c-5.645 17.84-7.549 35.833-5.68 53.478l0.068 0.771c0.286 3.16 0.806 6.667 1.593 10.717 2.723 13.66 7.675 26.538 14.726 38.276l6.669 11.097-377.22 79.928 3.735-14.431c10.452-40.382 42.349-70.861 83.237-79.516l15.309-3.247c11.907-37.602 42.662-65.693 81.574-73.934l21.746-4.615c11.907-37.592 42.661-65.682 81.575-73.934l131.349-27.83-21.86 21.966zM640.34 694.794c9.298 13.138 16.844 27.675 22.075 42.693l117.703 24.942c-11.88-26.297-35.461-45.534-64.406-51.666l-75.372-15.969zM819.715 789.819l-151.614-32.123c2.753 12.908 3.807 25.849 3.143 38.692l212.877 45.108c-11.881-26.297-35.462-45.545-64.407-51.677zM917.239 867.509l-248.091-52.562c-0.139 0.776-0.287 1.563-0.445 2.372l-0.006 0.033c-2.309 11.597-6.006 22.713-11.033 33.183l324.005 68.651c-11.844-26.287-35.43-45.534-64.43-51.677zM587.352 664.561l132.215 28.014c39.17 8.307 70.128 36.582 82.113 74.422l21.889 4.645c39.169 8.296 70.126 36.572 82.112 74.422l15.41 3.268c41.157 8.711 73.266 39.391 83.78 80.040l3.76 14.526-379.702-80.455 6.712-11.17c7.098-11.815 12.083-24.778 14.823-38.528 0.793-4.077 1.316-7.607 1.603-10.788l0.070-0.776c1.881-17.761-0.035-35.872-5.717-53.83l-0.036-0.12c-7.070-22.8-20.221-44.66-37.028-61.558l-22.004-22.111z" />
<glyph unicode="&#xe926;" glyph-name="play_arrow" horiz-adv-x="1023" d="M121.516 944.112v-992.605l779.905 496.302-779.905 496.302z" />
<glyph unicode="&#xe927;" glyph-name="python" horiz-adv-x="1023" d="M511.624 939.395c-206.256 0-206.884-85.521-206.884-85.521v-171.041h248.073v-42.76h-413.454c0 0-124.193 19.808-124.193-213.801s124.193-213.801 124.193-213.801h124.193v69.485c0 103.128 81.119 187.076 181.102 187.076h134.569c77.031 0 139.6 22.009 139.6 101.556v283.288c0 0-0.629 85.521-206.884 85.521h-0.314zM387.431 853.875c22.638 0 41.503-19.179 41.503-42.76s-18.551-42.76-41.503-42.76c-22.952 0-41.503 19.179-41.503 42.76s18.551 42.76 41.503 42.76zM759.697 682.834v-112.246c0-103.128-81.119-144.316-181.102-144.316h-134.569c-77.032 0-139.6-64.769-139.6-144.316v-240.527c0 0 2.515-85.521 206.884-85.521s206.884 85.521 206.884 85.521v171.041h-248.073v42.76h413.454c0 0 124.193-21.695 124.193 213.801s-124.193 213.801-124.193 213.801h-123.879zM635.504 126.95c22.638 0 41.503-19.179 41.503-42.76s-18.55-42.76-41.503-42.76c-22.952 0-41.503 19.179-41.503 42.76s18.55 42.76 41.503 42.76z" />
<glyph unicode="&#xe928;" glyph-name="python_member_function" d="M429.275 636.135c20.862-69.171 63.99-128.919 121.168-171.134h-104.151c-98.14 0-178.183-84.062-178.183-187.231v-69.5h-122.155c0 0-122.175-19.733-122.175 213.933s122.175 213.933 122.175 213.933h283.32zM486.827 935.204c-26.309-33.121-46.377-71.294-58.452-112.789-5.83 16.141-20.712 27.673-38.091 27.673-22.439 0-40.698-19.208-40.698-42.778s18.259-42.778 40.698-42.778c10.963 0 20.932 4.589 28.262 12.029-2.096-14.962-3.179-30.24-3.179-45.766 0-17.64 1.398-34.961 4.091-51.86h-110.611v171.154c0 0 0.443 78.236 177.979 85.115zM621.026 425.013c40.148-16.729 84.266-25.979 130.556-25.979 98.205 0 186.632 41.636 248.127 107.979 0.932-13.004 1.43-26.984 1.43-42.011 0-235.524-122.175-213.953-122.175-213.953h-407.224v-42.778h244.33v-171.174c0 0-2.545-85.577-203.612-85.577s-203.612 85.577-203.612 85.577v240.674c0 79.578 61.704 144.433 137.445 144.433h132.334c14.603 0 28.805 0.914 42.402 2.81zM634.612 122.672c-22.44 0-40.718-19.208-40.718-42.778s18.299-42.799 40.718-42.799c22.419 0 40.739 19.228 40.739 42.799s-18.319 42.778-40.739 42.778zM953.032 818.701l-67.513 38.981c0.029-0.323 0.029-0.675 0.029-0.998 0-9.833-4.755-17.524-13.326-22.044l59.675-34.461-143.508-82.835c-0.147-9.422-0.352-19.96-0.616-31.114l157.422 90.878v-213.897c0-3.904-2.114-7.544-5.489-9.51l-185.278-106.963v46.965c-7.632-11.125-16.585-20.459-26.594-27.768v-19.226l-16.409 9.481c-11.624-5.46-24.304-8.542-37.719-8.923l48.638-28.091c5.812-3.346 12.299-5.020 18.786-5.020s12.974 1.673 18.786 5.020l193.115 111.484c11.565 6.692 18.757 19.138 18.757 32.553v222.938c0 13.414-7.192 25.86-18.757 32.553zM537.068 563.21v213.897l164.701-95.105c0.293 9.98 0.587 20.107 0.881 30.263l-152.256 87.913 185.248 106.963c3.405 1.966 7.573 1.966 10.978 0l12.886-7.427c9.511 6.135 20.078 10.362 31.496 12.534l-31.085 17.935c-11.594 6.692-25.978 6.692-37.572 0l-193.115-111.484c-11.565-6.692-18.757-19.138-18.757-32.553v-222.938c0-13.414 7.192-25.86 18.757-32.553l80.134-46.261c-0.587 2.73-0.88 5.577-0.88 8.512 0 7.338 3.229 13.796 8.512 17.788l-74.469 43.003c-3.346 1.966-5.46 5.606-5.46 9.51zM623.513 504.473c-3.845-2.202-6.223-6.458-6.223-11.565 0-22.074 21.369-36.926 53.188-36.926 47.904 0 84.801 35.195 98.686 94.165 8.483 35.488 10.362 152.901 10.714 188.037l0.059 4.344h4.344c23.336 0 38.893 0.939 47.464 2.877 5.988 9.217 10.068 26.447 10.42 44.235-14.999-3.053-32.758-4.432-57.209-4.432h-4.608l0.205 4.608c2.759 60.028 31.467 66.515 43.677 66.515 13.033 0 28.766-6.399 39.187-15.792 6.516 1.937 13.297 6.311 13.297 16.144 0 22.896-27.68 48.433-67.395 48.433-52.924 0-89.645-44.646-95.868-116.562l-0.352-4.021h-4.051c-13.033 0-31.261 1.321-37.954 1.849-2.524-3.581-3.699-7.544-3.699-12.358 0-9.452 20.195-28.267 40.86-30.85l3.963-0.499-0.176-7.103c-1.996-76.788-4.080-156.189-10.156-191.912-7.338-46.789-32.171-53.805-46.349-53.805s-24.627 5.019-32.054 14.618h0.029z" />
<glyph unicode="&#xe929;" glyph-name="python_object" d="M428.536 636.199c20.682-68.994 62.977-128.684 119.009-171.192h-101.736c-98.173 0-178.223-84.091-178.223-187.275v-69.544h-122.197c0 0-122.217-19.74-122.217 214.005s122.217 214.006 122.217 214.006h283.148zM616.77 424.496c40.899-17.75 86.012-27.593 133.407-27.593 98.823 0 187.731 42.792 249.187 110.841 0.965-13.217 1.48-27.444 1.48-42.758 0-235.584-122.217-214.026-122.217-214.026h-407.363v-42.793h244.413v-171.213c0 0-2.526-85.626-203.661-85.626s-203.681 85.626-203.681 85.626v240.756c0 79.606 61.745 144.482 137.491 144.482h132.38c13.234 0 26.138 0.751 38.562 2.303zM482.529 935.207c-24.846-32.762-43.818-70.217-55.344-110.793-6.272 15.173-20.674 25.83-37.383 25.83-22.447 0-40.732-19.235-40.732-42.813s18.285-42.793 40.732-42.793c10.546 0 20.173 4.241 27.417 11.183-1.82-14.145-2.759-28.564-2.759-43.201 0-18.244 1.458-36.151 4.265-53.609h-110.387v171.213c0 0 0.419 77.129 174.191 84.983zM634.215 122.56c-22.447 0-40.752-19.194-40.752-42.793s18.325-42.813 40.752-42.813c22.427 0 40.752 19.235 40.752 42.813s-18.325 42.793-40.752 42.793zM945.812 822.702l-186.463 107.66c-11.197 6.463-25.087 6.463-36.284 0l-186.491-107.66c-11.168-6.463-18.142-18.482-18.142-31.436v-215.32c0-12.926 6.945-24.973 18.142-31.436l186.491-107.66c5.613-3.232 11.877-4.847 18.142-4.847s12.558 1.616 18.142 4.847l186.491 107.66c11.168 6.463 18.142 18.482 18.142 31.436v215.32c0 12.926-6.945 24.973-18.142 31.436h-0.028zM728.366 463.467l-178.951 103.323c-3.26 1.871-5.301 5.386-5.301 9.156v206.589l184.224-106.356v-212.712h0.028zM557.012 804.815l178.894 103.323c3.288 1.871 7.314 1.871 10.602 0l178.923-103.323-184.224-106.356-184.195 106.356zM938.271 575.973c0-3.77-2.041-7.285-5.301-9.156l-178.923-103.323v212.712l184.224 106.356v-206.589z" />
<glyph unicode="&#xe92a;" glyph-name="question_mark" d="M591.791 204.589h-170.871c-0.323 24.549-0.646 39.407-0.646 44.898 0 55.234 9.044 100.779 27.456 136.632s55.234 75.907 109.823 120.805c54.912 44.575 87.858 73.969 98.195 87.858 16.796 21.641 24.872 45.867 24.872 72.354 0 36.5-14.535 67.832-43.929 94.318-29.394 26.164-68.478 39.084-118.221 39.084s-87.858-13.566-120.159-41.022c-31.978-27.133-54.265-68.801-66.217-124.681l-172.486 21.641c4.845 80.106 38.761 147.938 102.071 203.818s146 83.659 249.040 83.659c107.885 0 193.805-28.425 257.76-84.951 63.633-56.526 95.933-122.097 95.933-197.358 0-41.345-11.951-80.752-35.208-117.898-23.579-37.146-73.646-87.535-150.522-151.491-39.73-33.27-64.602-59.756-73.969-79.783s-13.889-55.881-12.92-107.885zM420.92-48.649v188.314h188.314v-188.314h-188.314z" />
<glyph unicode="&#xe92b;" glyph-name="s3_bucket" d="M511.917 703.327c-184.080 0-333.938-51.874-333.938-114.555l78.351-548.998c0-48.45 114.555-88.257 255.767-88.257s255.767 39.626 255.767 88.257l77.090 548.998c0.901 63.762-148.955 114.555-333.037 114.555zM511.917 508.26c-97.083 0-184.080 14.409-245.861 37.464l76.009-540.172c-12.068 3.244-23.235 7.747-33.142 12.068l-77.090 543.415c-10.987 5.584-20.893 12.068-28.639 18.732 50.793 40.707 169.67 70.606 307.46 70.606s256.847-28.639 307.46-70.606c-49.352-41.787-167.329-71.506-306.201-71.506zM861.343 639.386c-5.585 7.745-12.068 15.49-19.813 20.894-14.409 12.068-31.881 21.974-50.793 29.719-35.303 113.654-139.951 195.247-265.673 195.247h-25.216c-125.722 0-230.37-81.593-265.673-195.067-19.813-8.826-36.384-17.652-50.793-29.719-7.745-6.664-14.409-13.149-19.813-20.894 15.49 170.931 158.683 304.217 333.938 304.217h29.719c174.354-0.18 317.548-133.647 334.117-304.399z" />
<glyph unicode="&#xe92c;" glyph-name="scatter" d="M876.135 485.962v-75.275h-497.783c0.215 1.183 0.43 2.366 0.645 3.549 1.828 11.076 2.796 22.367 2.796 33.981s-0.968 23.12-2.904 34.196c-0.108 1.183-0.323 2.366-0.538 3.549h497.783zM876.135 126.686v-75.275c-154.851 0-233.244 103.342-302.283 194.532-57.639 75.92-108.503 143.022-196.252 160.335 0.215 1.505 0.538 2.903 0.753 4.409 0.215 1.183 0.43 2.366 0.645 3.549 1.828 11.076 2.796 22.367 2.796 33.981s-0.968 23.12-2.904 34.196c37.423-5.484 69.791-17.743 98.395-34.089 18.926-10.969 36.239-23.658 52.262-37.638 40.541-35.379 73.232-78.501 104.202-119.257 67.102-88.394 124.956-164.744 242.385-164.744zM876.135 845.238v-75.275c-117.429 0-175.283-76.35-242.385-164.744-30.863-40.756-63.661-83.878-104.202-119.257-16.023-13.98-33.336-26.669-52.262-37.637-28.604-16.453-60.973-28.604-98.288-34.089 1.828 11.076 2.796 22.367 2.796 33.981s-0.968 23.12-2.904 34.196c-0.108 1.183-0.323 2.366-0.538 3.549-0.215 1.505-0.538 3.011-0.86 4.409 87.749 17.206 138.613 84.308 196.36 160.335 69.038 91.19 147.431 194.532 302.283 194.532zM174.898 294.118c-85.168 0-154.206 69.038-154.206 154.206s69.038 154.206 154.206 154.206c85.168 0 154.206-69.038 154.206-154.206s-69.038-154.206-154.206-154.206zM1000.017 812.547c3.656-3.226 4.947-6.13-0.215-9.893l-138.506-101.298c-5.269-3.871-12.689 0-12.689 6.452v199.586c0 6.56 7.42 10.216 12.689 6.452zM1000.017 453.163c3.656-3.226 4.947-6.13-0.215-9.893l-138.506-101.298c-5.269-3.871-12.689 0-12.689 6.452v199.693c0 6.56 7.42 10.216 12.689 6.452zM1000.017 93.995c3.656-3.226 4.947-6.13-0.215-9.893l-138.506-101.298c-5.269-3.871-12.689 0-12.689 6.452v199.693c0 6.56 7.42 10.216 12.689 6.452z" />
<glyph unicode="&#xe92d;" glyph-name="share" d="M810.72 243.345c-37.998 0-71.775-14.777-97.529-38.421l-355.076 206.881c2.533 11.4 4.644 22.799 4.644 35.043s-2.111 23.221-4.644 35.043l351.275 204.77c27.021-24.91 62.486-40.532 101.752-40.532 82.752 0 149.461 66.709 149.461 149.461s-67.131 149.038-149.883 149.038c-82.752 0-149.461-66.708-149.461-149.461 0-11.822 2.111-23.221 4.644-35.043l-351.275-204.77c-27.021 24.91-62.486 40.532-101.751 40.532-82.752 0-149.461-66.708-149.461-149.461s66.709-149.461 149.461-149.461c39.265 0 74.73 15.622 101.751 40.532l354.654-207.303c-2.533-10.555-3.8-21.532-3.8-32.51 0-80.219 65.442-145.661 145.661-145.661s145.661 65.442 145.661 145.661c0 80.219-65.442 145.661-145.661 145.661h-0.422z" />
<glyph unicode="&#xe92e;" glyph-name="shared_memory" d="M660.386 712.86c0-40.221-32.606-72.827-72.827-72.827s-72.827 32.606-72.827 72.827c0 40.221 32.606 72.827 72.827 72.827s72.827-32.606 72.827-72.827zM932.503 871.8c0-40.221-32.606-72.827-72.827-72.827s-72.827 32.606-72.827 72.827c0 40.221 32.606 72.827 72.827 72.827s72.827-32.606 72.827-72.827zM932.503 553.921c0-40.221-32.606-72.827-72.827-72.827s-72.827 32.606-72.827 72.827c0 40.221 32.606 72.827 72.827 72.827s72.827-32.606 72.827-72.827zM854.754 545.556l-286.88 167.305 286.88 167.797 10.334-17.223-257.846-150.574 257.846-150.082-10.334-17.223zM954.127 467.176c1.675 1.415 3.427 2.742 5.248 3.975 5.965 4.038 12.673 7.058 19.872 8.808v7.79c10.278 9.269 19.986 19.158 29.065 29.607v-50.215c0-8.021-6.511-14.532-14.532-14.532l-0.020 0.020c-17.9 0-32.453-14.573-32.453-32.473s14.553-32.453 32.453-32.453c8.021 0 14.532-6.511 14.532-14.532v-148.834c0-8.021-6.511-14.532-14.532-14.532h-131.75c-8.021 0-14.532 6.511-14.532 14.532s6.511 14.532 14.532 14.532h62.375v29.677h-495.772v-29.677h365.39c8.021 0 14.532-6.511 14.532-14.532s-6.511-14.532-14.532-14.532h-434.764c-8.021 0-14.532 6.511-14.532 14.532v29.371c0 8.185-6.654 14.838-14.839 14.838s-14.839-6.654-14.839-14.838v-29.371c0-8.021-6.511-14.532-14.532-14.532h-83.173c-8.021 0-14.532 6.511-14.532 14.532s6.511 14.532 14.532 14.532h13.798v29.677h-131.505v-29.677h49.455c8.021 0 14.532-6.511 14.532-14.532s-6.511-14.532-14.532-14.532h-118.83c-8.021 0-14.532 6.511-14.532 14.532v148.834c0 8.021 6.511 14.532 14.532 14.532 17.9 0 32.453 14.553 32.453 32.453s-14.553 32.453-32.453 32.453c-8.021 0-14.532 6.511-14.532 14.532v109.666c0 8.021 6.511 14.532 14.532 14.532h92.031c8.021 0 14.532-6.511 14.532-14.532s-6.511-14.532-14.532-14.532h-77.478v-82.316c26.942-6.552 47.006-30.881 47.006-59.803s-20.064-53.251-47.006-59.803v-121.484h25.758v44.209c0 8.021 6.511 14.532 14.532 14.532h160.59c8.021 0 14.532-6.511 14.532-14.532v-44.209h25.758v14.839c0 24.227 19.696 43.923 43.923 43.923s43.923-19.717 43.923-43.923v-14.839h25.758v44.209c0 8.021 6.511 14.532 14.532 14.532h524.857c8.021 0 14.532-6.511 14.532-14.532v-44.209h25.758v121.484c-26.942 6.552-47.005 30.881-47.005 59.803 0 18.835 8.509 35.722 21.886 47.020zM447.626 591.34c4.858-9.971 10.19-19.669 15.969-29.065h-273.399c-8.021 0-14.532 6.511-14.532 14.532s6.511 14.532 14.532 14.532h257.431zM779.49 401.639c9.811 0.776 19.505 1.971 29.065 3.567v-37.095h49.251v49.189c9.903 3.241 19.606 6.927 29.085 11.033v-74.774c0-8.021-6.511-14.532-14.532-14.532h-78.336c-8.021 0-14.532 6.511-14.532 14.532v48.081zM618.9 427.947c9.474-4.071 19.17-7.723 29.065-10.932v-48.904h49.251v36.95c9.567-1.571 19.267-2.741 29.085-3.492v-48.012c0-8.021-6.511-14.532-14.532-14.532h-78.336c-8.021 0-14.532 6.511-14.532 14.532v74.389zM312.252 339.025h78.336c8.021 0 14.532 6.511 14.532 14.532v156.671c0 8.021-6.511 14.532-14.532 14.532h-78.336c-8.021 0-14.532-6.511-14.532-14.532v-156.671c0-8.021 6.511-14.532 14.532-14.532zM326.785 495.697h49.251v-127.586h-49.251v127.586zM151.661 339.025h78.336c8.021 0 14.532 6.511 14.532 14.532v156.671c0 8.021-6.511 14.532-14.532 14.532h-78.336c-8.021 0-14.532-6.511-14.532-14.532v-156.671c0-8.021 6.511-14.532 14.532-14.532zM166.193 495.697h49.251v-127.586h-49.251v127.586zM490.332 524.762c8.367-10.202 17.317-19.907 26.8-29.065h-29.76v-127.586h49.251v110.156c9.292-7.689 19-14.893 29.085-21.571v-103.138c0-8.021-6.511-14.532-14.532-14.532h-78.336c-8.021 0-14.532 6.511-14.532 14.532v156.671c0 8.021 6.511 14.532 14.532 14.532h17.491z" />
<glyph unicode="&#xe92f;" glyph-name="singularity" d="M483.266-47.453c-257.512 16.212-461.969 228.298-466.94 484.366h208.375c5.128-142.222 116.008-260.294 258.58-275.351l-0.013-209.015zM534.571-47.808v208.791c145.523 11.771 260.414 131.139 265.619 275.969h208.401c-4.947-258.732-213.619-472.135-474.020-484.761zM483.266 944.104v-209.054c-132.112-13.91-238.388-116.481-256.098-247.172h-209.409c18.701 244.927 218.534 440.777 465.509 456.226zM534.571 944.459c249.796-12.064 453.68-209.052 472.562-456.582h-209.383c-18.036 133.253-128.129 236.924-263.142 247.79l-0.040 208.791z" />
<glyph unicode="&#xe930;" glyph-name="snap_to_grid" horiz-adv-x="1023" d="M548.848 552.413v-564.049c0-20.070-16.27-36.34-36.34-36.34s-36.34 16.27-36.34 36.34v160.935h-176.509v72.68h176.509v190.007h-176.509v72.68h176.509v192.084h-176.509v72.68h176.509v158.858c0 20.070 16.27 36.34 36.34 36.34 16.291 0 30.069-10.715 34.689-25.479-35.634-51.8-56.493-114.554-56.493-182.178s21.503-132.299 58.144-184.556zM1007.77 448.324c0-20.070-16.27-36.34-36.34-36.34h-144.322v3.447c63.294 2.803 121.833 23.901 170.466 58.134 6.313-6.531 10.196-15.44 10.196-25.241zM284.083 908.287v-919.926c0-20.070-16.27-36.34-36.34-36.34s-36.34 16.27-36.34 36.34v160.935h-159.896c-20.070 0-36.34 16.27-36.34 36.34s16.27 36.34 36.34 36.34h159.896v190.007h-159.896c-20.070 0-36.34 16.27-36.34 36.34s16.27 36.34 36.34 36.34h159.896v192.084h-159.896c-20.070 0-36.34 16.27-36.34 36.34s16.27 36.34 36.34 36.34h159.896v158.858c0 20.070 16.27 36.34 36.34 36.34s36.34-16.27 36.34-36.34zM811.533 415.11v-426.749c0-20.070-16.27-36.34-36.34-36.34s-36.34 16.27-36.34 36.34v160.935h-174.433v72.68h174.433v190.007h-174.433v72.68h48.291c54.645-43.359 123.712-69.327 198.822-69.555zM1007.77 185.637c0-20.070-16.27-36.34-36.34-36.34h-144.322v72.68h144.322c20.070 0 36.34-16.27 36.34-36.34zM805.398 845.065h101.493v92.294h-101.493c-61.311 0-118.947-21.171-162.305-59.598-43.349-38.438-67.229-89.542-67.229-143.907s23.88-105.459 67.229-143.907c43.359-38.427 100.994-59.598 162.305-59.598h101.493v92.294h-101.493c-69.161 0-125.436 49.89-125.436 111.211s56.275 111.211 125.436 111.211zM926.67 937.359v-92.294h23.87c6.936 0 12.563 5.627 12.563 12.563v67.167c0 6.936-5.628 12.563-12.563 12.563h-23.87zM926.67 622.644v-92.294h23.87c6.936 0 12.563 5.627 12.563 12.563v67.167c0 6.936-5.628 12.563-12.563 12.563h-23.87z" />
<glyph unicode="&#xe931;" glyph-name="stop" d="M15.18 944.821h993.558v-993.558h-993.558v993.558z" />
<glyph unicode="&#xe932;" glyph-name="sub_graph" d="M176.067 944.033c-88.191 0-159.742-71.53-159.742-159.722s71.551-159.722 159.742-159.722c88.192 0 159.722 71.469 159.722 159.722s-71.51 159.722-159.722 159.722zM176.067 685.57c-54.562 0-98.76 44.198-98.76 98.761s44.198 98.761 98.76 98.761c54.563 0 98.74-44.239 98.74-98.761s-44.178-98.761-98.74-98.761zM746.531 862.056c-87.558 0-158.557-71.019-158.557-158.577s70.999-158.557 158.557-158.557c87.558 0 158.556 70.978 158.556 158.557s-70.978 158.577-158.556 158.577zM746.531 605.454c-54.174 0-98.025 43.871-98.025 98.025s43.85 98.025 98.025 98.025c54.174 0 98.024-43.891 98.024-98.025s-43.871-98.025-98.024-98.025zM297.724 236.844c-78.624 0-142.406-63.762-142.406-142.386s63.762-142.406 142.406-142.406c78.644 0 142.406 63.721 142.406 142.406s-63.742 142.386-142.406 142.386zM297.724 6.41c-48.634 0-88.048 39.394-88.048 88.048s39.414 88.028 88.048 88.028c48.634 0 88.028-39.435 88.028-88.028s-39.394-88.048-88.028-88.048zM866.185 318.555c-78.604 0-142.386-63.762-142.386-142.407s63.762-142.386 142.386-142.386c78.624 0 142.406 63.721 142.406 142.386s-63.721 142.407-142.406 142.407zM866.185 88.121c-48.634 0-88.028 39.394-88.028 88.028s39.394 88.049 88.028 88.049c48.634 0 88.048-39.435 88.048-88.049s-39.394-88.028-88.048-88.028zM659.3 546.209l-237.16-321.857c-11.141 10.651-23.591 19.891-37.186 27.414l237.16 321.835c11.141-10.651 23.591-19.891 37.186-27.394zM849.218 355.212c-15.66-1.431-30.747-4.906-44.995-10.181l-40.723 179.429c15.66 1.411 30.767 4.906 45.016 10.181l40.702-179.429zM692.868 127.923l-215.307-30.951c-0.225 15.823-2.474 31.155-6.521 45.731l215.327 30.93c0.205-15.802 2.453-31.135 6.501-45.711zM573.113 751.398c-4.048-14.617-6.235-29.929-6.419-45.772l-217.269 30.808c4.068 14.617 6.255 29.929 6.44 45.772l217.249-30.808z" />
<glyph unicode="&#xe933;" glyph-name="table_column_visibility" d="M15.731 696.898v142.043c0 58.187 47.241 105.428 105.428 105.428h781.122c58.187 0 105.428-47.241 105.428-105.428v-142.043h-991.978zM15.731 628.286h278.189v-675.896h-172.76c-58.187 0-105.428 47.241-105.428 105.428v570.469zM1007.71 628.286v-570.469c0-58.187-47.241-105.428-105.428-105.428h-176.736v675.896h282.163zM362.023 628.286h299.395v-675.896h-299.395v675.896zM566.709 611.080h-186.492v-178.574l186.492 178.574zM643.225 444.813v166.267h-38.378l-224.63-224.63v-204.645l263.007 263.007zM643.225 193.748v204.645l-263.007-263.007v-167.278h37.367l225.641 225.641zM461.796-31.893h181.429v179.314l-181.429-179.314z" />
<glyph unicode="&#xe934;" glyph-name="tune" d="M15.707 172.706v-110.048h330.582v110.048h-330.582zM15.707 834.297v-110.048h551.114v110.048h-551.114zM566.82-48.261v110.483h441.066v110.048h-441.066v110.048h-110.049v-330.579h110.049zM236.239 614.202v-110.483h-220.533v-110.048h220.533v-110.048h110.049v330.579h-110.049zM1007.887 393.236v110.048h-551.114v-110.048h551.114zM677.305 613.767h110.049v110.048h220.533v110.048h-220.533v110.483h-110.049v-330.579z" />
<glyph unicode="&#xe935;" glyph-name="home" d="M1024 369.556l-512 397.426-512-397.428v162.038l512 397.426 512-397.428zM896 384v-384h-256v256h-256v-256h-256v384l384 288z" />
<glyph unicode="&#xe936;" glyph-name="pencil" d="M864 960c88.364 0 160-71.634 160-160 0-36.020-11.91-69.258-32-96l-64-64-224 224 64 64c26.742 20.090 59.978 32 96 32zM64 224l-64-288 288 64 592 592-224 224-592-592zM715.578 596.422l-448-448-55.156 55.156 448 448 55.156-55.156z" />
<glyph unicode="&#xe937;" glyph-name="pencil2" d="M384 320l128 64 448 448-64 64-448-448-64-128zM289.3 92.902c-31.632 66.728-65.666 100.762-132.396 132.394l99.096 272.792 128 77.912 384 384h-192l-384-384-192-640 640 192 384 384v192l-384-384-77.912-128z" />
<glyph unicode="&#xe938;" glyph-name="quill" d="M0-64c128 384 463 1024 1024 1024-263-211-384-704-576-704s-192 0-192 0l-192-320h-64z" />
<glyph unicode="&#xe939;" glyph-name="pen" d="M1018.17 668.11l-286.058 286.058c-9.334 9.334-21.644 7.234-27.356-4.666l-38.354-79.904 267.198-267.198 79.904 38.354c11.9 5.712 14 18.022 4.666 27.356zM615.384 824.616l-263.384-21.95c-17.5-2.166-32.080-5.898-37.090-28.752-0.006-0.024-0.012-0.042-0.018-0.066-71.422-343.070-314.892-677.848-314.892-677.848l57.374-57.374 271.986 271.99c-5.996 12.53-9.36 26.564-9.36 41.384 0 53.020 42.98 96 96 96s96-42.98 96-96-42.98-96-96-96c-14.82 0-28.852 3.364-41.384 9.36l-271.988-271.986 57.372-57.374c0 0 334.778 243.47 677.848 314.892 0.024 0.006 0.042 0.012 0.066 0.018 22.854 5.010 26.586 19.59 28.752 37.090l21.95 263.384-273.232 273.232z" />
</font>
</defs>
</svg>
