<?xml version="1.0" encoding="UTF-8" standalone="no"?><!DOCTYPE svg PUBLIC "-//W3C//DTD SVG 1.1//EN" "http://www.w3.org/Graphics/SVG/1.1/DTD/svg11.dtd"><svg width="100%" height="100%" viewBox="0 0 4167 4167" version="1.1" xmlns="http://www.w3.org/2000/svg" xmlns:xlink="http://www.w3.org/1999/xlink" xml:space="preserve" xmlns:serif="http://www.serif.com/" style="fill-rule:evenodd;clip-rule:evenodd;stroke-linejoin:round;stroke-miterlimit:2;"><rect id="add_to_palette" x="0" y="0" width="4166.67" height="4166.67" style="fill:none;"/><rect x="0" y="0" width="4166.67" height="4166.67" style="fill:none;"/><clipPath id="_clip1"><rect id="addToPalette.svg" x="38.839" y="44.969" width="4076.73" height="4076.73"/></clipPath><g clip-path="url(#_clip1)"><g id="Layer_1-2"><g><path d="M1953.72,44.969c-1057.54,0 -1914.88,845.006 -1914.88,1887.41c0,1231.01 1106.17,1789.47 1637.11,1862.93c372.44,51.495 536.269,-88.098 560.434,-244.814c3.253,-20.91 4.731,-39.968 4.731,-57.47c0,-141.739 -96.869,-181.581 -137.848,-297.656c-23.024,-45.774 -20.236,-142.37 -14.364,-173.629c12.674,-66.978 103.249,-249.694 250.73,-259.497c129.99,-8.625 265.473,-4.88 521.103,-4.88c125.935,-0 257.151,-31.975 408.053,-122.386c506.359,-303.546 497.023,-593.208 526.046,-807.815c103.249,-763.766 -589.668,-1782.15 -1841.16,-1782.15l0.043,-0.042Zm-1192.18,1880.05c-176.504,0 -319.548,-142.454 -319.548,-318.229c-0,-175.774 143.044,-318.228 319.548,-318.228c176.503,-0 319.548,142.454 319.548,318.228c-0,175.775 -143.045,318.229 -319.548,318.229Zm639.095,-827.42c-176.503,0 -319.547,-142.454 -319.547,-318.229c-0,-175.774 143.044,-318.228 319.547,-318.228c176.504,-0 319.548,142.454 319.548,318.228c0,175.775 -143.044,318.229 -319.548,318.229Zm1052.09,0c-176.503,0 -319.548,-142.454 -319.548,-318.229c0,-175.774 143.045,-318.228 319.548,-318.228c176.503,-0 319.548,142.454 319.548,318.228c-0,175.775 -143.045,318.229 -319.548,318.229Zm614.551,827.42c-176.503,0 -319.548,-142.454 -319.548,-318.229c0,-175.774 143.045,-318.228 319.548,-318.228c176.503,-0 319.548,142.454 319.548,318.228c-0,175.775 -143.045,318.229 -319.548,318.229Z" style="fill-rule:nonzero;"/><path d="M4115.57,3348.26l0,357.355l-423.134,0l-0,416.087l-358.837,0l0,-416.087l-417.812,0l0,-357.355l417.812,-0l0,-421.388l358.837,-0l-0,421.388l423.134,-0Z" style="fill-rule:nonzero;"/><rect x="38.839" y="44.969" width="4076.73" height="4076.73" style="fill:none;"/></g></g></g></svg>