<?xml version="1.0" encoding="UTF-8"?>
<svg id="Layer_2" data-name="Layer 2" xmlns="http://www.w3.org/2000/svg" viewBox="0 0 1000 1000">
  <defs>
    <style>
      .cls-1 {
        fill: none;
      }
    </style>
  </defs>
  <g id="Layer_1-2" data-name="Layer 1">
    <g>
      <path d="m478.27,23C227.94,23,25,223.85,25,471.62c0,292.6,261.84,425.34,387.52,442.8,88.16,12.24,126.94-20.94,132.66-58.19.77-4.97,1.12-9.5,1.12-13.66,0-33.69-22.93-43.16-32.63-70.75-5.45-10.88-4.79-33.84-3.4-41.27,3-15.92,24.44-59.35,59.35-61.68,30.77-2.05,62.84-1.16,123.35-1.16,29.81,0,60.87-7.6,96.59-29.09,119.86-72.15,117.65-141,124.52-192.01,24.44-181.54-139.58-423.6-435.82-423.6ZM196.07,469.87c-41.78,0-75.64-33.86-75.64-75.64s33.86-75.64,75.64-75.64,75.64,33.86,75.64,75.64-33.86,75.64-75.64,75.64Zm151.28-196.67c-41.78,0-75.64-33.86-75.64-75.64s33.86-75.64,75.64-75.64,75.64,33.86,75.64,75.64-33.86,75.64-75.64,75.64Zm249.04,0c-41.78,0-75.64-33.86-75.64-75.64s33.86-75.64,75.64-75.64,75.64,33.86,75.64,75.64-33.86,75.64-75.64,75.64Zm145.47,196.67c-41.78,0-75.64-33.86-75.64-75.64s33.86-75.64,75.64-75.64,75.64,33.86,75.64,75.64-33.86,75.64-75.64,75.64Z"/>
      <polygon points="990 808.16 990 893.1 889.84 893.1 889.84 992 804.9 992 804.9 893.1 706 893.1 706 808.16 804.9 808.16 804.9 708 889.84 708 889.84 808.16 990 808.16"/>
      <rect class="cls-1" width="1000" height="1000"/>
    </g>
  </g>
</svg>