<?xml version="1.0" encoding="UTF-8" standalone="no"?><!DOCTYPE svg PUBLIC "-//W3C//DTD SVG 1.1//EN" "http://www.w3.org/Graphics/SVG/1.1/DTD/svg11.dtd"><svg width="100%" height="100%" viewBox="0 0 4171 4167" version="1.1" xmlns="http://www.w3.org/2000/svg" xmlns:xlink="http://www.w3.org/1999/xlink" xml:space="preserve" xmlns:serif="http://www.serif.com/" style="fill-rule:evenodd;clip-rule:evenodd;stroke-linejoin:round;stroke-miterlimit:2;"><rect id="bash" x="4.034" y="0" width="4166.67" height="4166.67" style="fill:none;"/><rect x="4.034" y="0" width="4166.67" height="4166.67" style="fill:none;"/><clipPath id="_clip1"><rect id="bash.svg" x="55.133" y="51.099" width="4064.47" height="4064.47"/></clipPath><g clip-path="url(#_clip1)"><g id="Layer-1" serif:id="Layer 1"><path id="rect23" d="M231.715,665.19c-97.523,0 -176.582,76.707 -176.582,171.329l0,2493.63c0,94.622 79.059,171.328 176.582,171.328l3712.37,0c97.524,0 176.583,-76.706 176.583,-171.328l-0,-2493.63c-0,-94.622 -79.059,-171.329 -176.583,-171.329l-3712.37,0Zm577.203,280.645l224.867,-0l-0,179.694l225.211,-0l0,179.359l224.867,0l-0,179.359l-224.867,0l0,-179.359l-674.944,0l-0,358.719l674.944,-0l0,179.693l224.867,0l-0,358.719l-224.867,-0l0,179.359l-225.211,0l-0,179.694l-224.867,0l0,-179.694l-224.866,0l-0,-179.359l-225.212,-0l0,-179.359l225.212,-0l-0,179.359l674.944,-0l0,-358.719l-674.944,0l-0,-179.693l-225.212,-0l0,-358.719l225.212,0l-0,-179.359l224.866,-0l0,-179.694Zm899.811,1615.24l899.811,0l0,179.359l-899.811,0l0,-179.359Z"/></g></g></svg>