<?xml version="1.0" encoding="UTF-8"?>
<svg id="Layer_2" data-name="Layer 2" xmlns="http://www.w3.org/2000/svg" viewBox="0 0 95.6 80.83">
  <defs>
    <style>
      .cls-1 {
        fill: #231f20;
      }
    </style>
  </defs>
  <g id="Layer_1-2" data-name="Layer 1">
    <path class="cls-1" d="m15.21,22.87l2.93-5.5L26.29,2.08c.49-.93-.21-2.04-1.26-2L1.3,1.1C.26,1.15-.35,2.31.22,3.19l12.65,19.77c.56.87,1.85.82,2.34-.09Z"/>
    <path class="cls-1" d="m39.22,20.22l-5.58,11.17c-.33-.49-.68-.99-1.03-1.47-1.47-2-1.59-2.37-3.07-4.19l5.41-10.38c1.81,1.8,2.11,2.32,3.91,4.44.13.15.24.29.37.44Z"/>
    <path class="cls-1" d="m31.83,12.78l-5.24,10.41c-2.29-2.11-3.76-3.15-5.7-4.41l5.18-10.13c1.99,1.24,3.43,2.17,5.76,4.14Z"/>
    <path class="cls-1" d="m95.35,3.4l-12.51,19.66c-.65,1.04-2.18.97-2.75-.12l-2.84-5.44c-3.72,2.17-11.52,7.37-17.35,17.57-5.89,10.31-6.4,20-6.38,24.32v21.44h-11.41v-21.59c0-.12,0-.25-.02-.39v-.09c.03-5.47.81-16.45,7.18-28.23,7.33-13.54,17.97-20.43,22.7-23.17l-2.62-5.04c-.57-1.09.25-2.37,1.47-2.32l23.25.96c1.23.05,1.94,1.41,1.28,2.44Z"/>
    <path class="cls-1" d="m46.16,30.3c-.61,1.07-1.19,2.21-1.76,3.41-2.17,4.63-3.37,9.03-4.03,12.82-1.02-4.05-1.9-7.2-4.2-11.98l5.73-11.36c1.94,3.04,2.85,4.56,4.25,7.11Z"/>
  </g>
</svg>