<?xml version="1.0" encoding="UTF-8" standalone="no"?><!DOCTYPE svg PUBLIC "-//W3C//DTD SVG 1.1//EN" "http://www.w3.org/Graphics/SVG/1.1/DTD/svg11.dtd"><svg width="100%" height="100%" viewBox="0 0 4171 4167" version="1.1" xmlns="http://www.w3.org/2000/svg" xmlns:xlink="http://www.w3.org/1999/xlink" xml:space="preserve" xmlns:serif="http://www.serif.com/" style="fill-rule:evenodd;clip-rule:evenodd;stroke-linejoin:round;stroke-miterlimit:2;"><rect id="branch" x="2.203" y="0" width="4166.67" height="4166.67" style="fill:none;"/><g id="branch.svg"><clipPath id="_clip1"><rect x="78.17" y="392.23" width="4014.73" height="3394.47"/></clipPath><g clip-path="url(#_clip1)"><g id="Layer_1-2"><path d="M716.916,1352.66l123.045,-230.973l342.261,-642.106c20.577,-39.055 -8.819,-85.67 -52.914,-83.99l-996.545,42.835c-43.674,2.1 -69.292,50.814 -45.354,87.77l531.238,830.243c23.517,36.536 77.691,34.436 98.269,-3.779Z" style="fill-rule:nonzero;"/><path d="M1725.22,1241.37l-234.333,469.085c-13.859,-20.577 -28.557,-41.575 -43.255,-61.732c-61.733,-83.991 -66.773,-99.529 -128.925,-175.96l227.193,-435.909c76.012,75.591 88.61,97.428 164.201,186.458c5.46,6.299 10.079,12.178 15.538,18.478l-0.419,-0.42Z" style="fill-rule:nonzero;"/><path d="M1414.88,928.928l-220.055,437.169c-96.169,-88.609 -157.902,-132.284 -239.372,-185.198l217.535,-425.411c83.57,52.074 144.043,91.13 241.892,173.86l-0,-0.42Z" style="fill-rule:nonzero;"/><path d="M4082.41,535.014l-525.359,825.624c-27.297,43.675 -91.55,40.735 -115.487,-5.039l-119.266,-228.454c-156.222,91.129 -483.784,309.504 -728.615,737.854c-247.352,432.97 -268.769,839.903 -267.929,1021.32l-0,900.375l-479.165,0l0,-906.674c0,-5.04 0,-10.499 -0.839,-16.379l-0,-3.779c1.259,-229.713 34.016,-690.82 301.524,-1185.52c307.825,-568.614 754.653,-857.961 953.29,-973.027l-110.027,-211.656c-23.938,-45.775 10.498,-99.528 61.732,-97.429l976.387,40.316c51.654,2.099 81.471,59.213 53.754,102.468Z" style="fill-rule:nonzero;"/><path d="M2016.66,1664.68c-25.617,44.934 -49.975,92.809 -73.912,143.203c-91.129,194.437 -141.523,379.216 -169.24,538.378c-42.835,-170.081 -79.791,-302.365 -176.38,-503.102l240.632,-477.065c81.471,127.666 119.687,191.498 178.48,298.586l0.42,-0Z" style="fill-rule:nonzero;"/></g></g><clipPath id="_clip2"><rect x="78.17" y="392.23" width="4014.73" height="3394.47"/></clipPath><g clip-path="url(#_clip2)"><rect x="9.167" y="0" width="4166.67" height="4166.67" style="fill:none;"/></g></g></svg>