<?xml version="1.0" encoding="UTF-8" standalone="no"?><!DOCTYPE svg PUBLIC "-//W3C//DTD SVG 1.1//EN" "http://www.w3.org/Graphics/SVG/1.1/DTD/svg11.dtd"><svg width="100%" height="100%" viewBox="0 0 4171 4167" version="1.1" xmlns="http://www.w3.org/2000/svg" xmlns:xlink="http://www.w3.org/1999/xlink" xml:space="preserve" xmlns:serif="http://www.serif.com/" style="fill-rule:evenodd;clip-rule:evenodd;stroke-linejoin:round;stroke-miterlimit:2;"><rect id="build" x="2.203" y="0" width="4166.67" height="4166.67" style="fill:none;"/><clipPath id="_clip1"><rect x="2.203" y="0" width="4166.67" height="4166.67"/></clipPath><g clip-path="url(#_clip1)"><rect x="2.203" y="6.13" width="4166.67" height="4166.67" style="fill:none;"/><rect x="47.173" y="44.969" width="4076.73" height="4076.73" style="fill:none;fill-rule:nonzero;"/><path d="M4070.51,3369.3l-1683.76,-1683.76c166.526,-425.567 74.012,-925.145 -277.543,-1276.7c-370.058,-370.058 -925.145,-444.07 -1369.21,-240.538l795.625,795.625l-555.087,555.087l-814.128,-795.625c-222.035,444.07 -129.52,999.156 240.538,1369.21c351.555,351.556 851.133,444.07 1276.7,277.544l1683.76,1683.76c74.011,74.011 185.029,74.011 259.04,-0l425.567,-425.567c92.514,-74.012 92.514,-203.532 18.503,-259.041Z" style="fill-rule:nonzero;"/></g></svg>