<?xml version="1.0" encoding="UTF-8"?>
<svg id="Layer_2" data-name="Layer 2" xmlns="http://www.w3.org/2000/svg" viewBox="0 0 1000 1000">
  <defs>
    <style>
      .cls-1 {
        fill: none;
      }
    </style>
  </defs>
  <g id="Layer_1-2" data-name="Layer 1">
    <g>
      <path class="cls-1" d="m510.31,74.26c-3.97-8.68-5.39-17.92-2.09-28.38,3.22-10.19,13.88-17.5,29.35-22.45-10.59,15.97-19.74,32.98-27.26,50.83Z"/>
      <path class="cls-1" d="m739.88,646.34c16.04,85.33,26.51,118.7,18.44,126.77-9.82,9.81-64.97-22.47-152.13-28.81-63.39-4.61-107.38-13.24-117.56,17.29-10.37,31.11,45.05,61.63,51.86,97.96,6.92,36.88,2.06,59.96-27.66,97.96-37.92,48.51-154.6,45.55-198.23-17.29-23.51-33.87-28.24-86.48-4.61-118.7,25.36-34.58,33.18-44.18,28.82-58.78-7.79-26.03-89.97-23.93-124.47-23.05-109.94,2.8-135.75,20.33-167.12-2.31-40.76-29.41-35.92-95-32.27-127.92,5.15-46.45,26.57-122.29,63.39-126.78,26.95-3.29,42.12,39.14,80.68,38.03,33.19-.95,50.71-28.81,54.16-38.03,17.96-47.9-1.15-123.32-4.61-131.39-11.33-26.45-40.76-46.16-73.76-36.88-36.88,10.38-56.16,69.93-77.22,65.7-30.56-6.15-26.36-138.73-25.35-170.57,2.82-88.89,9.37-132.88,40.34-162.51C99.08,21.68,170.54,9,213.18,9c63.85,0,141.29,1.67,144.07,39.19,4.61,62.23-62.24,40.33-44.95,100.26,11.34,39.31,98.52,78.53,174.33,66.51,9.09,143.51,115.52,260.59,254,285.94-18.09,13.26-9.72,97.71-.75,145.44Z"/>
      <path class="cls-1" d="m797,506c53.08,0,103.06-13.3,146.78-36.76-9.97,45.08-40.24,105.74-85.19,99.88-41.06-5.36-74.93-50.24-98.5-65.29,12.1,1.43,24.42,2.17,36.91,2.17Z"/>
      <path class="cls-1" d="m805.09,151.46l118.81-109.84c8.36-7.75,21.75-7.59,29.9.34,8.16,7.93,8.01,20.62-.36,28.35l-121.37,112.23h58.59c11.68,0,21.16,8.97,21.16,20.05s-9.48,20.05-21.16,20.05h-82.9c-11.62,0-22.23-4.19-30.22-11.08h0c-3.39-2.92-6.3-6.32-8.61-10.08-3.91-6.31-6.14-13.64-6.14-21.47v-78.56c0-11.07,9.46-20.05,21.15-20.05s21.16,8.98,21.16,20.05v50.01Z"/>
      <path class="cls-1" d="m975,184.29v139.5c0,23.53-20.21,42.68-45.04,42.68h-273.92c-24.83,0-45.04-19.15-45.04-42.68V64.21c0-23.53,20.21-42.68,45.04-42.68h148.36c11.13,0,20.16,8.55,20.16,19.1s-9.03,19.1-20.16,19.1h-148.36c-2.6,0-4.72,2.01-4.72,4.48v259.58c0,2.47,2.12,4.48,4.72,4.48h273.92c2.6,0,4.72-2.01,4.72-4.48v-139.5c0-10.55,9.03-19.1,20.16-19.1s20.16,8.55,20.16,19.1Z"/>
      <path d="m537.57,23.43c-10.59,15.97-19.74,32.98-27.26,50.83-3.97-8.68-5.39-17.92-2.09-28.38,3.22-10.19,13.88-17.5,29.35-22.45Z"/>
      <path d="m758.32,773.11c-9.82,9.81-64.97-22.47-152.13-28.81-63.39-4.61-107.38-13.24-117.56,17.29-10.37,31.11,45.05,61.63,51.86,97.96,6.92,36.88,2.06,59.96-27.66,97.96-37.92,48.51-154.6,45.55-198.23-17.29-23.51-33.87-28.24-86.48-4.61-118.7,25.36-34.58,33.18-44.18,28.82-58.78-7.79-26.03-89.97-23.93-124.47-23.05-109.94,2.8-135.75,20.33-167.12-2.31-40.76-29.41-35.92-95-32.27-127.92,5.15-46.45,26.57-122.29,63.39-126.78,26.95-3.29,42.12,39.14,80.68,38.03,33.19-.95,50.71-28.81,54.16-38.03,17.96-47.9-1.15-123.32-4.61-131.39-11.33-26.45-40.76-46.16-73.76-36.88-36.88,10.38-56.16,69.93-77.22,65.7-30.56-6.15-26.36-138.73-25.35-170.57,2.82-88.89,9.37-132.88,40.34-162.51C99.08,21.68,170.54,9,213.18,9c63.85,0,141.29,1.67,144.07,39.19,4.61,62.23-62.24,40.33-44.95,100.26,11.34,39.31,98.52,78.53,174.33,66.51,9.09,143.51,115.52,260.59,254,285.94-18.09,13.26-9.72,97.71-.75,145.44,16.04,85.33,26.51,118.7,18.44,126.77Z"/>
      <path d="m943.78,469.24c-9.97,45.08-40.24,105.74-85.19,99.88-41.06-5.36-74.93-50.24-98.5-65.29,12.1,1.43,24.42,2.17,36.91,2.17,53.08,0,103.06-13.3,146.78-36.76Z"/>
      <path d="m975,184.29v139.5c0,23.53-20.21,42.68-45.04,42.68h-273.92c-24.83,0-45.04-19.15-45.04-42.68V64.21c0-23.53,20.21-42.68,45.04-42.68h148.36c11.13,0,20.16,8.55,20.16,19.1s-9.03,19.1-20.16,19.1h-148.36c-2.6,0-4.72,2.01-4.72,4.48v259.58c0,2.47,2.12,4.48,4.72,4.48h273.92c2.6,0,4.72-2.01,4.72-4.48v-139.5c0-10.55,9.03-19.1,20.16-19.1s20.16,8.55,20.16,19.1Z"/>
      <path d="m953.44,70.31l-121.37,112.23h58.59c11.68,0,21.16,8.97,21.16,20.05s-9.48,20.05-21.16,20.05h-82.9c-11.62,0-22.23-4.19-30.22-11.08h0c-3.39-2.92-6.3-6.32-8.61-10.08-3.91-6.31-6.14-13.64-6.14-21.47v-78.56c0-11.07,9.46-20.05,21.15-20.05s21.16,8.98,21.16,20.05v50.01l118.81-109.84c8.36-7.75,21.75-7.59,29.9.34,8.16,7.93,8.01,20.62-.36,28.35Z"/>
      <rect class="cls-1" width="1000" height="1000"/>
    </g>
  </g>
</svg>