<?xml version="1.0" encoding="UTF-8" standalone="no"?><!DOCTYPE svg PUBLIC "-//W3C//DTD SVG 1.1//EN" "http://www.w3.org/Graphics/SVG/1.1/DTD/svg11.dtd"><svg width="100%" height="100%" viewBox="0 0 4171 4171" version="1.1" xmlns="http://www.w3.org/2000/svg" xmlns:xlink="http://www.w3.org/1999/xlink" xml:space="preserve" xmlns:serif="http://www.serif.com/" style="fill-rule:evenodd;clip-rule:evenodd;stroke-linejoin:round;stroke-miterlimit:2;"><rect id="collapse_component" x="4.026" y="1.822" width="4166.67" height="4166.67" style="fill:none;"/><rect x="4.026" y="1.822" width="4166.67" height="4166.67" style="fill:none;"/><clipPath id="_clip1"><rect id="collapseComponent.svg" x="47.896" y="45.692" width="4078.93" height="4078.93"/></clipPath><g clip-path="url(#_clip1)"><g id="Layer_1-2"><g><path d="M2155.93,316.771c-16.491,-36.055 -22.389,-74.436 -8.682,-117.885c13.376,-42.328 57.656,-72.692 121.915,-93.254c-43.989,66.337 -81.996,136.993 -113.233,211.139Z" style="fill:none;fill-rule:nonzero;"/><path d="M3109.52,2693.1c66.628,354.447 110.118,493.06 76.597,526.581c-40.791,40.75 -269.875,-93.336 -631.923,-119.671c-263.311,-19.15 -446.038,-54.997 -488.324,71.819c-43.075,129.226 187.13,256.001 215.418,406.91c28.744,153.193 8.556,249.063 -114.895,406.909c-157.514,201.502 -642.183,189.207 -823.414,-71.82c-97.657,-140.69 -117.305,-359.223 -19.15,-493.06c105.342,-143.639 137.825,-183.516 119.714,-244.162c-32.358,-108.124 -373.72,-99.401 -517.028,-95.746c-456.672,11.631 -563.882,84.448 -694.188,-9.595c-169.31,-122.164 -149.206,-394.614 -134.044,-531.358c21.392,-192.946 110.367,-507.972 263.311,-526.623c111.946,-13.666 174.96,162.581 335.131,157.97c137.866,-3.946 210.641,-119.671 224.972,-157.97c74.603,-198.968 -4.777,-512.25 -19.149,-545.772c-47.063,-109.869 -169.31,-191.741 -306.387,-153.193c-153.193,43.117 -233.279,290.477 -320.759,272.907c-126.941,-25.546 -109.495,-576.261 -105.299,-708.519c11.714,-369.234 38.921,-551.961 167.565,-675.039c110.077,-105.3 406.91,-157.971 584.029,-157.971c265.222,0 586.895,6.937 598.443,162.789c19.149,258.493 -258.535,167.524 -186.715,416.463c47.104,163.287 409.235,326.201 724.137,276.271c37.759,596.117 479.851,1082.45 1055.07,1187.75c-75.142,55.08 -40.375,405.871 -3.115,604.133Z" style="fill:none;fill-rule:nonzero;"/><path d="M3346.79,2110.15c220.485,-0 428.094,-55.246 609.699,-152.695c-41.413,187.254 -167.15,439.226 -353.865,414.884c-170.556,-22.264 -311.246,-208.688 -409.152,-271.203c50.261,5.94 101.437,9.014 153.318,9.014Z" style="fill:none;fill-rule:nonzero;"/><path d="M3380.39,637.447l493.517,-456.257c34.726,-32.192 90.346,-31.527 124.2,1.413c33.895,32.939 33.272,85.652 -1.496,117.761l-504.15,466.184l243.373,0c48.517,0 87.895,37.26 87.895,83.285c-0,46.024 -39.378,83.284 -87.895,83.284l-344.353,-0c-48.267,-0 -92.34,-17.405 -125.529,-46.025c-14.081,-12.129 -26.169,-26.252 -35.764,-41.87c-16.242,-26.211 -25.505,-56.658 -25.505,-89.183l0,-326.325c0,-45.983 39.296,-83.284 87.854,-83.284c48.558,-0 87.895,37.301 87.895,83.284l-0,207.733l-0.042,0Z" style="fill:none;fill-rule:nonzero;"/><path d="M4086.17,773.817l-0,579.46c-0,97.74 -83.949,177.285 -187.089,177.285l-1137.82,0c-103.14,0 -187.089,-79.545 -187.089,-177.285l0,-1078.25c0,-97.739 83.949,-177.285 187.089,-177.285l616.262,-0c46.232,-0 83.741,35.515 83.741,79.338c0,43.823 -37.509,79.338 -83.741,79.338l-616.262,0c-10.8,0 -19.606,8.349 -19.606,18.609l-0,1078.25c-0,10.26 8.806,18.609 19.606,18.609l1137.82,0c10.8,0 19.606,-8.349 19.606,-18.609l0,-579.46c0,-43.822 37.51,-79.338 83.742,-79.338c46.232,0 83.741,35.516 83.741,79.338Z" style="fill:none;fill-rule:nonzero;"/><path d="M2269.16,105.632c-43.989,66.337 -81.996,136.993 -113.233,211.139c-16.491,-36.055 -22.389,-74.436 -8.682,-117.885c13.376,-42.328 57.656,-72.692 121.915,-93.254Z" style="fill-rule:nonzero;"/><path d="M3186.12,3219.68c-40.791,40.75 -269.875,-93.336 -631.923,-119.671c-263.311,-19.15 -446.038,-54.997 -488.324,71.819c-43.075,129.226 187.13,256.001 215.418,406.91c28.744,153.193 8.556,249.063 -114.895,406.909c-157.514,201.502 -642.183,189.207 -823.414,-71.82c-97.657,-140.69 -117.305,-359.223 -19.15,-493.06c105.342,-143.639 137.825,-183.516 119.714,-244.162c-32.358,-108.124 -373.72,-99.401 -517.028,-95.746c-456.672,11.631 -563.882,84.448 -694.188,-9.595c-169.31,-122.164 -149.206,-394.614 -134.044,-531.358c21.392,-192.946 110.367,-507.972 263.311,-526.623c111.946,-13.666 174.96,162.581 335.131,157.97c137.866,-3.946 210.641,-119.671 224.972,-157.97c74.603,-198.968 -4.777,-512.25 -19.149,-545.772c-47.063,-109.869 -169.31,-191.741 -306.387,-153.193c-153.193,43.117 -233.279,290.477 -320.759,272.907c-126.941,-25.546 -109.495,-576.261 -105.299,-708.519c11.714,-369.234 38.921,-551.961 167.565,-675.039c110.077,-105.3 406.91,-157.971 584.029,-157.971c265.222,0 586.895,6.937 598.443,162.789c19.149,258.493 -258.535,167.524 -186.715,416.463c47.104,163.287 409.235,326.201 724.137,276.271c37.759,596.117 479.851,1082.45 1055.07,1187.75c-75.142,55.08 -40.375,405.871 -3.115,604.133c66.628,354.447 110.118,493.06 76.597,526.581Z" style="fill-rule:nonzero;"/><path d="M3956.49,1957.45c-41.413,187.254 -167.15,439.226 -353.865,414.884c-170.556,-22.264 -311.246,-208.688 -409.152,-271.203c50.261,5.94 101.437,9.014 153.318,9.014c220.485,-0 428.094,-55.246 609.699,-152.695Z" style="fill-rule:nonzero;"/><path d="M4086.17,773.817l-0,579.46c-0,97.74 -83.949,177.285 -187.089,177.285l-1137.82,0c-103.14,0 -187.089,-79.545 -187.089,-177.285l0,-1078.25c0,-97.739 83.949,-177.285 187.089,-177.285l616.262,-0c46.232,-0 83.741,35.515 83.741,79.338c0,43.823 -37.509,79.338 -83.741,79.338l-616.262,0c-10.8,0 -19.606,8.349 -19.606,18.609l-0,1078.25c-0,10.26 8.806,18.609 19.606,18.609l1137.82,0c10.8,0 19.606,-8.349 19.606,-18.609l0,-579.46c0,-43.822 37.51,-79.338 83.742,-79.338c46.232,0 83.741,35.516 83.741,79.338Z" style="fill-rule:nonzero;"/><path d="M3996.61,300.364l-504.15,466.184l243.373,0c48.517,0 87.895,37.26 87.895,83.285c-0,46.024 -39.378,83.284 -87.895,83.284l-344.353,-0c-48.267,-0 -92.34,-17.405 -125.529,-46.025c-14.081,-12.129 -26.169,-26.252 -35.764,-41.87c-16.242,-26.211 -25.505,-56.658 -25.505,-89.183l0,-326.325c0,-45.983 39.296,-83.284 87.854,-83.284c48.558,-0 87.895,37.301 87.895,83.284l-0,207.733l493.517,-456.257c34.726,-32.192 90.345,-31.527 124.199,1.413c33.895,32.939 33.272,85.652 -1.495,117.761l-0.042,-0Z" style="fill-rule:nonzero;"/></g></g></g></svg>