<?xml version="1.0" encoding="UTF-8"?>
<svg id="Layer_2" data-name="Layer 2" xmlns="http://www.w3.org/2000/svg" viewBox="0 0 1000 1000">
  <defs>
    <style>
      .cls-1 {
        fill: none;
      }
    </style>
  </defs>
  <g id="Layer_1-2" data-name="Layer 1">
    <g>
      <path d="m542.71,21.91c-12.7,15.41-23.95,32.06-33.51,49.75-3.1-7.92-3.95-16.36-.98-25.78,3.56-11.28,16.25-19.04,34.49-23.97Z"/>
      <path d="m739.88,646.34c16.04,85.33,26.51,118.7,18.44,126.77-9.82,9.81-64.97-22.47-152.13-28.81-63.39-4.61-107.38-13.24-117.56,17.29-10.37,31.11,45.05,61.63,51.86,97.96,6.92,36.88,2.06,59.96-27.66,97.96-37.92,48.51-154.6,45.55-198.23-17.29-23.51-33.87-28.24-86.48-4.61-118.7,25.36-34.58,33.18-44.18,28.82-58.78-7.79-26.03-89.97-23.93-124.47-23.05-109.94,2.8-135.75,20.33-167.12-2.31-40.76-29.41-35.92-95-32.27-127.92,5.15-46.45,26.57-122.29,63.39-126.78,26.95-3.29,42.12,39.14,80.68,38.03,33.19-.95,50.71-28.81,54.16-38.03,17.96-47.9-1.15-123.32-4.61-131.39-11.33-26.45-40.76-46.16-73.76-36.88-36.88,10.38-56.16,69.93-77.22,65.7-30.56-6.15-26.36-138.73-25.35-170.57,2.82-88.89,9.37-132.88,40.34-162.51C99.08,21.68,170.54,9,213.18,9c63.85,0,141.29,1.67,144.07,39.19,4.61,62.23-62.24,40.33-44.95,100.26,10.62,36.81,87.71,73.53,159.72,68.2-.02.78-.02,1.57-.02,2.35,0,153.94,112.2,281.66,259.28,305.87-4.21,31.97,2.04,86.55,8.6,121.47Z"/>
      <path d="m939.27,486.19c-13.02,41.87-41.18,88.08-80.68,82.93-26.05-3.4-49.2-22.71-68.67-40.22,54.43-1.36,105.37-16.76,149.35-42.71Z"/>
      <path d="m975.73,96.38l-.05,71.57-.03,25.75c0,4.28-4.63,6.98-8.37,4.87l-84.51-47.56c-3.77-2.14-3.8-7.54-.08-9.73l24.01-14.12c-8.58-11.79-18.74-22.19-30.13-30.96-26.28-20.27-58.95-31.87-93.15-31.87-12.11,0-24.41,1.47-36.68,4.52-59.65,14.79-102.35,63.04-113.07,119.81l-43.42.05c11.18-76.12,67.06-141.76,146.17-161.38,80.72-20.03,162.4,13.56,207.32,78.07l23.55-13.85c3.74-2.19,8.45.51,8.45,4.84Z"/>
      <path d="m976.4,246.07c-11.6,75.53-67.27,140.55-145.95,160.1-15.72,3.9-31.6,5.83-47.38,5.83-35.05,0-69.54-9.52-100.34-28.07-23.85-14.36-43.93-33.21-59.41-55.4l-25.11,14.95c-3.74,2.22-8.48-.45-8.48-4.79l-.32-71.57-.11-25.75c-.03-4.28,4.6-7.01,8.34-4.92l84.75,47.14c3.77,2.11,3.85,7.51.13,9.73l-22.3,13.26c11.79,16.2,26.84,30.05,44.54,40.69,34.89,21.01,75.85,27.19,115.34,17.38,59.17-14.68,101.68-62.32,112.8-118.52l43.47-.05Z"/>
      <rect class="cls-1" width="1000" height="1000"/>
    </g>
  </g>
</svg>