<?xml version="1.0" encoding="UTF-8" standalone="no"?><!DOCTYPE svg PUBLIC "-//W3C//DTD SVG 1.1//EN" "http://www.w3.org/Graphics/SVG/1.1/DTD/svg11.dtd"><svg width="100%" height="100%" viewBox="0 0 4171 4171" version="1.1" xmlns="http://www.w3.org/2000/svg" xmlns:xlink="http://www.w3.org/1999/xlink" xml:space="preserve" xmlns:serif="http://www.serif.com/" style="fill-rule:evenodd;clip-rule:evenodd;stroke-linejoin:round;stroke-miterlimit:2;"><rect id="config_table" x="2.203" y="1.803" width="4166.67" height="4166.67" style="fill:none;"/><clipPath id="_clip1"><rect x="2.203" y="1.803" width="4166.67" height="4166.67"/></clipPath><g clip-path="url(#_clip1)"><rect x="2.203" y="1.803" width="4166.67" height="4166.67" style="fill:none;"/><clipPath id="_clip2"><rect id="config_table.svg" x="64.078" y="63.678" width="4042.92" height="4042.92"/></clipPath><g clip-path="url(#_clip2)"><g id="Layer_1-2"><g><path d="M126.297,1701.94l989.552,0l-0,2400.69l-678.984,0c-171.527,0 -310.568,-139.041 -310.568,-310.568l-0,-2090.12Z" style="fill-rule:nonzero;"/><path d="M2393.89,2114l0,1988.63l-1051.73,0l0,-2400.69l594.86,0c118.447,169.866 274.802,311.313 456.867,412.052Z" style="fill-rule:nonzero;"/><path d="M1809.58,1475.63l-1683.27,-0l0,-545.89c0,-171.527 139.041,-310.568 310.568,-310.568l1292.47,-0c-23.043,99.034 -35.242,202.265 -35.242,308.295c-0,195.094 41.231,380.569 115.474,548.163Z" style="fill-rule:nonzero;"/><path d="M3609.76,2162l-0,1630.06c-0,171.527 -139.041,310.568 -310.568,310.568l-678.984,-0l-0,-1889.16c134.888,45.035 279.262,69.432 429.322,69.432c199.773,0 389.49,-43.242 560.23,-120.895l-0,-0.006Z" style="fill-rule:nonzero;"/></g><path d="M3270.65,438.135l-1133.2,0c-67.35,0 -122.031,-54.134 -122.031,-120.814c0,-66.679 54.681,-120.815 122.031,-120.815l1133.2,0c-15.816,37.162 -24.561,77.986 -24.561,120.815c0,42.83 8.745,83.653 24.561,120.814Zm580.538,-241.629l71.561,0c67.35,0 122.03,54.136 122.03,120.815c-0,66.68 -54.68,120.814 -122.03,120.814l-71.561,0c15.816,-37.161 24.561,-77.984 24.561,-120.814c-0,-42.829 -8.745,-83.653 -24.561,-120.815Zm-1355.22,874.124l-358.511,0c-67.35,0 -122.03,-54.135 -122.03,-120.815c-0,-66.678 54.68,-120.814 122.03,-120.814l358.511,-0c-15.816,37.162 -24.56,77.986 -24.56,120.814c-0,42.83 8.744,83.654 24.56,120.815Zm580.54,-241.629l846.247,-0c67.35,-0 122.03,54.136 122.03,120.814c-0,66.68 -54.68,120.815 -122.03,120.815l-846.247,0c15.815,-37.161 24.559,-77.985 24.559,-120.815c-0,-42.828 -8.744,-83.652 -24.559,-120.814Zm-62.044,874.125l-877.007,-0c-67.35,-0 -122.03,-54.136 -122.03,-120.815c-0,-66.68 54.68,-120.814 122.03,-120.814l877.007,-0c-15.816,37.161 -24.561,77.984 -24.561,120.814c0,42.829 8.745,83.653 24.561,120.815Zm580.539,-241.629l327.752,-0c67.35,-0 122.03,54.134 122.03,120.814c-0,66.679 -54.68,120.815 -122.03,120.815l-327.752,-0c15.816,-37.162 24.561,-77.986 24.561,-120.815c-0,-42.83 -8.745,-83.653 -24.561,-120.814Zm-34.078,-1397.82c141.396,0 256.191,113.652 256.191,253.64c0,139.987 -114.795,253.64 -256.191,253.64c-141.395,-0 -256.191,-113.653 -256.191,-253.64c0,-139.988 114.796,-253.64 256.191,-253.64Zm-774.688,632.495c141.396,0 256.192,113.653 256.192,253.639c0,139.988 -114.796,253.64 -256.192,253.64c-141.396,0 -256.191,-113.652 -256.191,-253.64c0,-139.986 114.795,-253.639 256.191,-253.639Zm518.497,632.495c141.396,0 256.191,113.653 256.191,253.64c0,139.988 -114.795,253.639 -256.191,253.639c-141.397,0 -256.192,-113.651 -256.192,-253.639c-0,-139.987 114.795,-253.64 256.192,-253.64Z"/></g></g></g></svg>