<?xml version="1.0" encoding="UTF-8" standalone="no"?><!DOCTYPE svg PUBLIC "-//W3C//DTD SVG 1.1//EN" "http://www.w3.org/Graphics/SVG/1.1/DTD/svg11.dtd"><svg width="100%" height="100%" viewBox="0 0 4171 4167" version="1.1" xmlns="http://www.w3.org/2000/svg" xmlns:xlink="http://www.w3.org/1999/xlink" xml:space="preserve" xmlns:serif="http://www.serif.com/" style="fill-rule:evenodd;clip-rule:evenodd;stroke-linejoin:round;stroke-miterlimit:2;"><rect id="config" x="2.203" y="-0.007" width="4166.67" height="4166.67" style="fill:none;"/><clipPath id="_clip1"><rect x="2.203" y="-0.007" width="4166.67" height="4166.67"/></clipPath><g clip-path="url(#_clip1)"><rect x="2.203" y="-0.007" width="4166.67" height="4166.67" style="fill:none;"/><clipPath id="_clip2"><rect id="config.svg" x="64.078" y="300.667" width="4042.92" height="3565.32"/></clipPath><g clip-path="url(#_clip2)"><path d="M2564.06,1053.95l-2256.94,0c-134.138,0 -243.042,-108.903 -243.042,-243.041c0,-134.138 108.904,-243.042 243.042,-243.042l2256.94,0c-31.499,74.755 -48.914,156.88 -48.914,243.042c-0,86.162 17.415,168.286 48.914,243.041Zm1156.24,-486.083l142.524,0c134.138,0 243.042,108.904 243.042,243.042c-0,134.138 -108.904,243.041 -243.042,243.041l-142.524,0c31.499,-74.755 48.915,-156.879 48.915,-243.041c0,-86.162 -17.416,-168.287 -48.915,-243.042Zm-2699.15,1758.48l-714.03,-0c-134.138,-0 -243.042,-108.904 -243.042,-243.042c0,-134.143 108.904,-243.047 243.042,-243.047l714.03,0c-31.499,74.761 -48.915,156.885 -48.915,243.047c0,86.157 17.416,168.281 48.915,243.042Zm1156.24,-486.089l1685.44,0c134.138,0 243.042,108.904 243.042,243.047c-0,134.138 -108.904,243.042 -243.042,243.042l-1685.44,-0c31.499,-74.761 48.915,-156.885 48.915,-243.042c0,-86.162 -17.416,-168.286 -48.915,-243.047Zm-123.57,1758.48l-1746.69,-0c-134.138,-0 -243.042,-108.904 -243.042,-243.042c0,-134.138 108.904,-243.041 243.042,-243.041l1746.69,-0c-31.499,74.755 -48.915,156.879 -48.915,243.041c0,86.162 17.416,168.287 48.915,243.042Zm1156.24,-486.083l652.77,-0c134.138,-0 243.042,108.903 243.042,243.041c-0,134.138 -108.904,243.042 -243.042,243.042l-652.77,-0c31.499,-74.755 48.915,-156.88 48.915,-243.042c0,-86.162 -17.416,-168.286 -48.915,-243.041Zm-67.874,-2811.98c281.61,-0 510.246,228.636 510.246,510.246c-0,281.61 -228.636,510.246 -510.246,510.246c-281.61,-0 -510.246,-228.636 -510.246,-510.246c-0,-281.61 228.636,-510.246 510.246,-510.246Zm-1542.91,1272.39c281.611,0 510.246,228.63 510.246,510.246c0,281.611 -228.635,510.246 -510.246,510.246c-281.615,0 -510.246,-228.635 -510.246,-510.246c0,-281.616 228.631,-510.246 510.246,-510.246Zm1032.67,1272.39c281.61,0 510.246,228.636 510.246,510.246c-0,281.61 -228.636,510.246 -510.246,510.246c-281.611,0 -510.246,-228.636 -510.246,-510.246c-0,-281.61 228.635,-510.246 510.246,-510.246Z"/></g></g></svg>