<?xml version="1.0" encoding="UTF-8" standalone="no"?><!DOCTYPE svg PUBLIC "-//W3C//DTD SVG 1.1//EN" "http://www.w3.org/Graphics/SVG/1.1/DTD/svg11.dtd"><svg width="100%" height="100%" viewBox="0 0 4171 4171" version="1.1" xmlns="http://www.w3.org/2000/svg" xmlns:xlink="http://www.w3.org/1999/xlink" xml:space="preserve" xmlns:serif="http://www.serif.com/" style="fill-rule:evenodd;clip-rule:evenodd;stroke-linejoin:round;stroke-miterlimit:2;"><rect id="config_outline" x="4.026" y="1.803" width="4166.67" height="4166.67" style="fill:none;"/><clipPath id="_clip1"><rect x="4.026" y="1.803" width="4166.67" height="4166.67"/></clipPath><g clip-path="url(#_clip1)"><rect x="4.026" y="1.803" width="4166.67" height="4166.67" style="fill:none;"/><clipPath id="_clip2"><rect id="config_outline.svg" x="65.901" y="291.822" width="4042.92" height="3586.63"/></clipPath><g clip-path="url(#_clip2)"><path d="M2574.38,621.585c92.355,-194.866 290.904,-329.763 520.713,-329.763c229.81,0 428.359,134.902 520.709,329.763l242.267,0.011c135.847,-0 246.135,110.289 246.135,246.135c0,135.846 -110.288,246.135 -246.135,246.135l-242.267,0.005c-92.35,194.867 -290.899,329.763 -520.709,329.763c-229.809,0 -428.358,-134.896 -520.713,-329.763l-2262.34,-0.005c-135.846,-0 -246.135,-110.289 -246.135,-246.135c-0,-135.846 110.289,-246.135 246.135,-246.135l2262.34,-0.011Zm-51.057,315.417c-2.732,-22.714 -4.138,-45.831 -4.138,-69.271c-0,-23.446 1.406,-46.563 4.138,-69.276l-2211.28,-0.006c-38.238,0 -69.282,31.044 -69.282,69.282c0,38.232 31.044,69.276 69.282,69.276l2211.28,-0.005Zm949.46,59.805c7.083,-20.697 21.36,-106.999 21.36,-129.076c0,-45.167 -7.507,-88.584 -21.36,-129.082c-53.715,-156.973 -202.608,-269.973 -377.69,-269.973c-175.086,-0 -323.974,113 -377.689,269.973c-13.858,40.498 -21.366,83.915 -21.366,129.082c0,45.162 7.508,88.583 21.366,129.076c53.715,156.979 202.603,269.973 377.689,269.973c175.082,0 323.975,-112.994 377.69,-269.973Zm194.081,-198.352c2.727,22.713 4.133,45.83 4.133,69.276c-0,12.542 -3.194,39.437 -7.699,69.271l194.771,0.005c38.238,-0 69.282,-31.044 69.282,-69.276c-0,-38.238 -31.044,-69.282 -69.282,-69.282l-191.205,0.006Zm-2861.04,1038.75c92.351,-194.866 290.905,-329.763 520.709,-329.763c229.81,0 428.358,134.897 520.714,329.763l2010.82,0.005c135.847,0 246.135,110.289 246.135,246.135c0,135.847 -110.288,246.136 -246.135,246.136l-2010.82,0.01c-92.356,194.861 -290.904,329.763 -520.714,329.763c-229.804,0 -428.358,-134.902 -520.709,-329.763l-493.787,-0.01c-135.846,-0 -246.135,-110.289 -246.135,-246.136c-0,-135.846 110.289,-246.135 246.135,-246.135l493.787,-0.005Zm-51.056,315.417c-2.732,-22.714 -4.138,-45.831 -4.138,-69.277c-0,-23.44 1.406,-46.557 4.138,-69.27l-442.731,-0.011c-38.238,0 -69.282,31.044 -69.282,69.281c0,38.238 31.044,69.282 69.282,69.282l442.731,-0.005Zm949.438,59.863c0.005,-0.021 0.016,-0.042 0.021,-0.058c7.083,-20.703 21.361,-107.005 21.361,-129.082c-0,-45.161 -7.508,-88.583 -21.366,-129.076c-53.715,-156.978 -202.602,-269.973 -377.689,-269.973c-175.06,-0 -323.937,112.968 -377.668,269.915c-0.005,0.016 -0.016,0.037 -0.021,0.058c-13.853,40.493 -21.361,83.915 -21.361,129.076c0,45.162 7.508,88.589 21.361,129.082c0.005,0.016 0.016,0.037 0.021,0.058c53.731,156.947 202.608,269.915 377.668,269.915c175.066,0 323.943,-112.968 377.673,-269.915Zm194.097,-198.41c2.733,22.713 4.139,45.83 4.139,69.27c-0,12.543 -3.2,39.443 -7.699,69.271l1963.32,0.011c38.238,-0 69.282,-31.044 69.282,-69.282c-0,-38.237 -31.044,-69.281 -69.282,-69.281l-1959.76,0.011Zm12.866,1038.74c92.356,-194.861 290.905,-329.763 520.714,-329.763c229.805,-0 428.358,134.902 520.709,329.763l905.475,0.01c135.847,0 246.135,110.289 246.135,246.136c0,135.846 -110.288,246.135 -246.135,246.135l-905.475,0.005c-92.351,194.866 -290.904,329.763 -520.709,329.763c-229.809,-0 -428.358,-134.897 -520.714,-329.763l-1599.13,-0.005c-135.846,-0 -246.135,-110.289 -246.135,-246.135c-0,-135.847 110.289,-246.136 246.135,-246.136l1599.13,-0.01Zm-51.056,315.416c-2.732,-22.713 -4.138,-45.83 -4.138,-69.27c-0,-23.446 1.406,-46.563 4.138,-69.277l-1548.08,-0.005c-38.238,0 -69.282,31.044 -69.282,69.282c0,38.237 31.044,69.281 69.282,69.281l1548.08,-0.011Zm949.459,59.806c7.083,-20.698 21.361,-107 21.361,-129.076c-0,-45.162 -7.508,-88.584 -21.361,-129.077c-53.714,-156.978 -202.607,-269.978 -377.689,-269.978c-175.06,-0 -323.942,112.968 -377.673,269.915c-0.005,0.021 -0.01,0.042 -0.021,0.058c-13.853,40.493 -21.361,83.92 -21.361,129.082c0,45.161 7.508,88.583 21.366,129.076c53.715,156.978 202.602,269.973 377.689,269.973c175.082,0 323.975,-112.995 377.689,-269.973Zm194.082,-198.353c2.727,22.714 4.133,45.831 4.133,69.277c-0,12.542 -3.194,39.437 -7.699,69.27l857.979,0.011c38.238,-0 69.282,-31.044 69.282,-69.281c-0,-38.238 -31.044,-69.282 -69.282,-69.282l-854.413,0.005Z"/></g></g></svg>