<?xml version="1.0" encoding="UTF-8" standalone="no"?><!DOCTYPE svg PUBLIC "-//W3C//DTD SVG 1.1//EN" "http://www.w3.org/Graphics/SVG/1.1/DTD/svg11.dtd"><svg width="100%" height="100%" viewBox="0 0 4171 4167" version="1.1" xmlns="http://www.w3.org/2000/svg" xmlns:xlink="http://www.w3.org/1999/xlink" xml:space="preserve" xmlns:serif="http://www.serif.com/" style="fill-rule:evenodd;clip-rule:evenodd;stroke-linejoin:round;stroke-miterlimit:2;"><rect id="config_file" x="4.026" y="-0.007" width="4166.67" height="4166.67" style="fill:none;"/><clipPath id="_clip1"><rect x="4.026" y="-0.007" width="4166.67" height="4166.67"/></clipPath><g clip-path="url(#_clip1)"><rect x="4.026" y="-0.007" width="4166.67" height="4166.67" style="fill:none;"/><clipPath id="_clip2"><rect id="config_file_icon.svg" x="570.527" y="61.969" width="3033.66" height="4042.92"/></clipPath><g clip-path="url(#_clip2)"><path d="M1343.66,94.62c22.717,-20.994 52.517,-32.651 83.443,-32.651l1744.55,0c237.24,0 429.842,192.609 429.842,429.842l0,3182.3c0,237.239 -192.602,429.842 -429.842,429.842l-2171.29,-0c-237.233,-0 -429.842,-192.603 -429.842,-429.842l0,-2811.34c0,-34.297 14.325,-67.036 39.515,-90.308l733.621,-677.84Zm1046.94,1921.68c-18.06,-42.873 -28.046,-89.96 -28.046,-139.366c-0,-49.406 9.986,-96.499 28.046,-139.366l-1294.16,0c-76.922,0 -139.365,62.444 -139.365,139.366c-0,76.916 62.443,139.366 139.365,139.366l1294.16,-0Zm331.502,-431.949c-161.481,-0 -292.583,131.102 -292.583,292.583c-0,161.481 131.102,292.583 292.583,292.583c161.48,0 292.583,-131.102 292.583,-292.583c0,-161.481 -131.103,-292.583 -292.583,-292.583Zm-2015.18,-700.534l723.435,3.116c6.551,0.029 12.848,-2.556 17.481,-7.189c4.64,-4.633 7.236,-10.919 7.219,-17.476l-1.995,-669.938c-0.03,-9.756 -5.826,-18.574 -14.773,-22.475c-8.942,-3.895 -19.347,-2.136 -26.512,4.492l-721.439,666.821c-7.419,6.858 -9.886,17.553 -6.227,26.973c3.659,9.414 12.713,15.634 22.811,15.676Zm1461.95,1583.36c18.067,42.867 28.053,89.96 28.053,139.366c-0,49.406 -9.986,96.493 -28.053,139.359l966.458,0c76.916,0 139.366,-62.443 139.366,-139.359c-0,-76.922 -62.45,-139.366 -139.366,-139.366l-966.458,0Zm-70.854,1008.33c-18.06,-42.867 -28.047,-89.959 -28.047,-139.359c0,-49.407 9.987,-96.499 28.047,-139.366l-1001.58,-0c-76.922,-0 -139.365,62.444 -139.365,139.366c-0,76.915 62.443,139.359 139.365,139.359l1001.58,0Zm955.586,-1737.94c18.061,42.867 28.047,89.96 28.047,139.366c-0,49.406 -9.986,96.493 -28.047,139.366l81.726,-0c76.916,-0 139.366,-62.45 139.366,-139.366c-0,-76.922 -62.45,-139.366 -139.366,-139.366l-81.726,0Zm-1547.73,1008.33c-18.061,-42.866 -28.047,-89.953 -28.047,-139.359c-0,-49.406 9.986,-96.499 28.047,-139.366l-409.433,0c-76.922,0 -139.365,62.444 -139.365,139.366c-0,76.916 62.443,139.359 139.365,139.359l409.433,0Zm1255.15,450.883c18.066,42.867 28.053,89.959 28.053,139.366c-0,49.4 -9.987,96.492 -28.053,139.359l374.309,0c76.916,0 139.366,-62.444 139.366,-139.359c-0,-76.922 -62.45,-139.366 -139.366,-139.366l-374.309,-0Zm-331.501,-153.218c-161.481,0 -292.584,131.103 -292.584,292.584c0,161.48 131.103,292.583 292.584,292.583c161.48,-0 292.583,-131.103 292.583,-292.583c-0,-161.481 -131.103,-292.584 -292.583,-292.584Zm-592.149,-729.607c-161.481,-0 -292.583,131.102 -292.583,292.583c-0,161.48 131.102,292.583 292.583,292.583c161.481,-0 292.583,-131.103 292.583,-292.583c0,-161.481 -131.102,-292.583 -292.583,-292.583Z"/></g></g></svg>