<?xml version="1.0" encoding="UTF-8" standalone="no"?><!DOCTYPE svg PUBLIC "-//W3C//DTD SVG 1.1//EN" "http://www.w3.org/Graphics/SVG/1.1/DTD/svg11.dtd"><svg width="100%" height="100%" viewBox="0 0 4171 4171" version="1.1" xmlns="http://www.w3.org/2000/svg" xmlns:xlink="http://www.w3.org/1999/xlink" xml:space="preserve" xmlns:serif="http://www.serif.com/" style="fill-rule:evenodd;clip-rule:evenodd;stroke-linejoin:round;stroke-miterlimit:2;"><rect id="copy_url" x="4.034" y="1.822" width="4166.67" height="4166.67" style="fill:none;"/><rect x="4.034" y="1.822" width="4166.67" height="4166.67" style="fill:none;"/><clipPath id="_clip1"><rect id="copyUrlToGroup.svg" x="66.907" y="64.695" width="4040.92" height="4040.92"/></clipPath><g clip-path="url(#_clip1)"><g id="Layer_1-2"><g><path d="M1686.34,2809.73l1594.39,0l-0,-2366.32c-0,-108.125 -87.596,-195.721 -195.721,-195.721l-345.612,0l-0,376.677c-0,60.637 -49.231,109.868 -109.868,109.868l-1651,0c-60.678,0 -109.868,-49.231 -109.868,-109.868l0,-376.677l-338.769,0c-108.125,0 -195.721,87.596 -195.721,195.721l0,3466.49c0,108.126 87.596,195.721 195.721,195.721l2555.12,0c84.982,0 157.315,-54.125 184.357,-129.817l-1583.02,0c-172.495,0 -312.349,-139.854 -312.349,-312.349l0,-541.333c0,-172.537 139.854,-312.391 312.349,-312.391Zm-838.212,-1576.55l1918.64,-0l0,171.292l-1918.64,-0l0,-171.292Zm0,609.85l1918.64,-0l0,171.334l-1918.64,-0l0,-171.334Zm0,781.184l0,-171.292l1918.64,-0l0,171.292l-1918.64,-0Z" style="fill-rule:nonzero;"/><path d="M2626.42,129.471l0,448.362c0,35.751 -29.025,64.776 -64.776,64.776l-1515.18,0c-35.751,0 -64.776,-29.025 -64.776,-64.776l-0,-448.362c-0,-35.751 29.025,-64.776 64.776,-64.776l1515.18,0c35.751,0 64.776,29.025 64.776,64.776Z"/><path d="M3425.73,2957.71l-653.441,0l0,163.246l653.441,0c138.776,0 251.588,112.854 251.588,251.588l-0,41.268c-0,138.776 -112.812,251.588 -251.588,251.588l-653.441,0l0,163.246l653.441,0c228.777,0 414.834,-186.057 414.834,-414.834l0,-41.268c0,-228.735 -186.057,-414.834 -414.834,-414.834Zm-1935.11,414.834l0,41.268c0,228.777 186.099,414.834 414.834,414.834l653.441,0l-0,-163.246l-653.441,0c-138.692,0 -251.588,-112.812 -251.588,-251.588l0,-41.268c0,-138.692 112.854,-251.588 251.588,-251.588l653.441,0l-0,-163.246l-653.441,0c-228.735,0 -414.834,186.099 -414.834,414.834Z" style="fill-rule:nonzero;"/><path d="M3216.03,3476.69l-1100.83,0c-45.083,0 -81.623,-36.539 -81.623,-81.623c-0,-45.083 36.54,-81.623 81.623,-81.623l1100.83,0c45.083,0 81.623,36.54 81.623,81.623c-0,45.084 -36.54,81.623 -81.623,81.623Z" style="fill-rule:nonzero;"/></g></g></g></svg>