<?xml version="1.0" encoding="UTF-8"?>
<svg id="Layer_2" data-name="Layer 2" xmlns="http://www.w3.org/2000/svg" viewBox="0 0 1000 1000">
  <defs>
    <style>
      .cls-1 {
        fill: none;
      }
    </style>
  </defs>
  <g id="Layer_1-2" data-name="Layer 1">
    <g>
      <path d="m471.31,674.85h384.42V104.31c0-26.07-21.12-47.19-47.19-47.19h-83.33v90.82c0,14.62-11.87,26.49-26.49,26.49h-398.07c-14.63,0-26.49-11.87-26.49-26.49V57.12h-81.68c-26.07,0-47.19,21.12-47.19,47.19v835.8c0,26.07,21.12,47.19,47.19,47.19h616.06c20.49,0,37.93-13.05,44.45-31.3h-381.68c-41.59,0-75.31-33.72-75.31-75.31v-130.52c0-41.6,33.72-75.32,75.31-75.32Zm-202.1-380.12h462.6v41.3h-462.6v-41.3Zm0,147.04h462.6v41.31h-462.6v-41.31Zm0,188.35v-41.3h462.6v41.3h-462.6Z"/>
      <rect x="301.41" y="13" width="396.56" height="139.34" rx="16.03" ry="16.03"/>
      <path d="m890.69,710.53h-157.55v39.36h157.55c33.46,0,60.66,27.21,60.66,60.66v9.95c0,33.46-27.2,60.66-60.66,60.66h-157.55v39.36h157.55c55.16,0,100.02-44.86,100.02-100.02v-9.95c0-55.15-44.86-100.02-100.02-100.02Zm-466.57,100.02v9.95c0,55.16,44.87,100.02,100.02,100.02h157.55v-39.36h-157.55c-33.44,0-60.66-27.2-60.66-60.66v-9.95c0-33.44,27.21-60.66,60.66-60.66h157.55v-39.36h-157.55c-55.15,0-100.02,44.87-100.02,100.02Z"/>
      <path d="m840.13,835.66h-265.42c-10.87,0-19.68-8.81-19.68-19.68s8.81-19.68,19.68-19.68h265.42c10.87,0,19.68,8.81,19.68,19.68s-8.81,19.68-19.68,19.68Z"/>
      <rect class="cls-1" width="1000" height="1000"/>
    </g>
  </g>
</svg>