<?xml version="1.0" encoding="UTF-8" standalone="no"?>
<!DOCTYPE svg PUBLIC "-//W3C//DTD SVG 1.1//EN" "http://www.w3.org/Graphics/SVG/1.1/DTD/svg11.dtd">
<svg width="100%" height="100%" viewBox="0 0 4171 4171" version="1.1" xmlns="http://www.w3.org/2000/svg" xmlns:xlink="http://www.w3.org/1999/xlink" xml:space="preserve" xmlns:serif="http://www.serif.com/" style="fill-rule:evenodd;clip-rule:evenodd;stroke-linejoin:round;stroke-miterlimit:2;">
    <rect id="table_column_visibility" x="2.203" y="1.803" width="4166.67" height="4166.67" style="fill:none;"/>
    <g>
        <rect x="2.203" y="1.803" width="4166.67" height="4166.67" style="fill:none;"/>
    </g>
    <g id="liu_black.svg" transform="matrix(19.048,0,0,19.048,2085.54,2085.5)">
        <g transform="matrix(1,0,0,1,-113.986,-109.486)">
            <g id="Selection" transform="matrix(1,0,0,1,1.13158,0)">
                <path d="M73.991,59.993C78.75,62.622 84.419,65.142 89.989,64.662L108.986,61.992C108.986,61.992 101.397,74.761 98.648,78.99C93.118,87.479 84.309,96.198 83.56,97.428C81.55,100.757 79.74,102.237 83.49,107.487C90.489,115.486 96.848,113.216 103.987,110.676L142.982,101.177L160.94,97.768C167.549,98.238 174.228,109.736 180.417,108.386C185.987,103.747 183.617,94.398 179.678,89.569C173.348,81.8 154.481,66.992 145.732,71.991C141.482,75.241 158.98,89.989 158.98,89.989L117.985,97.238C115.176,97.508 105.637,99.528 103.877,97.238C102.437,95.788 102.737,95.238 103.877,88.989C107.487,83.74 119.755,61.402 123.655,59.343C125.874,58.173 133.153,58.043 135.983,57.713L164.979,54.993L180.977,53.993C182.727,53.803 185.617,53.673 186.257,51.604C187.717,46.924 176.278,43.225 172.978,42.835L126.984,48.994C131.704,44.105 133.173,39.695 136.683,34.276C138.973,30.736 142.412,26.447 142.432,21.997C142.472,15.258 130.764,6.519 126.434,9.049C123.885,10.549 122.895,18.208 122.375,20.997C121.065,28.037 117.285,47.224 110.876,50.824C108.336,52.243 90.189,54.163 85.989,54.713C80.54,55.423 76.95,54.683 73.991,59.993ZM36.995,32.996C37.285,35.076 40.245,47.494 53.943,57.243C57.153,59.753 61.822,62.412 65.562,59.253C69.851,55.633 68.082,46.444 64.882,42.675C59.003,35.726 45.614,33.626 36.995,32.996ZM9.999,77.99C11.949,85.879 23.127,97.318 29.316,102.737C32.396,105.427 37.795,108.396 41.565,105.247C45.954,101.587 44.015,91.839 40.715,88.089C34.706,81.26 18.828,78.02 9.999,77.99ZM57.993,111.736C53.983,114.316 51.154,126.334 48.834,130.944C45.884,136.793 35.866,152.111 31.696,156.98C28.076,161.21 17.228,170.129 15.928,173.978C14.508,178.178 12.748,189.226 18.998,194.226C21.247,200.475 27.127,202.085 31.296,196.825C33.546,193.996 38.335,177.638 40.045,172.978L58.183,129.984C60.542,123.765 69.241,108.736 62.992,108.986L57.993,111.736ZM209.804,189.456C203.605,188.866 181.797,197.535 175.138,184.937C172.688,179.888 175.618,146.802 176.848,137.983C177.718,131.764 180.228,122.985 174.228,118.235C169.979,114.486 162.64,114.846 160.09,119.295C158.97,121.255 160.94,130.644 160.98,133.983L160.98,162.98C160.96,175.768 155.901,190.186 168.149,199.375C177.468,206.374 203.205,208.054 213.913,203.235C219.653,200.575 209.804,189.456 209.804,189.456ZM120.235,126.234C120.235,126.234 122.995,156.41 122.985,163.98L121.175,186.977C121.535,191.136 124.354,202.975 130.764,198.355C134.753,195.486 134.963,188.426 134.913,183.977L134.913,145.402C135.053,140.972 138.483,132.543 137.203,129.084C134.913,122.885 122.485,120.985 120.235,126.234ZM59.993,202.975C86.069,197.025 97.098,174.228 100.407,149.981L102.757,135.003C102.267,130.204 87.909,124.854 84.359,127.094C82.42,128.314 83.08,130.254 83.72,131.984C86.659,139.963 87.789,140.872 86.709,149.981C85.019,164.17 83.37,172.978 74.951,184.977L59.993,202.975Z" style="fill-rule:nonzero;"/>
            </g>
        </g>
    </g>
</svg>
