<?xml version="1.0" encoding="UTF-8" standalone="no"?><!DOCTYPE svg PUBLIC "-//W3C//DTD SVG 1.1//EN" "http://www.w3.org/Graphics/SVG/1.1/DTD/svg11.dtd"><svg width="100%" height="100%" viewBox="0 0 17380 17380" version="1.1" xmlns="http://www.w3.org/2000/svg" xmlns:xlink="http://www.w3.org/1999/xlink" xml:space="preserve" xmlns:serif="http://www.serif.com/" style="fill-rule:evenodd;clip-rule:evenodd;stroke-linejoin:round;stroke-miterlimit:2;"><g><rect x="16.775" y="12.254" width="17361.1" height="17361.1" style="fill:none;"/><path id="rect3722" d="M8689.62,2793.66c5062.12,-0 7955.29,1035.47 8344.05,1925.72c28.226,30.483 49.98,64.051 49.98,101.81l0,7896.51c0,36.53 -17.784,40.556 -42.575,101.81c-409.62,1012.06 -3950.22,1766 -8350.58,1766c-4410.43,-0 -7759.63,-860.563 -8356.12,-1773.41c-20.626,-31.566 -38.871,-60.782 -38.871,-94.406l0,-7898.35c19.305,-44.194 18.554,-71.695 49.98,-99.96c388.463,-890.253 3281.99,-1925.72 8344.09,-1925.72l0.039,-0.005Zm0.903,534.418c-4551.11,-0 -7723.04,860.504 -7723.04,1596.78c-0,736.271 3171.92,1594.93 7723.04,1594.93c4551.1,-0 7721.19,-858.655 7721.19,-1594.93c0,-736.272 -3170.07,-1596.78 -7721.19,-1596.78Zm-7723.04,2603.26l-0,1483.33c-0,33.4 13.506,67.002 25.917,99.966c9.371,25.113 22.442,48.946 38.871,74.042c13.73,20.542 30.025,42.526 48.13,62.939c22.833,25.527 48.175,50.489 77.748,75.898c22.162,19.318 47.867,38.273 74.048,57.39c37.272,27.409 77.182,54.467 122.178,81.446c27.192,16.619 57.082,33.663 87.001,49.986c55.065,29.661 111.729,57.809 175.863,87.001c27.527,12.568 58.094,26.326 87.002,38.876c75.88,32.395 155.544,62.878 242.501,94.406c22.838,8.466 46.856,17.77 70.343,25.917c100.055,35.094 203.731,70.036 316.549,103.665c14.395,4.018 29.992,6.751 44.431,11.11c125.571,36.725 257.316,74.338 397.996,109.219c3.985,1.134 8.902,1.023 12.959,1.85c762.491,188.218 1738.29,346.049 2874.85,449.831c5.7,0.682 10.891,1.436 16.664,1.85c220.925,19.921 446.696,37.988 679.373,53.684c37.933,2.465 78.351,4.94 116.624,7.405c203.128,13.042 408.614,25.789 620.134,35.171c96.703,4.068 197.819,5.845 296.187,9.254c159.143,5.7 318.125,11.4 481.303,14.809c266.922,5.688 538.688,9.259 816.361,9.259c277.667,0 549.78,-2.101 816.36,-7.404c163.167,-3.459 320.294,-10.69 479.448,-16.664c98.39,-3.459 199.501,-4.895 296.187,-9.254c211.521,-9.583 417.006,-22 620.134,-35.171c38.279,-2.465 78.686,-3.09 116.624,-5.555c232.677,-15.781 458.442,-33.618 679.374,-53.685c5.554,-0.687 10.785,-1.436 16.663,-1.849c1136.51,-103.76 2112.35,-263.48 2874.85,-451.681c4.001,-1.14 8.975,-0.811 12.959,-1.85c140.692,-34.875 272.074,-70.645 397.996,-107.37c14.881,-4.018 29.852,-8.6 44.431,-12.959c112.824,-33.623 216.483,-68.778 316.544,-103.665c23.822,-8.141 47.448,-15.534 70.348,-24.062c86.957,-31.55 166.626,-63.922 242.502,-96.261c29.198,-12.567 59.457,-24.475 87.001,-37.026c64.135,-29.254 120.804,-59.039 175.863,-88.851c30.221,-16.39 59.771,-33.663 87.001,-49.986c44.968,-26.962 84.917,-52.293 122.179,-79.597c26.169,-19.1 51.779,-39.798 74.042,-59.239c29.857,-25.521 55.166,-50.483 77.753,-75.898c18.251,-20.536 34.814,-40.67 48.13,-61.083c16.368,-25.309 29.584,-50.802 38.871,-75.898c13.004,-33.624 25.918,-66.543 25.918,-99.966l-0,-1483.33c-40.296,22.609 -85.945,44.375 -129.583,66.644c-24.487,12.567 -47.096,24.47 -72.193,37.021c-100.725,49.181 -209.816,97.289 -327.652,144.391c-24.493,9.751 -52.339,19.899 -77.753,29.617c-98.709,38.2 -203.061,74.752 -312.845,111.069c-40.296,13.378 -80.217,27.549 -122.172,40.726c-122.564,38.569 -251.588,76.417 -386.893,112.919c-22.179,6.259 -42.207,12.573 -64.794,18.513c-157.132,41.274 -324.037,80.307 -497.961,118.474c-48.002,10.628 -98.72,21.156 -148.091,31.472c-138.345,28.818 -281.4,54.78 -429.468,81.452c-53.394,9.399 -106.325,20.212 -161.049,29.617c-196.416,33.434 -399.851,64.906 -612.736,94.405c-29.203,3.739 -59.424,7.053 -88.856,11.11c-187.682,25.314 -383.02,50.242 -583.113,72.192c-67.823,7.516 -136.328,13.132 -205.48,20.363c-190.706,19.296 -387.552,37.362 -588.668,53.685c-51.718,4.057 -99.429,8.902 -151.795,12.959c-249.794,18.547 -510.038,34.635 -775.635,48.13c-65.805,3.51 -133.438,6.226 -199.925,9.254c-212.533,9.366 -429.34,15.96 -651.607,22.219c-81.262,2.464 -162.094,5.599 -244.351,7.404c-289.419,5.951 -583.018,11.103 -888.553,11.103c-305.535,0 -600.995,-5.135 -890.409,-11.103c-82.592,-1.9 -163.429,-5.13 -244.351,-7.404c-222.272,-5.935 -439.08,-12.836 -651.612,-22.219c-66.476,-2.844 -134.45,-5.839 -199.92,-9.254c-265.586,-13.69 -523.985,-29.326 -773.785,-48.13c-52.377,-4.057 -101.943,-8.902 -153.645,-12.959c-201.115,-16.183 -398.297,-34.249 -588.667,-53.685c-69.164,-7.197 -137.669,-12.808 -205.48,-20.363c-200.11,-21.983 -393.582,-46.778 -581.264,-72.192c-29.539,-3.739 -61.486,-7.053 -90.706,-11.11c-212.868,-29.477 -416.319,-60.776 -612.736,-94.405c-54.724,-9.092 -107.66,-20.218 -161.049,-29.617c-148.062,-26.75 -291.134,-52.618 -429.468,-81.452c-49.36,-10.629 -98.239,-20.844 -146.241,-31.472c-173.918,-38.173 -342.344,-77.172 -499.811,-118.474c-22.498,-5.94 -42.631,-12.567 -64.794,-18.513c-135.305,-36.312 -262.49,-74.311 -385.037,-112.919c-41.961,-13.378 -83.408,-27.231 -124.028,-40.726c-109.789,-36.529 -214.142,-73.087 -312.844,-111.069c-25.521,-9.751 -53.249,-19.899 -77.753,-29.617c-117.848,-47.113 -226.933,-95.4 -327.653,-144.391c-25.521,-12.568 -48.008,-24.476 -72.193,-37.021c-43.643,-22.425 -89.298,-44.063 -129.582,-66.644Zm-0,2489.81l-0,1483.33c-0,33.395 13.506,66.996 25.917,99.96c9.371,25.119 22.442,50.802 38.871,75.898c13.73,20.542 30.025,40.363 48.13,61.089c22.833,25.526 48.175,50.488 77.748,75.898c22.168,19.318 47.867,38.267 74.048,57.384c37.272,27.409 77.182,54.467 122.178,81.452c27.192,16.636 57.082,33.663 87.001,49.98c55.065,29.667 111.729,59.664 175.863,88.856c27.527,12.568 58.094,24.476 87.002,37.022c75.88,32.394 155.544,64.732 242.501,96.26c22.838,8.466 46.856,15.915 70.343,24.068c100.055,35.094 203.731,70.036 316.549,103.665c14.395,4.018 29.992,8.595 44.431,12.959c125.571,36.725 259.165,72.478 399.846,107.364c3.984,1.14 7.052,1.023 11.109,1.85c762.491,188.218 1738.33,347.938 2874.85,451.686c5.7,0.688 10.891,-0.413 16.664,0c220.925,19.922 446.696,39.838 679.373,55.535c37.933,2.464 78.351,3.09 116.624,5.554c203.128,13.038 408.614,25.784 620.134,35.172c96.703,4.023 197.819,5.84 296.187,9.254c159.143,5.661 318.125,13.249 481.303,16.658c266.922,5.689 538.688,9.26 816.361,9.26c277.667,-0 549.78,-3.951 816.36,-9.26c163.167,-3.459 320.294,-10.684 479.448,-16.658c98.39,-3.487 199.501,-4.895 296.187,-9.254c211.521,-9.584 417.006,-22 620.134,-35.172c38.279,-2.464 78.686,-3.09 116.624,-5.554c232.677,-15.781 458.442,-33.585 679.374,-53.685c5.554,-0.687 10.785,-1.436 16.663,-1.85c1136.51,-103.76 2112.35,-261.629 2874.85,-449.831c4.001,-1.14 8.975,-2.66 12.959,-3.705c140.692,-34.853 272.074,-70.639 397.996,-107.364c14.881,-4.018 29.852,-8.6 44.431,-12.959c112.824,-33.618 216.483,-68.778 316.544,-103.665c23.822,-8.153 47.448,-15.535 70.348,-24.068c86.957,-31.545 166.626,-63.916 242.502,-96.26c29.198,-12.568 59.457,-24.476 87.001,-37.022c64.135,-29.259 120.804,-59.038 175.863,-88.856c30.221,-16.418 59.771,-31.808 87.001,-48.13c44.968,-26.963 84.917,-54.155 122.179,-81.447c26.169,-19.111 51.779,-37.949 74.042,-57.39c29.857,-25.521 55.166,-52.338 77.753,-77.747c18.251,-20.536 34.814,-40.363 48.13,-61.089c16.368,-25.309 29.584,-50.802 38.871,-75.898c13.004,-33.624 25.918,-66.582 25.918,-99.96l-0,-1483.33c-85.934,47.918 -176.283,95.02 -277.673,140.686c-1270.15,587.69 -3793.22,1044.05 -7443.52,1044.05c-3665.73,0 -6195.36,-460.242 -7460.18,-1051.46c-83.939,-38.201 -158.21,-76.798 -231.397,-116.624c-9.785,-5.382 -22.029,-11.35 -31.467,-16.658l0.034,-0Zm-0,2489.81l-0,1525.9c4.33,8.801 8.415,18.379 11.103,27.767c190.376,717.803 3335.07,1486.48 7711.92,1486.48c4376.86,-0 7519.69,-768.672 7710.07,-1486.48c0,-0 6.466,-18.67 11.109,-27.767l0,-1525.9c-85.934,47.918 -178.132,95.021 -279.522,140.687c-1270.15,587.689 -3791.37,1044.05 -7441.62,1044.05c-3665.74,0 -6195.36,-460.242 -7460.18,-1051.46c-83.939,-38.2 -158.21,-76.797 -231.398,-116.623c-9.751,-5.382 -22.028,-11.355 -31.466,-16.659l-0.022,0Z" style="fill-rule:nonzero;"/></g></svg>