<?xml version="1.0" encoding="UTF-8" standalone="no"?><!DOCTYPE svg PUBLIC "-//W3C//DTD SVG 1.1//EN" "http://www.w3.org/Graphics/SVG/1.1/DTD/svg11.dtd"><svg width="100%" height="100%" viewBox="0 0 4167 4171" version="1.1" xmlns="http://www.w3.org/2000/svg" xmlns:xlink="http://www.w3.org/1999/xlink" xml:space="preserve" xmlns:serif="http://www.serif.com/" style="fill-rule:evenodd;clip-rule:evenodd;stroke-linejoin:round;stroke-miterlimit:2;"><rect id="description" x="0" y="1.822" width="4166.67" height="4166.67" style="fill:none;"/><rect x="0" y="1.822" width="4166.67" height="4166.67" style="fill:none;"/><g id="Layer_1-2"><path d="M2489.13,51.822l-1626.67,0c-224.368,0 -404.914,182.299 -404.914,406.667l0,3253.33c-1.752,224.368 178.794,406.667 403.161,406.667l2441.75,-0c224.368,-0 406.667,-182.299 406.667,-406.667l-0,-2440l-1220,-1220Zm406.667,3253.33l-1626.67,-0l-0,-406.667l1626.67,-0l-0,406.667Zm-0,-813.334l-1626.67,0l-0,-406.666l1626.67,-0l-0,406.666Zm-610,-1016.67l-0,-1118.33l1118.33,1118.33l-1118.33,-0Z" style="fill-rule:nonzero;"/></g></svg>