<?xml version="1.0" encoding="UTF-8" standalone="no"?><!DOCTYPE svg PUBLIC "-//W3C//DTD SVG 1.1//EN" "http://www.w3.org/Graphics/SVG/1.1/DTD/svg11.dtd"><svg width="100%" height="100%" viewBox="0 0 4167 4171" version="1.1" xmlns="http://www.w3.org/2000/svg" xmlns:xlink="http://www.w3.org/1999/xlink" xml:space="preserve" xmlns:serif="http://www.serif.com/" style="fill-rule:evenodd;clip-rule:evenodd;stroke-linejoin:round;stroke-miterlimit:2;"><rect id="docker" x="0" y="2.465" width="4166.67" height="4166.67" style="fill:none;"/><rect x="0" y="2.465" width="4166.67" height="4166.67" style="fill:none;"/><clipPath id="_clip1"><rect id="docker.svg" x="50" y="626.822" width="4066.67" height="2917.95"/></clipPath><g clip-path="url(#_clip1)"><g><path d="M4076.95,1730.2c-11.252,-9.267 -113.183,-86.708 -331.939,-86.708c-56.592,0 -115.169,5.626 -171.761,15.224c-41.368,-288.586 -280.973,-428.245 -290.571,-435.526l-58.577,-34.087l-37.728,54.606c-46.994,73.47 -83.068,156.538 -103.586,241.26c-39.714,164.149 -15.224,318.701 67.844,450.748c-99.946,56.592 -262.11,69.83 -296.197,71.816l-2678.35,-0c-69.829,-0 -126.421,56.592 -126.421,126.421c-3.64,233.979 35.742,467.627 116.824,688.368c92.334,241.26 230.008,420.633 407.395,529.845c199.891,122.45 526.204,192.28 893.885,192.28c165.804,-0 331.939,-15.224 496.089,-45.34c228.353,-41.368 447.108,-120.795 648.654,-235.633c166.135,-96.306 315.061,-218.756 441.482,-362.056c213.13,-239.605 339.551,-507.34 431.885,-744.959l37.728,-0c231.993,-0 375.293,-92.334 454.389,-171.761c52.952,-48.981 92.334,-109.544 120.796,-177.388l16.878,-48.98l-38.721,-28.13Zm-1657.71,199.891l358.414,0c16.879,0 32.102,-13.237 32.102,-32.101l0,-320.687c0,-16.878 -13.238,-32.102 -32.102,-32.102l-358.414,-0c-16.879,-0 -32.102,13.238 -32.102,32.102l-0,320.687c1.986,18.864 15.223,32.101 32.102,32.101Zm-499.729,-918.375l358.415,-0c16.878,-0 32.101,-13.238 32.101,-32.102l0,-320.687c0,-16.878 -15.223,-32.102 -32.101,-32.102l-358.415,0c-16.878,0 -32.102,13.238 -32.102,32.102l0,320.687c0,16.878 14.893,32.102 32.102,32.102Zm-0,460.015l358.415,-0c16.878,-0 32.101,-15.224 32.101,-32.102l0,-320.687c0,-16.878 -15.223,-32.101 -32.101,-32.101l-358.415,-0c-16.878,-0 -32.102,13.237 -32.102,32.101l0,320.687c0,17.209 14.893,32.102 32.102,32.102Zm-496.088,-0l358.414,-0c16.879,-0 32.102,-15.224 32.102,-32.102l0,-320.687c0,-16.878 -13.238,-32.101 -32.102,-32.101l-358.414,-0c-16.879,-0 -32.102,13.237 -32.102,32.101l-0,320.687c-0,17.209 13.238,32.102 32.102,32.102Zm-503.7,-0l358.414,-0c16.879,-0 32.102,-15.224 32.102,-32.102l0,-320.687c0,-16.878 -13.238,-32.101 -32.102,-32.101l-358.414,-0c-16.879,-0 -32.102,13.237 -32.102,32.101l-0,320.687c1.985,17.209 15.223,32.102 32.102,32.102Zm999.788,458.36l358.415,0c16.878,0 32.101,-13.237 32.101,-32.101l0,-320.687c0,-16.878 -13.237,-32.102 -32.101,-32.102l-358.415,-0c-16.878,-0 -32.102,13.238 -32.102,32.102l0,320.687c0,18.864 14.893,32.101 32.102,32.101Zm-496.088,0l358.414,0c16.879,0 32.102,-13.237 32.102,-32.101l0,-320.687c0,-16.878 -13.238,-32.102 -32.102,-32.102l-358.414,-0c-16.879,-0 -32.102,13.238 -32.102,32.102l-0,320.687c-0,18.864 13.238,32.101 32.102,32.101Zm-503.7,0l358.414,0c16.879,0 32.102,-13.237 32.102,-32.101l0,-320.687c0,-16.878 -13.238,-32.102 -32.102,-32.102l-358.414,-0c-16.879,-0 -32.102,13.238 -32.102,32.102l-0,320.687c1.985,18.864 15.223,32.101 32.102,32.101Zm-494.103,0l358.415,0c16.878,0 32.101,-13.237 32.101,-32.101l0,-320.687c0,-16.878 -13.237,-32.102 -32.101,-32.102l-358.415,-0c-16.878,-0 -32.102,13.238 -32.102,32.102l0,320.687c1.986,18.864 15.224,32.101 32.102,32.101Z" style="fill-rule:nonzero;"/></g></g></svg>