<?xml version="1.0" encoding="UTF-8" standalone="no"?><!DOCTYPE svg PUBLIC "-//W3C//DTD SVG 1.1//EN" "http://www.w3.org/Graphics/SVG/1.1/DTD/svg11.dtd"><svg width="100%" height="100%" viewBox="0 0 4171 4171" version="1.1" xmlns="http://www.w3.org/2000/svg" xmlns:xlink="http://www.w3.org/1999/xlink" xml:space="preserve" xmlns:serif="http://www.serif.com/" style="fill-rule:evenodd;clip-rule:evenodd;stroke-linejoin:round;stroke-miterlimit:2;"><rect id="dynamic_library_object" x="2.203" y="2.465" width="4166.67" height="4166.67" style="fill:none;"/><rect x="2.203" y="2.465" width="4166.67" height="4166.67" style="fill:none;"/><clipPath id="_clip1"><rect id="dynamic_library_object.svg" x="145.733" y="58.465" width="3879.61" height="4040.92"/></clipPath><g clip-path="url(#_clip1)"><g id="Layer_1-2"><path id="path18" d="M479.339,3461.99l-7.182,244.704c-0,216.01 178.897,392.687 400.146,392.687l2414.91,-0c221.166,-0 396.761,-176.758 402.127,-392.687l6.192,-244.704l-3216.19,-0Z" style="fill-rule:nonzero;"/><path id="rect32-3" d="M1086.08,2623.14c-25.014,-47.957 -62.164,-85.759 -111.698,-113.405c-36.076,-19.989 -74.465,-33.772 -115.082,-41.348c-40.534,-8.06 -89.077,-11.929 -145.627,-11.929l-114.257,-0l-0,689.298l114.257,-0c58.614,-0 109.633,-4.192 153.057,-12.574c43.837,-8.383 84.042,-24.019 120.531,-46.829c45.488,-28.372 79.253,-65.932 101.708,-112.277c22.951,-46.426 34.674,-104.297 34.674,-173.856c-0,-69.558 -12.631,-129.122 -37.563,-177.08Zm-0,0c-25.014,-47.957 -62.164,-85.759 -111.698,-113.405c-36.076,-19.989 -74.465,-33.772 -115.082,-41.348c-40.534,-8.06 -89.077,-11.929 -145.627,-11.929l-114.257,-0l-0,689.298l114.257,-0c58.614,-0 109.633,-4.192 153.057,-12.574c43.837,-8.383 84.042,-24.019 120.531,-46.829c45.488,-28.372 79.253,-65.932 101.708,-112.277c22.951,-46.426 34.674,-104.297 34.674,-173.856c-0,-69.558 -12.631,-129.122 -37.563,-177.08Zm-0,0c-25.014,-47.957 -62.164,-85.759 -111.698,-113.405c-36.076,-19.989 -74.465,-33.772 -115.082,-41.348c-40.534,-8.06 -89.077,-11.929 -145.627,-11.929l-114.257,-0l-0,689.298l114.257,-0c58.614,-0 109.633,-4.192 153.057,-12.574c43.837,-8.383 84.042,-24.019 120.531,-46.829c45.488,-28.372 79.253,-65.932 101.708,-112.277c22.951,-46.426 34.674,-104.297 34.674,-173.856c-0,-69.558 -12.631,-129.122 -37.563,-177.08Zm-0,0c-25.014,-47.957 -62.164,-85.759 -111.698,-113.405c-36.076,-19.989 -74.465,-33.772 -115.082,-41.348c-40.534,-8.06 -89.077,-11.929 -145.627,-11.929l-114.257,-0l-0,689.298l114.257,-0c58.614,-0 109.633,-4.192 153.057,-12.574c43.837,-8.383 84.042,-24.019 120.531,-46.829c45.488,-28.372 79.253,-65.932 101.708,-112.277c22.951,-46.426 34.674,-104.297 34.674,-173.856c-0,-69.558 -12.631,-129.122 -37.563,-177.08Zm-851.972,-368.909l0,1109.63l3702.86,0l0,-1109.63l-3702.86,-0Zm961.853,768.447c-36.077,66.012 -83.959,117.274 -144.224,153.706c-41.773,25.147 -88.417,43.444 -140.014,54.647c-51.267,11.204 -118.797,16.604 -202.839,16.604l-231.155,0l0,-892.976l228.596,0c89.325,0 160.323,6.206 212.745,19.022c52.836,12.412 97.333,29.5 133.823,51.504c62.246,37.963 110.789,88.661 145.627,151.852c34.839,63.191 52.34,138.23 52.34,224.956c0,81.246 -18.492,154.673 -54.899,220.685Zm831.333,224.957l-578.796,0l0,-892.976l121.604,0l0,787.47l457.192,-0l-0,105.506Zm700.4,0l-578.796,0l-0,-892.976l121.687,0l-0,787.47l457.109,-0l-0,105.506Zm-1753.31,-737.9c-36.076,-19.989 -74.465,-33.772 -115.082,-41.348c-40.534,-8.06 -89.077,-11.929 -145.627,-11.929l-114.257,-0l-0,689.298l114.257,-0c58.614,-0 109.633,-4.192 153.057,-12.574c43.837,-8.383 84.042,-24.019 120.531,-46.829c45.488,-28.372 79.253,-65.932 101.708,-112.277c22.951,-46.426 34.674,-104.297 34.674,-173.856c-0,-69.558 -12.631,-129.122 -37.563,-177.08c-25.014,-47.957 -62.164,-85.759 -111.698,-113.405Zm111.698,113.405c-25.014,-47.957 -62.164,-85.759 -111.698,-113.405c-36.076,-19.989 -74.465,-33.772 -115.082,-41.348c-40.534,-8.06 -89.077,-11.929 -145.627,-11.929l-114.257,-0l-0,689.298l114.257,-0c58.614,-0 109.633,-4.192 153.057,-12.574c43.837,-8.383 84.042,-24.019 120.531,-46.829c45.488,-28.372 79.253,-65.932 101.708,-112.277c22.951,-46.426 34.674,-104.297 34.674,-173.856c-0,-69.558 -12.631,-129.122 -37.563,-177.08Zm-0,0c-25.014,-47.957 -62.164,-85.759 -111.698,-113.405c-36.076,-19.989 -74.465,-33.772 -115.082,-41.348c-40.534,-8.06 -89.077,-11.929 -145.627,-11.929l-114.257,-0l-0,689.298l114.257,-0c58.614,-0 109.633,-4.192 153.057,-12.574c43.837,-8.383 84.042,-24.019 120.531,-46.829c45.488,-28.372 79.253,-65.932 101.708,-112.277c22.951,-46.426 34.674,-104.297 34.674,-173.856c-0,-69.558 -12.631,-129.122 -37.563,-177.08Z"/><path d="M3689.34,2156.1l-144.777,0c49.86,-20.286 98.191,-43.445 144.777,-69.264l0,69.264Zm-2815.06,-1983.1l1092.4,-0c-167.645,217.631 -267.043,488.164 -267.043,781.184c-0,541.273 339.171,1005.82 821.157,1201.92l-2047.57,0l0.908,-1590.41c0,-216.01 178.98,-392.687 400.146,-392.687Z" style="fill-rule:nonzero;"/><path d="M3822.69,516.945l-759.974,-438.727c-45.629,-26.338 -102.231,-26.338 -147.86,-0l-759.974,438.727c-45.513,26.337 -73.814,75.315 -73.814,128.106l-0,877.338c-0,52.79 28.301,101.769 73.814,128.106l759.974,438.727c22.872,13.169 48.401,19.753 73.93,19.753c25.529,0 51.058,-6.584 73.93,-19.753l759.974,-438.727c45.513,-26.337 73.815,-75.316 73.815,-128.106l-0,-877.338c-0,-52.791 -28.302,-101.769 -73.815,-128.106Zm-886.232,1463.92l-729.248,-421.053c-13.169,-7.74 -21.486,-22.063 -21.486,-37.427l0,-841.759l750.734,433.413l-0,866.826Zm-698.29,-1391.03l729.017,-420.938c13.4,-7.739 29.803,-7.739 43.202,0l729.133,420.938l-750.734,433.413l-750.618,-433.413Zm1553.68,932.554c-0,15.364 -8.317,29.687 -21.601,37.427l-729.132,420.937l-0,-866.71l750.733,-433.413l-0,841.759Z" style="fill-rule:nonzero;"/></g></g></svg>