<?xml version="1.0" encoding="UTF-8" standalone="no"?><!DOCTYPE svg PUBLIC "-//W3C//DTD SVG 1.1//EN" "http://www.w3.org/Graphics/SVG/1.1/DTD/svg11.dtd"><svg width="100%" height="100%" viewBox="0 0 4171 4171" version="1.1" xmlns="http://www.w3.org/2000/svg" xmlns:xlink="http://www.w3.org/1999/xlink" xml:space="preserve" xmlns:serif="http://www.serif.com/" style="fill-rule:evenodd;clip-rule:evenodd;stroke-linejoin:round;stroke-miterlimit:2;"><rect id="dynamic_library" x="4.034" y="2.465" width="4166.67" height="4166.67" style="fill:none;"/><rect x="4.034" y="2.465" width="4166.67" height="4166.67" style="fill:none;"/><clipPath id="_clip1"><rect id="dynamic_library.svg" x="66.907" y="65.338" width="4040.92" height="4040.92"/></clipPath><g clip-path="url(#_clip1)"><g id="Layer-1" serif:id="Layer 1"><path id="path18" d="M539.811,3450.28l-7.243,251.888c0,222.251 179.821,404.092 402.072,404.092l2426.57,0c222.251,0 398.659,-181.908 404.092,-404.092l6.158,-251.888m-6.158,-1344.02l0,-828.649l-1212.28,-1212.28l-1616.37,0c-222.25,0 -402.071,181.841 -402.071,404.092l-0.938,1636.83m1817.33,-626.603l-0,-1111.25l1111.25,1111.25l-1111.25,0Z" style="fill-rule:nonzero;"/><path id="rect32" d="M105.58,2175.49l-0,1216.62l3963.58,0l-0,-1216.62l-3963.58,0Zm260.844,110.099l244.665,0c95.586,0 171.573,6.884 227.697,20.915c56.562,13.592 104.224,32.315 143.247,56.431c66.647,41.655 118.606,97.253 155.876,166.531c37.269,69.277 56.036,151.49 56.036,246.638c-0,89.009 -19.775,169.555 -58.799,241.902c-38.585,72.348 -89.842,128.603 -154.297,168.504c-44.723,27.623 -94.709,47.705 -149.956,59.982c-54.808,12.276 -127.155,18.152 -217.041,18.152l-247.428,-0l0,-979.055Zm1039.04,0l130.225,0l-0,863.432l489.33,-0l0,115.624l-619.555,-0l-0,-979.056Zm749.78,0l130.225,0l-0,863.432l489.33,-0l0,115.624l-619.555,-0l-0,-979.056Zm-1658.59,111.678l0,755.7l122.333,-0c62.701,-0 117.29,-4.604 163.768,-13.813c46.916,-9.206 90.017,-26.308 129.041,-51.3c48.67,-31.132 84.799,-72.26 108.915,-123.122c24.554,-50.863 37.095,-114.309 37.095,-190.602c-0,-76.732 -13.505,-141.538 -40.252,-194.154c-26.746,-52.615 -66.515,-94.05 -119.57,-124.305c-38.585,-21.923 -79.713,-37.05 -123.122,-45.381c-43.408,-8.769 -95.367,-13.023 -155.875,-13.023l-122.333,0Z"/></g></g></svg>