<?xml version="1.0" encoding="UTF-8" standalone="no"?><!DOCTYPE svg PUBLIC "-//W3C//DTD SVG 1.1//EN" "http://www.w3.org/Graphics/SVG/1.1/DTD/svg11.dtd"><svg width="100%" height="100%" viewBox="0 0 4171 4171" version="1.1" xmlns="http://www.w3.org/2000/svg" xmlns:xlink="http://www.w3.org/1999/xlink" xml:space="preserve" xmlns:serif="http://www.serif.com/" style="fill-rule:evenodd;clip-rule:evenodd;stroke-linejoin:round;stroke-miterlimit:2;"><rect id="dynamic_library_member_function" x="2.203" y="2.465" width="4166.67" height="4166.67" style="fill:none;"/><rect x="2.203" y="2.465" width="4166.67" height="4166.67" style="fill:none;"/><clipPath id="_clip1"><rect id="dynamic_library_member_function.svg" x="68.513" y="65.338" width="4034.05" height="4034.05"/></clipPath><g clip-path="url(#_clip1)"><path id="path18" d="M484.34,3463.08l-7.17,244.288c-0,215.642 178.593,392.019 399.465,392.019l2410.8,-0c220.79,-0 396.087,-176.457 401.444,-392.019l6.181,-244.288l-3210.72,-0Z" style="fill-rule:nonzero;"/><path id="rect32-3" d="M1090.05,2625.65c-24.971,-47.876 -62.058,-85.613 -111.507,-113.212c-36.015,-19.955 -74.338,-33.714 -114.886,-41.278c-40.466,-8.046 -88.926,-11.909 -145.38,-11.909l-114.063,0l0,688.126l114.063,-0c58.514,-0 109.447,-4.184 152.797,-12.553c43.762,-8.368 83.898,-23.978 120.326,-46.749c45.41,-28.323 79.118,-65.819 101.535,-112.086c22.911,-46.347 34.614,-104.12 34.614,-173.56c0,-69.44 -12.609,-128.903 -37.499,-176.779Zm0,0c-24.971,-47.876 -62.058,-85.613 -111.507,-113.212c-36.015,-19.955 -74.338,-33.714 -114.886,-41.278c-40.466,-8.046 -88.926,-11.909 -145.38,-11.909l-114.063,0l0,688.126l114.063,-0c58.514,-0 109.447,-4.184 152.797,-12.553c43.762,-8.368 83.898,-23.978 120.326,-46.749c45.41,-28.323 79.118,-65.819 101.535,-112.086c22.911,-46.347 34.614,-104.12 34.614,-173.56c0,-69.44 -12.609,-128.903 -37.499,-176.779Zm0,0c-24.971,-47.876 -62.058,-85.613 -111.507,-113.212c-36.015,-19.955 -74.338,-33.714 -114.886,-41.278c-40.466,-8.046 -88.926,-11.909 -145.38,-11.909l-114.063,0l0,688.126l114.063,-0c58.514,-0 109.447,-4.184 152.797,-12.553c43.762,-8.368 83.898,-23.978 120.326,-46.749c45.41,-28.323 79.118,-65.819 101.535,-112.086c22.911,-46.347 34.614,-104.12 34.614,-173.56c0,-69.44 -12.609,-128.903 -37.499,-176.779Zm0,0c-24.971,-47.876 -62.058,-85.613 -111.507,-113.212c-36.015,-19.955 -74.338,-33.714 -114.886,-41.278c-40.466,-8.046 -88.926,-11.909 -145.38,-11.909l-114.063,0l0,688.126l114.063,-0c58.514,-0 109.447,-4.184 152.797,-12.553c43.762,-8.368 83.898,-23.978 120.326,-46.749c45.41,-28.323 79.118,-65.819 101.535,-112.086c22.911,-46.347 34.614,-104.12 34.614,-173.56c0,-69.44 -12.609,-128.903 -37.499,-176.779Zm-850.522,-368.282l0,1107.74l3696.56,0l0,-1107.74l-3696.56,0Zm960.217,767.141c-36.016,65.899 -83.816,117.074 -143.979,153.444c-41.702,25.105 -88.267,43.37 -139.776,54.554c-51.18,11.185 -118.595,16.576 -202.494,16.576l-230.761,-0l-0,-891.457l228.207,-0c89.173,-0 160.049,6.195 212.383,18.989c52.746,12.392 97.167,29.45 133.595,51.416c62.141,37.899 110.601,88.511 145.38,151.594c34.779,63.084 52.251,137.995 52.251,224.574c-0,81.108 -18.461,154.41 -54.806,220.31Zm829.918,224.574l-577.811,-0l0,-891.457l121.397,-0l0,786.13l456.414,-0l0,105.327Zm699.209,-0l-577.811,-0l-0,-891.457l121.479,-0l0,786.13l456.332,-0l-0,105.327Zm-1750.33,-736.645c-36.015,-19.955 -74.338,-33.714 -114.886,-41.278c-40.466,-8.046 -88.926,-11.909 -145.38,-11.909l-114.063,0l0,688.126l114.063,-0c58.514,-0 109.447,-4.184 152.797,-12.553c43.762,-8.368 83.898,-23.978 120.326,-46.749c45.41,-28.323 79.118,-65.819 101.535,-112.086c22.911,-46.347 34.614,-104.12 34.614,-173.56c0,-69.44 -12.609,-128.903 -37.499,-176.779c-24.971,-47.876 -62.058,-85.613 -111.507,-113.212Zm111.507,113.212c-24.971,-47.876 -62.058,-85.613 -111.507,-113.212c-36.015,-19.955 -74.338,-33.714 -114.886,-41.278c-40.466,-8.046 -88.926,-11.909 -145.38,-11.909l-114.063,0l0,688.126l114.063,-0c58.514,-0 109.447,-4.184 152.797,-12.553c43.762,-8.368 83.898,-23.978 120.326,-46.749c45.41,-28.323 79.118,-65.819 101.535,-112.086c22.911,-46.347 34.614,-104.12 34.614,-173.56c0,-69.44 -12.609,-128.903 -37.499,-176.779Zm0,0c-24.971,-47.876 -62.058,-85.613 -111.507,-113.212c-36.015,-19.955 -74.338,-33.714 -114.886,-41.278c-40.466,-8.046 -88.926,-11.909 -145.38,-11.909l-114.063,0l0,688.126l114.063,-0c58.514,-0 109.447,-4.184 152.797,-12.553c43.762,-8.368 83.898,-23.978 120.326,-46.749c45.41,-28.323 79.118,-65.819 101.535,-112.086c22.911,-46.347 34.614,-104.12 34.614,-173.56c0,-69.44 -12.609,-128.903 -37.499,-176.779Z"/><path d="M3688.88,2159.41l-144.531,-0c49.775,-20.252 98.024,-43.371 144.531,-69.146l-0,69.146Zm-2810.27,-1979.73l1090.54,0c-167.36,217.261 -266.589,487.334 -266.589,779.856c-0,540.353 338.594,1004.1 819.76,1199.87l-2044.09,-0l0.907,-1587.71c-0,-215.642 178.675,-392.019 399.465,-392.019Z" style="fill-rule:nonzero;"/><g id="Layer_1-2"><g><g><path d="M3822,523.038l-265.233,-153.143c0.115,1.268 0.115,2.652 0.115,3.921c0,38.631 -18.681,68.845 -52.354,86.604l234.443,135.384l-347.456,200.655l-97.675,56.275l-118.663,68.5c-0.576,37.017 -1.383,78.416 -2.421,122.238l618.454,-357.027l0,840.327c0,15.338 -8.303,29.637 -21.565,37.364l-727.891,420.221l-0,-184.51c-29.983,43.706 -65.155,80.377 -104.479,109.092l-0,75.533l-64.463,-37.248c-45.667,21.45 -95.484,33.558 -148.185,35.057l191.083,110.36c22.833,13.147 48.319,19.72 73.804,19.72c25.486,-0 50.971,-6.573 73.804,-19.72l758.682,-437.98c45.436,-26.293 73.689,-75.188 73.689,-127.889l-0,-875.845c-0,-52.701 -28.253,-101.596 -73.689,-127.889Z" style="fill-rule:nonzero;"/><path d="M2187.82,1526.77l0,-840.327l647.054,373.632c1.153,-39.208 2.306,-78.993 3.459,-118.893l-598.158,-345.38l727.777,-420.221c13.377,-7.727 29.752,-7.727 43.129,-0l50.625,29.175c37.363,-24.101 78.878,-40.707 123.737,-49.241l-122.123,-70.459c-45.551,-26.293 -102.057,-26.293 -147.608,-0l-758.682,437.98c-45.435,26.293 -73.688,75.188 -73.688,127.889l-0,875.845c-0,52.701 28.253,101.596 73.688,127.889l314.82,181.742c-2.306,-10.724 -3.459,-21.91 -3.459,-33.442c-0,-28.83 12.685,-54.2 33.442,-69.883l-292.563,-168.942c-13.147,-7.727 -21.45,-22.026 -21.45,-37.364Z" style="fill-rule:nonzero;"/></g><path d="M2527.32,1757.53c-15.107,8.649 -24.448,25.37 -24.448,45.436c0,86.719 83.952,145.071 208.958,145.071c188.2,-0 333.156,-138.267 387.701,-369.943c33.327,-139.42 40.708,-600.695 42.092,-738.732l0.23,-17.067l17.067,0c91.679,0 152.798,-3.69 186.471,-11.301c23.525,-36.21 39.554,-103.902 40.938,-173.785c-58.928,11.993 -128.696,17.413 -224.756,17.413l-18.105,-0l0.807,-18.105c10.84,-235.827 123.622,-261.313 171.594,-261.313c51.202,0 113.013,25.14 153.951,62.042c25.601,-7.611 52.239,-24.794 52.239,-63.425c0,-89.949 -108.745,-190.276 -264.772,-190.276c-207.919,-0 -352.183,175.4 -376.631,457.93l-1.383,15.799l-15.914,0c-51.202,0 -122.815,-5.189 -149.108,-7.265c-9.917,14.069 -14.53,29.637 -14.53,48.549c0,37.133 79.34,111.052 160.524,121.2l15.568,1.961l-0.692,27.907c-7.842,301.674 -16.029,613.611 -39.9,753.954c-28.83,183.818 -126.39,211.379 -182.088,211.379c-55.699,-0 -96.753,-19.72 -125.929,-57.429l0.116,0Z" style="fill-rule:nonzero;"/></g></g></g></svg>