<?xml version="1.0" encoding="UTF-8" standalone="no"?><!DOCTYPE svg PUBLIC "-//W3C//DTD SVG 1.1//EN" "http://www.w3.org/Graphics/SVG/1.1/DTD/svg11.dtd"><svg width="100%" height="100%" viewBox="0 0 4171 4171" version="1.1" xmlns="http://www.w3.org/2000/svg" xmlns:xlink="http://www.w3.org/1999/xlink" xml:space="preserve" xmlns:serif="http://www.serif.com/" style="fill-rule:evenodd;clip-rule:evenodd;stroke-linejoin:round;stroke-miterlimit:2;"><rect id="force_node" x="4.026" y="2.465" width="4166.67" height="4166.67" style="fill:none;"/><rect x="4.026" y="2.465" width="4166.67" height="4166.67" style="fill:none;"/><g><path d="M275.214,1683.1c0,-110.948 90.402,-201.35 201.35,-201.35l1006.75,0l-0,-1006.75c-0,-110.947 90.402,-201.349 201.349,-201.349c110.948,0 201.35,90.402 201.35,201.349l-0,1409.45l-1409.45,0c-110.948,0 -201.35,-89.991 -201.35,-201.349Z" style="fill-rule:nonzero;"/><path d="M1634.53,1345.33l-1222.89,-1220.01c-73.554,-73.965 -197.651,-70.267 -276.136,8.629c-78.486,78.896 -82.184,202.171 -8.219,276.137l1222.89,1219.6c73.965,73.965 197.651,70.266 276.136,-8.63c78.485,-78.074 82.183,-201.76 8.218,-275.725Z" style="fill-rule:nonzero;"/><path d="M3899.5,1683.1c-0,-110.948 -90.402,-201.35 -201.35,-201.35l-1006.75,0l0,-1006.75c0,-110.947 -90.402,-201.349 -201.349,-201.349c-110.948,0 -201.35,90.402 -201.35,201.349l0,1409.45l1409.45,0c111.359,0 201.35,-89.991 201.35,-201.349Z" style="fill-rule:nonzero;"/><path d="M2540.6,1345.33l1222.48,-1220.01c73.965,-73.965 197.651,-70.267 276.136,8.629c78.486,78.896 82.184,202.171 8.63,276.137l-1222.48,1220.01c-73.965,73.966 -197.651,70.267 -276.136,-8.629c-78.896,-78.485 -83.005,-202.171 -8.629,-276.136Z" style="fill-rule:nonzero;"/><path d="M275.214,2488.5c0,110.948 90.402,201.35 201.35,201.35l1006.75,-0l-0,1006.75c-0,110.947 90.402,201.349 201.349,201.349c110.948,0 201.35,-90.402 201.35,-201.349l-0,-1409.45l-1409.45,-0c-110.948,-0 -201.35,90.402 -201.35,201.349Z" style="fill-rule:nonzero;"/><path d="M1634.53,2826.27l-1222.89,1220.01c-73.965,73.965 -197.651,70.267 -276.136,-8.629c-78.486,-78.896 -82.184,-202.171 -8.63,-276.136l1222.89,-1219.6c73.965,-73.965 197.651,-70.267 276.136,8.629c78.485,78.485 82.594,202.171 8.629,275.725Z" style="fill-rule:nonzero;"/><path d="M3899.5,2488.5c-0,110.948 -90.402,201.35 -201.35,201.35l-1006.75,-0l0,1006.75c0,110.947 -90.402,201.349 -201.349,201.349c-110.948,0 -201.35,-90.402 -201.35,-201.349l0,-1409.45l1409.45,-0c111.359,-0 201.35,90.402 201.35,201.349Z" style="fill-rule:nonzero;"/><path d="M2540.6,2826.27l1222.48,1219.6c73.965,73.965 197.651,70.267 276.136,-8.629c78.486,-78.896 82.184,-202.171 8.63,-276.136l-1222.48,-1219.6c-73.965,-73.965 -197.651,-70.267 -276.136,8.629c-78.896,78.896 -83.005,202.582 -8.629,276.136Z" style="fill-rule:nonzero;"/></g></svg>