<?xml version="1.0" encoding="utf-8"?>
<!-- Svg Vector Icons : http://www.onlinewebfonts.com/icon -->
<!DOCTYPE svg PUBLIC "-//W3C//DTD SVG 1.1//EN" "http://www.w3.org/Graphics/SVG/1.1/DTD/svg11.dtd">
<svg version="1.1" xmlns="http://www.w3.org/2000/svg" xmlns:xlink="http://www.w3.org/1999/xlink" x="0px" y="0px" viewBox="0 0 1000 1000" enable-background="new 0 0 1000 1000" xml:space="preserve">
<metadata> Svg Vector Icons : http://www.onlinewebfonts.com/icon </metadata>
<g><path d="M59,402c0-27,22-49,49-49h245V108c0-27,22-49,49-49c27,0,49,22,49,49v343H108C81,451,59,429.1,59,402z"/><path d="M389.8,319.8L92.2,22.9C74.3,4.9,44.1,5.8,25,25C5.9,44.2,5,74.2,23,92.2l297.6,296.8c18,18,48.1,17.1,67.2-2.1C406.9,367.9,407.8,337.8,389.8,319.8z"/><path d="M941,402c0-27-22-49-49-49H647V108c0-27-22-49-49-49c-27,0-49,22-49,49v343h343C919.1,451,941,429.1,941,402z"/><path d="M610.3,319.8L907.8,22.9c18-18,48.1-17.1,67.2,2.1c19.1,19.2,20,49.2,2.1,67.2L679.6,389.1c-18,18-48.1,17.1-67.2-2.1C593.2,367.9,592.2,337.8,610.3,319.8z"/><path d="M59,598c0,27,22,49,49,49h245v245c0,27,22,49,49,49c27,0,49-22,49-49V549H108C81,549,59,571,59,598z"/><path d="M389.8,680.2L92.2,977.1c-18,18-48.1,17.1-67.2-2.1c-19.1-19.2-20-49.2-2.1-67.2l297.6-296.8c18-18,48.1-17.1,67.2,2.1C406.8,632.2,407.8,662.3,389.8,680.2z"/><path d="M941,598c0,27-22,49-49,49H647v245c0,27-22,49-49,49c-27,0-49-22-49-49V549h343C919.1,549,941,571,941,598z"/><path d="M610.3,680.2l297.5,296.8c18,18,48.1,17.1,67.2-2.1c19.1-19.2,20-49.2,2.1-67.2L679.6,610.9c-18-18-48.1-17.1-67.2,2.1C593.2,632.2,592.2,662.3,610.3,680.2z"/></g>
</svg>