<?xml version="1.0" encoding="UTF-8"?>
<svg id="Layer_2" data-name="Layer 2" xmlns="http://www.w3.org/2000/svg" xmlns:xlink="http://www.w3.org/1999/xlink" viewBox="0 0 94.57 72.42">
  <defs>
    <style>
      .cls-1 {
        clip-path: url(#clippath);
      }

      .cls-2 {
        fill: none;
      }
    </style>
    <clipPath id="clippath">
      <rect id="SVGID" class="cls-2" x="66.49" y="22.17" width="28.08" height="28.08"/>
    </clipPath>
  </defs>
  <g id="Layer_1-2" data-name="Layer 1">
    <rect y="32.71" width="50.92" height="7"/>
    <path d="m49.6,39.71c-14.14,0-21.29-9.42-27.59-17.74C15.92,13.94,10.66,7,0,7V0c14.14,0,21.29,9.43,27.59,17.74,6.09,8.03,11.35,14.97,22.01,14.97v7Z"/>
    <path d="m0,72.42v-7c10.66,0,15.92-6.94,22.01-14.97,6.3-8.31,13.45-17.74,27.59-17.74h0v7h0c-10.66,0-15.92,6.94-22.01,14.97-6.3,8.32-13.45,17.74-27.59,17.74Z"/>
    <g class="cls-1">
      <path d="m80.53,22.17c7.75,0,14.04,6.29,14.04,14.04s-6.29,14.04-14.04,14.04-14.04-6.29-14.04-14.04,6.29-14.04,14.04-14.04"/>
    </g>
    <path d="m61.57,35.85c.26.23.36.44-.02.72l-10.06,7.36c-.38.28-.92,0-.92-.47v-14.51c0-.47.54-.75.92-.47"/>
  </g>
</svg>