<?xml version="1.0" encoding="UTF-8" standalone="no"?><!DOCTYPE svg PUBLIC "-//W3C//DTD SVG 1.1//EN" "http://www.w3.org/Graphics/SVG/1.1/DTD/svg11.dtd"><svg width="100%" height="100%" viewBox="0 0 4171 4171" version="1.1" xmlns="http://www.w3.org/2000/svg" xmlns:xlink="http://www.w3.org/1999/xlink" xml:space="preserve" xmlns:serif="http://www.serif.com/" style="fill-rule:evenodd;clip-rule:evenodd;stroke-linejoin:round;stroke-miterlimit:2;"><rect id="gather" x="4.026" y="3.893" width="4166.67" height="4166.67" style="fill:none;"/><rect x="4.026" y="3.893" width="4166.67" height="4166.67" style="fill:none;"/><g id="Layer_1-2"><rect x="73.772" y="1938.18" width="2168.38" height="298.088"/><path d="M2185.94,2236.27c-602.138,0 -906.614,-401.142 -1174.89,-755.441c-259.337,-341.95 -483.329,-637.483 -937.275,-637.483l-0,-298.089c602.138,0 906.614,401.568 1174.89,755.442c259.337,341.95 483.329,637.483 937.275,637.483l0,298.088Z" style="fill-rule:nonzero;"/><path d="M73.772,3629.2l-0,-298.089c453.946,0 677.938,-295.533 937.275,-637.483c268.28,-353.873 572.756,-755.441 1174.89,-755.441l0,298.088c-453.946,0 -677.938,295.534 -937.275,637.484c-268.28,354.299 -572.756,755.441 -1174.89,755.441Z" style="fill-rule:nonzero;"/><g><path d="M3503.07,1489.35c330.026,-0 597.88,267.854 597.88,597.88c0,330.027 -267.854,597.88 -597.88,597.88c-330.027,0 -597.88,-267.853 -597.88,-597.88c-0,-330.026 267.853,-597.88 597.88,-597.88" style="fill-rule:nonzero;"/></g><path d="M2695.67,2071.9c11.072,9.794 15.33,18.737 -0.851,30.66l-428.396,313.419c-16.182,11.924 -39.177,-0 -39.177,-20.015l-0,-617.894c-0,-20.015 22.995,-31.938 39.177,-20.015" style="fill-rule:nonzero;"/></g></svg>