<?xml version="1.0" encoding="UTF-8" standalone="no"?><!DOCTYPE svg PUBLIC "-//W3C//DTD SVG 1.1//EN" "http://www.w3.org/Graphics/SVG/1.1/DTD/svg11.dtd"><svg width="100%" height="100%" viewBox="0 0 4171 4171" version="1.1" xmlns="http://www.w3.org/2000/svg" xmlns:xlink="http://www.w3.org/1999/xlink" xml:space="preserve" xmlns:serif="http://www.serif.com/" style="fill-rule:evenodd;clip-rule:evenodd;stroke-linejoin:round;stroke-miterlimit:2;"><rect id="group" x="2.203" y="3.893" width="4166.67" height="4166.67" style="fill:none;"/><rect x="2.203" y="3.893" width="4166.67" height="4166.67" style="fill:none;"/><clipPath id="_clip1"><rect id="group.svg" x="82.98" y="84.669" width="4005.11" height="4005.11"/></clipPath><g clip-path="url(#_clip1)"><g id="Layer_1-2"><rect x="82.98" y="84.669" width="4005.11" height="4005.11" style="fill:none;fill-rule:nonzero;"/><path d="M2085.54,84.669c-1105.33,0 -2002.56,897.228 -2002.56,2002.56c-0,1105.33 897.227,2002.56 2002.56,2002.56c1105.33,-0 2002.56,-897.227 2002.56,-2002.56c0,-1105.33 -897.227,-2002.56 -2002.56,-2002.56Zm-800,3102.77c-276.332,0 -499.786,-223.454 -499.786,-499.786c0,-276.332 223.454,-499.786 499.786,-499.786c276.333,-0 499.787,223.454 499.787,499.786c-0,276.332 -223.454,499.786 -499.787,499.786Zm300.213,-1901.92c0,-276.332 223.454,-499.786 499.787,-499.786c276.332,-0 499.786,223.454 499.786,499.786c-0,276.332 -223.454,499.786 -499.786,499.786c-276.333,0 -499.787,-223.454 -499.787,-499.786Zm1301.49,1901.92c-276.333,0 -499.787,-223.454 -499.787,-499.786c0,-276.332 223.454,-499.786 499.787,-499.786c276.332,-0 499.786,223.454 499.786,499.786c-0,276.332 -223.454,499.786 -499.786,499.786Z" style="fill-rule:nonzero;"/></g></g></svg>