<?xml version="1.0" encoding="UTF-8"?>
<svg id="Layer_2" data-name="Layer 2" xmlns="http://www.w3.org/2000/svg" viewBox="0 0 24 24">
  <defs>
    <style>
      .cls-1 {
        fill: none;
      }
    </style>
  </defs>
  <g id="Layer_1-2" data-name="Layer 1">
    <path class="cls-1" d="m0,0h24v24H0V0Z"/>
    <path d="m12,.26C5.52.26.26,5.52.26,12s5.26,11.74,11.74,11.74,11.74-5.26,11.74-11.74S18.48.26,12,.26Zm-4.69,18.19c-1.62,0-2.93-1.31-2.93-2.93s1.31-2.93,2.93-2.93,2.93,1.31,2.93,2.93-1.31,2.93-2.93,2.93Zm1.76-11.15c0-1.62,1.31-2.93,2.93-2.93s2.93,1.31,2.93,2.93-1.31,2.93-2.93,2.93-2.93-1.31-2.93-2.93Zm7.63,11.15c-1.62,0-2.93-1.31-2.93-2.93s1.31-2.93,2.93-2.93,2.93,1.31,2.93,2.93-1.31,2.93-2.93,2.93Z"/>
  </g>
</svg>