<?xml version="1.0" encoding="UTF-8" standalone="no"?><!DOCTYPE svg PUBLIC "-//W3C//DTD SVG 1.1//EN" "http://www.w3.org/Graphics/SVG/1.1/DTD/svg11.dtd"><svg width="100%" height="100%" viewBox="0 0 4171 4171" version="1.1" xmlns="http://www.w3.org/2000/svg" xmlns:xlink="http://www.w3.org/1999/xlink" xml:space="preserve" xmlns:serif="http://www.serif.com/" style="fill-rule:evenodd;clip-rule:evenodd;stroke-linejoin:round;stroke-miterlimit:2;"><rect id="hard_drive" x="2.203" y="3.893" width="4166.67" height="4166.67" style="fill:none;"/><rect x="2.203" y="3.893" width="4166.67" height="4166.67" style="fill:none;"/><clipPath id="_clip1"><rect id="hard-drive.svg" x="544.844" y="84.669" width="3081.39" height="4005.11"/></clipPath><g clip-path="url(#_clip1)"><g id="g16"><g id="g14"><path id="path10" d="M3337.7,84.669l-2504.17,0c-158.836,0 -288.684,129.998 -288.684,288.535l0,3428.05c0,158.686 129.848,288.534 288.684,288.534l2504.17,-0c158.687,-0 288.535,-129.997 288.535,-288.534l-0,-3428.05c-0,-158.537 -129.998,-288.535 -288.535,-288.535Zm-2638.65,3773.96l0,-924.177l924.475,924.177l-924.475,-0Zm339.039,-803.294c3.586,-3.437 4.483,-8.218 7.919,-11.506c44.528,-44.378 871.281,-436.014 871.281,-436.014c0,0 -390.739,827.052 -435.416,871.431c-3.586,3.287 -8.816,4.183 -12.402,8.666l-431.382,-432.577Zm2433.94,803.294l-924.625,-0l924.625,-924.177l-0,924.177Zm-1386.49,-769.973c-102.055,-0 -200.973,-12.85 -296.902,-33.919c65.447,-133.733 134.629,-278.672 198.283,-414.049l92.343,-194.697l-194.398,92.343c-203.065,96.228 -427.796,203.812 -601.873,291.074c-352.188,-251.627 -583.942,-661.342 -583.942,-1126.94c0,-765.939 620.551,-1386.49 1386.49,-1386.49c765.938,-0 1386.49,620.55 1386.49,1386.49c-0,765.042 -620.551,1386.19 -1386.49,1386.19Z" style="fill-rule:nonzero;"/><path id="path12" d="M2085.54,1240c-255.363,0 -462.163,206.8 -462.163,462.462c-0,254.914 206.8,461.565 462.163,461.565c255.213,0 462.163,-206.651 462.163,-461.565c-0,-255.662 -206.95,-462.462 -462.163,-462.462Zm-0,770.57c-170.491,0 -308.109,-138.514 -308.109,-308.258c0,-170.341 137.618,-308.407 308.109,-308.407c170.491,-0 308.109,138.066 308.109,308.407c-0,169.744 -137.618,308.258 -308.109,308.258Z" style="fill-rule:nonzero;"/></g></g><g id="g231"></g><g id="NGAST_logo"></g><g id="g440"></g></g></svg>