<?xml version="1.0" encoding="UTF-8"?>
<svg id="Layer_2" data-name="Layer 2" xmlns="http://www.w3.org/2000/svg" viewBox="0 0 999 999">
  <defs>
    <style>
      .cls-1 {
        fill: none;
      }
    </style>
  </defs>
  <g id="Layer_1-2" data-name="Layer 1">
    <g>
      <path d="m812.58,468.1c-26.4,158.04-163.85,278.64-329.54,278.64-24.59,0-48.43-3.09-71.55-8.17,15.78-32.23,32.44-67.16,47.79-99.78l22.26-46.91-46.85,22.25c-48.94,23.18-103.1,49.11-145.03,70.12-84.89-60.64-140.73-159.36-140.73-271.57,0-169.08,125.47-308.76,288.42-331.02,3.44-20.28,8.72-39.96,15.66-58.82H181.33c-38.28,0-69.59,31.33-69.59,69.51v826.11c0,38.23,31.31,69.54,69.59,69.54h603.45c38.23,0,69.54-31.33,69.54-69.54v-458.96c-13.59,3.73-27.52,6.61-41.75,8.6ZM232.54,735.94c10.72-10.7,209.95-105.08,209.95-105.08,0,0-94.15,199.31-104.93,210.01-.85.77-2.12,1-2.99,2.09l-103.96-104.24c.88-.83,1.1-2,1.93-2.77Zm-83.62,196.36v-222.73l222.79,222.73h-222.79Zm668.24,0h-222.82l222.82-222.73v222.73Z"/>
      <path d="m555.53,396.49c1.16,5.21,1.76,10.62,1.76,16.17,0,40.9-33.17,74.28-74.25,74.28s-74.25-33.37-74.25-74.28,33.17-74.34,74.25-74.34c6.28,0,12.39.77,18.21,2.25-9.49-12.37-18.12-25.43-25.81-39.07-57.99,3.9-103.77,52.13-103.77,111.19s49.83,111.23,111.37,111.23c57.85,0,105.39-44.04,110.84-100.4-13.43-8.12-26.24-17.15-38.35-27.02Z"/>
      <path d="m978.45,129.41c-.97-.95-24.31-23.6-62.05-46.43-34.73-21-88.66-46-149.08-46.46-.46,0-.92,0-1.39,0-.44,0-.87,0-1.3,0-23.15.1-45.36,3.81-65.9,9.54l27.19,26.72c11.56-7.14,25.16-11.28,39.7-11.34h.32c.11,0,.22,0,.33,0,42.01.17,76.13,34.4,76.13,76.46,0,14.18-3.88,27.48-10.65,38.87l18.18,17.86c10.99-16.2,17.4-35.72,17.4-56.73,0-22.9-7.62-44.04-20.47-61.03,21.77,7.99,40.91,17.97,56.09,27.11,21.48,12.93,38.18,26,48.05,34.34-9.87,8.34-26.57,21.4-48.05,34.34-13.78,8.29-30.82,17.29-50.13,24.84l19.35,19.01c16.82-7.25,31.76-15.3,44.23-22.84,37.74-22.82,61.08-45.48,62.05-46.43l9.13-8.92-9.13-8.92Zm-173.02,73.95c-11.54,6.99-25.06,11.02-39.5,11.02-42.16,0-76.47-34.3-76.47-76.47,0-13.97,3.77-27.07,10.34-38.36l-18.2-17.89c-10.79,16.1-17.07,35.45-17.07,56.24,0,23.57,8.08,45.29,21.62,62.53-22.52-8.1-42.29-18.38-57.9-27.78-21.48-12.94-38.17-26-48.04-34.34,9.87-8.34,26.57-21.4,48.04-34.34,13.91-8.37,31.1-17.43,50.6-25.03l-19.34-19.02c-17.01,7.3-32.12,15.43-44.7,23.03-37.74,22.82-61.08,45.48-62.06,46.43l-9.12,8.92,9.12,8.92c.98.95,24.32,23.6,62.06,46.43,35.06,21.19,89.68,46.47,150.8,46.47,23.7,0,46.42-3.8,67.41-9.69l-27.58-27.1Z"/>
      <path d="m733.15,132.33l38.93,38.26c-1.99.37-4.06.57-6.16.57-18.36,0-33.25-14.89-33.25-33.25,0-1.9.16-3.77.47-5.59Z"/>
      <path d="m799.17,137.92c0,2.14-.21,4.25-.6,6.28l-39.5-38.82c2.21-.47,4.5-.71,6.86-.71,18.36,0,33.25,14.89,33.25,33.25Z"/>
      <rect x="753.04" y="-30.47" width="24.93" height="336.77" transform="translate(130.59 587.25) rotate(-45.5)"/>
      <rect class="cls-1" width="999" height="999"/>
    </g>
  </g>
</svg>