<?xml version="1.0" encoding="UTF-8" standalone="no"?><!DOCTYPE svg PUBLIC "-//W3C//DTD SVG 1.1//EN" "http://www.w3.org/Graphics/SVG/1.1/DTD/svg11.dtd"><svg width="100%" height="100%" viewBox="0 0 4171 4171" version="1.1" xmlns="http://www.w3.org/2000/svg" xmlns:xlink="http://www.w3.org/1999/xlink" xml:space="preserve" xmlns:serif="http://www.serif.com/" style="fill-rule:evenodd;clip-rule:evenodd;stroke-linejoin:round;stroke-miterlimit:2;"><rect id="hide_data_node" x="4.034" y="3.893" width="4166.67" height="4166.67" style="fill:none;"/><rect x="4.034" y="3.893" width="4166.67" height="4166.67" style="fill:none;"/><clipPath id="_clip1"><rect id="hideDataNode.svg" x="65.808" y="65.666" width="4043.12" height="4043.12"/></clipPath><g clip-path="url(#_clip1)"><g id="Layer_1-2"><path d="M3175.42,1957.27c-109.252,654.02 -678.065,1153.1 -1363.74,1153.1c-101.761,0 -200.419,-12.787 -296.097,-33.81c65.303,-133.378 134.247,-277.93 197.77,-412.922l92.12,-194.129l-193.881,92.078c-202.53,95.927 -426.661,203.233 -600.181,290.179c-351.303,-250.948 -582.387,-659.483 -582.387,-1123.84c0,-699.708 519.236,-1277.75 1193.58,-1369.87c14.236,-83.925 36.086,-165.367 64.806,-243.416l-1124.3,0c-158.415,0 -287.986,129.654 -287.986,287.655l-0,3418.71c-0,158.208 129.571,287.779 287.986,287.779l2497.27,-0c158.208,-0 287.779,-129.654 287.779,-287.779l0,-1899.33c-56.24,15.436 -113.886,27.354 -172.775,35.59l0.042,-0Zm-2400.39,1108.41c44.362,-44.28 868.841,-434.855 868.841,-434.855c-0,0 -389.623,824.81 -434.235,869.09c-3.517,3.186 -8.773,4.138 -12.373,8.649l-430.22,-431.379c3.641,-3.435 4.552,-8.277 7.987,-11.463l-0,-0.042Zm-346.047,812.602l-0,-921.729l921.977,921.729l-921.977,-0Zm2765.39,-0l-922.101,-0l922.101,-921.729l0,921.729Z" style="fill-rule:nonzero;"/><path d="M2111.66,1660.92c4.801,21.561 7.284,43.949 7.284,66.917c-0,169.257 -137.269,307.395 -307.271,307.395c-170.002,-0 -307.271,-138.096 -307.271,-307.395c0,-169.299 137.269,-307.643 307.271,-307.643c25.989,-0 51.274,3.186 75.359,9.311c-39.273,-51.191 -74.987,-105.238 -106.81,-161.684c-239.982,16.139 -429.434,215.731 -429.434,460.14c-0,244.409 206.212,460.306 460.885,460.306c239.402,-0 436.138,-182.252 458.692,-415.488c-55.578,-33.603 -108.59,-70.972 -158.705,-111.817l0,-0.042Z" style="fill-rule:nonzero;"/><path d="M4065.26,784.439c-4.639,-4.544 -116.262,-112.867 -296.754,-222.052c-166.096,-100.433 -424.017,-219.995 -712.976,-222.195l-12.865,-0c-110.715,0.478 -216.934,18.221 -315.167,45.625l130.036,127.788c55.286,-34.147 120.328,-53.946 189.866,-54.233l3.108,-0c200.913,0.813 364.093,164.518 364.093,365.67c-0,67.816 -18.557,131.423 -50.934,185.896l86.946,85.416c52.56,-77.477 83.215,-170.831 83.215,-271.312c0,-109.519 -36.442,-210.621 -97.897,-291.876c104.115,38.212 195.652,85.941 268.25,129.654c102.729,61.837 182.596,124.345 229.8,164.231c-47.204,39.886 -127.071,102.345 -229.8,164.231c-65.903,39.647 -147.397,82.69 -239.747,118.797l92.542,90.916c80.442,-34.673 151.892,-73.172 211.53,-109.232c180.492,-109.137 292.115,-217.509 296.754,-222.052l43.665,-42.66l-43.665,-42.66l0,0.048Zm-827.469,353.666c-55.19,33.43 -119.849,52.703 -188.909,52.703c-201.63,0 -365.718,-164.04 -365.718,-365.718c0,-66.812 18.03,-129.462 49.451,-183.457l-87.041,-85.559c-51.604,76.998 -81.638,169.54 -81.638,268.968c0,112.724 38.643,216.6 103.398,299.05c-107.702,-38.738 -202.252,-87.902 -276.907,-132.858c-102.728,-61.885 -182.548,-124.345 -229.752,-164.231c47.204,-39.886 127.071,-102.346 229.752,-164.231c66.525,-40.03 148.736,-83.359 241.995,-119.706l-92.494,-90.964c-81.35,34.913 -153.614,73.794 -213.778,110.141c-180.492,109.137 -292.115,217.509 -296.802,222.052l-43.617,42.66l43.617,42.66c4.687,4.543 116.31,112.867 296.802,222.052c167.675,101.341 428.895,222.243 721.202,222.243c113.345,-0 222.004,-18.174 322.389,-46.343l-131.902,-129.605l-0.048,0.143Z" style="fill-rule:nonzero;"/><path d="M2892.11,798.404l186.183,182.978c-9.517,1.77 -19.417,2.726 -29.461,2.726c-87.806,0 -159.018,-71.211 -159.018,-159.018c0,-9.087 0.765,-18.03 2.248,-26.734l0.048,0.048Z" style="fill-rule:nonzero;"/><path d="M3207.86,825.138c-0,10.234 -1.005,20.325 -2.87,30.034l-188.909,-185.657c10.57,-2.248 21.522,-3.396 32.808,-3.396c87.807,0 159.019,71.212 159.019,159.019l-0.048,-0Z" style="fill-rule:nonzero;"/><path d="M2514.26,218.17l1148.77,1128.89l-83.568,85.039l-1148.77,-1128.89l83.568,-85.039Z"/></g></g></svg>