<?xml version="1.0" encoding="UTF-8" standalone="no"?><!DOCTYPE svg PUBLIC "-//W3C//DTD SVG 1.1//EN" "http://www.w3.org/Graphics/SVG/1.1/DTD/svg11.dtd"><svg width="100%" height="100%" viewBox="0 0 4167 4171" version="1.1" xmlns="http://www.w3.org/2000/svg" xmlns:xlink="http://www.w3.org/1999/xlink" xml:space="preserve" xmlns:serif="http://www.serif.com/" style="fill-rule:evenodd;clip-rule:evenodd;stroke-linejoin:round;stroke-miterlimit:2;"><rect id="key_attribute_table" x="0" y="3.893" width="4166.67" height="4166.67" style="fill:none;"/><rect x="0" y="3.893" width="4166.67" height="4166.67" style="fill:none;"/><g id="Layer_1-2"><path d="M122.159,1680.81l1000.8,0l0,2427.97l-686.7,-0c-173.477,-0 -314.098,-140.622 -314.098,-314.099l-0,-2113.87Z" style="fill-rule:nonzero;"/><path d="M2415.52,2097.55l-0,2011.24l-1063.68,-0l-0,-2427.97l601.62,0c119.793,171.797 277.926,314.85 462.06,416.735Z" style="fill-rule:nonzero;"/><path d="M1824.56,1451.93l-1702.4,0l-0,-552.093c-0,-173.477 140.621,-314.098 314.098,-314.098l1307.16,-0c-23.304,100.159 -35.641,204.564 -35.641,311.799c-0,197.311 41.7,384.895 116.786,554.392Z" style="fill-rule:nonzero;"/><path d="M3645.21,2146.1l-0,1648.58c-0,173.477 -140.621,314.099 -314.098,314.099l-686.701,-0l0,-1910.64c136.421,45.547 282.437,70.222 434.201,70.222c202.044,0 393.917,-43.734 566.598,-122.269Z" style="fill-rule:nonzero;"/><path d="M4044.16,600.994c16.804,349.298 -707.97,1080.35 -962.946,1304.77c-17.157,-21.137 -870.082,-775.451 -956.843,-1239.46c-82.692,-532.813 643.408,-821.617 956.843,-395.111c286.947,-399.709 980.944,-171.708 962.946,329.753l0,0.044Z" style="fill-rule:nonzero;"/></g></svg>