<?xml version="1.0" encoding="UTF-8"?>
<svg id="Layer_2" data-name="Layer 2" xmlns="http://www.w3.org/2000/svg" viewBox="0 0 1000 1000">
  <defs>
    <style>
      .cls-1 {
        fill: none;
      }
    </style>
  </defs>
  <g id="Layer_1-2" data-name="Layer 1">
    <g>
      <path d="m93.43,382.13h226.32v549.06h-155.29c-39.23,0-71.03-31.8-71.03-71.03v-478.03Z"/>
      <path d="m612.05,476.37v454.82h-240.54V382.13h136.05c27.09,38.85,62.85,71.2,104.49,94.24Z"/>
      <path d="m478.41,330.37H93.43v-124.85c0-39.23,31.8-71.03,71.03-71.03h295.6c-5.27,22.65-8.06,46.26-8.06,70.51,0,44.62,9.43,87.04,26.41,125.37Z"/>
      <path d="m890.13,487.35v372.81c0,39.23-31.8,71.03-71.03,71.03h-155.29v-432.07c30.85,10.3,63.87,15.88,98.19,15.88,45.69,0,89.08-9.89,128.13-27.65Z"/>
      <rect class="cls-1" width="1000" height="1000"/>
      <path d="m980.35,137.94c3.8,78.99-160.1,244.31-217.76,295.06-3.88-4.78-196.76-175.36-216.38-280.29-18.7-120.49,145.5-185.8,216.38-89.35,64.89-90.39,221.83-38.83,217.76,74.57Z"/>
    </g>
  </g>
</svg>