<?xml version="1.0" encoding="UTF-8" standalone="no"?><!DOCTYPE svg PUBLIC "-//W3C//DTD SVG 1.1//EN" "http://www.w3.org/Graphics/SVG/1.1/DTD/svg11.dtd"><svg width="100%" height="100%" viewBox="0 0 4167 4171" version="1.1" xmlns="http://www.w3.org/2000/svg" xmlns:xlink="http://www.w3.org/1999/xlink" xml:space="preserve" xmlns:serif="http://www.serif.com/" style="fill-rule:evenodd;clip-rule:evenodd;stroke-linejoin:round;stroke-miterlimit:2;"><rect id="loop" x="0" y="1.119" width="4166.67" height="4166.67" style="fill:none;"/><rect x="0" y="1.119" width="4166.67" height="4166.67" style="fill:none;"/><clipPath id="_clip1"><rect id="loop.svg" x="61.774" y="62.893" width="4043.12" height="4043.12"/></clipPath><g clip-path="url(#_clip1)"><path d="M2083.33,614.227l0,-551.334l-735.112,735.112l735.112,735.113l0,-551.335c608.306,0 1102.67,494.364 1102.67,1102.67c0,185.616 -45.944,362.043 -128.645,514.579l268.317,268.316c143.347,-226.047 227.884,-494.363 227.884,-782.895c0,-812.299 -657.925,-1470.23 -1470.23,-1470.23Zm0,2572.89c-608.305,0 -1102.67,-494.363 -1102.67,-1102.67c0,-185.616 45.945,-362.043 128.645,-514.579l-268.316,-268.316c-143.347,226.047 -227.885,494.364 -227.885,782.895c0,812.3 657.926,1470.23 1470.23,1470.23l0,551.335l735.113,-735.113l-735.113,-735.112l0,551.334Z" style="fill-rule:nonzero;"/></g></svg>