<?xml version="1.0" encoding="UTF-8" standalone="no"?>
<svg
   xmlns:dc="http://purl.org/dc/elements/1.1/"
   xmlns:cc="http://creativecommons.org/ns#"
   xmlns:rdf="http://www.w3.org/1999/02/22-rdf-syntax-ns#"
   xmlns:svg="http://www.w3.org/2000/svg"
   xmlns="http://www.w3.org/2000/svg"
   xmlns:sodipodi="http://sodipodi.sourceforge.net/DTD/sodipodi-0.dtd"
   xmlns:inkscape="http://www.inkscape.org/namespaces/inkscape"
   inkscape:version="1.0beta1 (32d4812, 2019-09-19)"
   sodipodi:docname="many-to-many.svg"
   xml:space="preserve"
   viewBox="0 0 62 44"
   y="0px"
   x="0px"
   id="Layer_1"
   version="1.1"><metadata
   id="metadata862">
  <rdf:RDF>
    <cc:Work
       rdf:about="">
      <dc:format>image/svg+xml</dc:format>
      <dc:type
         rdf:resource="http://purl.org/dc/dcmitype/StillImage" />
    </cc:Work>
  </rdf:RDF>
</metadata>
<defs
   id="defs860" />
<sodipodi:namedview
   inkscape:current-layer="Layer_1"
   inkscape:window-maximized="0"
   inkscape:window-y="25"
   inkscape:window-x="0"
   inkscape:cy="24.742618"
   inkscape:cx="35.463732"
   inkscape:zoom="5.5153527"
   showgrid="false"
   id="namedview858"
   inkscape:window-height="907"
   inkscape:window-width="1600"
   inkscape:pageshadow="2"
   inkscape:pageopacity="0"
   guidetolerance="10"
   gridtolerance="10"
   objecttolerance="10"
   borderopacity="1"
   inkscape:document-rotation="0"
   bordercolor="#666666"
   pagecolor="#ffffff" />

<g
   id="g855">
	<g
   id="g841">
		
		
		
		
	</g>

	<g
   id="g853">

			

			

			
		
		<path
   d="m 22.5,6.3320312 v 2.5 h 2.75 V 35.333984 h -3 v 2.5 h 5.5 V 6.3320312 Z M 22,20.832031 v 2.5 h 17.5 v -2.5 z m 1.2503,21.042969 0,-1.25 0,-10.25 -21.5,0 0,11.5 z m -2.5,-2.5 -16.5,0 0,-6.5 16.5,0 z m 2.5,-25.75 0,-1.25 0,-10.25 -21.5,0 0,11.5 z m -2.5,-2.5 -16.5,0 0,-6.5 16.5,0 z m 2.5,16.709669 0,-1.25 0,-10.25 -21.5,0 0,11.5 z m -2.5,-2.5 -16.5,0 0,-6.5 16.5,0 z M 34.25,6.3320312 V 37.833984 h 5.5 v -2.5 h -3 V 8.8320312 h 2.75 v -2.5 z M 38.75,30.375 v 1.25 10.25 h 21.5 v -11.5 z m 2.5,2.5 h 16.5 v 6.5 h -16.5 z m -2.5,-30.75 v 1.25 10.25 h 21.5 v -11.5 z m 2.5,2.5 h 16.5 v 6.5 h -16.5 z m -2.5,11.707031 v 1.25 10.25 h 21.5 v -11.5 z m 2.5,2.5 h 16.5 v 6.5 h -16.5 z"
   style="color:#000000;font-style:normal;font-variant:normal;font-weight:normal;font-stretch:normal;font-size:medium;line-height:normal;font-family:sans-serif;font-variant-ligatures:normal;font-variant-position:normal;font-variant-caps:normal;font-variant-numeric:normal;font-variant-alternates:normal;font-variant-east-asian:normal;font-feature-settings:normal;font-variation-settings:normal;text-indent:0;text-align:start;text-decoration:none;text-decoration-line:none;text-decoration-style:solid;text-decoration-color:#000000;letter-spacing:normal;word-spacing:normal;text-transform:none;writing-mode:lr-tb;direction:ltr;text-orientation:mixed;dominant-baseline:auto;baseline-shift:baseline;text-anchor:start;white-space:normal;shape-padding:0;shape-margin:0;inline-size:0;clip-rule:nonzero;display:inline;overflow:visible;visibility:visible;isolation:auto;mix-blend-mode:normal;color-interpolation:sRGB;color-interpolation-filters:linearRGB;solid-color:#000000;solid-opacity:1;vector-effect:none;fill:#000000;fill-opacity:1;fill-rule:nonzero;stroke:none;stroke-width:2.5;stroke-linecap:butt;stroke-linejoin:miter;stroke-miterlimit:10;stroke-dasharray:none;stroke-dashoffset:0;stroke-opacity:1;filter-blend-mode:normal;filter-gaussianBlur-deviation:0;color-rendering:auto;image-rendering:auto;shape-rendering:auto;text-rendering:auto;enable-background:accumulate;stop-color:#000000;stop-opacity:1;opacity:1"
   id="path899" />

	</g>

</g>

</svg>
