<?xml version="1.0" encoding="UTF-8" standalone="no"?><!DOCTYPE svg PUBLIC "-//W3C//DTD SVG 1.1//EN" "http://www.w3.org/Graphics/SVG/1.1/DTD/svg11.dtd"><svg width="100%" height="100%" viewBox="0 0 4171 4171" version="1.1" xmlns="http://www.w3.org/2000/svg" xmlns:xlink="http://www.w3.org/1999/xlink" xml:space="preserve" xmlns:serif="http://www.serif.com/" style="fill-rule:evenodd;clip-rule:evenodd;stroke-linejoin:round;stroke-miterlimit:2;"><rect id="memory" x="2.203" y="1.119" width="4166.67" height="4166.67" style="fill:none;"/><rect x="2.203" y="1.119" width="4166.67" height="4166.67" style="fill:none;"/><clipPath id="_clip1"><rect id="memory.svg" x="63.977" y="62.893" width="4043.12" height="4043.12"/></clipPath><g clip-path="url(#_clip1)"><g id="Layer_1-2"><g id="g231"><path id="path206" d="M4047.9,1872.49c32.673,0 59.193,-26.52 59.193,-59.193l0,-446.695c0,-32.673 -26.52,-59.194 -59.193,-59.194l-3273.19,0c-32.672,0 -59.193,26.521 -59.193,59.194c-0,32.673 26.521,59.193 59.193,59.193l3213.99,0l0,335.292c-109.741,26.687 -191.464,125.786 -191.464,243.591c-0,117.805 81.723,216.905 191.464,243.592l0,494.831l-104.919,0l0,-180.075c0,-32.672 -26.52,-59.193 -59.193,-59.193l-2137.87,-0c-32.672,-0 -59.193,26.521 -59.193,59.193l-0,180.075l-104.919,0l-0,-60.44c-0,-98.601 -80.227,-178.911 -178.911,-178.911c-98.684,-0 -178.911,80.227 -178.911,178.911l0,60.44l-104.919,0l0,-180.075c0,-32.672 -26.52,-59.193 -59.193,-59.193l-654.122,-0c-32.673,-0 -59.194,26.521 -59.194,59.193l0,180.075l-104.919,0l0,-494.831c109.741,-26.687 191.465,-125.787 191.465,-243.592c-0,-117.805 -81.724,-216.904 -191.465,-243.591l0,-335.292l315.588,0c32.673,0 59.194,-26.52 59.194,-59.193c-0,-32.673 -26.521,-59.194 -59.194,-59.194l-374.864,0c-32.673,0 -59.194,26.521 -59.194,59.194l0,446.695c0,32.673 26.521,59.193 59.194,59.193c72.911,0 132.187,59.277 132.187,132.188c0,72.911 -59.276,132.188 -132.187,132.188c-32.673,0 -59.194,26.521 -59.194,59.194l0,606.235c0,32.673 26.521,59.193 59.194,59.193l484.023,0c32.673,0 59.194,-26.52 59.194,-59.193c-0,-32.673 -26.521,-59.194 -59.194,-59.194l-201.441,0l0,-120.881l535.652,-0l0,120.881l-56.201,0c-32.672,0 -59.193,26.521 -59.193,59.194c-0,32.673 26.521,59.193 59.193,59.193l338.784,0c32.673,0 59.193,-26.52 59.193,-59.193l0,-119.634c0,-33.338 27.103,-60.441 60.441,-60.441c33.338,-0 60.441,27.103 60.441,60.441l-0,119.634c-0,32.673 26.52,59.193 59.193,59.193l1770.9,0c32.672,0 59.193,-26.52 59.193,-59.193c0,-32.673 -26.521,-59.194 -59.193,-59.194l-1488.32,0l-0,-120.881l2019.4,-0l-0,120.881l-254.067,0c-32.673,0 -59.193,26.521 -59.193,59.194c-0,32.673 26.52,59.193 59.193,59.193l536.65,0c32.672,0 59.193,-26.52 59.193,-59.193l0,-606.235c0,-32.673 -26.521,-59.194 -59.193,-59.194c-72.912,0 -132.188,-59.277 -132.188,-132.188c-0,-72.911 59.276,-132.271 132.188,-132.271l0.083,0.083Z" style="fill-rule:nonzero;"/><path id="path208" d="M3553.32,2335.15c32.672,-0 59.193,-26.521 59.193,-59.194l0,-638.159c0,-32.673 -26.521,-59.194 -59.193,-59.194l-319.08,0c-32.673,0 -59.194,26.521 -59.194,59.194l0,638.159c0,32.673 26.521,59.194 59.194,59.194l319.08,-0Zm-259.887,-638.16l200.61,0l-0,519.69l-200.61,-0l0,-519.69Z" style="fill-rule:nonzero;"/><path id="path210" d="M2899.2,2335.15c32.672,-0 59.193,-26.521 59.193,-59.194l0,-638.159c0,-32.673 -26.521,-59.194 -59.193,-59.194l-319.08,0c-32.673,0 -59.194,26.521 -59.194,59.194l0,638.159c0,32.673 26.521,59.194 59.194,59.194l319.08,-0Zm-259.887,-638.16l200.61,0l-0,519.69l-200.61,-0l0,-519.69Z" style="fill-rule:nonzero;"/><path id="path212" d="M1271.88,2335.15l319.08,-0c32.672,-0 59.193,-26.521 59.193,-59.194l0,-638.159c0,-32.673 -26.521,-59.194 -59.193,-59.194l-319.08,0c-32.673,0 -59.194,26.521 -59.194,59.194l0,638.159c0,32.673 26.521,59.194 59.194,59.194Zm59.193,-638.16l200.61,0l-0,519.69l-200.61,-0l0,-519.69Z" style="fill-rule:nonzero;"/><path id="path214" d="M617.753,2335.15l319.08,-0c32.672,-0 59.193,-26.521 59.193,-59.194l0,-638.159c0,-32.673 -26.521,-59.194 -59.193,-59.194l-319.08,0c-32.673,0 -59.194,26.521 -59.194,59.194l0,638.159c0,32.673 26.521,59.194 59.194,59.194Zm59.193,-638.16l200.61,0l-0,519.69l-200.61,-0l0,-519.69Z" style="fill-rule:nonzero;"/><path id="path216" d="M2245.08,2335.15c32.672,-0 59.193,-26.521 59.193,-59.194l0,-638.159c0,-32.673 -26.521,-59.194 -59.193,-59.194l-319.08,0c-32.673,0 -59.194,26.521 -59.194,59.194l0,638.159c0,32.673 26.521,59.194 59.194,59.194l319.08,-0Zm-259.887,-638.16l200.61,0l-0,519.69l-200.61,-0l0,-519.69Z" style="fill-rule:nonzero;"/></g></g></g></svg>