<?xml version="1.0" encoding="UTF-8"?>
<svg id="Layer_2" data-name="Layer 2" xmlns="http://www.w3.org/2000/svg" xmlns:xlink="http://www.w3.org/1999/xlink" viewBox="0 0 500 500">
  <defs>
    <style>
      .cls-1 {
        clip-path: url(#clippath);
      }

      .cls-2 {
        fill: none;
      }
    </style>
    <clipPath id="clippath">
      <rect class="cls-2" width="500" height="500"/>
    </clipPath>
  </defs>
  <g id="Layer_1-2" data-name="Layer 1">
    <g class="cls-1">
      <g id="g231">
        <path id="path206" d="m486.04,224.5c3.93,0,7.12-3.19,7.12-7.12v-53.73c0-3.93-3.19-7.12-7.12-7.12H92.33c-3.93,0-7.12,3.19-7.12,7.12s3.19,7.12,7.12,7.12h386.59v40.33c-13.2,3.21-23.03,15.13-23.03,29.3s9.83,26.09,23.03,29.3v59.52h-12.62v-21.66c0-3.93-3.19-7.12-7.12-7.12H202.03c-3.93,0-7.12,3.19-7.12,7.12v21.66h-12.62v-7.27c0-11.86-9.65-21.52-21.52-21.52s-21.52,9.65-21.52,21.52v7.27h-12.62v-21.66c0-3.93-3.19-7.12-7.12-7.12H40.83c-3.93,0-7.12,3.19-7.12,7.12v21.66h-12.62v-59.52c13.2-3.21,23.03-15.13,23.03-29.3s-9.83-26.09-23.03-29.3v-40.33h37.96c3.93,0,7.12-3.19,7.12-7.12s-3.19-7.12-7.12-7.12H13.96c-3.93,0-7.12,3.19-7.12,7.12v53.73c0,3.93,3.19,7.12,7.12,7.12,8.77,0,15.9,7.13,15.9,15.9s-7.13,15.9-15.9,15.9c-3.93,0-7.12,3.19-7.12,7.12v72.92c0,3.93,3.19,7.12,7.12,7.12h58.22c3.93,0,7.12-3.19,7.12-7.12s-3.19-7.12-7.12-7.12h-24.23v-14.54h64.43v14.54h-6.76c-3.93,0-7.12,3.19-7.12,7.12s3.19,7.12,7.12,7.12h40.75c3.93,0,7.12-3.19,7.12-7.12v-14.39c0-4.01,3.26-7.27,7.27-7.27s7.27,3.26,7.27,7.27v14.39c0,3.93,3.19,7.12,7.12,7.12h213.01c3.93,0,7.12-3.19,7.12-7.12s-3.19-7.12-7.12-7.12h-179.02v-14.54h242.9v14.54h-30.56c-3.93,0-7.12,3.19-7.12,7.12s3.19,7.12,7.12,7.12h64.55c3.93,0,7.12-3.19,7.12-7.12v-72.92c0-3.93-3.19-7.12-7.12-7.12-8.77,0-15.9-7.13-15.9-15.9s7.13-15.91,15.9-15.91Z"/>
        <path id="path208" d="m426.55,280.15c3.93,0,7.12-3.19,7.12-7.12v-76.76c0-3.93-3.19-7.12-7.12-7.12h-38.38c-3.93,0-7.12,3.19-7.12,7.12v76.76c0,3.93,3.19,7.12,7.12,7.12h38.38Zm-31.26-76.76h24.13v62.51h-24.13v-62.51Z"/>
        <path id="path210" d="m347.87,280.15c3.93,0,7.12-3.19,7.12-7.12v-76.76c0-3.93-3.19-7.12-7.12-7.12h-38.38c-3.93,0-7.12,3.19-7.12,7.12v76.76c0,3.93,3.19,7.12,7.12,7.12h38.38Zm-31.26-76.76h24.13v62.51h-24.13v-62.51Z"/>
        <path id="path212" d="m152.13,280.15h38.38c3.93,0,7.12-3.19,7.12-7.12v-76.76c0-3.93-3.19-7.12-7.12-7.12h-38.38c-3.93,0-7.12,3.19-7.12,7.12v76.76c0,3.93,3.19,7.12,7.12,7.12Zm7.12-76.76h24.13v62.51h-24.13v-62.51Z"/>
        <path id="path214" d="m73.45,280.15h38.38c3.93,0,7.12-3.19,7.12-7.12v-76.76c0-3.93-3.19-7.12-7.12-7.12h-38.38c-3.93,0-7.12,3.19-7.12,7.12v76.76c0,3.93,3.19,7.12,7.12,7.12Zm7.12-76.76h24.13v62.51h-24.13v-62.51Z"/>
        <path id="path216" d="m269.19,280.15c3.93,0,7.12-3.19,7.12-7.12v-76.76c0-3.93-3.19-7.12-7.12-7.12h-38.38c-3.93,0-7.12,3.19-7.12,7.12v76.76c0,3.93,3.19,7.12,7.12,7.12h38.38Zm-31.26-76.76h24.13v62.51h-24.13v-62.51Z"/>
      </g>
    </g>
  </g>
</svg>