<?xml version="1.0" encoding="UTF-8" standalone="no"?><!DOCTYPE svg PUBLIC "-//W3C//DTD SVG 1.1//EN" "http://www.w3.org/Graphics/SVG/1.1/DTD/svg11.dtd"><svg width="100%" height="100%" viewBox="0 0 4171 4171" version="1.1" xmlns="http://www.w3.org/2000/svg" xmlns:xlink="http://www.w3.org/1999/xlink" xml:space="preserve" xmlns:serif="http://www.serif.com/" style="fill-rule:evenodd;clip-rule:evenodd;stroke-linejoin:round;stroke-miterlimit:2;"><rect id="mpi" x="4.026" y="1.119" width="4166.67" height="4166.67" style="fill:none;"/><rect x="4.026" y="1.119" width="4166.67" height="4166.67" style="fill:none;"/><g><path d="M1428.69,1306.12l324.949,0l-0,225.509l-121.453,0c-36.01,0 -65.204,29.185 -65.204,65.204c0,36.018 29.194,65.204 65.204,65.204l910.321,-0c36.018,-0 65.203,-29.186 65.203,-65.204c0,-36.019 -29.185,-65.204 -65.203,-65.204l-121.453,0l-0,-225.509l324.949,0c128.042,0 232.203,-104.16 232.203,-232.203l-0,-778.583c-0,-128.042 -104.161,-232.203 -232.203,-232.203l-1317.31,0c-128.043,0 -232.203,104.161 -232.203,232.203l-0,778.583c-0,128.043 104.169,232.203 232.203,232.203Zm861.965,225.509l-406.609,0l-0,-225.509l406.609,0l0,225.509Zm-963.761,-1236.3c0,-56.127 45.66,-101.796 101.796,-101.796l1317.32,0c56.128,0 101.796,45.669 101.796,101.796l0,778.583c0,56.128 -45.668,101.796 -101.796,101.796l-1317.32,0c-56.136,0 -101.796,-45.668 -101.796,-101.796l0,-778.583Z" style="fill-rule:nonzero;"/><path d="M1615.32,2506.85l-1317.32,0c-128.042,0 -232.203,104.17 -232.203,232.203l0,778.584c0,128.042 104.161,232.203 232.203,232.203l324.949,-0l0,225.508l-121.452,0c-36.01,0 -65.204,29.186 -65.204,65.204c-0,36.019 29.194,65.204 65.204,65.204l910.311,-0c36.01,-0 65.204,-29.185 65.204,-65.204c0,-36.018 -29.194,-65.204 -65.204,-65.204l-121.443,0l-0,-225.508l324.948,-0c128.043,-0 232.203,-104.161 232.203,-232.203l0,-778.584c0.009,-128.033 -104.16,-232.203 -232.194,-232.203Zm-455.356,1468.5l-406.61,0l0,-225.508l406.61,-0l0,225.508Zm557.152,-457.711c-0,56.127 -45.66,101.795 -101.796,101.795l-1317.32,0c-56.135,0 -101.795,-45.668 -101.795,-101.795l-0,-778.584c-0,-56.127 45.66,-101.796 101.795,-101.796l1317.32,0c56.136,0 101.796,45.669 101.796,101.796l-0,778.584Z" style="fill-rule:nonzero;"/><path d="M3876.72,2506.85l-1317.33,0c-128.042,0 -232.203,104.161 -232.203,232.203l0,778.584c0,128.042 104.161,232.203 232.203,232.203l324.949,-0l-0,225.508l-121.444,0c-36.018,0 -65.204,29.186 -65.204,65.204c0,36.019 29.186,65.204 65.204,65.204l910.312,-0c36.018,-0 65.204,-29.185 65.204,-65.204c-0,-36.018 -29.186,-65.204 -65.204,-65.204l-121.444,0l0,-225.508l324.949,-0c128.042,-0 232.203,-104.161 232.203,-232.203l-0,-778.584c0.009,-128.033 -104.161,-232.203 -232.195,-232.203Zm-455.355,1468.5l-406.619,0l0,-225.508l406.619,-0l-0,225.508Zm557.151,-457.711c0,56.127 -45.668,101.795 -101.796,101.795l-1317.33,0c-56.127,0 -101.796,-45.668 -101.796,-101.795l0,-778.584c0,-56.127 45.669,-101.796 101.796,-101.796l1317.32,0c56.127,0 101.796,45.669 101.796,101.796l-0,778.584l0.008,-0Z" style="fill-rule:nonzero;"/><path d="M3152.85,2311.24c0,36.019 29.185,65.204 65.204,65.204c36.018,0 65.203,-29.185 65.203,-65.204l0,-226.795c0,-36.019 -29.185,-65.204 -65.203,-65.204l-1065.5,0l0,-161.592c0,-36.018 -29.185,-65.203 -65.203,-65.203c-36.01,-0 -65.204,29.185 -65.204,65.203l0,161.592l-1065.49,0c-36.01,0 -65.203,29.185 -65.203,65.204l-0,226.795c-0,36.019 29.193,65.204 65.203,65.204c36.01,0 65.204,-29.185 65.204,-65.204l-0,-161.592l2130.98,0l0,161.592Z" style="fill-rule:nonzero;"/></g></svg>