<?xml version="1.0" encoding="UTF-8" standalone="no"?><!DOCTYPE svg PUBLIC "-//W3C//DTD SVG 1.1//EN" "http://www.w3.org/Graphics/SVG/1.1/DTD/svg11.dtd"><svg width="100%" height="100%" viewBox="0 0 4171 4171" version="1.1" xmlns="http://www.w3.org/2000/svg" xmlns:xlink="http://www.w3.org/1999/xlink" xml:space="preserve" xmlns:serif="http://www.serif.com/" style="fill-rule:evenodd;clip-rule:evenodd;stroke-linejoin:round;stroke-miterlimit:2;"><rect id="ngas" x="4.026" y="2.941" width="4166.67" height="4166.67" style="fill:none;"/><clipPath id="_clip1"><rect x="4.026" y="2.941" width="4166.67" height="4166.67"/></clipPath><g clip-path="url(#_clip1)"><rect x="4.026" y="2.941" width="4166.67" height="4166.67" style="fill:none;"/><clipPath id="_clip2"><rect id="ngas.svg" x="65.799" y="64.715" width="4043.12" height="4043.12"/></clipPath><g clip-path="url(#_clip2)"><g id="Layer-1" serif:id="Layer 1"><path id="rect3722" d="M829.04,144.882c-422.985,-0 -763.241,340.255 -763.241,763.24l0,2355.97c0,422.985 340.256,763.571 763.241,763.571l2516.64,0c422.985,0 763.241,-340.586 763.241,-763.571l-0,-2355.97c-0.001,-422.985 -340.256,-763.24 -763.241,-763.24l-2516.64,-0Zm1258.49,534.997c905.874,-0 1423.45,156.717 1493.02,316.029c5.051,5.455 8.944,11.462 8.944,18.219l0,1373.77c0,6.537 -2.795,12.883 -7.619,18.219c-73.302,181.11 -706.897,316.029 -1494.35,316.029c-789.253,0 -1424.38,-135.576 -1495.34,-317.354c-4.446,-5.051 -6.956,-10.877 -6.956,-16.894l-0,-1374.1c-0,-6.757 3.896,-12.446 8.944,-17.888c69.516,-159.312 587.479,-316.029 1493.35,-316.029Zm-0,74.203c-814.428,0 -1382.05,146.839 -1382.05,278.596c-0,131.757 567.62,278.265 1382.05,278.265c814.427,0 1381.72,-146.508 1381.72,-278.265c0,-131.757 -567.289,-278.596 -1381.72,-278.596Zm-1382.05,419.385l-0,275.615c2.533,5.315 3.488,10.952 1.987,16.563c-1.081,4.166 -1.987,8.385 -1.987,12.588c-0,5.977 2.417,11.99 4.638,17.889c1.677,4.494 4.016,8.759 6.956,13.25c2.457,3.676 5.373,7.61 8.613,11.263c4.086,4.568 8.621,9.035 13.913,13.582c3.966,3.457 8.566,6.849 13.251,10.27c6.67,4.905 13.812,9.747 21.864,14.575c4.866,2.974 10.215,6.024 15.569,8.945c9.854,5.308 19.994,10.345 31.471,15.569c4.926,2.249 10.396,4.711 15.569,6.957c13.579,5.797 27.835,11.252 43.396,16.894c4.087,1.515 8.385,3.18 12.588,4.638c17.905,6.28 36.458,12.533 56.647,18.551c2.576,0.719 5.367,1.208 7.951,1.988c22.471,6.572 46.047,13.303 71.222,19.545c0.713,0.203 1.593,0.183 2.319,0.331c136.449,33.682 311.069,61.926 514.458,80.498c1.02,0.122 1.949,0.257 2.982,0.331c39.535,3.565 79.937,6.798 121.575,9.607c6.788,0.441 14.021,0.884 20.87,1.325c36.35,2.334 73.122,4.615 110.974,6.294c17.305,0.728 35.4,1.046 53.003,1.656c28.479,1.02 56.929,2.04 86.13,2.65c47.766,1.018 96.399,1.657 146.089,1.657c49.689,-0 98.384,-0.376 146.089,-1.325c29.199,-0.619 57.317,-1.913 85.798,-2.982c17.607,-0.619 35.701,-0.876 53.003,-1.656c37.852,-1.715 74.624,-3.937 110.974,-6.294c6.85,-0.441 14.081,-0.553 20.87,-0.994c41.638,-2.824 82.039,-6.016 121.575,-9.607c0.994,-0.123 1.93,-0.257 2.982,-0.331c203.381,-18.568 378.009,-47.15 514.458,-80.829c0.716,-0.204 1.606,-0.145 2.319,-0.331c25.177,-6.241 48.688,-12.642 71.222,-19.214c2.663,-0.719 5.342,-1.539 7.951,-2.319c20.19,-6.017 38.74,-12.308 56.646,-18.551c4.263,-1.457 8.491,-2.78 12.589,-4.306c15.561,-5.646 29.818,-11.439 43.396,-17.226c5.225,-2.249 10.64,-4.38 15.569,-6.626c11.477,-5.235 21.618,-10.565 31.471,-15.9c5.408,-2.933 10.696,-6.024 15.569,-8.945c8.047,-4.825 15.196,-9.358 21.864,-14.244c4.683,-3.418 9.266,-7.122 13.25,-10.601c5.343,-4.567 9.872,-9.034 13.914,-13.582c3.266,-3.675 6.23,-7.278 8.613,-10.931c2.929,-4.529 5.294,-9.091 6.956,-13.582c2.327,-6.017 4.638,-11.908 4.638,-17.889c0,-4.198 -0.486,-8.434 -1.656,-12.588c-1.501,-5.607 -0.897,-11.228 1.656,-16.563l0,-275.615c-7.211,4.046 -15.38,7.941 -23.189,11.926c-4.382,2.249 -8.428,4.379 -12.919,6.625c-18.025,8.801 -37.547,17.41 -58.634,25.839c-4.383,1.745 -9.366,3.561 -13.914,5.3c-17.664,6.836 -36.338,13.377 -55.984,19.876c-7.211,2.394 -14.355,4.93 -21.863,7.288c-21.933,6.902 -45.022,13.675 -69.235,20.207c-3.969,1.12 -7.553,2.25 -11.595,3.313c-28.119,7.386 -57.987,14.371 -89.111,21.201c-8.59,1.902 -17.666,3.786 -26.501,5.632c-24.757,5.157 -50.357,9.803 -76.854,14.576c-9.555,1.682 -19.027,3.617 -28.82,5.3c-35.149,5.983 -71.554,11.615 -109.65,16.894c-5.226,0.669 -10.634,1.262 -15.901,1.988c-33.586,4.53 -68.542,8.991 -104.349,12.919c-12.137,1.345 -24.396,2.35 -36.771,3.644c-34.127,3.453 -69.353,6.686 -105.343,9.607c-9.255,0.726 -17.793,1.593 -27.164,2.319c-44.701,3.319 -91.272,6.198 -138.801,8.613c-11.776,0.628 -23.879,1.114 -35.777,1.656c-38.033,1.676 -76.831,2.856 -116.606,3.976c-14.542,0.441 -29.007,1.002 -43.727,1.325c-51.792,1.065 -104.332,1.987 -159.008,1.987c-54.676,0 -107.549,-0.919 -159.34,-1.987c-14.78,-0.34 -29.246,-0.918 -43.727,-1.325c-39.776,-1.062 -78.574,-2.297 -116.607,-3.976c-11.896,-0.509 -24.06,-1.045 -35.776,-1.656c-47.527,-2.45 -93.768,-5.248 -138.47,-8.613c-9.373,-0.726 -18.243,-1.593 -27.495,-2.319c-35.99,-2.896 -71.276,-6.129 -105.343,-9.607c-12.377,-1.288 -24.636,-2.292 -36.771,-3.644c-35.81,-3.934 -70.432,-8.371 -104.018,-12.919c-5.286,-0.669 -11.003,-1.262 -16.232,-1.988c-38.093,-5.275 -74.501,-10.876 -109.65,-16.894c-9.793,-1.627 -19.266,-3.618 -28.82,-5.3c-26.496,-4.787 -52.099,-9.416 -76.854,-14.576c-8.833,-1.902 -17.58,-3.73 -26.17,-5.632c-31.123,-6.831 -61.263,-13.81 -89.442,-21.201c-4.026,-1.063 -7.629,-2.249 -11.595,-3.313c-24.213,-6.498 -46.973,-13.298 -68.903,-20.207c-7.509,-2.394 -14.926,-4.873 -22.195,-7.288c-19.647,-6.537 -38.321,-13.079 -55.984,-19.876c-4.567,-1.745 -9.529,-3.561 -13.914,-5.3c-21.089,-8.431 -40.61,-17.072 -58.634,-25.839c-4.567,-2.249 -8.591,-4.38 -12.919,-6.625c-7.81,-4.013 -15.98,-7.885 -23.189,-11.926Zm-0,445.555l-0,275.614c2.533,5.316 3.488,10.953 1.987,16.564c-1.081,4.164 -1.987,8.383 -1.987,12.588c-0,5.976 2.417,11.989 4.638,17.888c1.677,4.495 4.016,9.091 6.956,13.582c2.457,3.676 5.373,7.223 8.613,10.932c4.086,4.568 8.621,9.035 13.913,13.582c3.967,3.457 8.566,6.848 13.251,10.269c6.67,4.905 13.812,9.747 21.864,14.576c4.866,2.977 10.215,6.024 15.569,8.944c9.854,5.309 19.994,10.677 31.471,15.901c4.926,2.249 10.396,4.38 15.569,6.625c13.579,5.797 27.835,11.584 43.396,17.226c4.087,1.515 8.385,2.848 12.588,4.307c17.905,6.28 36.458,12.533 56.647,18.551c2.576,0.719 5.367,1.538 7.951,2.319c22.471,6.572 46.378,12.97 71.553,19.213c0.713,0.204 1.262,0.183 1.988,0.331c136.449,33.682 311.077,62.264 514.458,80.83c1.02,0.123 1.949,-0.074 2.982,-0c39.535,3.565 79.937,7.129 121.575,9.938c6.788,0.441 14.021,0.553 20.87,0.994c36.35,2.333 73.122,4.614 110.974,6.294c17.305,0.72 35.4,1.045 53.003,1.656c28.479,1.013 56.929,2.371 86.13,2.981c47.766,1.018 96.399,1.657 146.089,1.657c49.689,-0 98.384,-0.707 146.089,-1.657c29.199,-0.619 57.317,-1.912 85.798,-2.981c17.607,-0.624 35.701,-0.876 53.003,-1.656c37.852,-1.715 74.624,-3.937 110.974,-6.294c6.85,-0.441 14.081,-0.553 20.87,-0.994c41.638,-2.824 82.039,-6.01 121.575,-9.607c0.994,-0.123 1.93,-0.257 2.982,-0.331c203.381,-18.568 378.009,-46.819 514.458,-80.498c0.716,-0.204 1.606,-0.476 2.319,-0.663c25.177,-6.237 48.688,-12.641 71.222,-19.213c2.663,-0.719 5.342,-1.539 7.951,-2.319c20.19,-6.016 38.74,-12.308 56.646,-18.551c4.263,-1.459 8.491,-2.78 12.589,-4.307c15.561,-5.645 29.818,-11.438 43.396,-17.226c5.225,-2.249 10.64,-4.38 15.569,-6.625c11.477,-5.236 21.618,-10.565 31.471,-15.901c5.408,-2.938 10.696,-5.692 15.569,-8.613c8.047,-4.825 15.196,-9.691 21.864,-14.575c4.683,-3.42 9.266,-6.791 13.25,-10.27c5.343,-4.567 9.872,-9.366 13.914,-13.913c3.266,-3.675 6.23,-7.223 8.613,-10.932c2.929,-4.529 5.294,-9.091 6.956,-13.582c2.327,-6.017 4.638,-11.915 4.638,-17.888c0,-4.198 -0.486,-8.435 -1.656,-12.588c-1.501,-5.613 -0.897,-11.228 1.656,-16.564l0,-275.614c-15.378,8.575 -31.546,17.004 -49.69,25.176c-227.295,105.168 -678.802,186.835 -1332.03,186.835c-655.989,-0 -1108.67,-82.361 -1335.01,-188.16c-15.021,-6.836 -28.312,-13.743 -41.409,-20.87c-1.751,-0.963 -3.942,-2.031 -5.631,-2.981Zm-0,445.555l-0,312.385c0.775,1.575 1.506,3.289 1.987,4.969c34.068,128.452 596.816,266.007 1380.06,266.007c783.245,0 1345.66,-137.555 1379.73,-266.007c0.497,-1.683 1.157,-3.341 1.988,-4.969l0,-312.385c-15.378,8.575 -31.877,17.004 -50.021,25.176c-227.295,105.168 -678.471,186.835 -1331.69,186.835c-655.989,-0 -1108.67,-82.361 -1335.01,-188.16c-15.021,-6.836 -28.312,-13.743 -41.409,-20.87c-1.745,-0.963 -3.942,-2.032 -5.631,-2.981Zm1068.01,1048.79c46.365,0 93.592,3.575 141.783,10.269c48.555,6.478 100.832,17.363 156.689,33.127l0,76.192l-9.607,-0c-11.317,-5.183 -27.819,-11.786 -49.359,-20.208c-21.539,-8.421 -42.794,-15.586 -63.603,-21.201c-25.19,-6.694 -54.003,-12.244 -86.13,-16.563c-31.761,-4.535 -67.8,-6.625 -108.324,-6.625c-91.269,-0 -163.348,17.242 -216.649,52.009c-52.936,34.55 -79.504,81.29 -79.504,140.457c-0,62.406 27.656,110.992 83.148,145.758c55.492,34.55 130.937,52.009 226.587,52.009c35.047,-0 69.998,-2.192 104.681,-6.294c35.047,-4.103 65.806,-9.423 92.092,-15.901l-0,-117.931l-218.637,-0l0,-56.647l325.968,-0l-0,207.042c-44.54,12.092 -93.153,22.732 -146.089,31.802c-52.571,8.853 -103.761,13.25 -153.046,13.25c-63.523,0 -121.642,-5.204 -174.578,-15.569c-52.936,-10.365 -97.919,-25.979 -135.157,-46.709c-37.603,-20.946 -66.679,-46.868 -87.123,-78.179c-20.445,-31.527 -30.808,-68.535 -30.808,-110.643c-0,-77.091 38.02,-137.714 113.956,-182.198c76.301,-44.699 180.822,-67.247 313.71,-67.247Zm1530.12,0c57.318,0 109.859,3.46 157.684,9.938c47.825,6.478 90.334,14.35 127.206,23.851l0,75.861l-7.619,-0c-31.031,-15.548 -72.154,-28.278 -122.9,-38.427c-50.381,-10.365 -102.097,-15.57 -155.033,-15.57c-58.047,0 -104.714,6.949 -140.126,21.201c-35.048,14.252 -52.341,32.533 -52.341,54.991c0,20.082 8.647,35.926 26.171,47.371c17.523,11.445 48.249,20.124 92.423,26.17c23.365,3.023 56.633,6.944 99.712,11.263c43.079,4.319 79.713,8.716 109.649,13.251c60.603,9.501 106.147,23.846 136.814,43.065c30.666,19.218 46.046,45.948 46.046,80.498c-0,18.786 -7.558,37.298 -22.526,55.652c-14.604,18.355 -35.298,33.969 -61.947,46.709c-29.207,13.82 -63.299,24.691 -102.362,32.464c-38.698,7.774 -85.365,11.595 -140.126,11.595c-58.777,-0 -111.582,-3.129 -158.677,-9.607c-46.73,-6.478 -94.553,-16.08 -143.108,-28.82l0,-80.498l7.619,-0c41.254,20.298 89.077,36.027 143.108,47.04c54.031,11.013 104.592,16.563 152.052,16.563c67.174,0 119.451,-7.626 156.689,-22.526c37.603,-14.9 56.316,-34.464 56.316,-59.297c-0,-21.378 -8.944,-37.222 -26.833,-47.371c-17.524,-10.149 -44.355,-18.237 -80.498,-23.852c-27.381,-4.318 -56.984,-7.793 -89.111,-10.6c-31.762,-2.807 -65.59,-6.282 -101.368,-10.601c-72.285,-9.069 -125.948,-24.567 -160.996,-46.377c-34.682,-22.026 -52.009,-50.6 -52.009,-85.798c0,-40.381 28.779,-73.353 86.461,-99.049c57.682,-25.913 130.917,-39.09 219.63,-39.09Zm-2750.18,8.944l168.284,0l352.468,393.877l0,-393.877l101.368,0l0,482.326l-134.163,-0l-386.589,-431.642l-0,431.642l-101.368,-0l0,-482.326Zm1910.09,0l144.764,0l296.816,482.326l-115.613,-0l-80.167,-134.495l-352.468,0l-79.835,134.495l-110.312,-0l296.815,-482.326Zm69.566,55.985l-143.438,236.856l286.546,-0l-143.108,-236.856Z" style="fill-rule:nonzero;"/></g></g></g></svg>