<?xml version="1.0" encoding="UTF-8" standalone="no"?>
<svg
   xmlns:dc="http://purl.org/dc/elements/1.1/"
   xmlns:cc="http://creativecommons.org/ns#"
   xmlns:rdf="http://www.w3.org/1999/02/22-rdf-syntax-ns#"
   xmlns:svg="http://www.w3.org/2000/svg"
   xmlns="http://www.w3.org/2000/svg"
   xmlns:sodipodi="http://sodipodi.sourceforge.net/DTD/sodipodi-0.dtd"
   xmlns:inkscape="http://www.inkscape.org/namespaces/inkscape"
   sodipodi:docname="ngas.svg"
   inkscape:version="1.0beta1 (32d4812, 2019-09-19)"
   width="24px"
   height="24px"
   viewBox="0 0 24 24"
   version="1.1"
   id="SVGRoot">
  <defs
     id="defs2486" />
  <sodipodi:namedview
     inkscape:grid-bbox="true"
     inkscape:window-maximized="0"
     inkscape:window-y="25"
     inkscape:window-x="0"
     inkscape:window-height="907"
     inkscape:window-width="1600"
     showgrid="false"
     inkscape:document-rotation="0"
     inkscape:current-layer="layer1"
     inkscape:document-units="px"
     inkscape:cy="16.573805"
     inkscape:cx="6.6156235"
     inkscape:zoom="16.701241"
     inkscape:pageshadow="2"
     inkscape:pageopacity="0.0"
     borderopacity="1.0"
     bordercolor="#666666"
     pagecolor="#ffffff"
     id="base" />
  <metadata
     id="metadata2489">
    <rdf:RDF>
      <cc:Work
         rdf:about="">
        <dc:format>image/svg+xml</dc:format>
        <dc:type
           rdf:resource="http://purl.org/dc/dcmitype/StillImage" />
        <dc:title></dc:title>
      </cc:Work>
    </rdf:RDF>
  </metadata>
  <g
     id="layer1"
     inkscape:groupmode="layer"
     inkscape:label="Layer 1">
    <path
       d="M 4.6230469 0.78710938 C 2.1291635 0.78710937 0.12304688 2.793226 0.12304688 5.2871094 L 0.12304688 19.177734 C 0.12304687 21.671617 2.1291635 23.679688 4.6230469 23.679688 L 19.460938 23.679688 C 21.95482 23.679687 23.960938 21.671617 23.960938 19.177734 L 23.960938 5.2871094 C 23.960937 2.793226 21.954821 0.78710938 19.460938 0.78710938 L 4.6230469 0.78710938 z M 12.042969 3.9414062 C 17.383928 3.9414062 20.435487 4.8653998 20.845703 5.8046875 C 20.875483 5.8368522 20.898438 5.8722694 20.898438 5.9121094 L 20.898438 6.0214844 L 20.898438 8.5390625 L 20.898438 8.6484375 L 20.898438 8.7578125 L 20.898438 11.166016 L 20.898438 11.275391 L 20.898438 11.384766 L 20.898438 14.011719 C 20.898438 14.050266 20.881956 14.087681 20.853516 14.119141 C 20.421335 15.18695 16.685713 15.982422 12.042969 15.982422 C 7.3896008 15.982422 3.6449255 15.183078 3.2265625 14.111328 C 3.2003465 14.081548 3.1855469 14.047199 3.1855469 14.011719 L 3.1855469 11.384766 L 3.1855469 11.275391 L 3.1855469 11.166016 L 3.1855469 8.7578125 L 3.1855469 8.6484375 L 3.1855469 8.5390625 L 3.1855469 6.0214844 L 3.1855469 5.9101562 C 3.1855469 5.8703167 3.2085172 5.8367745 3.2382812 5.8046875 C 3.6481429 4.8653998 6.7020071 3.9414062 12.042969 3.9414062 z M 12.042969 4.3789062 C 7.2411694 4.3789062 3.8945312 5.2446545 3.8945312 6.0214844 C 3.8945312 6.7983105 7.2411694 7.6621094 12.042969 7.6621094 C 16.844765 7.6621094 20.189453 6.7983105 20.189453 6.0214844 C 20.189453 5.2446545 16.844765 4.3789062 12.042969 4.3789062 z M 3.8945312 6.8515625 L 3.8945312 8.4765625 C 3.9094693 8.5079025 3.9151 8.5411387 3.90625 8.5742188 C 3.899872 8.5987787 3.8945313 8.6236575 3.8945312 8.6484375 C 3.8945312 8.6836795 3.908782 8.7191262 3.921875 8.7539062 C 3.931767 8.7804063 3.9455566 8.8055513 3.9628906 8.8320312 C 3.9773736 8.8537013 3.9945669 8.8768975 4.0136719 8.8984375 C 4.0377629 8.9253675 4.0645011 8.9517056 4.0957031 8.9785156 C 4.1190861 8.9988956 4.1462041 9.0188925 4.1738281 9.0390625 C 4.213151 9.0679825 4.2552604 9.09653 4.3027344 9.125 C 4.3314284 9.14253 4.3629603 9.1605144 4.3945312 9.1777344 C 4.4526271 9.2090344 4.5124111 9.2387313 4.5800781 9.2695312 C 4.6091261 9.2827913 4.641374 9.2973069 4.671875 9.3105469 C 4.751934 9.3447249 4.8359874 9.3768864 4.9277344 9.4101562 C 4.9518284 9.4190863 4.9771691 9.4289 5.0019531 9.4375 C 5.1075195 9.474528 5.2169056 9.511395 5.3359375 9.546875 C 5.3511255 9.551115 5.3675805 9.5539938 5.3828125 9.5585938 C 5.5152996 9.5973456 5.654304 9.6370301 5.8027344 9.6738281 C 5.8069384 9.6750281 5.8121262 9.6749082 5.8164062 9.6757812 C 6.6208981 9.8743663 7.6504459 10.040894 8.8496094 10.150391 C 8.8556214 10.151114 8.8610975 10.151907 8.8671875 10.152344 C 9.1002818 10.173364 9.3384928 10.192424 9.5839844 10.208984 C 9.6240083 10.211584 9.6666532 10.214197 9.7070312 10.216797 C 9.9213505 10.230557 10.138154 10.244006 10.361328 10.253906 C 10.463354 10.258196 10.570039 10.260072 10.673828 10.263672 C 10.841737 10.269682 11.009477 10.275697 11.181641 10.279297 C 11.463267 10.285297 11.750004 10.289063 12.042969 10.289062 C 12.335931 10.289062 12.623034 10.28685 12.904297 10.28125 C 13.076457 10.2776 13.242237 10.269972 13.410156 10.263672 C 13.513967 10.260022 13.620645 10.258506 13.722656 10.253906 C 13.94583 10.243796 14.162637 10.230697 14.376953 10.216797 C 14.417341 10.214197 14.45997 10.213536 14.5 10.210938 C 14.745492 10.194287 14.983694 10.175467 15.216797 10.154297 C 15.222657 10.153571 15.228175 10.152781 15.234375 10.152344 C 16.433496 10.042867 17.463087 9.8743523 18.267578 9.6757812 C 18.271798 9.6745814 18.27705 9.6749281 18.28125 9.6738281 C 18.429692 9.6370361 18.568313 9.5992969 18.701172 9.5605469 C 18.716872 9.5563069 18.732667 9.551475 18.748047 9.546875 C 18.867086 9.511401 18.976457 9.47431 19.082031 9.4375 C 19.107161 9.42891 19.13209 9.4211094 19.15625 9.4121094 C 19.247997 9.3788214 19.332059 9.3446669 19.412109 9.3105469 C 19.442919 9.2972869 19.474846 9.2847244 19.503906 9.2714844 C 19.571572 9.2406144 19.631363 9.2091944 19.689453 9.1777344 C 19.721343 9.1604444 19.75252 9.14222 19.78125 9.125 C 19.828693 9.09655 19.870846 9.0698256 19.910156 9.0410156 C 19.937766 9.0208656 19.964791 8.9990256 19.988281 8.9785156 C 20.019781 8.9515856 20.046482 8.9252475 20.070312 8.8984375 C 20.089572 8.8767675 20.107044 8.8555244 20.121094 8.8339844 C 20.138364 8.8072844 20.152309 8.7803863 20.162109 8.7539062 C 20.175829 8.7184304 20.189453 8.6836975 20.189453 8.6484375 C 20.189453 8.6236875 20.186588 8.5987088 20.179688 8.5742188 C 20.170837 8.5411587 20.174403 8.5080225 20.189453 8.4765625 L 20.189453 6.8515625 C 20.146935 6.8754175 20.098774 6.898381 20.052734 6.921875 C 20.026894 6.935138 20.003042 6.9476965 19.976562 6.9609375 C 19.870292 7.0128263 19.755188 7.0635833 19.630859 7.1132812 C 19.605019 7.1235712 19.575638 7.1342783 19.548828 7.1445312 C 19.444682 7.1848352 19.33458 7.2233988 19.21875 7.2617188 C 19.176235 7.2758328 19.134114 7.2907835 19.089844 7.3046875 C 18.960531 7.3453829 18.824399 7.3853131 18.681641 7.4238281 C 18.658241 7.4304291 18.637111 7.4370894 18.613281 7.4433594 C 18.447495 7.486909 18.271396 7.5280884 18.087891 7.5683594 C 18.037242 7.5795714 17.983731 7.5906825 17.931641 7.6015625 C 17.785675 7.6319685 17.634739 7.659359 17.478516 7.6875 C 17.422183 7.697421 17.366334 7.70883 17.308594 7.71875 C 17.101358 7.754024 16.886719 7.7872314 16.662109 7.8183594 C 16.631299 7.8223024 16.599409 7.8257981 16.568359 7.8300781 C 16.370338 7.8567841 16.16424 7.883088 15.953125 7.90625 C 15.881568 7.91418 15.809288 7.9201044 15.736328 7.9277344 C 15.535118 7.9480884 15.327426 7.967151 15.115234 7.984375 C 15.060668 7.988657 15.010328 7.9937669 14.955078 7.9980469 C 14.69152 8.0176159 14.416942 8.0345881 14.136719 8.0488281 C 14.067289 8.0525281 13.995931 8.0553937 13.925781 8.0585938 C 13.701541 8.0684736 13.47279 8.0754313 13.238281 8.0820312 C 13.152539 8.0846313 13.067259 8.0879437 12.980469 8.0898438 C 12.67511 8.0961238 12.365337 8.1015625 12.042969 8.1015625 C 11.720606 8.1015625 11.408874 8.0961436 11.103516 8.0898438 C 11.016372 8.0878436 10.931083 8.0844312 10.845703 8.0820312 C 10.611192 8.0757714 10.38244 8.0684937 10.158203 8.0585938 C 10.088062 8.0555936 10.016346 8.0524281 9.9472656 8.0488281 C 9.6670556 8.0343861 9.3944194 8.0178889 9.1308594 7.9980469 C 9.0755959 7.9937649 9.023302 7.988655 8.96875 7.984375 C 8.7565566 7.967299 8.5485138 7.9482404 8.3476562 7.9277344 C 8.2746823 7.9201364 8.2024094 7.91422 8.1308594 7.90625 C 7.9197292 7.883055 7.7155994 7.8568911 7.5175781 7.8300781 C 7.4864101 7.8261351 7.452708 7.8226394 7.421875 7.8183594 C 7.1972841 7.7872534 6.982625 7.75423 6.7753906 7.71875 C 6.7176524 7.709161 6.6617976 7.69742 6.6054688 7.6875 C 6.449249 7.659278 6.2982955 7.6319895 6.1523438 7.6015625 C 6.1002668 7.5903505 6.0486929 7.5795714 5.9980469 7.5683594 C 5.8145485 7.5280848 5.6368439 7.4869384 5.4707031 7.4433594 C 5.4469701 7.4370904 5.4257267 7.4300981 5.4023438 7.4238281 C 5.259587 7.3855117 5.1253934 7.3454235 4.9960938 7.3046875 C 4.9518246 7.2905735 4.9080944 7.2759548 4.8652344 7.2617188 C 4.7494002 7.2231737 4.639299 7.1846033 4.5351562 7.1445312 C 4.5082324 7.1342413 4.478979 7.1235342 4.453125 7.1132812 C 4.3287859 7.0635758 4.2136927 7.0126275 4.1074219 6.9609375 C 4.0804949 6.9476745 4.056772 6.935116 4.03125 6.921875 C 3.9852031 6.898219 3.9370342 6.8753885 3.8945312 6.8515625 z M 3.8945312 9.4785156 L 3.8945312 11.103516 C 3.9094694 11.134856 3.9151 11.168092 3.90625 11.201172 C 3.899872 11.225722 3.8945313 11.250601 3.8945312 11.275391 C 3.8945312 11.310623 3.908782 11.346079 3.921875 11.380859 C 3.931767 11.407359 3.9455566 11.434457 3.9628906 11.460938 C 3.9773736 11.482608 3.9945669 11.503521 4.0136719 11.525391 C 4.0377629 11.552321 4.0645011 11.578659 4.0957031 11.605469 C 4.1190901 11.625849 4.1462041 11.645846 4.1738281 11.666016 C 4.213151 11.694936 4.2552604 11.723483 4.3027344 11.751953 C 4.3314284 11.769503 4.3629603 11.787467 4.3945312 11.804688 C 4.4526272 11.835986 4.5124111 11.867638 4.5800781 11.898438 C 4.6091261 11.911697 4.641374 11.92426 4.671875 11.9375 C 4.7519341 11.971678 4.8359874 12.005794 4.9277344 12.039062 C 4.9518284 12.047994 4.9771691 12.055853 5.0019531 12.064453 C 5.1075195 12.101483 5.2169056 12.138348 5.3359375 12.173828 C 5.3511255 12.178068 5.3675805 12.1829 5.3828125 12.1875 C 5.5152996 12.226252 5.6562573 12.263971 5.8046875 12.300781 C 5.8088915 12.301981 5.8121263 12.301857 5.8164062 12.302734 C 6.6208978 12.501318 7.6504882 12.669832 8.8496094 12.779297 C 8.8556214 12.780021 8.8610975 12.778861 8.8671875 12.779297 C 9.1002818 12.800317 9.3384928 12.821331 9.5839844 12.837891 C 9.6240083 12.840491 9.6666532 12.84115 9.7070312 12.84375 C 9.9213505 12.85751 10.138154 12.870959 10.361328 12.880859 C 10.463354 12.885109 10.570039 12.887025 10.673828 12.890625 C 10.841737 12.896595 11.009477 12.904603 11.181641 12.908203 C 11.463267 12.914203 11.750004 12.917969 12.042969 12.917969 C 12.335931 12.917969 12.623034 12.913803 12.904297 12.908203 C 13.076457 12.904553 13.242237 12.896925 13.410156 12.890625 C 13.513967 12.886945 13.620645 12.885459 13.722656 12.880859 C 13.94583 12.870749 14.162637 12.85765 14.376953 12.84375 C 14.417341 12.84115 14.45997 12.840491 14.5 12.837891 C 14.745492 12.821241 14.983694 12.80246 15.216797 12.78125 C 15.222657 12.780527 15.228175 12.779734 15.234375 12.779297 C 16.433496 12.669823 17.463087 12.503257 18.267578 12.304688 C 18.271798 12.303486 18.27705 12.301881 18.28125 12.300781 C 18.429692 12.264009 18.568313 12.22625 18.701172 12.1875 C 18.716872 12.18326 18.732667 12.178428 18.748047 12.173828 C 18.867086 12.138358 18.976457 12.101263 19.082031 12.064453 C 19.107161 12.055853 19.13209 12.048064 19.15625 12.039062 C 19.247997 12.005776 19.332059 11.97162 19.412109 11.9375 C 19.442919 11.92424 19.474846 11.911676 19.503906 11.898438 C 19.571572 11.867566 19.631363 11.836146 19.689453 11.804688 C 19.721343 11.787366 19.75252 11.771126 19.78125 11.753906 C 19.828693 11.725456 19.870846 11.696769 19.910156 11.667969 C 19.937766 11.647809 19.964791 11.627932 19.988281 11.607422 C 20.019781 11.580492 20.046482 11.552201 20.070312 11.525391 C 20.089572 11.503721 20.107044 11.482807 20.121094 11.460938 C 20.138364 11.434236 20.152309 11.407339 20.162109 11.380859 C 20.175829 11.345383 20.189453 11.310611 20.189453 11.275391 C 20.189453 11.250641 20.186588 11.225662 20.179688 11.201172 C 20.170837 11.168082 20.174403 11.134976 20.189453 11.103516 L 20.189453 9.4785156 C 20.098783 9.5290766 20.00346 9.5787731 19.896484 9.6269531 C 18.556373 10.247016 15.894324 10.728516 12.042969 10.728516 C 8.1753146 10.728516 5.5063187 10.242923 4.171875 9.6191406 C 4.0833111 9.5788366 4.0049534 9.5381137 3.9277344 9.4960938 C 3.9174084 9.4904138 3.9044912 9.4841156 3.8945312 9.4785156 z M 3.8945312 12.105469 L 3.8945312 13.947266 C 3.8991013 13.956556 3.90341 13.966662 3.90625 13.976562 C 4.1071079 14.733906 7.425026 15.544922 12.042969 15.544922 C 16.660916 15.544922 19.976881 14.733905 20.177734 13.976562 C 20.180664 13.966643 20.184553 13.956866 20.189453 13.947266 L 20.189453 12.105469 C 20.098783 12.156031 20.001506 12.205726 19.894531 12.253906 C 18.554419 12.873968 15.894324 13.355469 12.042969 13.355469 C 8.1753144 13.355469 5.506319 12.869879 4.171875 12.246094 C 4.083311 12.205789 4.0049534 12.165067 3.9277344 12.123047 C 3.9174444 12.117367 3.9044912 12.111069 3.8945312 12.105469 z M 10.191406 18.289062 C 10.464769 18.289062 10.743219 18.31014 11.027344 18.349609 C 11.313621 18.387802 11.621845 18.45198 11.951172 18.544922 L 11.951172 18.994141 L 11.894531 18.994141 C 11.827805 18.963582 11.730511 18.924652 11.603516 18.875 C 11.47652 18.825348 11.351206 18.783103 11.228516 18.75 C 11.079996 18.710531 10.91012 18.677806 10.720703 18.652344 C 10.533439 18.625605 10.320955 18.613281 10.082031 18.613281 C 9.543916 18.613281 9.1189468 18.714944 8.8046875 18.919922 C 8.4925806 19.123627 8.3359375 19.399202 8.3359375 19.748047 C 8.3359375 20.115988 8.4989977 20.402444 8.8261719 20.607422 C 9.1533459 20.811127 9.5981645 20.914063 10.162109 20.914062 C 10.368746 20.914062 10.574813 20.901143 10.779297 20.876953 C 10.985933 20.852763 11.167288 20.821398 11.322266 20.783203 L 11.322266 20.087891 L 10.033203 20.087891 L 10.033203 19.753906 L 11.955078 19.753906 L 11.955078 20.974609 C 11.692478 21.045906 11.405857 21.108637 11.09375 21.162109 C 10.783796 21.214309 10.481989 21.240234 10.191406 21.240234 C 9.816878 21.240234 9.4742162 21.209549 9.1621094 21.148438 C 8.8500025 21.087326 8.5847854 20.99527 8.3652344 20.873047 C 8.1435309 20.749551 7.9721003 20.596717 7.8515625 20.412109 C 7.7310247 20.226229 7.6699219 20.008031 7.6699219 19.759766 C 7.6699219 19.305249 7.8940849 18.947817 8.3417969 18.685547 C 8.7916612 18.422004 9.4079104 18.289062 10.191406 18.289062 z M 19.212891 18.289062 C 19.550828 18.289062 19.860606 18.309464 20.142578 18.347656 C 20.424551 18.385849 20.67518 18.43226 20.892578 18.488281 L 20.892578 18.935547 L 20.847656 18.935547 C 20.664697 18.84388 20.422239 18.768823 20.123047 18.708984 C 19.826007 18.647873 19.521091 18.617188 19.208984 18.617188 C 18.866743 18.617188 18.591601 18.65816 18.382812 18.742188 C 18.176176 18.826216 18.074219 18.933998 18.074219 19.066406 C 18.074219 19.18481 18.125197 19.278226 18.228516 19.345703 C 18.331834 19.41318 18.512989 19.464351 18.773438 19.5 C 18.911195 19.517822 19.107338 19.540939 19.361328 19.566406 C 19.615318 19.591868 19.83131 19.617793 20.007812 19.644531 C 20.365121 19.70055 20.633646 19.785127 20.814453 19.898438 C 20.99526 20.011748 21.085937 20.169343 21.085938 20.373047 C 21.085938 20.483812 21.041376 20.592954 20.953125 20.701172 C 20.867022 20.80939 20.745016 20.901447 20.587891 20.976562 C 20.415693 21.058045 20.214688 21.122136 19.984375 21.167969 C 19.756214 21.213801 19.481072 21.236328 19.158203 21.236328 C 18.811657 21.236328 18.500324 21.21788 18.222656 21.179688 C 17.947142 21.141495 17.665184 21.084883 17.378906 21.009766 L 17.378906 20.535156 L 17.423828 20.535156 C 17.667057 20.654833 17.949014 20.747569 18.267578 20.8125 C 18.586142 20.877431 18.884242 20.910156 19.164062 20.910156 C 19.560115 20.910156 19.86834 20.865191 20.087891 20.777344 C 20.309595 20.689496 20.419922 20.574147 20.419922 20.427734 C 20.419922 20.301692 20.36719 20.208276 20.261719 20.148438 C 20.158401 20.088599 20.000203 20.040915 19.787109 20.007812 C 19.625675 19.982351 19.451136 19.961863 19.261719 19.945312 C 19.074455 19.928762 18.875004 19.908274 18.664062 19.882812 C 18.237875 19.82934 17.92148 19.737964 17.714844 19.609375 C 17.51036 19.479513 17.408203 19.31104 17.408203 19.103516 C 17.408203 18.865436 17.57788 18.671037 17.917969 18.519531 C 18.258058 18.366753 18.689843 18.289062 19.212891 18.289062 z M 2.9980469 18.341797 L 3.9902344 18.341797 L 6.0683594 20.664062 L 6.0683594 18.341797 L 6.6660156 18.341797 L 6.6660156 21.185547 L 5.875 21.185547 L 3.5957031 18.640625 L 3.5957031 21.185547 L 2.9980469 21.185547 L 2.9980469 18.341797 z M 14.259766 18.341797 L 15.113281 18.341797 L 16.863281 21.185547 L 16.181641 21.185547 L 15.708984 20.392578 L 13.630859 20.392578 L 13.160156 21.185547 L 12.509766 21.185547 L 14.259766 18.341797 z M 14.669922 18.671875 L 13.824219 20.068359 L 15.513672 20.068359 L 14.669922 18.671875 z "
       style="opacity:1;stroke-width:0.104642"
       id="rect3722" />
    <g
       style="font-style:normal;font-weight:normal;font-size:5.08545px;line-height:1.25;font-family:sans-serif;fill:#fefefe;fill-opacity:1;stroke:#ffffff;stroke-width:0.127136;stroke-opacity:1"
       id="text4904"
       transform="scale(1.3002508,0.7690824)"
       aria-label="NGAS" />
  </g>
</svg>
