<?xml version="1.0" encoding="UTF-8" standalone="no"?><!DOCTYPE svg PUBLIC "-//W3C//DTD SVG 1.1//EN" "http://www.w3.org/Graphics/SVG/1.1/DTD/svg11.dtd"><svg width="100%" height="100%" viewBox="0 0 4171 4171" version="1.1" xmlns="http://www.w3.org/2000/svg" xmlns:xlink="http://www.w3.org/1999/xlink" xml:space="preserve" xmlns:serif="http://www.serif.com/" style="fill-rule:evenodd;clip-rule:evenodd;stroke-linejoin:round;stroke-miterlimit:2;"><rect id="none" x="2.203" y="2.941" width="4166.67" height="4166.67" style="fill:none;"/><clipPath id="_clip1"><rect x="2.203" y="2.941" width="4166.67" height="4166.67"/></clipPath><g clip-path="url(#_clip1)"><rect x="2.203" y="2.941" width="4166.67" height="4166.67" style="fill:none;"/><g><path d="M2085.54,64.715c-1116.47,-0 -2021.56,905.093 -2021.56,2021.56c0,1116.47 905.093,2021.56 2021.56,2021.56c1116.47,0 2021.56,-905.093 2021.56,-2021.56c0,-1116.47 -905.092,-2021.56 -2021.56,-2021.56Zm-0,3638.81c-893.166,0 -1617.25,-724.042 -1617.25,-1617.25c-0,-893.166 724.082,-1617.25 1617.25,-1617.25c893.206,-0 1617.25,724.082 1617.25,1617.25c0,893.205 -724.041,1617.25 -1617.25,1617.25Z" style="fill-rule:nonzero;"/></g><path d="M3649.53,248.216l285.889,285.889l-3430.67,3430.67l-285.889,-285.889l3430.67,-3430.67Z"/></g></svg>