<?xml version="1.0" encoding="UTF-8" standalone="no"?>
<!DOCTYPE svg PUBLIC "-//W3C//DTD SVG 1.1//EN" "http://www.w3.org/Graphics/SVG/1.1/DTD/svg11.dtd">
<svg width="100%" height="100%" viewBox="0 0 1008 446" version="1.1" xmlns="http://www.w3.org/2000/svg" xmlns:xlink="http://www.w3.org/1999/xlink" xml:space="preserve" xmlns:serif="http://www.serif.com/" style="fill-rule:evenodd;clip-rule:evenodd;stroke-linejoin:round;stroke-miterlimit:2;">
    <g transform="matrix(1,0,0,1,-219.018,-1414.98)">
        <g transform="matrix(1,0,0,1,-169.886,-53.7714)">
            <g>
                <g transform="matrix(0.916155,0,0,0.835443,75.8544,286.764)">
                    <rect x="341.699" y="1414.8" width="1099.2" height="532.74" style="fill:none;"/>
                </g>
                <path d="M718.256,1562.3L718.256,1801.74C718.256,1820.46 703.055,1835.66 684.333,1835.66L444.896,1835.66C426.173,1835.66 410.973,1820.46 410.973,1801.74L410.973,1562.3C410.973,1543.58 426.173,1528.38 444.896,1528.38L684.333,1528.38C703.055,1528.38 718.256,1543.58 718.256,1562.3ZM695.82,1562.3C695.82,1555.96 690.673,1550.82 684.333,1550.82L444.896,1550.82C438.556,1550.82 433.408,1555.96 433.408,1562.3L433.408,1801.74C433.408,1808.08 438.556,1813.23 444.896,1813.23L684.333,1813.23C690.673,1813.23 695.82,1808.08 695.82,1801.74L695.82,1562.3Z"/>
                <g transform="matrix(1,0,0,1,601.345,0)">
                    <path d="M696.621,1562.3C696.621,1556.55 701.289,1551.88 707.038,1551.88C712.787,1551.88 717.455,1556.55 717.455,1562.3C717.455,1568.05 712.787,1572.72 707.038,1572.72C701.289,1572.72 696.621,1568.05 696.621,1562.3ZM696.621,1602.21C696.621,1596.46 701.289,1591.79 707.038,1591.79C712.787,1591.79 717.455,1596.46 717.455,1602.21C717.455,1607.96 712.787,1612.62 707.038,1612.62C701.289,1612.62 696.621,1607.96 696.621,1602.21ZM696.621,1642.11C696.621,1636.37 701.289,1631.7 707.038,1631.7C712.787,1631.7 717.455,1636.37 717.455,1642.11C717.455,1647.86 712.787,1652.53 707.038,1652.53C701.289,1652.53 696.621,1647.86 696.621,1642.11ZM696.621,1682.02C696.621,1676.27 701.289,1671.6 707.038,1671.6C712.787,1671.6 717.455,1676.27 717.455,1682.02C717.455,1687.77 712.787,1692.44 707.038,1692.44C701.289,1692.44 696.621,1687.77 696.621,1682.02ZM696.621,1721.93C696.621,1716.18 701.289,1711.51 707.038,1711.51C712.787,1711.51 717.455,1716.18 717.455,1721.93C717.455,1727.68 712.787,1732.34 707.038,1732.34C701.289,1732.34 696.621,1727.68 696.621,1721.93ZM696.621,1761.83C696.621,1756.08 701.289,1751.42 707.038,1751.42C712.787,1751.42 717.455,1756.08 717.455,1761.83C717.455,1767.58 712.787,1772.25 707.038,1772.25C701.289,1772.25 696.621,1767.58 696.621,1761.83ZM696.621,1801.74C696.621,1795.99 701.289,1791.32 707.038,1791.32C712.787,1791.32 717.455,1795.99 717.455,1801.74C717.455,1807.49 712.787,1812.16 707.038,1812.16C701.289,1812.16 696.621,1807.49 696.621,1801.74ZM684.333,1814.03C690.082,1814.03 694.749,1818.69 694.749,1824.44C694.749,1830.19 690.082,1834.86 684.333,1834.86C678.584,1834.86 673.916,1830.19 673.916,1824.44C673.916,1818.69 678.584,1814.03 684.333,1814.03ZM644.427,1814.03C650.176,1814.03 654.843,1818.69 654.843,1824.44C654.843,1830.19 650.176,1834.86 644.427,1834.86C638.677,1834.86 634.01,1830.19 634.01,1824.44C634.01,1818.69 638.677,1814.03 644.427,1814.03ZM604.521,1814.03C610.27,1814.03 614.937,1818.69 614.937,1824.44C614.937,1830.19 610.27,1834.86 604.521,1834.86C598.772,1834.86 594.104,1830.19 594.104,1824.44C594.104,1818.69 598.772,1814.03 604.521,1814.03ZM564.614,1814.03C570.364,1814.03 575.031,1818.69 575.031,1824.44C575.031,1830.19 570.364,1834.86 564.614,1834.86C558.865,1834.86 554.198,1830.19 554.198,1824.44C554.198,1818.69 558.865,1814.03 564.614,1814.03ZM524.708,1814.03C530.457,1814.03 535.125,1818.69 535.125,1824.44C535.125,1830.19 530.457,1834.86 524.708,1834.86C518.959,1834.86 514.291,1830.19 514.291,1824.44C514.291,1818.69 518.959,1814.03 524.708,1814.03ZM484.802,1814.03C490.551,1814.03 495.218,1818.69 495.218,1824.44C495.218,1830.19 490.551,1834.86 484.802,1834.86C479.053,1834.86 474.385,1830.19 474.385,1824.44C474.385,1818.69 479.053,1814.03 484.802,1814.03ZM444.896,1814.03C450.645,1814.03 455.313,1818.69 455.313,1824.44C455.313,1830.19 450.645,1834.86 444.896,1834.86C439.147,1834.86 434.479,1830.19 434.479,1824.44C434.479,1818.69 439.147,1814.03 444.896,1814.03ZM432.607,1801.74C432.607,1807.49 427.94,1812.16 422.191,1812.16C416.441,1812.16 411.774,1807.49 411.774,1801.74C411.774,1795.99 416.441,1791.32 422.19,1791.32C427.94,1791.32 432.607,1795.99 432.607,1801.74ZM432.607,1761.83C432.607,1767.58 427.94,1772.25 422.19,1772.25C416.441,1772.25 411.774,1767.58 411.774,1761.83C411.774,1756.08 416.441,1751.42 422.19,1751.42C427.94,1751.42 432.607,1756.08 432.607,1761.83ZM432.607,1721.93C432.607,1727.68 427.94,1732.34 422.19,1732.34C416.441,1732.34 411.774,1727.68 411.774,1721.93C411.774,1716.18 416.441,1711.51 422.19,1711.51C427.94,1711.51 432.607,1716.18 432.607,1721.93ZM432.607,1682.02C432.607,1687.77 427.94,1692.44 422.19,1692.44C416.441,1692.44 411.774,1687.77 411.774,1682.02C411.774,1676.27 416.441,1671.6 422.19,1671.6C427.94,1671.6 432.607,1676.27 432.607,1682.02ZM432.607,1642.12C432.607,1647.86 427.94,1652.53 422.19,1652.53C416.441,1652.53 411.774,1647.86 411.774,1642.12C411.774,1636.37 416.441,1631.7 422.19,1631.7C427.94,1631.7 432.607,1636.37 432.607,1642.12ZM432.607,1602.21C432.607,1607.96 427.94,1612.62 422.19,1612.62C416.441,1612.62 411.774,1607.96 411.774,1602.21C411.774,1596.46 416.441,1591.79 422.19,1591.79C427.94,1591.79 432.607,1596.46 432.607,1602.21ZM432.607,1562.3C432.607,1568.05 427.94,1572.72 422.19,1572.72C416.441,1572.72 411.774,1568.05 411.774,1562.3C411.774,1556.55 416.441,1551.88 422.19,1551.88C427.94,1551.88 432.607,1556.55 432.607,1562.3ZM444.896,1550.01C439.147,1550.01 434.479,1545.35 434.479,1539.6C434.479,1533.85 439.147,1529.18 444.896,1529.18C450.645,1529.18 455.312,1533.85 455.312,1539.6C455.313,1545.35 450.645,1550.01 444.896,1550.01ZM484.802,1550.01C479.053,1550.01 474.385,1545.35 474.385,1539.6C474.385,1533.85 479.053,1529.18 484.802,1529.18C490.551,1529.18 495.219,1533.85 495.219,1539.6C495.219,1545.35 490.551,1550.01 484.802,1550.01ZM524.708,1550.01C518.959,1550.01 514.291,1545.35 514.291,1539.6C514.291,1533.85 518.959,1529.18 524.708,1529.18C530.457,1529.18 535.125,1533.85 535.125,1539.6C535.125,1545.35 530.457,1550.01 524.708,1550.01ZM564.614,1550.01C558.865,1550.01 554.197,1545.35 554.197,1539.6C554.197,1533.85 558.865,1529.18 564.614,1529.18C570.363,1529.18 575.031,1533.85 575.031,1539.6C575.031,1545.35 570.363,1550.01 564.614,1550.01ZM604.52,1550.01C598.771,1550.01 594.103,1545.35 594.103,1539.6C594.103,1533.85 598.771,1529.18 604.52,1529.18C610.269,1529.18 614.937,1533.85 614.937,1539.6C614.937,1545.35 610.269,1550.01 604.52,1550.01ZM644.427,1550.01C638.678,1550.01 634.01,1545.35 634.01,1539.6C634.01,1533.85 638.678,1529.18 644.427,1529.18C650.176,1529.18 654.844,1533.85 654.844,1539.6C654.844,1545.35 650.176,1550.01 644.427,1550.01ZM684.333,1550.01C678.584,1550.01 673.916,1545.35 673.916,1539.6C673.916,1533.85 678.584,1529.18 684.333,1529.18C690.082,1529.18 694.749,1533.85 694.749,1539.6C694.749,1545.35 690.082,1550.01 684.333,1550.01Z"/>
                </g>
                <g transform="matrix(1,0,0,1.49516,-14.3862,-913.528)">
                    <path d="M786.162,1750.03L786.162,1721.91L896.824,1721.91L896.824,1684.9L973.183,1735.97L896.824,1787.04L896.824,1750.03L786.162,1750.03Z"/>
                </g>
                <g transform="matrix(0.957834,-0.0404089,-0.0404089,0.961275,100.724,96.5267)">
                    <path d="M955.914,1495.13C954.108,1493.4 953.933,1490.65 955.524,1488.99C957.115,1487.33 959.874,1487.38 961.68,1489.11L1410.53,1919.26C1412.34,1920.99 1412.51,1923.75 1410.92,1925.41C1409.33,1927.07 1406.57,1927.01 1404.77,1925.28L955.914,1495.13Z"/>
                </g>
            </g>
        </g>
    </g>
</svg>
