<?xml version="1.0" encoding="UTF-8" standalone="no"?><!DOCTYPE svg PUBLIC "-//W3C//DTD SVG 1.1//EN" "http://www.w3.org/Graphics/SVG/1.1/DTD/svg11.dtd"><svg width="100%" height="100%" viewBox="0 0 4171 4171" version="1.1" xmlns="http://www.w3.org/2000/svg" xmlns:xlink="http://www.w3.org/1999/xlink" xml:space="preserve" xmlns:serif="http://www.serif.com/" style="fill-rule:evenodd;clip-rule:evenodd;stroke-linejoin:round;stroke-miterlimit:2;"><rect id="plasma" x="2.203" y="2.941" width="4166.67" height="4166.67" style="fill:none;"/><clipPath id="_clip1"><rect x="2.203" y="2.941" width="4166.67" height="4166.67"/></clipPath><g clip-path="url(#_clip1)"><rect x="2.203" y="2.941" width="4166.67" height="4166.67" style="fill:none;"/><g><g><path d="M2085.54,64.715c-1007.34,-0 -1826.87,819.535 -1826.87,1826.87c0,509.488 213.369,995.877 586.749,1341.23l-164.749,790.508c-4.312,20.681 0.924,42.2 14.246,58.593c13.337,16.386 33.332,25.909 54.447,25.909l2038.01,0c38.765,0 70.178,-31.421 70.178,-70.178c-0,-38.757 -31.413,-70.178 -70.178,-70.178l-1951.7,0l144.076,-691.348l2211.61,-0l144.068,691.34l-314.115,0c-38.765,0 -70.178,31.421 -70.178,70.178c-0,38.757 31.413,70.178 70.178,70.178l400.433,0c21.132,0 41.126,-9.515 54.456,-25.909c13.322,-16.385 18.557,-37.904 14.246,-58.593l-164.789,-790.752c117.661,-108.817 220.642,-232.211 306.1,-367.679c20.682,-32.779 10.866,-76.124 -21.913,-96.805c-32.811,-20.682 -76.132,-10.874 -96.814,21.913c-80.538,127.682 -177.96,243.755 -289.453,345.749l-885.402,0l-0,-730.05c189.568,-93.536 320.314,-288.798 320.314,-514.091c-0,-74.655 -14.159,-147.281 -42.082,-215.88c-14.617,-35.906 -55.553,-53.161 -91.452,-38.552c-35.906,14.617 -53.16,55.562 -38.543,91.46c21.044,51.715 31.721,106.55 31.721,162.972c-0,238.544 -194.07,432.605 -432.597,432.605c-238.544,0 -432.605,-194.069 -432.605,-432.605c-0,-238.543 194.069,-432.605 432.605,-432.605c100.461,0 194.693,33.403 272.499,96.6c30.102,24.449 74.292,19.845 98.732,-10.226c24.433,-30.086 19.845,-74.292 -10.234,-98.724c-101.63,-82.545 -229.849,-128.014 -360.997,-128.014c-315.94,0 -572.969,257.03 -572.969,572.969c-0,315.939 257.045,572.969 572.969,572.969c38.425,-0 75.958,-3.862 112.283,-11.119l-0,682.315l-224.559,-0l0,-551.016c0,-38.757 -31.413,-70.178 -70.178,-70.178c-38.765,-0 -70.178,31.421 -70.178,70.178l0,551.016l-885.615,-0c-348.734,-319.185 -548.26,-770.876 -548.26,-1244.16c0,-929.955 756.567,-1686.52 1686.52,-1686.52c929.94,-0 1686.5,756.567 1686.5,1686.51c-0,246.054 -51.779,483.207 -153.891,704.828c-16.22,35.204 -0.829,76.89 34.367,93.11c35.219,16.228 76.898,0.822 93.11,-34.366c110.672,-240.178 166.778,-497.09 166.778,-763.572c-0.016,-1007.34 -819.544,-1826.87 -1826.88,-1826.87Z" style="fill-rule:nonzero;"/></g></g><g><g><path d="M2435.69,454.267c-27.417,-27.409 -71.844,-27.409 -99.253,0l-180.716,180.716l-0,-181.466c-0,-38.757 -31.413,-70.178 -70.178,-70.178c-38.765,-0 -70.178,31.421 -70.178,70.178l-0,701.78c-0,38.757 31.413,70.178 70.178,70.178c38.765,-0 70.178,-31.421 70.178,-70.178l-0,-321.814l279.969,-279.97c27.41,-27.41 27.41,-71.844 0,-99.246Z" style="fill-rule:nonzero;"/></g></g><g><g><path d="M3240.51,921.626c-24.922,-29.684 -69.199,-33.538 -98.874,-8.608l-296.143,248.707l-32.897,-570.261c-2.219,-38.693 -35.567,-68.306 -74.103,-66.016c-38.702,2.227 -68.267,35.409 -66.024,74.103l38.931,674.789l-107.167,89.998c-29.683,24.922 -33.537,69.191 -8.607,98.875c13.875,16.536 33.751,25.048 53.777,25.048c15.927,0 31.95,-5.393 45.098,-16.441l537.402,-451.32c29.684,-24.938 33.537,-69.207 8.607,-98.874Z" style="fill-rule:nonzero;"/></g></g><g><g><path d="M1592.75,2339.78c-26.083,-28.673 -70.47,-30.773 -99.143,-4.698l-195.365,177.684l-243.052,-179.737c-31.145,-23.035 -75.098,-16.473 -98.148,14.703c-23.051,31.169 -16.473,75.114 14.703,98.164l220.642,163.17l-217.949,198.223c-28.665,26.067 -30.765,70.454 -4.698,99.135c13.85,15.225 32.866,22.964 51.944,22.964c16.852,-0 33.751,-6.033 47.199,-18.265l519.161,-472.2c28.672,-26.082 30.773,-70.462 4.706,-99.143Z" style="fill-rule:nonzero;"/></g></g><g><g><path d="M3585.9,1576.4c-27.409,-27.409 -71.836,-27.417 -99.253,0l-403.498,403.498l-259.454,-41.458c-38.378,-6.135 -74.261,19.971 -80.381,58.231c-6.112,38.275 19.963,74.26 58.23,80.372l692.991,110.72c3.751,0.6 7.478,0.892 11.158,0.892c33.885,0 63.703,-24.59 69.215,-59.122c6.112,-38.276 -19.963,-74.261 -58.23,-80.373l-262.376,-41.916l331.59,-331.59c27.41,-27.402 27.41,-71.844 0.008,-99.254Z" style="fill-rule:nonzero;"/></g></g><g><g><path d="M3214.9,2784.62l-528.597,-461.601c-29.186,-25.491 -73.511,-22.498 -99.033,6.696c-25.498,29.194 -22.489,73.534 6.697,99.033l203.632,177.817l-53.461,261.018c-7.786,37.975 16.702,75.058 54.669,82.836c4.754,0.972 9.492,1.438 14.159,1.438c32.637,-0 61.871,-22.885 68.685,-56.114l37.486,-183.046l203.435,177.644c13.306,11.624 29.763,17.318 46.14,17.318c19.561,-0 39.01,-8.134 52.893,-24.022c25.498,-29.178 22.481,-73.518 -6.705,-99.017Z" style="fill-rule:nonzero;"/></g></g><g><g><path d="M1371.35,1699.29l-408.204,-69.231l-103.21,-421.273c-9.223,-37.643 -47.214,-60.686 -84.866,-51.463c-37.636,9.224 -60.686,47.215 -51.455,84.866l88.767,362.293l-132.925,-22.545c-38.181,-6.444 -74.442,19.252 -80.925,57.464c-6.476,38.204 19.252,74.45 57.464,80.926l238.046,40.367c0.118,0.032 0.253,0.048 0.395,0.079l453.444,76.906c3.964,0.672 7.928,0.995 11.821,0.995c33.617,0 63.3,-24.211 69.112,-58.459c6.476,-38.212 -19.252,-74.45 -57.464,-80.925Z" style="fill-rule:nonzero;"/></g></g><g><g><path d="M856.301,2185.93l-150.385,-111.217c-31.129,-23.027 -75.106,-16.473 -98.148,14.703c-23.043,31.177 -16.473,75.114 14.703,98.164l150.385,111.217c12.548,9.279 27.165,13.756 41.671,13.756c21.495,0 42.713,-9.847 56.485,-28.459c23.035,-31.169 16.457,-75.114 -14.711,-98.164Z" style="fill-rule:nonzero;"/></g></g><g><g><path d="M1600.6,1087.35l128.574,-589.426c8.26,-37.872 -15.738,-75.263 -53.61,-83.523c-37.905,-8.292 -75.272,15.746 -83.532,53.61l-101.33,464.54l-180.448,-254.171c-22.418,-31.603 -66.245,-39.042 -97.848,-16.591c-31.61,22.442 -39.041,66.253 -16.591,97.848l406.27,572.226c13.677,19.276 35.314,29.558 57.29,29.558c14.049,-0 28.239,-4.209 40.566,-12.959c31.61,-22.442 39.041,-66.253 16.591,-97.848l-115.932,-163.264Z" style="fill-rule:nonzero;"/></g></g></g></svg>