<?xml version="1.0" encoding="UTF-8" standalone="no"?><!DOCTYPE svg PUBLIC "-//W3C//DTD SVG 1.1//EN" "http://www.w3.org/Graphics/SVG/1.1/DTD/svg11.dtd"><svg width="100%" height="100%" viewBox="0 0 4171 4171" version="1.1" xmlns="http://www.w3.org/2000/svg" xmlns:xlink="http://www.w3.org/1999/xlink" xml:space="preserve" xmlns:serif="http://www.serif.com/" style="fill-rule:evenodd;clip-rule:evenodd;stroke-linejoin:round;stroke-miterlimit:2;"><rect id="plasma_flight" x="4.034" y="2.941" width="4166.67" height="4166.67" style="fill:none;"/><clipPath id="_clip1"><rect x="4.034" y="2.941" width="4166.67" height="4166.67"/></clipPath><g clip-path="url(#_clip1)"><rect x="4.034" y="2.941" width="4166.67" height="4166.67" style="fill:none;"/><clipPath id="_clip2"><rect id="plasmaflight.svg" x="65.81" y="64.719" width="4043.12" height="4043.12"/></clipPath><g clip-path="url(#_clip2)"><g id="g616"><g id="g399"><g id="g397"><path id="path395" d="M2087.36,1037.53c-766.55,0 -1390.19,623.641 -1390.19,1390.19c0,387.704 162.367,757.831 446.498,1020.63l-125.369,601.551c-3.281,15.738 0.703,32.113 10.84,44.588c10.15,12.469 25.365,19.716 41.433,19.716l1550.86,-0c29.499,-0 53.403,-23.911 53.403,-53.403c-0,-29.493 -23.904,-53.404 -53.403,-53.404l-1485.18,0l109.637,-526.094l1682.97,0l109.631,526.088l-239.032,0c-29.498,0 -53.403,23.911 -53.403,53.404c0,29.492 23.905,53.403 53.403,53.403l304.718,-0c16.081,-0 31.296,-7.241 41.439,-19.716c10.138,-12.469 14.122,-28.844 10.841,-44.588l-125.399,-601.737c89.536,-82.806 167.901,-176.705 232.932,-279.792c15.738,-24.944 8.269,-57.928 -16.675,-73.666c-24.968,-15.738 -57.934,-8.275 -73.672,16.675c-61.287,97.162 -135.422,185.49 -220.265,263.105l-673.763,-0l-0,-555.546c144.255,-71.178 243.748,-219.766 243.748,-391.207c0,-56.81 -10.774,-112.076 -32.022,-164.278c-11.123,-27.323 -42.275,-40.453 -69.592,-29.336c-27.324,11.123 -40.454,42.28 -29.331,69.598c16.015,39.353 24.139,81.081 24.139,124.016c-0,181.524 -147.681,329.199 -329.193,329.199c-181.524,0 -329.199,-147.681 -329.199,-329.199c0,-181.524 147.681,-329.199 329.199,-329.199c76.448,0 148.156,25.419 207.364,73.51c22.906,18.605 56.534,15.101 75.132,-7.782c18.592,-22.894 15.101,-56.534 -7.788,-75.126c-77.338,-62.813 -174.908,-97.414 -274.708,-97.414c-240.42,-0 -436.011,195.591 -436.011,436.011c-0,240.42 195.603,436.012 436.011,436.012c29.241,-0 57.802,-2.939 85.444,-8.461l0,519.22l-170.882,-0l0,-419.306c0,-29.493 -23.904,-53.404 -53.403,-53.404c-29.499,0 -53.403,23.911 -53.403,53.404l-0,419.306l-673.926,-0c-265.375,-242.89 -417.208,-586.613 -417.208,-946.771c-0,-707.666 575.724,-1283.39 1283.39,-1283.39c707.655,-0 1283.37,575.724 1283.37,1283.38c-0,187.239 -39.402,367.706 -117.107,536.352c-12.342,26.789 -0.631,58.511 26.152,70.854c26.801,12.349 58.517,0.625 70.854,-26.152c84.218,-182.768 126.913,-378.269 126.913,-581.054c-0.012,-766.55 -623.647,-1390.19 -1390.2,-1390.19Z" style="fill-rule:nonzero;"/></g></g><g id="g405"><g id="g403"><path id="path401" d="M2353.82,1333.97c-20.864,-20.857 -54.672,-20.857 -75.529,0l-137.52,137.519l0,-138.09c0,-29.492 -23.904,-53.403 -53.403,-53.403c-29.499,0 -53.403,23.911 -53.403,53.403l-0,534.033c-0,29.493 23.904,53.403 53.403,53.403c29.499,0 53.403,-23.91 53.403,-53.403l0,-244.891l213.049,-213.048c20.857,-20.858 20.857,-54.671 -0,-75.523Z" style="fill-rule:nonzero;"/></g></g><g id="g411"><g id="g409"><path id="path407" d="M2966.26,1689.61c-18.965,-22.588 -52.658,-25.521 -75.24,-6.55l-225.355,189.258l-25.034,-433.95c-1.689,-29.445 -27.065,-51.979 -56.39,-50.236c-29.451,1.694 -51.949,26.945 -50.242,56.389l29.625,513.494l-81.55,68.486c-22.589,18.965 -25.521,52.652 -6.55,75.24c10.558,12.583 25.683,19.061 40.922,19.061c12.12,0 24.313,-4.104 34.318,-12.511l408.946,-343.44c22.589,-18.977 25.521,-52.664 6.55,-75.241Z" style="fill-rule:nonzero;"/></g></g><g id="g417"><g id="g415"><path id="path413" d="M1712.36,2768.78c-19.849,-21.819 -53.626,-23.418 -75.445,-3.575l-148.666,135.211l-184.956,-136.774c-23.7,-17.528 -57.147,-12.535 -74.687,11.189c-17.541,23.718 -12.535,57.159 11.189,74.7l167.901,124.167l-165.852,150.841c-21.813,19.836 -23.412,53.614 -3.576,75.439c10.54,11.586 25.011,17.475 39.529,17.475c12.823,-0 25.683,-4.591 35.916,-13.9l395.065,-359.328c21.819,-19.848 23.418,-53.62 3.582,-75.445Z" style="fill-rule:nonzero;"/></g></g><g id="g423"><g id="g421"><path id="path419" d="M3229.09,2187.88c-20.858,-20.857 -54.665,-20.863 -75.529,0l-307.049,307.049l-197.436,-31.548c-29.205,-4.669 -56.51,15.198 -61.167,44.312c-4.651,29.126 15.191,56.51 44.311,61.161l527.344,84.254c2.855,0.457 5.691,0.679 8.491,0.679c25.785,0 48.476,-18.712 52.67,-44.99c4.651,-29.127 -15.191,-56.51 -44.311,-61.161l-199.66,-31.897l252.33,-252.33c20.858,-20.851 20.858,-54.671 0.006,-75.529Z" style="fill-rule:nonzero;"/></g></g><g id="g429"><g id="g427"><path id="path425" d="M2946.77,3107.3l-402.246,-351.264c-22.21,-19.398 -55.939,-17.12 -75.361,5.095c-19.403,22.216 -17.114,55.958 5.096,75.361l154.958,135.314l-40.682,198.626c-5.925,28.898 12.709,57.117 41.601,63.036c3.617,0.739 7.223,1.094 10.774,1.094c24.836,-0 47.082,-17.415 52.268,-42.701l28.525,-139.292l154.808,135.181c10.125,8.846 22.648,13.178 35.111,13.178c14.885,0 29.685,-6.189 40.249,-18.279c19.404,-22.204 17.108,-55.945 -5.101,-75.349Z" style="fill-rule:nonzero;"/></g></g><g id="g435"><g id="g433"><path id="path431" d="M1543.88,2281.39l-310.63,-52.683l-78.54,-320.575c-7.018,-28.646 -35.928,-46.181 -64.58,-39.162c-28.639,7.019 -46.18,35.929 -39.155,64.58l67.548,275.694l-101.152,-17.156c-29.054,-4.904 -56.648,14.65 -61.581,43.728c-4.928,29.072 14.65,56.654 43.728,61.582l181.146,30.719c0.09,0.024 0.192,0.036 0.3,0.06l345.057,58.523c3.017,0.511 6.033,0.757 8.996,0.757c25.581,-0 48.169,-18.424 52.592,-44.486c4.927,-29.078 -14.65,-56.654 -43.729,-61.581Z" style="fill-rule:nonzero;"/></g></g><g id="g441"><g id="g439"><path id="path437" d="M1151.95,2651.71l-114.438,-84.633c-23.688,-17.522 -57.153,-12.535 -74.688,11.189c-17.534,23.724 -12.535,57.159 11.189,74.7l114.439,84.633c9.548,7.06 20.671,10.468 31.71,10.468c16.357,-0 32.503,-7.494 42.983,-21.657c17.529,-23.718 12.523,-57.159 -11.195,-74.7Z" style="fill-rule:nonzero;"/></g></g><g id="g447"><g id="g445"><path id="path443" d="M1718.34,1815.72l97.841,-448.534c6.285,-28.82 -11.977,-57.273 -40.796,-63.559c-28.844,-6.309 -57.28,11.982 -63.565,40.796l-77.109,353.5l-137.315,-193.416c-17.06,-24.049 -50.411,-29.709 -74.46,-12.625c-24.054,17.077 -29.709,50.416 -12.625,74.459l309.159,435.446c10.407,14.669 26.872,22.492 43.596,22.492c10.69,0 21.489,-3.202 30.869,-9.861c24.054,-17.078 29.709,-50.416 12.625,-74.459l-88.22,-124.239Z" style="fill-rule:nonzero;"/></g></g></g><path id="path110" d="M1252.04,1009.01c-117.131,-24.812 -212.55,-102.655 -260.627,-209.069l476.294,100.93c21.168,60.77 51.699,119.594 89.329,172.757l-304.996,-64.618Zm-681.476,-529.019l861.411,182.531c-2.68,51.969 1.583,104.336 12.72,156.57l-613.513,-129.988c-117.127,-24.812 -212.55,-102.699 -260.618,-209.113Zm-394.732,-314.378l1311.1,277.801c-20.345,42.371 -35.308,87.351 -44.649,134.278l-0.016,0.133c-0.636,3.273 -1.234,6.457 -1.8,9.597l-219.85,-46.573l-759.398,-160.904l-24.666,-5.219c-117.347,-24.856 -212.793,-102.743 -260.719,-209.113l0.001,0Zm1506.58,940.877c-68.014,-68.378 -121.23,-156.835 -149.842,-249.096l-0.141,-0.486c-22.995,-72.668 -30.748,-145.955 -23.136,-217.827l0.279,-3.14c1.163,-12.87 3.281,-27.156 6.488,-43.654c11.093,-55.639 31.261,-108.095 59.983,-155.906l27.165,-45.202l-1536.51,-325.567l15.215,58.78c42.574,164.487 172.496,288.636 339.044,323.887l62.358,13.224c48.501,153.164 173.774,267.584 332.272,301.153l88.577,18.797c48.501,153.12 173.77,267.54 332.276,301.153l535.017,113.358l-89.041,-89.474" style="fill-rule:nonzero;"/><path id="path112" d="M2608.26,1080.25c37.873,-53.514 68.61,-112.726 89.918,-173.897l479.431,-101.595c-48.389,107.116 -144.442,185.472 -262.341,210.447l-307.008,65.045Zm730.637,-387.06l-617.56,130.845c11.215,-52.579 15.507,-105.291 12.804,-157.602l867.101,-183.736c-48.393,107.116 -144.446,185.517 -262.345,210.493Zm397.238,-316.451l-24.834,5.253l-764.401,161.965l-221.298,46.88c-0.565,-3.161 -1.171,-6.366 -1.812,-9.661l-0.023,-0.133c-9.405,-47.237 -24.462,-92.514 -44.941,-135.164l1319.75,-279.633c-48.242,107.072 -144.317,185.472 -262.438,210.493Zm-1343.71,826.654l538.545,-114.106c159.548,-33.835 285.647,-149.009 334.468,-303.139l89.161,-18.921c159.544,-33.791 285.639,-148.965 334.464,-303.139l62.769,-13.312c167.642,-35.483 298.43,-160.451 341.258,-326.023l15.315,-59.167l-1546.62,327.714l27.34,45.5c28.911,48.127 49.217,100.928 60.378,156.934c3.232,16.607 5.36,30.987 6.531,43.942l0.285,3.161c7.662,72.346 -0.142,146.116 -23.288,219.263l-0.147,0.489c-28.796,92.87 -82.363,181.911 -150.826,250.739l-89.629,90.065" style="fill-rule:nonzero;"/></g></g></svg>