<?xml version="1.0" encoding="UTF-8" standalone="no"?>
<!-- Generator: Adobe Illustrator 19.0.0, SVG Export Plug-In . SVG Version: 6.00 Build 0)  -->

<svg
   version="1.1"
   id="Layer_1"
   x="0px"
   y="0px"
   viewBox="0 0 512.00001 512.00002"
   xml:space="preserve"
   width="512"
   height="512"
   xmlns="http://www.w3.org/2000/svg"
   xmlns:svg="http://www.w3.org/2000/svg"><defs
   id="defs482" />








<g
   id="g616"
   transform="translate(-0.00150061)"><g
     id="g399"
     transform="matrix(0.76096786,0,0,0.76096786,61.192587,123.19223)">
	<g
   id="g397">
		<path
   d="M 256.001,0 C 128.437,0 24.655,103.782 24.655,231.346 c 0,64.519 27.02,126.113 74.303,169.847 L 78.095,501.299 c -0.546,2.619 0.117,5.344 1.804,7.42 1.689,2.075 4.221,3.281 6.895,3.281 h 258.084 c 4.909,0 8.887,-3.979 8.887,-8.887 0,-4.908 -3.978,-8.887 -8.887,-8.887 H 97.724 l 18.245,-87.549 h 280.068 l 18.244,87.548 h -39.778 c -4.909,0 -8.887,3.979 -8.887,8.887 0,4.908 3.978,8.887 8.887,8.887 h 50.709 c 2.676,0 5.208,-1.205 6.896,-3.281 1.687,-2.075 2.35,-4.8 1.804,-7.42 L 413.044,401.161 c 14.9,-13.78 27.941,-29.406 38.763,-46.561 2.619,-4.151 1.376,-9.64 -2.775,-12.259 -4.155,-2.619 -9.641,-1.377 -12.26,2.775 -10.199,16.169 -22.536,30.868 -36.655,43.784 H 287.994 v -92.45 c 24.006,-11.845 40.563,-36.572 40.563,-65.102 0,-9.454 -1.793,-18.651 -5.329,-27.338 -1.851,-4.547 -7.035,-6.732 -11.581,-4.882 -4.547,1.851 -6.732,7.036 -4.881,11.582 2.665,6.549 4.017,13.493 4.017,20.638 0,30.208 -24.576,54.783 -54.782,54.783 -30.208,0 -54.783,-24.576 -54.783,-54.783 0,-30.208 24.576,-54.783 54.783,-54.783 12.722,0 24.655,4.23 34.508,12.233 3.812,3.096 9.408,2.513 12.503,-1.295 3.094,-3.81 2.513,-9.408 -1.296,-12.502 -12.87,-10.453 -29.107,-16.211 -45.715,-16.211 -40.009,0 -72.558,32.549 -72.558,72.558 0,40.009 32.551,72.558 72.558,72.558 4.866,0 9.619,-0.489 14.219,-1.408 v 86.405 h -28.437 v -69.778 c 0,-4.908 -3.978,-8.887 -8.887,-8.887 -4.909,0 -8.887,3.979 -8.887,8.887 v 69.778 H 111.859 C 67.697,348.483 42.43,291.283 42.43,231.348 c 0,-117.765 95.808,-213.573 213.573,-213.573 117.763,0 213.57,95.808 213.57,213.571 0,31.159 -6.557,61.191 -19.488,89.256 -2.054,4.458 -0.105,9.737 4.352,11.791 4.46,2.055 9.738,0.104 11.791,-4.352 14.015,-30.415 21.12,-62.949 21.12,-96.695 C 487.346,103.782 383.565,0 256.001,0 Z"
   id="path395" />
	</g>
</g><g
     id="g405"
     transform="matrix(0.76096786,0,0,0.76096786,61.192587,123.19223)">
	<g
   id="g403">
		<path
   d="m 300.342,49.331 c -3.472,-3.471 -9.098,-3.471 -12.569,0 l -22.885,22.885 v -22.98 c 0,-4.908 -3.978,-8.887 -8.887,-8.887 -4.909,0 -8.887,3.979 -8.887,8.887 v 44.429 c 0,0.004 0,0.008 0,0.012 v 44.429 c 0,4.908 3.978,8.887 8.887,8.887 4.909,0 8.887,-3.979 8.887,-8.887 V 97.353 l 35.454,-35.454 c 3.471,-3.471 3.471,-9.098 0,-12.568 z"
   id="path401" />
	</g>
</g><g
     id="g411"
     transform="matrix(0.76096786,0,0,0.76096786,61.192587,123.19223)">
	<g
   id="g409">
		<path
   d="m 402.261,108.515 c -3.156,-3.759 -8.763,-4.247 -12.521,-1.09 l -37.502,31.495 -4.166,-72.215 c -0.281,-4.9 -4.504,-8.65 -9.384,-8.36 -4.901,0.282 -8.645,4.484 -8.361,9.384 l 4.93,85.452 -13.571,11.397 c -3.759,3.156 -4.247,8.762 -1.09,12.521 1.757,2.094 4.274,3.172 6.81,3.172 2.017,0 4.046,-0.683 5.711,-2.082 l 68.054,-57.153 c 3.759,-3.158 4.247,-8.764 1.09,-12.521 z"
   id="path407" />
	</g>
</g><g
     id="g417"
     transform="matrix(0.76096786,0,0,0.76096786,61.192587,123.19223)">
	<g
   id="g415">
		<path
   d="m 193.596,288.103 c -3.303,-3.631 -8.924,-3.897 -12.555,-0.595 l -24.74,22.501 -30.779,-22.761 c -3.944,-2.917 -9.51,-2.086 -12.429,1.862 -2.919,3.947 -2.086,9.512 1.862,12.431 l 27.941,20.663 -27.6,25.102 c -3.63,3.301 -3.896,8.922 -0.595,12.554 1.754,1.928 4.162,2.908 6.578,2.908 2.134,0 4.274,-0.764 5.977,-2.313 L 193,300.658 c 3.631,-3.303 3.897,-8.923 0.596,-12.555 z"
   id="path413" />
	</g>
</g><g
     id="g423"
     transform="matrix(0.76096786,0,0,0.76096786,61.192587,123.19223)">
	<g
   id="g421">
		<path
   d="m 445.999,191.433 c -3.471,-3.471 -9.097,-3.472 -12.569,0 l -51.097,51.097 -32.856,-5.25 c -4.86,-0.777 -9.404,2.529 -10.179,7.374 -0.774,4.847 2.528,9.404 7.374,10.178 l 87.757,14.021 c 0.475,0.076 0.947,0.113 1.413,0.113 4.291,0 8.067,-3.114 8.765,-7.487 0.774,-4.847 -2.528,-9.404 -7.374,-10.178 l -33.226,-5.308 41.991,-41.991 c 3.471,-3.47 3.471,-9.098 0.001,-12.569 z"
   id="path419" />
	</g>
</g><g
     id="g429"
     transform="matrix(0.76096786,0,0,0.76096786,61.192587,123.19223)">
	<g
   id="g427">
		<path
   d="m 399.018,344.436 -66.939,-58.455 c -3.696,-3.228 -9.309,-2.849 -12.541,0.848 -3.229,3.697 -2.848,9.312 0.848,12.541 l 25.787,22.518 -6.77,33.054 c -0.986,4.809 2.115,9.505 6.923,10.49 0.602,0.123 1.202,0.182 1.793,0.182 4.133,0 7.835,-2.898 8.698,-7.106 l 4.747,-23.18 25.762,22.496 c 1.685,1.472 3.769,2.193 5.843,2.193 2.477,0 4.94,-1.03 6.698,-3.042 3.229,-3.695 2.847,-9.31 -0.849,-12.539 z"
   id="path425" />
	</g>
</g><g
     id="g435"
     transform="matrix(0.76096786,0,0,0.76096786,61.192587,123.19223)">
	<g
   id="g433">
		<path
   d="m 165.559,206.995 -51.693,-8.767 -13.07,-53.348 c -1.168,-4.767 -5.979,-7.685 -10.747,-6.517 -4.766,1.168 -7.685,5.979 -6.516,10.747 l 11.241,45.879 -16.833,-2.855 c -4.835,-0.816 -9.427,2.438 -10.248,7.277 -0.82,4.838 2.438,9.428 7.277,10.248 l 30.145,5.112 c 0.015,0.004 0.032,0.006 0.05,0.01 l 57.422,9.739 c 0.502,0.085 1.004,0.126 1.497,0.126 4.257,0 8.016,-3.066 8.752,-7.403 0.82,-4.839 -2.438,-9.428 -7.277,-10.248 z"
   id="path431" />
	</g>
</g><g
     id="g441"
     transform="matrix(0.76096786,0,0,0.76096786,61.192587,123.19223)">
	<g
   id="g439">
		<path
   d="M 100.336,268.621 81.292,254.537 c -3.942,-2.916 -9.511,-2.086 -12.429,1.862 -2.918,3.948 -2.086,9.512 1.862,12.431 l 19.044,14.084 c 1.589,1.175 3.44,1.742 5.277,1.742 2.722,0 5.409,-1.247 7.153,-3.604 2.917,-3.947 2.084,-9.512 -1.863,-12.431 z"
   id="path437" />
	</g>
</g><g
     id="g447"
     transform="matrix(0.76096786,0,0,0.76096786,61.192587,123.19223)">
	<g
   id="g445">
		<path
   d="m 194.59,129.501 16.282,-74.642 c 1.046,-4.796 -1.993,-9.531 -6.789,-10.577 -4.8,-1.05 -9.532,1.994 -10.578,6.789 l -12.832,58.827 -22.851,-32.187 c -2.839,-4.002 -8.389,-4.944 -12.391,-2.101 -4.003,2.842 -4.944,8.39 -2.101,12.391 l 51.448,72.464 c 1.732,2.441 4.472,3.743 7.255,3.743 1.779,0 3.576,-0.533 5.137,-1.641 4.003,-2.842 4.944,-8.39 2.101,-12.391 z"
   id="path443" />
	</g>
</g></g>
<g
   id="g449">
</g>
<g
   id="g451">
</g>
<g
   id="g453">
</g>
<g
   id="g455">
</g>
<g
   id="g457">
</g>
<g
   id="g459">
</g>
<g
   id="g461">
</g>
<g
   id="g463">
</g>
<g
   id="g465">
</g>
<g
   id="g467">
</g>
<g
   id="g469">
</g>
<g
   id="g471">
</g>
<g
   id="g473">
</g>
<g
   id="g475">
</g>
<g
   id="g477">
</g>
<path
   d="m 150.21838,119.58004 c -14.83285,-3.14211 -26.91625,-12.99969 -33.00443,-26.475455 l 60.31553,12.781255 c 2.68059,7.69564 6.54689,15.14483 11.31214,21.8771 z M 63.919723,52.587681 173.00452,75.702586 c -0.33942,6.581059 0.20051,13.212524 1.61081,19.82719 L 96.923022,79.06873 C 82.090724,75.926628 70.00678,66.063444 63.919723,52.587681 Z M 13.932821,12.776489 179.96363,47.955737 c -2.57641,5.365662 -4.4712,11.061777 -5.65411,17.00433 l -0.002,0.01681 c -0.0806,0.414466 -0.15627,0.81773 -0.22796,1.215394 L 146.23879,60.294519 50.072481,39.918447 v 0 L 46.94886,39.25754 C 32.088558,36.109836 20.001816,26.246652 13.932679,12.776489 Z M 204.71904,131.92441 c -8.61306,-8.65899 -15.35205,-19.86079 -18.97528,-31.54426 l -0.0179,-0.0616 c -2.91189,-9.202281 -3.89373,-18.482968 -2.92981,-27.58443 l 0.0353,-0.397667 c 0.14731,-1.629856 0.41559,-3.438947 0.82165,-5.528082 1.40471,-7.045932 3.95871,-13.688598 7.59594,-19.74317 L 194.68899,41.341066 0.11263144,0.11284409 2.0393463,7.556439 C 7.4307712,28.386185 23.883411,44.10791 44.974156,48.571826 l 7.89671,1.674669 c 6.141946,19.395927 22.005933,33.885448 42.077317,38.136529 l 11.216917,2.380384 c 6.14195,19.390312 22.00538,33.879842 42.07787,38.136512 l 67.75184,14.35512 -11.27573,-11.33063"
   style="fill:#000000;fill-opacity:1;fill-rule:nonzero;stroke:none;stroke-width:0.0560088"
   id="path110" /><path
   d="m 321.96314,128.60162 c 4.79611,-6.77668 8.68847,-14.275 11.38675,-22.02139 l 60.71275,-12.865557 c -6.12776,13.564637 -18.2914,23.487247 -33.22153,26.650067 z m 92.52427,-49.015372 -78.20472,16.569615 c 1.42017,-6.658287 1.96366,-13.3335 1.62144,-19.957958 L 447.7095,52.930549 c -6.12832,13.564638 -18.29197,23.492871 -33.22209,26.655699 z m 50.30419,-40.073756 -3.14479,0.665266 v 0 L 364.8468,60.688215 336.82279,66.62486 c -0.0716,-0.400285 -0.14827,-0.806211 -0.22945,-1.223411 l -0.003,-0.01694 c -1.19095,-5.981746 -3.09766,-11.715428 -5.69107,-17.116477 L 498.02552,12.85679 c -6.10916,13.559003 -18.2756,23.487237 -33.23392,26.655702 z M 294.6309,144.19588 362.82958,129.7461 c 20.20432,-4.28476 36.17294,-18.86985 42.35539,-38.388037 l 11.2909,-2.396079 c 20.20376,-4.279122 36.17182,-18.864213 42.35484,-38.388052 l 7.94878,-1.685713 c 21.22928,-4.493358 37.79157,-20.318772 43.21518,-41.2858957 l 1.9394,-7.49268766 -195.85683,41.50013336 3.46221,5.76187 c 3.6612,6.094505 6.23262,12.780982 7.64602,19.873384 0.40931,2.102912 0.6788,3.923935 0.82707,5.564549 l 0.0361,0.400288 c 0.97028,9.161483 -0.018,18.503381 -2.94914,27.76635 l -0.0186,0.062 c -3.64656,11.76051 -10.43002,23.03619 -19.09988,31.75229 l -11.3501,11.40535"
   style="fill:#000000;fill-opacity:1;fill-rule:nonzero;stroke:none;stroke-width:0.0563783"
   id="path112" /></svg>
