<?xml version="1.0" encoding="UTF-8" standalone="no"?><!DOCTYPE svg PUBLIC "-//W3C//DTD SVG 1.1//EN" "http://www.w3.org/Graphics/SVG/1.1/DTD/svg11.dtd"><svg width="100%" height="100%" viewBox="0 0 4171 4171" version="1.1" xmlns="http://www.w3.org/2000/svg" xmlns:xlink="http://www.w3.org/1999/xlink" xml:space="preserve" xmlns:serif="http://www.serif.com/" style="fill-rule:evenodd;clip-rule:evenodd;stroke-linejoin:round;stroke-miterlimit:2;"><rect id="python_member_function" x="4.034" y="3.584" width="4166.67" height="4166.67" style="fill:none;"/><clipPath id="_clip1"><rect x="4.034" y="3.584" width="4166.67" height="4166.67"/></clipPath><g clip-path="url(#_clip1)"><rect x="4.034" y="3.584" width="4166.67" height="4166.67" style="fill:none;"/><clipPath id="_clip2"><rect id="python_member_function.svg" x="66.496" y="66.047" width="4041.74" height="4041.74"/></clipPath><g clip-path="url(#_clip2)"><g id="Layer_1-2"><path d="M1748.54,1319.18c84.974,281.75 260.647,525.117 493.548,697.071l-424.232,-0c-399.748,-0 -725.783,342.406 -725.783,762.639l0,283.09l-497.566,-0c-0,-0 -497.649,80.377 -497.649,-871.4c-0,-951.777 497.649,-871.4 497.649,-871.4l1154.03,0Zm234.424,-1218.18c-107.161,134.909 -188.905,290.396 -238.09,459.415c-23.746,-65.745 -84.367,-112.719 -155.152,-112.719c-91.401,0 -165.773,78.239 -165.773,174.247c0,96.009 74.372,174.247 165.773,174.247c44.653,0 85.262,-18.692 115.12,-48.999c-8.537,60.942 -12.949,123.176 -12.949,186.418c-0,71.854 5.695,142.406 16.665,211.24l-450.547,0l0,-697.153c0,0 1.805,-318.676 724.953,-346.696Z" style="fill-rule:nonzero;"/><path d="M2529.59,2179.13c163.534,68.14 343.236,105.82 531.786,105.82c400.013,0 760.199,-169.594 1010.68,-439.826c3.795,52.97 5.823,109.911 5.823,171.123c-0,959.346 -497.649,871.482 -497.649,871.482l-1658.72,-0l-0,174.247l995.215,-0l0,697.235c0,-0 -10.366,348.576 -829.36,348.576c-818.994,0 -829.36,-348.576 -829.36,-348.576l0,-980.325c0,-324.142 251.334,-588.31 559.845,-588.31l539.03,0c59.483,0 117.33,-3.723 172.712,-11.446Zm55.34,1231.51c-91.402,-0 -165.856,78.238 -165.856,174.247c0,96.008 74.537,174.329 165.856,174.329c91.319,-0 165.938,-78.321 165.938,-174.329c-0,-96.009 -74.619,-174.247 -165.938,-174.247Z" style="fill-rule:nonzero;"/><g><path d="M3881.93,575.545l-274.995,-158.78c0.12,1.315 0.12,2.75 0.12,4.065c-0,40.054 -19.37,71.379 -54.282,89.792l243.072,140.367l-360.244,208.039l-101.27,58.347l-123.03,71.021c-0.598,38.379 -1.435,81.302 -2.511,126.736l641.217,-370.167l-0,871.256c-0,15.902 -8.609,30.728 -22.359,38.738l-754.681,435.688l-0,-191.301c-31.087,45.314 -67.553,83.335 -108.324,113.107l-0,78.313l-66.836,-38.618c-47.347,22.238 -98.998,34.792 -153.639,36.347l198.116,114.421c23.674,13.631 50.097,20.446 76.521,20.446c26.423,-0 52.847,-6.815 76.52,-20.446l786.605,-454.1c47.108,-27.26 76.401,-77.955 76.401,-132.595l-0,-908.081c-0,-54.64 -29.293,-105.335 -76.401,-132.595Z" style="fill-rule:nonzero;"/><path d="M2187.61,1616.22l-0,-871.256l670.868,387.384c1.195,-40.651 2.391,-81.9 3.587,-123.269l-620.174,-358.091l754.562,-435.688c13.87,-8.01 30.848,-8.01 44.717,0l52.488,30.25c38.739,-24.989 81.781,-42.206 128.291,-51.054l-126.617,-73.053c-47.227,-27.26 -105.813,-27.26 -153.041,0l-786.605,454.101c-47.107,27.26 -76.4,77.955 -76.4,132.595l-0,908.081c-0,54.64 29.293,105.335 76.4,132.595l326.407,188.431c-2.391,-11.119 -3.586,-22.716 -3.586,-34.673c-0,-29.891 13.151,-56.194 34.673,-72.455l-303.332,-175.16c-13.63,-8.01 -22.238,-22.836 -22.238,-38.738Z" style="fill-rule:nonzero;"/></g><path d="M2539.72,1855.47c-15.663,8.968 -25.348,26.304 -25.348,47.108c0,89.912 87.042,150.41 216.649,150.41c195.126,0 345.417,-143.356 401.97,-383.558c34.554,-144.551 42.206,-622.803 43.641,-765.92l0.239,-17.695l17.695,-0c95.053,-0 158.421,-3.826 193.334,-11.718c24.39,-37.542 41.01,-107.726 42.444,-180.181c-61.096,12.435 -133.432,18.054 -233.028,18.054l-18.771,-0l0.837,-18.771c11.239,-244.507 128.171,-270.93 177.909,-270.93c53.086,-0 117.172,26.065 159.617,64.325c26.543,-7.891 54.162,-25.706 54.162,-65.76c0,-93.259 -112.748,-197.279 -274.517,-197.279c-215.572,0 -365.145,181.855 -390.492,474.785l-1.435,16.38l-16.5,-0c-53.086,-0 -127.334,-5.38 -154.595,-7.533c-10.282,14.587 -15.065,30.728 -15.065,50.336c0,38.5 82.26,115.14 166.432,125.661l16.141,2.033l-0.717,28.934c-8.131,312.777 -16.62,636.195 -41.369,781.703c-29.891,190.583 -131.041,219.159 -188.79,219.159c-57.749,-0 -100.313,-20.445 -130.563,-59.543l0.12,0Z" style="fill-rule:nonzero;"/></g></g></g></svg>