<?xml version="1.0" encoding="UTF-8" standalone="no"?><!DOCTYPE svg PUBLIC "-//W3C//DTD SVG 1.1//EN" "http://www.w3.org/Graphics/SVG/1.1/DTD/svg11.dtd"><svg width="100%" height="100%" viewBox="0 0 4167 4171" version="1.1" xmlns="http://www.w3.org/2000/svg" xmlns:xlink="http://www.w3.org/1999/xlink" xml:space="preserve" xmlns:serif="http://www.serif.com/" style="fill-rule:evenodd;clip-rule:evenodd;stroke-linejoin:round;stroke-miterlimit:2;"><rect id="python" x="0" y="3.584" width="4166.67" height="4166.67" style="fill:none;"/><clipPath id="_clip1"><rect x="0" y="3.584" width="4166.67" height="4166.67"/></clipPath><g clip-path="url(#_clip1)"><rect x="0" y="3.584" width="4166.67" height="4166.67" style="fill:none;"/><g id="Layer_1-2"><path d="M2083.97,83.928c-840.129,-0 -842.69,348.346 -842.69,348.346l-0,696.692l1010.46,-0l0,174.173l-1684.1,-0c-0,-0 -505.87,-80.683 -505.87,870.865c-0,951.548 505.87,870.865 505.87,870.865l505.87,0l0,-283.031c0,-420.064 330.417,-762.007 737.674,-762.007l548.133,-0c313.767,-0 568.623,-89.648 568.623,-413.661l0,-1153.9c0,-0 -2.561,-348.346 -842.69,-348.346l-1.28,-0Zm-505.87,348.346c92.209,-0 169.05,78.122 169.05,174.173c-0,96.051 -75.561,174.173 -169.05,174.173c-93.49,-0 -169.051,-78.122 -169.051,-174.173c0,-96.051 75.561,-174.173 169.051,-174.173Zm1516.33,696.692l0,457.204c0,420.064 -330.416,587.834 -737.674,587.834l-548.132,-0c-313.768,-0 -568.624,263.821 -568.624,587.834l-0,979.723c-0,0 10.245,348.346 842.69,348.346c832.445,0 842.69,-348.346 842.69,-348.346l0,-696.692l-1010.46,0l0,-174.173l1684.1,0c-0,0 505.87,88.367 505.87,-870.865c-0,-959.232 -505.87,-870.865 -505.87,-870.865l-505.87,-0l1.28,-0Zm-505.87,2264.25c92.209,0 169.05,78.122 169.05,174.173c0,96.051 -75.56,174.173 -169.05,174.173c-93.49,0 -169.05,-78.122 -169.05,-174.173c-0,-96.051 75.56,-174.173 169.05,-174.173Z" style="fill-rule:nonzero;"/></g></g></svg>