<?xml version="1.0" encoding="UTF-8" standalone="no"?>
<!DOCTYPE svg PUBLIC "-//W3C//DTD SVG 1.1//EN" "http://www.w3.org/Graphics/SVG/1.1/DTD/svg11.dtd">
<svg width="100%" height="100%" viewBox="0 0 4171 4171" version="1.1" xmlns="http://www.w3.org/2000/svg" xmlns:xlink="http://www.w3.org/1999/xlink" xml:space="preserve" xmlns:serif="http://www.serif.com/" style="fill-rule:evenodd;clip-rule:evenodd;stroke-linejoin:round;stroke-miterlimit:2;">
    <rect id="python_member_function" x="4.034" y="3.584" width="4166.67" height="4166.67" style="fill:none;"/>
    <g>
        <rect x="4.034" y="3.584" width="4166.67" height="4166.67" style="fill:none;"/>
        <g>
            <clipPath id="_clip1">
                <rect x="66.496" y="66.047" width="4041.74" height="4041.74"/>
            </clipPath>
            <g clip-path="url(#_clip1)">
                <g id="Layer_1-2">
                    <path d="M1748.54,1319.18C1833.51,1600.93 2009.19,1844.3 2242.09,2016.25L1817.86,2016.25C1418.11,2016.25 1092.07,2358.66 1092.07,2778.89L1092.07,3061.98L594.507,3061.98C594.507,3061.98 96.858,3142.36 96.858,2190.58C96.858,1238.8 594.507,1319.18 594.507,1319.18L1748.54,1319.18ZM1982.96,101C1875.8,235.909 1794.06,391.396 1744.87,560.415C1721.13,494.67 1660.51,447.696 1589.72,447.696C1498.32,447.696 1423.95,525.935 1423.95,621.943C1423.95,717.952 1498.32,796.19 1589.72,796.19C1634.38,796.19 1674.98,777.498 1704.84,747.191C1696.31,808.133 1691.89,870.367 1691.89,933.609C1691.89,1005.46 1697.59,1076.02 1708.56,1144.85L1258.01,1144.85L1258.01,447.696C1258.01,447.696 1259.82,129.02 1982.96,101Z" style="fill-rule:nonzero;"/>
                    <path d="M2529.59,2179.13C2693.12,2247.27 2872.83,2284.95 3061.38,2284.95C3461.39,2284.95 3821.58,2115.36 4072.06,1845.12C4075.85,1898.09 4077.88,1955.04 4077.88,2016.25C4077.88,2975.59 3580.23,2887.73 3580.23,2887.73L1921.51,2887.73L1921.51,3061.98L2916.72,3061.98L2916.72,3759.21C2916.72,3759.21 2906.36,4107.79 2087.37,4107.79C1268.37,4107.79 1258.01,3759.21 1258.01,3759.21L1258.01,2778.89C1258.01,2454.74 1509.34,2190.58 1817.85,2190.58L2356.88,2190.58C2416.36,2190.58 2474.21,2186.85 2529.59,2179.13L2529.59,2179.13ZM2584.93,3410.64C2493.53,3410.64 2419.07,3488.88 2419.07,3584.89C2419.07,3680.89 2493.61,3759.22 2584.93,3759.22C2676.25,3759.22 2750.87,3680.89 2750.87,3584.89C2750.87,3488.88 2676.25,3410.64 2584.93,3410.64Z" style="fill-rule:nonzero;"/>
                    <path d="M2539.72,1855.47C2524.06,1864.44 2514.37,1881.77 2514.37,1902.58C2514.37,1992.49 2601.41,2052.99 2731.02,2052.99C2926.15,2052.99 3076.44,1909.63 3132.99,1669.43C3167.55,1524.88 3175.2,1046.63 3176.63,903.51L3176.87,885.815L3194.57,885.815C3289.62,885.815 3352.99,881.989 3387.9,874.097C3412.29,836.555 3428.91,766.371 3430.34,693.916C3369.25,706.351 3296.91,711.97 3197.32,711.97L3178.55,711.97L3179.38,693.199C3190.62,448.692 3307.55,422.269 3357.29,422.269C3410.38,422.269 3474.46,448.334 3516.91,486.594C3543.45,478.703 3571.07,460.888 3571.07,420.834C3571.07,327.575 3458.32,223.555 3296.55,223.555C3080.98,223.555 2931.41,405.41 2906.06,698.34L2904.63,714.72L2888.13,714.72C2835.04,714.72 2760.79,709.34 2733.53,707.187C2723.25,721.774 2718.47,737.915 2718.47,757.523C2718.47,796.023 2800.73,872.663 2884.9,883.184L2901.04,885.217L2900.32,914.151C2892.19,1226.93 2883.7,1550.35 2858.95,1695.85C2829.06,1886.44 2727.91,1915.01 2670.16,1915.01C2612.41,1915.01 2569.85,1894.57 2539.6,1855.47L2539.72,1855.47Z" style="fill-rule:nonzero;"/>
                </g>
            </g>
        </g>
    </g>
</svg>
