<?xml version="1.0" encoding="UTF-8" standalone="no"?><!DOCTYPE svg PUBLIC "-//W3C//DTD SVG 1.1//EN" "http://www.w3.org/Graphics/SVG/1.1/DTD/svg11.dtd"><svg width="100%" height="100%" viewBox="0 0 4171 4171" version="1.1" xmlns="http://www.w3.org/2000/svg" xmlns:xlink="http://www.w3.org/1999/xlink" xml:space="preserve" xmlns:serif="http://www.serif.com/" style="fill-rule:evenodd;clip-rule:evenodd;stroke-linejoin:round;stroke-miterlimit:2;"><rect id="python_object" x="2.203" y="3.584" width="4166.67" height="4166.67" style="fill:none;"/><clipPath id="_clip1"><rect x="2.203" y="3.584" width="4166.67" height="4166.67"/></clipPath><g clip-path="url(#_clip1)"><rect x="2.203" y="3.584" width="4166.67" height="4166.67" style="fill:none;"/><clipPath id="_clip2"><rect id="python_object.svg" x="94.386" y="65.358" width="3982.3" height="4043.12"/></clipPath><g clip-path="url(#_clip2)"><g id="Layer_1-2"><g><path d="M1745.53,1318.92c84.241,281.03 256.522,524.162 484.753,697.308l-414.396,-0c-399.884,-0 -725.947,342.523 -725.947,762.817l-0,283.268l-497.736,0c-0,0 -497.819,80.405 -497.819,-871.696c0,-952.102 497.819,-871.697 497.819,-871.697l1153.33,-0Zm766.725,862.317c166.59,72.301 350.349,112.391 543.397,112.391c402.531,-0 764.674,-174.302 1015,-451.483c3.93,53.835 6.03,111.785 6.03,174.165c0,959.591 -497.818,871.779 -497.818,871.779l-1659.29,0l0,174.307l995.555,-0l0,697.39c0,-0 -10.287,348.777 -829.56,348.777c-819.273,0 -829.643,-348.777 -829.643,-348.777l0,-980.659c0,-324.253 251.502,-588.51 560.036,-588.51l539.214,-0c53.906,-0 106.468,-3.059 157.071,-9.38Zm-546.799,-2080.25c-101.203,133.446 -178.483,286.012 -225.428,451.286c-25.548,-61.803 -84.212,-105.212 -152.27,-105.212c-91.432,0 -165.912,78.348 -165.912,174.389c0,96.041 74.48,174.307 165.912,174.307c42.955,-0 82.169,-17.275 111.675,-45.551c-7.415,57.615 -11.238,116.348 -11.238,175.967c-0,74.314 5.94,147.25 17.372,218.361l-449.633,0l0,-697.39c0,-0 1.705,-314.166 709.522,-346.157Zm617.857,3310.11c-91.433,-0 -165.994,78.182 -165.994,174.306c-0,96.124 74.644,174.389 165.994,174.389c91.35,-0 165.994,-78.347 165.994,-174.389c0,-96.041 -74.644,-174.306 -165.994,-174.306Z" style="fill-rule:nonzero;"/><path d="M3852.52,559.248l-759.509,-438.524c-45.608,-26.326 -102.184,-26.326 -147.792,-0l-759.624,438.524c-45.492,26.326 -73.896,75.282 -73.896,128.048l-0,877.049c-0,52.651 28.288,101.722 73.896,128.047l759.624,438.525c22.862,13.163 48.379,19.744 73.896,19.744c25.517,0 51.15,-6.581 73.896,-19.744l759.624,-438.525c45.492,-26.325 73.896,-75.281 73.896,-128.047l-0,-877.049c-0,-52.651 -28.288,-101.722 -73.896,-128.048l-0.115,0Zm-885.709,1463.25l-728.912,-420.859c-13.278,-7.62 -21.591,-21.937 -21.591,-37.294l-0,-841.487l750.387,433.213l0,866.427l0.116,0Zm-697.968,-1390.39l728.68,-420.859c13.394,-7.621 29.79,-7.621 43.183,-0l728.796,420.859l-750.387,433.213l-750.388,-433.213l0.116,-0Zm1552.96,932.125c-0,15.356 -8.314,29.673 -21.592,37.294l-728.796,420.859l0,-866.427l750.388,-433.213l-0,841.487Z" style="fill-rule:nonzero;"/></g></g></g></g></svg>