<?xml version="1.0" encoding="UTF-8"?>
<svg id="Layer_2" data-name="Layer 2" xmlns="http://www.w3.org/2000/svg" viewBox="0 0 32 32">
  <defs>
    <style>
      .cls-1 {
        fill: none;
      }
    </style>
  </defs>
  <g id="Layer_1-2" data-name="Layer 1">
    <g>
      <path d="m16,.35c-6.56,0-6.58,2.72-6.58,2.72v5.44h7.89v1.36H4.16S.21,9.24.21,16.67s3.95,6.8,3.95,6.8h3.95v-2.21c0-3.28,2.58-5.95,5.76-5.95h4.28c2.45,0,4.44-.7,4.44-3.23V3.07s-.02-2.72-6.58-2.72Zm-3.95,2.72c.72,0,1.32.61,1.32,1.36s-.59,1.36-1.32,1.36-1.32-.61-1.32-1.36.59-1.36,1.32-1.36Zm11.84,5.44v3.57c0,3.28-2.58,4.59-5.76,4.59h-4.28c-2.45,0-4.44,2.06-4.44,4.59v7.65s.08,2.72,6.58,2.72,6.58-2.72,6.58-2.72v-5.44h-7.89v-1.36h13.15s3.95.69,3.95-6.8-3.95-6.8-3.95-6.8h-3.95Zm-3.95,17.68c.72,0,1.32.61,1.32,1.36s-.59,1.36-1.32,1.36-1.32-.61-1.32-1.36.59-1.36,1.32-1.36Z"/>
      <rect class="cls-1" width="32" height="32"/>
    </g>
  </g>
</svg>