<?xml version="1.0" encoding="UTF-8"?>
<svg id="Layer_2" data-name="Layer 2" xmlns="http://www.w3.org/2000/svg" viewBox="0 0 483.89 491.28">
  <g id="Layer_1-2" data-name="Layer 1">
    <g>
      <path d="m305.33,88.75c0-24.58,8.79-47.11,23.4-64.63-13.04-10.22-38.21-20.11-86.78-20.11-100.58,0-100.81,42.38-100.81,42.38v84.74h120.97v21.19H60.49S0,142.55,0,258.24s60.49,105.92,60.49,105.92h60.48v-34.42c0-51.07,39.62-92.69,88.21-92.69h65.52c37.49,0,68.05-10.92,68.05-50.32v-19.52c-22.84-18.51-37.43-46.78-37.43-78.47Zm-123.87,0c-11.11,0-20.16-9.51-20.16-21.18s9.05-21.19,20.16-21.19,20.16,9.52,20.16,21.19-9.05,21.18-20.16,21.18Zm290.58,76.6c-17.67,15.18-40.64,24.35-65.76,24.35-15.52,0-30.22-3.5-43.37-9.77v6.8c0,51.06-39.61,71.51-88.2,71.51h-65.52c-37.49,0-68.05,32.11-68.05,71.51v119.16s1.26,42.38,100.81,42.38,100.8-42.38,100.8-42.38v-84.74h-120.97v-21.18h201.62s60.49,10.67,60.49-105.93c0-33.11-4.87-55.95-11.86-71.7Zm-169.61,241.19c11.1,0,20.17,9.51,20.17,21.18s-9.07,21.19-20.17,21.19-20.17-9.51-20.17-21.19,9.06-21.18,20.17-21.18Z"/>
      <path d="m477.08,39.69L411.3,1.71c-3.95-2.28-8.85-2.28-12.8,0l-65.79,37.98c-3.94,2.28-6.4,6.52-6.4,11.09v75.96c0,4.56,2.45,8.81,6.4,11.09l65.79,37.98c1.98,1.14,4.19,1.71,6.4,1.71s4.43-.57,6.4-1.71l65.79-37.98c3.94-2.28,6.4-6.52,6.4-11.09V50.78c0-4.56-2.45-8.81-6.4-11.09Zm-76.71,126.73l-63.13-36.45c-1.15-.66-1.87-1.9-1.87-3.23V53.86l64.99,37.52v75.04Zm-60.45-120.42l63.11-36.45c1.16-.66,2.58-.66,3.74,0l63.12,36.45-64.99,37.52-64.99-37.52Zm134.5,80.73c0,1.33-.72,2.57-1.87,3.23l-63.12,36.45v-75.04l64.99-37.52v72.88Z"/>
    </g>
  </g>
</svg>