<?xml version="1.0" encoding="UTF-8"?>
<svg id="Layer_2" data-name="Layer 2" xmlns="http://www.w3.org/2000/svg" viewBox="0 0 32 32">
  <defs>
    <style>
      .cls-1 {
        fill: none;
      }
    </style>
  </defs>
  <g id="Layer_2-2" data-name="Layer 2">
    <g>
      <rect class="cls-1" width="32" height="32"/>
      <g id="Layer_1-2" data-name="Layer_1">
        <path d="m18.46,23.52h-5.29c-.01-.76-.02-1.22-.02-1.39,0-1.71.28-3.12.85-4.23.57-1.11,1.71-2.35,3.4-3.74,1.7-1.38,2.72-2.29,3.04-2.72.52-.67.77-1.42.77-2.24,0-1.13-.45-2.1-1.36-2.92-.91-.81-2.12-1.21-3.66-1.21s-2.72.42-3.72,1.27c-.99.84-1.68,2.13-2.05,3.86l-5.34-.67c.15-2.48,1.2-4.58,3.16-6.31,1.96-1.73,4.52-2.59,7.71-2.59,3.34,0,6,.88,7.98,2.63,1.97,1.75,2.97,3.78,2.97,6.11,0,1.28-.37,2.5-1.09,3.65-.73,1.15-2.28,2.71-4.66,4.69-1.23,1.03-2,1.85-2.29,2.47s-.43,1.73-.4,3.34Zm-5.29,7.84v-5.83h5.83v5.83h-5.83Z"/>
      </g>
    </g>
  </g>
</svg>