<?xml version="1.0" encoding="UTF-8" standalone="no"?><!DOCTYPE svg PUBLIC "-//W3C//DTD SVG 1.1//EN" "http://www.w3.org/Graphics/SVG/1.1/DTD/svg11.dtd"><svg width="100%" height="100%" viewBox="0 0 4171 4171" version="1.1" xmlns="http://www.w3.org/2000/svg" xmlns:xlink="http://www.w3.org/1999/xlink" xml:space="preserve" xmlns:serif="http://www.serif.com/" style="fill-rule:evenodd;clip-rule:evenodd;stroke-linejoin:round;stroke-miterlimit:2;"><rect id="question_mark" x="2.203" y="3.584" width="4166.67" height="4166.67" style="fill:none;"/><clipPath id="_clip1"><rect x="2.203" y="3.584" width="4166.67" height="4166.67"/></clipPath><g clip-path="url(#_clip1)"><rect x="2.203" y="3.584" width="4166.67" height="4166.67" style="fill:none;"/><g id="Layer_2-2"><g id="Layer_1-2"><path d="M2410.51,3076.97l-696,0c-1.316,-99.992 -2.632,-160.514 -2.632,-182.881c0,-224.983 36.84,-410.496 111.834,-556.537c74.995,-146.042 224.983,-309.188 447.335,-492.069c223.668,-181.565 357.868,-301.293 399.97,-357.868c68.416,-88.151 101.308,-186.828 101.308,-294.715c0,-148.673 -59.206,-276.295 -178.934,-384.182c-119.727,-106.571 -278.926,-159.198 -481.543,-159.198c-202.616,-0 -357.868,55.259 -489.437,167.093c-130.253,110.518 -221.036,280.242 -269.716,507.856l-702.579,-88.151c19.735,-326.291 157.882,-602.587 415.758,-830.201c257.875,-227.615 594.692,-340.764 1014.4,-340.764c439.441,-0 789.415,115.781 1049.92,346.027c259.191,230.246 390.76,497.331 390.76,803.887c-0,168.408 -48.681,328.923 -143.411,480.227c-96.045,151.305 -299.977,356.553 -613.112,617.06c-161.83,135.516 -263.138,243.402 -301.293,324.975c-38.155,81.573 -56.575,227.615 -52.628,439.441Zm-696,1031.5l-0,-767.048l767.048,0l-0,767.048l-767.048,0Z" style="fill-rule:nonzero;"/></g></g></g></svg>