<?xml version="1.0" encoding="UTF-8" standalone="no"?><!DOCTYPE svg PUBLIC "-//W3C//DTD SVG 1.1//EN" "http://www.w3.org/Graphics/SVG/1.1/DTD/svg11.dtd"><svg width="100%" height="100%" viewBox="0 0 4171 4171" version="1.1" xmlns="http://www.w3.org/2000/svg" xmlns:xlink="http://www.w3.org/1999/xlink" xml:space="preserve" xmlns:serif="http://www.serif.com/" style="fill-rule:evenodd;clip-rule:evenodd;stroke-linejoin:round;stroke-miterlimit:2;"><rect id="s3_bucket" x="4.026" y="3.584" width="4166.67" height="4166.67" style="fill:none;"/><clipPath id="_clip1"><rect x="4.026" y="3.584" width="4166.67" height="4166.67"/></clipPath><g clip-path="url(#_clip1)"><rect x="4.026" y="3.584" width="4166.67" height="4166.67" style="fill:none;"/><clipPath id="_clip2"><rect id="s3_bucket.svg" x="666.257" y="66.047" width="2842.2" height="4041.74"/></clipPath><g clip-path="url(#_clip2)"><g id="g16"></g><g id="g231"></g><g id="NGAST_logo"></g><g id="g440"><g id="g450"><g id="g384"><path id="path382" d="M2085.16,1045.49c-749.802,-0 -1360.21,211.294 -1360.21,466.609l319.142,2236.2c0,197.348 466.609,359.494 1041.8,359.494c575.19,0 1041.8,-161.405 1041.8,-359.494l314.007,-2236.2c3.669,-259.717 -606.731,-466.609 -1356.54,-466.609Zm0,794.555c-395.444,0 -749.802,-58.693 -1001.45,-152.601l309.605,2200.25c-49.155,-13.214 -94.642,-31.555 -134.994,-49.156l-314.007,-2213.46c-44.753,-22.743 -85.104,-49.155 -116.652,-76.3c206.893,-165.808 691.109,-287.596 1252.36,-287.596c561.251,0 1046.2,116.652 1252.36,287.596c-201.024,170.209 -681.572,291.263 -1247.23,291.263Zm1423.3,-534.105c-22.75,-31.548 -49.155,-63.095 -80.702,-85.105c-58.693,-49.155 -129.858,-89.507 -206.893,-121.054c-143.798,-462.941 -570.055,-795.289 -1082.15,-795.289l-102.712,-0c-512.096,-0 -938.353,332.348 -1082.15,794.555c-80.703,35.95 -148.2,71.899 -206.893,121.054c-31.547,27.146 -58.693,53.558 -80.702,85.105c63.095,-696.245 646.355,-1239.15 1360.21,-1239.15l121.054,-0c710.185,0.733 1293.45,544.377 1360.94,1239.89Z" style="fill-rule:nonzero;"/></g><g id="text444"><text x="1198px" y="3371.49px" style="font-family:'ArialMT', 'Arial';font-size:1515.84px;fill:#fff;">S3</text></g></g></g></g></g></svg>