<?xml version="1.0" encoding="UTF-8" standalone="no"?><!DOCTYPE svg PUBLIC "-//W3C//DTD SVG 1.1//EN" "http://www.w3.org/Graphics/SVG/1.1/DTD/svg11.dtd"><svg width="100%" height="100%" viewBox="0 0 4171 4171" version="1.1" xmlns="http://www.w3.org/2000/svg" xmlns:xlink="http://www.w3.org/1999/xlink" xml:space="preserve" xmlns:serif="http://www.serif.com/" style="fill-rule:evenodd;clip-rule:evenodd;stroke-linejoin:round;stroke-miterlimit:2;"><rect id="scatter" x="4.026" y="0.845" width="4166.67" height="4166.67" style="fill:none;"/><clipPath id="_clip1"><rect x="4.026" y="0.845" width="4166.67" height="4166.67"/></clipPath><g clip-path="url(#_clip1)"><rect x="4.026" y="0.845" width="4166.67" height="4166.67" style="fill:none;"/><clipPath id="_clip2"><rect id="scatter.svg" x="84.282" y="181.867" width="4002.17" height="3804.62"/></clipPath><g clip-path="url(#_clip2)"><g id="Layer_1-2"><path d="M3568.71,1930.87l-0,306.613l-2027.59,-0c0.876,-4.819 1.752,-9.637 2.628,-14.455c7.447,-45.116 11.389,-91.108 11.389,-138.414c-0,-47.306 -3.942,-94.174 -11.827,-139.289c-0.438,-4.819 -1.314,-9.637 -2.19,-14.455l2027.59,0Z" style="fill-rule:nonzero;"/><path d="M3568.71,3394.29l-0,306.612c-630.746,0 -950.061,-420.935 -1231.27,-792.374c-234.778,-309.241 -441.96,-582.564 -799.383,-653.085c0.876,-6.132 2.19,-11.826 3.066,-17.958c0.876,-4.819 1.752,-9.637 2.628,-14.455c7.447,-45.116 11.389,-91.108 11.389,-138.414c-0,-47.306 -3.942,-94.174 -11.827,-139.289c152.431,22.339 284.274,72.273 400.787,138.851c77.091,44.678 147.612,96.364 212.876,153.307c165.133,144.107 298.29,319.753 424.44,485.761c273.323,360.051 508.976,671.044 987.292,671.044Z" style="fill-rule:nonzero;"/><path d="M3568.71,467.455l-0,306.612c-478.316,-0 -713.969,310.993 -987.292,671.043c-125.712,166.009 -259.307,341.654 -424.44,485.762c-65.264,56.942 -135.785,108.628 -212.876,153.306c-116.513,67.017 -248.356,116.513 -400.349,138.852c7.447,-45.116 11.389,-91.108 11.389,-138.414c-0,-47.306 -3.942,-94.174 -11.827,-139.289c-0.438,-4.819 -1.314,-9.637 -2.19,-14.455c-0.876,-6.132 -2.19,-12.264 -3.504,-17.959c357.423,-70.083 564.605,-343.406 799.821,-653.084c281.207,-371.439 600.522,-792.374 1231.27,-792.374Z" style="fill-rule:nonzero;"/><g><clipPath id="_clip3"><rect x="84.282" y="1456.06" width="1256.24" height="1256.24"/></clipPath><g clip-path="url(#_clip3)"><path d="M712.4,2712.3c-346.911,-0 -628.118,-281.208 -628.118,-628.118c-0,-346.91 281.207,-628.117 628.118,-628.117c346.91,-0 628.117,281.207 628.117,628.117c0,346.91 -281.207,628.118 -628.117,628.118" style="fill-rule:nonzero;"/></g></g><path d="M4073.31,600.612c14.893,13.14 20.149,24.967 -0.876,40.298l-564.167,412.612c-21.463,15.769 -51.686,0 -51.686,-26.281l0,-812.961c0,-26.719 30.223,-41.611 51.686,-26.281" style="fill-rule:nonzero;"/><path d="M4073.31,2064.47c14.893,13.141 20.149,24.967 -0.876,40.298l-564.167,412.613c-21.463,15.769 -51.686,-0 -51.686,-26.281l0,-813.399c0,-26.719 30.223,-41.612 51.686,-26.281" style="fill-rule:nonzero;"/><path d="M4073.31,3527.45c14.893,13.141 20.149,24.967 -0.876,40.298l-564.167,412.612c-21.463,15.769 -51.686,0 -51.686,-26.281l0,-813.399c0,-26.719 30.223,-41.611 51.686,-26.281" style="fill-rule:nonzero;"/></g></g></g></svg>