<?xml version="1.0" encoding="UTF-8" standalone="no"?><!DOCTYPE svg PUBLIC "-//W3C//DTD SVG 1.1//EN" "http://www.w3.org/Graphics/SVG/1.1/DTD/svg11.dtd"><svg width="100%" height="100%" viewBox="0 0 4171 4171" version="1.1" xmlns="http://www.w3.org/2000/svg" xmlns:xlink="http://www.w3.org/1999/xlink" xml:space="preserve" xmlns:serif="http://www.serif.com/" style="fill-rule:evenodd;clip-rule:evenodd;stroke-linejoin:round;stroke-miterlimit:2;"><rect id="share" x="2.203" y="0.845" width="4166.67" height="4166.67" style="fill:none;"/><clipPath id="_clip1"><rect x="2.203" y="0.845" width="4166.67" height="4166.67"/></clipPath><g clip-path="url(#_clip1)"><rect x="2.203" y="0.845" width="4166.67" height="4166.67" style="fill:none;"/><clipPath id="_clip2"><rect id="share.svg" x="63.977" y="62.619" width="4043.12" height="4043.12"/></clipPath><g clip-path="url(#_clip2)"><g id="Layer_1-2"><path d="M3302.26,2919.11c-154.777,0 -292.357,60.191 -397.261,156.497l-1446.31,-842.675c10.318,-46.433 18.917,-92.866 18.917,-142.739c0,-49.872 -8.599,-94.586 -18.917,-142.738l1430.83,-834.076c110.064,101.464 254.522,165.095 414.459,165.095c337.07,0 608.789,-271.72 608.789,-608.79c0,-337.069 -273.439,-607.069 -610.509,-607.069c-337.07,-0 -608.79,271.719 -608.79,608.789c0,48.153 8.599,94.586 18.918,142.739l-1430.83,834.076c-110.064,-101.465 -254.522,-165.095 -414.458,-165.095c-337.07,-0 -608.79,271.719 -608.79,608.789c0,337.07 271.72,608.79 608.79,608.79c159.936,-0 304.394,-63.631 414.458,-165.096l1444.59,844.395c-10.318,42.993 -15.477,87.707 -15.477,132.42c-0,326.751 266.56,593.312 593.312,593.312c326.751,-0 593.311,-266.561 593.311,-593.312c0,-326.751 -266.56,-593.312 -593.311,-593.312l-1.72,0Z" style="fill-rule:nonzero;"/></g></g></g></svg>