<?xml version="1.0" encoding="UTF-8" standalone="no"?><!DOCTYPE svg PUBLIC "-//W3C//DTD SVG 1.1//EN" "http://www.w3.org/Graphics/SVG/1.1/DTD/svg11.dtd"><svg width="100%" height="100%" viewBox="0 0 4171 4171" version="1.1" xmlns="http://www.w3.org/2000/svg" xmlns:xlink="http://www.w3.org/1999/xlink" xml:space="preserve" xmlns:serif="http://www.serif.com/" style="fill-rule:evenodd;clip-rule:evenodd;stroke-linejoin:round;stroke-miterlimit:2;"><rect id="shared_memory" x="2.203" y="0.845" width="4166.67" height="4166.67" style="fill:none;"/><clipPath id="_clip1"><rect x="2.203" y="0.845" width="4166.67" height="4166.67"/></clipPath><g clip-path="url(#_clip1)"><rect x="2.203" y="0.845" width="4166.67" height="4166.67" style="fill:none;"/><clipPath id="_clip2"><rect id="shared_memory.svg" x="63.977" y="62.619" width="4043.12" height="4043.12"/></clipPath><g clip-path="url(#_clip2)"><g><g><circle cx="2393.27" cy="1006.66" r="296.641"/><circle cx="3501.67" cy="359.26" r="296.641"/><circle cx="3501.67" cy="1654.06" r="296.641"/><path d="M3481.62,1688.13l-1168.53,-681.474l1168.53,-683.477l42.091,70.152l-1050.27,613.325l1050.27,611.322l-42.091,70.152Z" style="fill-rule:nonzero;"/></g><g id="g231"><path id="path206" d="M3886.39,2007.39c6.824,-5.764 13.959,-11.17 21.375,-16.19c24.298,-16.447 51.621,-28.748 80.944,-35.879l0,-31.731c41.864,-37.755 81.406,-78.034 118.387,-120.598l0,204.539c0,32.673 -26.52,59.194 -59.193,59.194l-0.083,-0.083c-72.912,-0 -132.188,59.36 -132.188,132.271c-0,72.911 59.276,132.188 132.188,132.188c32.672,-0 59.193,26.52 59.193,59.193l0,606.235c0,32.673 -26.521,59.194 -59.193,59.194l-536.65,-0c-32.673,-0 -59.193,-26.521 -59.193,-59.194c-0,-32.672 26.52,-59.193 59.193,-59.193l254.067,-0l-0,-120.881l-2019.4,-0l-0,120.881l1488.32,-0c32.672,-0 59.193,26.521 59.193,59.193c0,32.673 -26.521,59.194 -59.193,59.194l-1770.9,-0c-32.673,-0 -59.193,-26.521 -59.193,-59.194l-0,-119.634c-0,-33.338 -27.103,-60.44 -60.441,-60.44c-33.338,-0 -60.441,27.102 -60.441,60.44l0,119.634c0,32.673 -26.52,59.194 -59.193,59.194l-338.784,-0c-32.672,-0 -59.193,-26.521 -59.193,-59.194c-0,-32.672 26.521,-59.193 59.193,-59.193l56.201,-0l0,-120.881l-535.652,-0l0,120.881l201.441,-0c32.673,-0 59.194,26.521 59.194,59.193c-0,32.673 -26.521,59.194 -59.194,59.194l-484.023,-0c-32.673,-0 -59.194,-26.521 -59.194,-59.194l0,-606.235c0,-32.673 26.521,-59.193 59.194,-59.193c72.911,-0 132.187,-59.277 132.187,-132.188c0,-72.911 -59.276,-132.188 -132.187,-132.188c-32.673,0 -59.194,-26.521 -59.194,-59.194l0,-446.695c0,-32.673 26.521,-59.193 59.194,-59.193l374.864,-0c32.673,-0 59.194,26.52 59.194,59.193c-0,32.673 -26.521,59.194 -59.194,59.194l-315.588,-0l0,335.291c109.741,26.687 191.465,125.787 191.465,243.592c-0,117.805 -81.724,216.904 -191.465,243.591l0,494.832l104.919,-0l0,-180.075c0,-32.673 26.521,-59.193 59.194,-59.193l654.122,-0c32.673,-0 59.193,26.52 59.193,59.193l0,180.075l104.919,-0l0,-60.441c0,-98.683 80.227,-178.911 178.911,-178.911c98.684,0 178.911,80.311 178.911,178.911l-0,60.441l104.919,-0l-0,-180.075c-0,-32.673 26.521,-59.193 59.193,-59.193l2137.87,-0c32.673,-0 59.193,26.52 59.193,59.193l0,180.075l104.919,-0l0,-494.832c-109.741,-26.687 -191.464,-125.786 -191.464,-243.591c-0,-76.719 34.659,-145.505 89.145,-191.523Zm-2063.1,-505.747c19.787,40.615 41.508,80.118 65.044,118.387l-1113.62,-0c-32.672,-0 -59.193,-26.521 -59.193,-59.194c-0,-32.673 26.521,-59.193 59.193,-59.193l1048.58,-0Z" style="fill-rule:nonzero;"/><path id="path208" d="M3175.05,2274.34c39.964,-3.162 79.45,-8.028 118.387,-14.528l0,151.097l200.61,0l-0,-200.358c40.338,-13.202 79.86,-28.214 118.47,-44.939l0,304.574c0,32.673 -26.521,59.194 -59.193,59.194l-319.08,-0c-32.673,-0 -59.194,-26.521 -59.194,-59.194l0,-195.846Z" style="fill-rule:nonzero;"/><path id="path210" d="M2520.93,2167.18c38.589,16.584 78.083,31.458 118.387,44.527l0,199.199l200.61,0l-0,-150.508c38.967,6.4 78.481,11.165 118.47,14.222l0,195.563c0,32.673 -26.521,59.194 -59.193,59.194l-319.08,-0c-32.673,-0 -59.194,-26.521 -59.194,-59.194l0,-303.003Z" style="fill-rule:nonzero;"/><path id="path212" d="M1271.88,2529.38l319.08,-0c32.672,-0 59.193,-26.521 59.193,-59.194l0,-638.16c0,-32.673 -26.521,-59.193 -59.193,-59.193l-319.08,-0c-32.673,-0 -59.194,26.52 -59.194,59.193l0,638.16c0,32.673 26.521,59.194 59.194,59.194Zm59.193,-638.16l200.61,-0l-0,519.689l-200.61,0l0,-519.689Z" style="fill-rule:nonzero;"/><path id="path214" d="M617.753,2529.38l319.08,-0c32.672,-0 59.193,-26.521 59.193,-59.194l0,-638.16c0,-32.673 -26.521,-59.193 -59.193,-59.193l-319.08,-0c-32.673,-0 -59.194,26.52 -59.194,59.193l0,638.16c0,32.673 26.521,59.194 59.194,59.194Zm59.193,-638.16l200.61,-0l-0,519.689l-200.61,0l0,-519.689Z" style="fill-rule:nonzero;"/><path id="path216" d="M1997.24,1772.83c34.081,41.554 70.538,81.085 109.164,118.387l-121.218,-0l0,519.689l200.61,0l-0,-448.691c37.847,31.32 77.39,60.661 118.47,87.863l0,420.105c0,32.673 -26.521,59.194 -59.193,59.194l-319.08,-0c-32.673,-0 -59.194,-26.521 -59.194,-59.194l0,-638.16c0,-32.673 26.521,-59.193 59.194,-59.193l71.247,-0Z" style="fill-rule:nonzero;"/></g></g></g></g></svg>