<?xml version="1.0" encoding="UTF-8"?>
<svg id="Layer_2" data-name="Layer 2" xmlns="http://www.w3.org/2000/svg" viewBox="0 0 24 24">
  <defs>
    <style>
      .cls-1 {
        fill: none;
      }
    </style>
  </defs>
  <g id="Layer_1-2" data-name="Layer 1">
    <path class="cls-1" d="m0,0h24v24H0V0Z"/>
    <path d="m19.08,16.82c-.9,0-1.7.35-2.31.91l-8.41-4.9c.06-.27.11-.54.11-.83s-.05-.55-.11-.83l8.32-4.85c.64.59,1.48.96,2.41.96,1.96,0,3.54-1.58,3.54-3.54S21.04.21,19.08.21s-3.54,1.58-3.54,3.54c0,.28.05.55.11.83l-8.32,4.85c-.64-.59-1.48-.96-2.41-.96-1.96,0-3.54,1.58-3.54,3.54s1.58,3.54,3.54,3.54c.93,0,1.77-.37,2.41-.96l8.4,4.91c-.06.25-.09.51-.09.77,0,1.9,1.55,3.45,3.45,3.45s3.45-1.55,3.45-3.45-1.55-3.45-3.45-3.45Z"/>
  </g>
</svg>