<?xml version="1.0" encoding="utf-8"?>
<!-- Generator: Adobe Illustrator 23.0.1, SVG Export Plug-In . SVG Version: 6.00 Build 0)  -->
<svg version="1.1"
	 id="SVGRoot" inkscape:version="1.0beta1 (32d4812, 2019-09-19)" sodipodi:docname="ngas.svg" xmlns:cc="http://creativecommons.org/ns#" xmlns:dc="http://purl.org/dc/elements/1.1/" xmlns:inkscape="http://www.inkscape.org/namespaces/inkscape" xmlns:rdf="http://www.w3.org/1999/02/22-rdf-syntax-ns#" xmlns:sodipodi="http://sodipodi.sourceforge.net/DTD/sodipodi-0.dtd" xmlns:svg="http://www.w3.org/2000/svg"
	 xmlns="http://www.w3.org/2000/svg" xmlns:xlink="http://www.w3.org/1999/xlink" x="0px" y="0px" viewBox="0 0 370.2 370.2"
	 style="enable-background:new 0 0 370.2 370.2;" xml:space="preserve">
<sodipodi:namedview  bordercolor="#666666" borderopacity="1.0" id="base" inkscape:current-layer="layer1" inkscape:cx="6.6156235" inkscape:cy="16.573805" inkscape:document-rotation="0" inkscape:document-units="px" inkscape:grid-bbox="true" inkscape:pageopacity="0.0" inkscape:pageshadow="2" inkscape:window-height="907" inkscape:window-maximized="0" inkscape:window-width="1600" inkscape:window-x="0" inkscape:window-y="25" inkscape:zoom="16.701241" pagecolor="#ffffff" showgrid="false">
	</sodipodi:namedview>
<g>
	<g id="g231" transform="matrix(0.20322105,0,0,0.20322105,0,-32.024589)">
		<path d="M1333.1,799.7c-4.1,16.2-6.9,33-8.3,50.2H326.1c-13.4,0-25.1-11.7-25.1-25.1c0-13.4,11.7-25.1,25.1-25.1H1333.1z"/>
		<path d="M1694.9,1171.8v243.7c0,13.4-11.7,25.1-25.1,25.1h-220.9c-13.4,0-25.1-11.7-25.1-25.1c0-13.4,11.7-25.1,25.1-25.1h103.7
			v-50.2H724.3v50.2h612.5c13.4,0,25.1,11.8,25.1,25.1c0,13.4-11.7,25.1-25.1,25.1H610.6c-13.4,0-25.1-11.7-25.1-25.1V1367
			c0-13.4-11.7-25.1-25.1-25.1c-13.4,0-25.1,11.7-25.1,25.1v48.6c0,13.4-11.8,25.1-25.1,25.1H371.3c-13.4,0-25.1-11.7-25.1-25.1
			c0-13.4,11.7-25.1,25.1-25.1h20.1v-50.2H172.1v50.2h82c13.4,0,25.1,11.8,25.1,25.1c0,13.4-11.7,25.1-25.1,25.1H55
			c-13.4,0-25.1-11.7-25.1-25.1v-249.3c0-13.4,11.7-25.1,25.1-25.1c28.4,0,53.5-23.4,53.5-53.5c0-28.4-23.4-53.5-53.5-53.5
			c-13.4,0-25.1-11.7-25.1-25.1V824.8c0-13.4,11.7-25.1,25.1-25.1h153.9c13.4,0,25.1,11.7,25.1,25.1c0,13.4-11.7,25.1-25.1,25.1
			H80.1v137.2c45.2,11.7,78.6,51.9,78.6,100.4c0,48.5-33.5,88.7-78.6,100.4v202.4h43.5v-73.6c0-13.4,11.7-25.1,25.1-25.1h267.7
			c13.4,0,25.1,11.7,25.1,25.1v73.6h43.5v-25.1c0-40.2,33.5-73.6,73.7-73.6c40.2,0,73.6,33.5,73.6,73.6v25.1h43.5v-73.6
			c0-13.4,11.7-25.1,25.1-25.1h875.2c13.4,0,25.1,11.7,25.1,25.1v73.6h43.5V1188c-8.1-2.1-15.8-5.1-23-9c2.3,0,4.6,0.1,6.9,0.1
			C1651.4,1179.1,1673.6,1176.6,1694.9,1171.8z"/>
		<path id="path208" inkscape:connector-curvature="0" d="M1442.2,1115.5v59.1h-82V1019c-17-31.4-28.6-66.2-33.6-103.1
			c-8.6,4-14.9,12.9-14.9,22.7v262.7c0,13.4,11.7,25.1,25.1,25.1h130.5v-1.7c13.4,0,25.1-11.7,25.1-25.1v-52.6
			C1474.6,1138.2,1457.8,1127.6,1442.2,1115.5z"/>
		<path id="path210" inkscape:connector-curvature="0" d="M1197.9,913.5h-130.5c-13.4,0-25.1,11.7-25.1,25.1v262.7
			c0,13.4,11.8,25.1,25.1,25.1h130.5v-1.7c13.4,0,25.1-11.7,25.1-25.1v-261C1223,925.2,1211.3,913.5,1197.9,913.5z M1174.5,1174.6
			h-83.7V962h83.7V1174.6z"/>
		<path id="path212" inkscape:connector-curvature="0" d="M660.8,913.5H530.2c-13.4,0-25.1,11.7-25.1,25.1v262.7
			c0,11.7,11.7,23.4,25.1,23.4h130.5c13.4,0,25.1-11.7,25.1-25.1v-261C685.9,925.2,674.2,913.5,660.8,913.5z M635.7,1174.6h-82V962
			h82V1174.6z"/>
		<path id="path214" inkscape:connector-curvature="0" d="M391.4,913.5H260.8c-13.4,0-25.1,11.7-25.1,25.1v262.7
			c1.7,11.7,11.7,23.4,25.1,23.4h130.5c13.4,0,25.1-11.7,25.1-25.1v-261C416.5,925.2,404.7,913.5,391.4,913.5z M367.9,1174.6h-82
			V962h82V1174.6z"/>
		<path id="path216" inkscape:connector-curvature="0" d="M930.2,913.5H799.7c-13.4,0-25.1,11.7-25.1,25.1v262.7
			c0,13.4,11.7,25.1,25.1,25.1h130.5v-1.7c13.4,0,25.1-11.7,25.1-25.1v-261C955.3,925.2,943.6,913.5,930.2,913.5z M905.1,1174.6h-82
			V962h82V1174.6z"/>
	</g>
	<g>
		<circle cx="295.1" cy="144.7" r="14.8"/>
		<circle cx="350.4" cy="112.4" r="14.8"/>
		<circle cx="350.4" cy="177" r="14.8"/>
		<polygon points="349.4,178.7 291.1,144.7 349.4,110.6 351.5,114.1 299.1,144.7 351.5,175.2 		"/>
	</g>
</g>
</svg>
