<?xml version="1.0" encoding="UTF-8" standalone="no"?><!DOCTYPE svg PUBLIC "-//W3C//DTD SVG 1.1//EN" "http://www.w3.org/Graphics/SVG/1.1/DTD/svg11.dtd"><svg width="100%" height="100%" viewBox="0 0 4171 4171" version="1.1" xmlns="http://www.w3.org/2000/svg" xmlns:xlink="http://www.w3.org/1999/xlink" xml:space="preserve" xmlns:serif="http://www.serif.com/" style="fill-rule:evenodd;clip-rule:evenodd;stroke-linejoin:round;stroke-miterlimit:2;"><rect id="singularity" x="4.034" y="0.845" width="4166.67" height="4166.67" style="fill:none;"/><clipPath id="_clip1"><rect x="4.034" y="0.845" width="4166.67" height="4166.67"/></clipPath><g clip-path="url(#_clip1)"><rect x="4.034" y="0.845" width="4166.67" height="4166.67" style="fill:none;"/><clipPath id="_clip2"><rect id="singularity.svg" x="66.496" y="63.307" width="4041.74" height="4041.74"/></clipPath><g clip-path="url(#_clip2)"><g id="Layer-1" serif:id="Layer 1"><path id="Combined-Shape" d="M1968.46,4103.6c-1048.91,-66.034 -1881.71,-929.913 -1901.96,-1972.94l848.761,-0c20.887,579.304 472.527,1060.24 1053.26,1121.57l-0.054,851.367Zm208.976,1.448l-0,-850.458c592.752,-47.948 1060.73,-534.161 1081.93,-1124.09l848.869,0c-20.149,1053.88 -870.121,1923.12 -1930.8,1974.55Zm-208.976,-4040.3l-0,851.528c-538.125,56.657 -971.012,474.454 -1043.15,1006.79l-852.974,-0c76.172,-997.646 890.143,-1795.39 1896.13,-1858.32Zm208.976,-1.447c1017.48,49.138 1847.95,851.52 1924.86,1859.77l-852.866,-0c-73.465,-542.772 -521.901,-965.049 -1071.84,-1009.31l-0.162,-850.456Z" style="fill-rule:nonzero;"/></g></g></g></svg>