<?xml version="1.0" encoding="UTF-8" standalone="no"?>
<svg
   xmlns:dc="http://purl.org/dc/elements/1.1/"
   xmlns:cc="http://creativecommons.org/ns#"
   xmlns:rdf="http://www.w3.org/1999/02/22-rdf-syntax-ns#"
   xmlns:svg="http://www.w3.org/2000/svg"
   xmlns="http://www.w3.org/2000/svg"
   xmlns:sodipodi="http://sodipodi.sourceforge.net/DTD/sodipodi-0.dtd"
   xmlns:inkscape="http://www.inkscape.org/namespaces/inkscape"
   sodipodi:docname="singularity.svg"
   inkscape:version="1.0beta1 (32d4812, 2019-09-19)"
   width="24px"
   height="24px"
   viewBox="0 0 24 24"
   version="1.1"
   id="SVGRoot">
  <defs
     id="defs2124" />
  <sodipodi:namedview
     inkscape:grid-bbox="true"
     inkscape:window-maximized="0"
     inkscape:window-y="139"
     inkscape:window-x="124"
     inkscape:window-height="907"
     inkscape:window-width="1661"
     showgrid="false"
     inkscape:document-rotation="0"
     inkscape:current-layer="layer1"
     inkscape:document-units="px"
     inkscape:cy="19.361218"
     inkscape:cx="19.37894"
     inkscape:zoom="12.838392"
     inkscape:pageshadow="2"
     inkscape:pageopacity="0.0"
     borderopacity="1.0"
     bordercolor="#666666"
     pagecolor="#ffffff"
     id="base" />
  <metadata
     id="metadata2127">
    <rdf:RDF>
      <cc:Work
         rdf:about="">
        <dc:format>image/svg+xml</dc:format>
        <dc:type
           rdf:resource="http://purl.org/dc/dcmitype/StillImage" />
        <dc:title></dc:title>
      </cc:Work>
    </rdf:RDF>
  </metadata>
  <g
     id="layer1"
     inkscape:groupmode="layer"
     inkscape:label="Layer 1">
    <path
       inkscape:connector-curvature="0"
       id="Combined-Shape"
       d="M 11.295376,23.650639 A 11.600153,11.600153 0 0 1 0.43164681,12.297298 H 5.2796471 a 6.7327165,6.7327165 0 0 0 6.0160369,6.454128 z m 1.193642,0.0083 v -4.893948 a 6.7308653,6.7308653 0 0 0 6.179859,-6.468627 h 4.848617 A 11.596451,11.596451 0 0 1 12.489018,23.65897 Z M 11.295376,0.40899243 V 5.3091318 A 6.7280889,6.7280889 0 0 0 5.3370308,11.10273 H 0.46496645 A 11.592749,11.592749 0 0 1 11.295376,0.40899243 Z m 1.193642,-0.008322 A 11.590898,11.590898 0 0 1 23.483557,11.102734 H 18.61211 A 6.7256207,6.7256207 0 0 0 12.489944,5.2946354 Z"
       fill="#fff"
       style="fill:#000000;stroke-width:0.308515" />
  </g>
</svg>
