<?xml version="1.0" encoding="UTF-8" standalone="no"?><!DOCTYPE svg PUBLIC "-//W3C//DTD SVG 1.1//EN" "http://www.w3.org/Graphics/SVG/1.1/DTD/svg11.dtd"><svg width="100%" height="100%" viewBox="0 0 4167 4171" version="1.1" xmlns="http://www.w3.org/2000/svg" xmlns:xlink="http://www.w3.org/1999/xlink" xml:space="preserve" xmlns:serif="http://www.serif.com/" style="fill-rule:evenodd;clip-rule:evenodd;stroke-linejoin:round;stroke-miterlimit:2;"><rect id="snap_to_grid" x="0" y="0.845" width="4166.67" height="4166.67" style="fill:none;"/><clipPath id="_clip1"><rect x="0" y="0.845" width="4166.67" height="4166.67"/></clipPath><g clip-path="url(#_clip1)"><rect x="0" y="0.845" width="4166.67" height="4166.67" style="fill:none;"/><clipPath id="_clip2"><rect id="snapToGrid.svg" x="61.774" y="62.619" width="4043.12" height="4043.12"/></clipPath><g clip-path="url(#_clip2)"><g id="Layer_1-2"><path d="M2235.59,1660.2l-0,2297.51c-0,81.75 -66.272,148.022 -148.022,148.022c-81.751,-0 -148.023,-66.272 -148.023,-148.022l0,-655.527l-718.964,0l-0,-296.044l718.964,-0l0,-773.945l-718.964,0l-0,-296.044l718.964,0l0,-782.403l-718.964,0l-0,-296.044l718.964,0l0,-647.068c0,-81.751 66.272,-148.022 148.023,-148.022c66.356,-0 122.477,43.645 141.297,103.784c-145.146,210.995 -230.111,466.608 -230.111,742.057c0,275.448 87.587,538.885 236.836,751.741Z" style="fill-rule:nonzero;"/><path d="M4104.89,2084.18c-0,81.751 -66.272,148.022 -148.022,148.022l-587.86,0l0,-14.041c257.813,-11.418 496.255,-97.356 694.351,-236.793c25.714,26.602 41.531,62.889 41.531,102.812Z" style="fill-rule:nonzero;"/><path d="M1157.14,210.641l-0,3747.08c-0,81.75 -66.272,148.022 -148.023,148.022c-81.75,-0 -148.022,-66.272 -148.022,-148.022l0,-655.527l-651.297,0c-81.751,0 -148.022,-66.272 -148.022,-148.022c-0,-81.751 66.271,-148.022 148.022,-148.022l651.297,-0l0,-773.945l-651.297,0c-81.751,0 -148.022,-66.271 -148.022,-148.022c-0,-81.75 66.271,-148.022 148.022,-148.022l651.297,0l0,-782.403l-651.297,0c-81.751,0 -148.022,-66.271 -148.022,-148.022c-0,-81.75 66.271,-148.022 148.022,-148.022l651.297,0l0,-647.068c0,-81.751 66.272,-148.022 148.022,-148.022c81.751,-0 148.023,66.271 148.023,148.022Z" style="fill-rule:nonzero;"/><path d="M3305.57,2219.47l0,1738.25c0,81.75 -66.271,148.022 -148.022,148.022c-81.75,-0 -148.022,-66.272 -148.022,-148.022l0,-655.527l-710.506,0l-0,-296.044l710.506,-0l0,-773.945l-710.506,0l-0,-296.044l196.7,0c222.583,176.612 503.91,282.384 809.85,283.315Z" style="fill-rule:nonzero;"/><path d="M4104.89,3154.17c-0,81.75 -66.272,148.022 -148.022,148.022l-587.86,0l0,-296.044l587.86,-0c81.75,-0 148.022,66.271 148.022,148.022Z" style="fill-rule:nonzero;"/><path d="M3280.58,468.157l413.404,0l0,-375.934l-413.404,0c-249.735,0 -484.498,86.234 -661.109,242.756c-176.57,156.566 -273.841,364.727 -273.841,586.168c-0,221.441 97.271,429.56 273.841,586.168c176.611,156.523 411.374,242.756 661.109,242.756l413.404,0l0,-375.934l-413.404,0c-281.708,0 -510.93,-203.213 -510.93,-452.99c-0,-249.777 229.222,-452.99 510.93,-452.99Zm493.971,-375.934l-0,375.934l97.229,0c28.251,0 51.174,-22.922 51.174,-51.173l-0,-273.588c-0,-28.251 -22.923,-51.173 -51.174,-51.173l-97.229,0Zm-0,1281.91l-0,375.934l97.229,0c28.251,0 51.174,-22.922 51.174,-51.173l-0,-273.587c-0,-28.252 -22.923,-51.174 -51.174,-51.174l-97.229,0Z" style="fill-rule:nonzero;"/></g></g></g></svg>