<?xml version="1.0" encoding="UTF-8"?>
<svg id="Layer_2" data-name="Layer 2" xmlns="http://www.w3.org/2000/svg" viewBox="0 0 1000 1000">
  <defs>
    <style>
      .cls-1 {
        fill: none;
      }
    </style>
  </defs>
  <g id="Layer_1-2" data-name="Layer 1">
    <g>
      <path d="m536,399.75v543.25c0,19.33-15.67,35-35,35s-35-15.67-35-35v-155h-170v-70h170v-183h-170v-70h170v-185h-170v-70h170V57c0-19.33,15.67-35,35-35,15.69,0,28.96,10.32,33.41,24.54-34.32,49.89-54.41,110.33-54.41,175.46s20.71,127.42,56,177.75Z"/>
      <path d="m978,500c0,19.33-15.67,35-35,35h-139v-3.32c60.96-2.7,117.34-23.02,164.18-55.99,6.08,6.29,9.82,14.87,9.82,24.31Z"/>
      <path d="m281,57v886c0,19.33-15.67,35-35,35s-35-15.67-35-35v-155H57c-19.33,0-35-15.67-35-35s15.67-35,35-35h154v-183H57c-19.33,0-35-15.67-35-35s15.67-35,35-35h154v-185H57c-19.33,0-35-15.67-35-35s15.67-35,35-35h154V57c0-19.33,15.67-35,35-35s35,15.67,35,35Z"/>
      <path d="m789,531.99v411.01c0,19.33-15.67,35-35,35s-35-15.67-35-35v-155h-168v-70h168v-183h-168v-70h46.51c52.63,41.76,119.15,66.77,191.49,66.99Z"/>
      <path d="m978,753c0,19.33-15.67,35-35,35h-139v-70h139c19.33,0,35,15.67,35,35Z"/>
      <path d="m783.09,117.89h97.75s0-88.89,0-88.89h-97.75c-59.05,0-114.56,20.39-156.32,57.4-41.75,37.02-64.75,86.24-64.75,138.6,0,52.36,23,101.57,64.75,138.6,41.76,37.01,97.27,57.4,156.32,57.4h97.75s0-88.89,0-88.89h-97.75c-66.61,0-120.81-48.05-120.81-107.11,0-59.06,54.2-107.11,120.81-107.11Zm116.8-88.89v88.89s22.99,0,22.99,0c6.68,0,12.1-5.42,12.1-12.1V41.1c0-6.68-5.42-12.1-12.1-12.1h-22.99Zm0,303.11v88.89s22.99,0,22.99,0c6.68,0,12.1-5.42,12.1-12.1v-64.69c0-6.68-5.42-12.1-12.1-12.1h-22.99Z"/>
      <rect class="cls-1" width="1000" height="1000"/>
    </g>
  </g>
</svg>