<?xml version="1.0" encoding="UTF-8"?>
<svg id="Layer_2" data-name="Layer 2" xmlns="http://www.w3.org/2000/svg" xmlns:xlink="http://www.w3.org/1999/xlink" viewBox="0 0 500 500">
  <defs>
    <style>
      .cls-1 {
        clip-path: url(#clippath);
      }

      .cls-2 {
        fill: none;
      }
    </style>
    <clipPath id="clippath">
      <rect class="cls-2" width="500" height="500"/>
    </clipPath>
  </defs>
  <g id="Layer_1-2" data-name="Layer 1">
    <g class="cls-1">
      <g>
        <path d="m85.45,7.38C42.31,7.38,7.31,42.37,7.31,85.51s35,78.13,78.14,78.13,78.13-34.96,78.13-78.13S128.6,7.38,85.45,7.38Zm0,126.43c-26.69,0-48.31-21.62-48.31-48.31s21.62-48.31,48.31-48.31,48.3,21.64,48.3,48.31-21.61,48.31-48.3,48.31Z"/>
        <path d="m364.5,47.48c-42.83,0-77.56,34.74-77.56,77.57s34.73,77.56,77.56,77.56,77.56-34.72,77.56-77.56-34.72-77.57-77.56-77.57Zm0,125.52c-26.5,0-47.95-21.46-47.95-47.95s21.45-47.95,47.95-47.95,47.95,21.47,47.95,47.95-21.46,47.95-47.95,47.95Z"/>
        <path d="m144.96,353.31c-38.46,0-69.66,31.19-69.66,69.65s31.19,69.66,69.66,69.66,69.66-31.17,69.66-69.66-31.18-69.65-69.66-69.65Zm0,112.72c-23.79,0-43.07-19.27-43.07-43.07s19.28-43.06,43.07-43.06,43.06,19.29,43.06,43.06-19.27,43.07-43.06,43.07Z"/>
        <path d="m423.03,313.34c-38.45,0-69.65,31.19-69.65,69.66s31.19,69.65,69.65,69.65,69.66-31.17,69.66-69.65-31.17-69.66-69.66-69.66Zm0,112.72c-23.79,0-43.06-19.27-43.06-43.06s19.27-43.07,43.06-43.07,43.07,19.29,43.07,43.07-19.27,43.06-43.07,43.06Z"/>
        <path d="m321.83,201.98l-116.01,157.44c-5.45-5.21-11.54-9.73-18.19-13.41l116.01-157.43c5.45,5.21,11.54,9.73,18.19,13.4Z"/>
        <path d="m414.73,295.41c-7.66.7-15.04,2.4-22.01,4.98l-19.92-87.77c7.66-.69,15.05-2.4,22.02-4.98l19.91,87.77Z"/>
        <path d="m338.25,406.59l-105.32,15.14c-.11-7.74-1.21-15.24-3.19-22.37l105.33-15.13c.1,7.73,1.2,15.23,3.18,22.36Z"/>
        <path d="m279.67,101.61c-1.98,7.15-3.05,14.64-3.14,22.39l-106.28-15.07c1.99-7.15,3.06-14.64,3.15-22.39l106.27,15.07Z"/>
      </g>
    </g>
  </g>
</svg>