<?xml version="1.0" encoding="UTF-8" standalone="no"?><!DOCTYPE svg PUBLIC "-//W3C//DTD SVG 1.1//EN" "http://www.w3.org/Graphics/SVG/1.1/DTD/svg11.dtd"><svg width="100%" height="100%" viewBox="0 0 4171 4167" version="1.1" xmlns="http://www.w3.org/2000/svg" xmlns:xlink="http://www.w3.org/1999/xlink" xml:space="preserve" xmlns:serif="http://www.serif.com/" style="fill-rule:evenodd;clip-rule:evenodd;stroke-linejoin:round;stroke-miterlimit:2;"><rect id="sub_graph" x="4.034" y="-0.007" width="4166.67" height="4166.67" style="fill:none;"/><clipPath id="_clip1"><rect x="4.034" y="-0.007" width="4166.67" height="4166.67"/></clipPath><g clip-path="url(#_clip1)"><rect x="4.034" y="-0.007" width="4166.67" height="4166.67" style="fill:none;"/><clipPath id="_clip2"><rect id="sub_graph.svg" x="66.496" y="62.456" width="4041.74" height="4041.74"/></clipPath><g clip-path="url(#_clip2)"><g id="Layer_1-2"><path d="M717.165,63.039c-359.225,-0 -650.669,291.36 -650.669,650.585c0,359.225 291.444,650.586 650.669,650.586c359.226,-0 650.586,-291.111 650.586,-650.586c-0,-359.475 -291.277,-650.585 -650.586,-650.585Zm0,1052.78c-222.246,-0 -402.275,-180.029 -402.275,-402.276c-0,-222.247 180.029,-402.276 402.275,-402.276c222.247,0 402.193,180.196 402.193,402.276c-0,222.08 -179.946,402.276 -402.193,402.276Z" style="fill-rule:nonzero;"/><path d="M3040.8,396.95c-356.644,-0 -645.84,289.279 -645.84,645.922c0,356.644 289.196,645.84 645.84,645.84c356.643,-0 645.839,-289.112 645.839,-645.84c-0,-356.727 -289.112,-645.922 -645.839,-645.922Zm-0,1045.2c-220.665,0 -399.278,-178.696 -399.278,-399.278c-0,-220.581 178.613,-399.278 399.278,-399.278c220.664,0 399.277,178.78 399.277,399.278c0,220.498 -178.696,399.278 -399.277,399.278Z" style="fill-rule:nonzero;"/><path d="M1212.7,2943.59c-320.255,0 -580.056,259.718 -580.056,579.973c-0,320.255 259.718,580.056 580.056,580.056c320.338,0 580.056,-259.551 580.056,-580.056c0,-320.505 -259.635,-579.973 -580.056,-579.973Zm-0,938.615c-198.099,0 -358.642,-160.46 -358.642,-358.642c-0,-198.182 160.543,-358.559 358.642,-358.559c198.098,0 358.559,160.627 358.559,358.559c-0,197.932 -160.461,358.642 -358.559,358.642Z" style="fill-rule:nonzero;"/><path d="M3528.18,2610.76c-320.172,0 -579.973,259.718 -579.973,580.057c-0,320.338 259.718,579.973 579.973,579.973c320.255,-0 580.056,-259.552 580.056,-579.973c0,-320.422 -259.551,-580.057 -580.056,-580.057Zm-0,938.616c-198.099,-0 -358.559,-160.461 -358.559,-358.559c-0,-198.099 160.46,-358.643 358.559,-358.643c198.098,0 358.642,160.627 358.642,358.643c0,198.015 -160.461,358.559 -358.642,358.559Z" style="fill-rule:nonzero;"/><path d="M2685.49,1683.47l-966.011,1311c-45.382,-43.384 -96.093,-81.021 -151.468,-111.665l966.012,-1310.91c45.381,43.384 96.093,81.022 151.467,111.582Z" style="fill-rule:nonzero;"/><path d="M3459.07,2461.45c-63.785,5.829 -125.238,19.985 -183.277,41.468l-165.873,-730.857c63.785,-5.746 125.321,-19.985 183.36,-41.469l165.79,730.858Z" style="fill-rule:nonzero;"/><path d="M2822.22,3387.25l-876.996,126.07c-0.916,-64.451 -10.076,-126.903 -26.563,-186.274l877.079,-125.987c0.833,64.367 9.992,126.819 26.48,186.191Z" style="fill-rule:nonzero;"/><path d="M2334.43,847.688c-16.487,59.538 -25.397,121.907 -26.146,186.441l-884.99,-125.487c16.57,-59.538 25.48,-121.907 26.23,-186.441l884.906,125.487Z" style="fill-rule:nonzero;"/></g></g></g></svg>