<?xml version="1.0" encoding="UTF-8" standalone="no"?><!DOCTYPE svg PUBLIC "-//W3C//DTD SVG 1.1//EN" "http://www.w3.org/Graphics/SVG/1.1/DTD/svg11.dtd"><svg width="100%" height="100%" viewBox="0 0 17380 17363" version="1.1" xmlns="http://www.w3.org/2000/svg" xmlns:xlink="http://www.w3.org/1999/xlink" xml:space="preserve" xmlns:serif="http://www.serif.com/" style="fill-rule:evenodd;clip-rule:evenodd;stroke-linejoin:round;stroke-miterlimit:2;"><g><rect x="9.179" y="25.542" width="17361.1" height="17361.1" style="fill:none;"/><path d="M8833.89,17000.4c-79.68,79.452 -208.625,79.452 -288.305,0l-7637.36,-7615.5c-58.51,-58.342 -76.084,-146.199 -44.519,-222.558c31.565,-76.36 106.045,-126.164 188.671,-126.164l15274.7,-0c82.627,-0 157.106,49.804 188.671,126.164c31.565,76.359 13.991,164.216 -44.518,222.558l-7637.37,7615.5Zm-7065.84,-7464.22l6921.68,6901.86l6921.68,-6901.86l-13843.4,-0Z"/><path d="M8545.43,411.844c79.68,-79.452 208.625,-79.452 288.305,0c941.593,938.897 6220.98,6203.17 7637.36,7615.5c58.51,58.341 76.084,146.198 44.519,222.558c-31.565,76.359 -106.045,126.163 -188.671,126.163c-2404.76,0 -12870,0 -15274.7,0c-82.627,0 -157.106,-49.804 -188.671,-126.163c-31.565,-76.36 -13.991,-164.217 44.518,-222.558c1416.38,-1412.33 6695.77,-6676.6 7637.37,-7615.5Z"/></g></svg>