<?xml version="1.0" encoding="UTF-8" standalone="no"?><!DOCTYPE svg PUBLIC "-//W3C//DTD SVG 1.1//EN" "http://www.w3.org/Graphics/SVG/1.1/DTD/svg11.dtd"><svg width="100%" height="100%" viewBox="0 0 4171 4171" version="1.1" xmlns="http://www.w3.org/2000/svg" xmlns:xlink="http://www.w3.org/1999/xlink" xml:space="preserve" xmlns:serif="http://www.serif.com/" style="fill-rule:evenodd;clip-rule:evenodd;stroke-linejoin:round;stroke-miterlimit:2;"><rect id="table_column_visibility" x="2.203" y="1.803" width="4166.67" height="4166.67" style="fill:none;"/><clipPath id="_clip1"><rect x="2.203" y="1.803" width="4166.67" height="4166.67"/></clipPath><g clip-path="url(#_clip1)"><rect x="2.203" y="1.803" width="4166.67" height="4166.67" style="fill:none;"/><clipPath id="_clip2"><rect id="table_column.svg" x="64.078" y="63.678" width="4042.92" height="4042.92"/></clipPath><g clip-path="url(#_clip2)"><path d="M64.078,1071.68l0,-578.575c0,-237.009 192.422,-429.432 429.432,-429.432l3181.7,0c237.009,0 429.432,192.423 429.432,429.432l-0,578.575l-4040.57,-0l0.004,-0Zm0,279.47l1133.13,-0l0,2753.09l-703.694,-0c-237.01,-0 -429.432,-192.422 -429.432,-429.432l0,-2323.66Zm4040.57,-0l-0,2323.66c-0,237.01 -192.423,429.432 -429.432,429.432l-719.89,-0l0,-2753.09l1149.32,-0Zm-2630.04,-0l1219.51,-0l-0,2753.09l-1219.51,-0l0,-2753.09Zm833.735,70.085l-759.627,-0l0,727.375l759.627,-727.375Zm311.667,677.246l-0,-677.246l-156.323,-0l-914.971,914.971l0,833.568l1071.29,-1071.29Zm-0,1022.65l-0,-833.568l-1071.29,1071.29l0,681.365l152.204,-0l919.09,-919.09Zm-739.003,919.09l739.003,-0l-0,-730.389l-739.003,730.389Z"/></g></g></svg>