<?xml version="1.0" encoding="UTF-8" standalone="no"?><!DOCTYPE svg PUBLIC "-//W3C//DTD SVG 1.1//EN" "http://www.w3.org/Graphics/SVG/1.1/DTD/svg11.dtd"><svg width="100%" height="100%" viewBox="0 0 17380 17380" version="1.1" xmlns="http://www.w3.org/2000/svg" xmlns:xlink="http://www.w3.org/1999/xlink" xml:space="preserve" xmlns:serif="http://www.serif.com/" style="fill-rule:evenodd;clip-rule:evenodd;stroke-linejoin:round;stroke-miterlimit:2;"><rect id="table_column_visibility" x="9.179" y="7.513" width="17361.1" height="17361.1" style="fill:none;"/><g><path d="M3984.22,2753.53l9410.72,0l0,3026.74l-852.357,-0c-127.563,-498.658 -253.678,-892.946 -378.342,-1182.86c-124.664,-289.918 -256.577,-510.255 -395.737,-661.012c-139.161,-150.757 -288.468,-258.026 -447.923,-321.808c-159.454,-63.782 -398.636,-95.673 -717.545,-95.673l-1104.59,0l-0,8906.26c-0,342.102 18.844,614.624 56.534,817.567c37.689,202.942 95.672,363.846 173.95,482.712c78.278,118.866 184.098,211.64 317.46,278.321c133.362,66.681 342.102,131.912 626.221,195.694l0,426.178l-3974.77,0l0,-426.178c173.95,-40.588 327.607,-84.076 460.969,-130.463c133.362,-46.387 242.081,-102.921 326.157,-169.602c84.076,-66.681 153.656,-152.206 208.74,-256.576c55.084,-104.371 98.572,-246.43 130.463,-426.179c31.891,-179.749 47.836,-443.574 47.836,-791.474l0,-8906.26l-1095.89,0c-272.523,0 -497.209,26.093 -674.058,78.278c-176.85,52.185 -340.653,160.904 -491.41,326.157c-150.757,165.253 -288.468,400.086 -413.132,704.499c-124.665,304.413 -242.081,688.554 -352.25,1152.42l-861.055,-0l0,-3026.74Z" style="fill-rule:nonzero;"/><path d="M4575.56,327.24l0,630.586l-3616.23,0l0,3617.58l-632.094,-0l0,-4248.16l4248.32,0Zm-4248.32,12476.5l632.094,-0l0,3614.56l3616.23,-0l0,633.602l-4248.32,0l0,-4248.16Zm16724.7,-8228.36l-632.094,-0l0,-3617.58l-3615.91,0l0,-630.586l4248.01,0l0,4248.16Zm-632.094,8228.36l632.094,-0l0,4248.16l-4248.01,0l0,-633.602l3615.91,-0l0,-3614.56Z"/></g></svg>