<?xml version="1.0" encoding="UTF-8" standalone="no"?>
<!-- Generator: Adobe Illustrator 19.2.0, SVG Export Plug-In . SVG Version: 6.00 Build 0)  -->

<svg
   xmlns:i="&amp;ns_ai;"
   xmlns:dc="http://purl.org/dc/elements/1.1/"
   xmlns:cc="http://creativecommons.org/ns#"
   xmlns:rdf="http://www.w3.org/1999/02/22-rdf-syntax-ns#"
   xmlns:svg="http://www.w3.org/2000/svg"
   xmlns="http://www.w3.org/2000/svg"
   xmlns:sodipodi="http://sodipodi.sourceforge.net/DTD/sodipodi-0.dtd"
   xmlns:inkscape="http://www.inkscape.org/namespaces/inkscape"
   version="1.1"
   id="Layer_1"
   x="0px"
   y="0px"
   viewBox="0 0 16 16"
   style="enable-background:new 0 0 16 16;"
   xml:space="preserve"
   sodipodi:docname="bash_logo.svg"><metadata
   id="metadata1938">
  <rdf:RDF>
    <cc:Work
       rdf:about="">
      <dc:format>image/svg+xml</dc:format>
      <dc:type
         rdf:resource="http://purl.org/dc/dcmitype/StillImage" />
    </cc:Work>
  </rdf:RDF>
</metadata>
<defs
   id="defs1936" />
<sodipodi:namedview
   pagecolor="#ffffff"
   bordercolor="#666666"
   inkscape:document-rotation="0"
   borderopacity="1"
   objecttolerance="10"
   gridtolerance="10"
   guidetolerance="10"
   inkscape:pageopacity="0"
   inkscape:pageshadow="2"
   inkscape:window-width="640"
   inkscape:window-height="480"
   id="namedview1934"
   showgrid="false" />

<style
   type="text/css"
   id="style1398">
	.Drop_x0020_Shadow{fill:none;}
	.Round_x0020_Corners_x0020_2_x0020_pt{fill:#FFFFFF;stroke:#1B1B1F;stroke-miterlimit:10;}
	.Live_x0020_Reflect_x0020_X{fill:none;}
	.Bevel_x0020_Soft{fill:url(#SVGID_1_);}
	.Dusk{fill:#FFFFFF;}
	.Foliage_GS{fill:#FFDC00;}
	.Pompadour_GS{fill-rule:evenodd;clip-rule:evenodd;fill:#58AEE2;}
	.st0{opacity:0;fill:#010000;}
	.st1{opacity:0.4;fill:#FFFFFF;}
	.st2{opacity:0.8;fill:#FFFFFF;}
	.st3{fill:#FFFFFF;}
	.st4{fill:#283037;}
</style>

<switch
   id="switch1931"
   transform="translate(-3.5294118e-8,0.11764706)">

	<g
   i:extraneous="self"
   id="g1929"
   transform="translate(-2.2899943,-1.6449255)">
		<linearGradient
   id="SVGID_1_"
   gradientUnits="userSpaceOnUse"
   x1="854.33618"
   y1="0"
   x2="855.0434"
   y2="0.70709997">
			<stop
   offset="0"
   style="stop-color:#E6E6EA"
   id="stop1400" />

			<stop
   offset="0.1719"
   style="stop-color:#E2E2E6"
   id="stop1402" />

			<stop
   offset="0.3482"
   style="stop-color:#D7D6DA"
   id="stop1404" />

			<stop
   offset="0.5264"
   style="stop-color:#C4C2C5"
   id="stop1406" />

			<stop
   offset="0.7061"
   style="stop-color:#A9A7A8"
   id="stop1408" />

			<stop
   offset="0.8852"
   style="stop-color:#878484"
   id="stop1410" />

			<stop
   offset="1"
   style="stop-color:#6D6968"
   id="stop1412" />

		</linearGradient>

		<g
   id="g1927">
			<rect
   class="st0"
   width="1"
   height="1"
   id="rect1415"
   x="0"
   y="0" />

			<rect
   x="1"
   class="st1"
   width="1"
   height="1"
   id="rect1417"
   y="0" />

			<rect
   x="2"
   class="st2"
   width="1"
   height="1"
   id="rect1419"
   y="0" />

			<rect
   x="3"
   class="st3"
   width="1"
   height="1"
   id="rect1421"
   y="0" />

			<rect
   x="4"
   class="st3"
   width="1"
   height="1"
   id="rect1423"
   y="0" />

			<rect
   x="5"
   class="st3"
   width="1"
   height="1"
   id="rect1425"
   y="0" />

			<rect
   x="6"
   class="st3"
   width="1"
   height="1"
   id="rect1427"
   y="0" />

			<rect
   x="7"
   class="st3"
   width="1"
   height="1"
   id="rect1429"
   y="0" />

			<rect
   x="8"
   class="st3"
   width="1"
   height="1"
   id="rect1431"
   y="0" />

			<rect
   x="9"
   class="st3"
   width="1"
   height="1"
   id="rect1433"
   y="0" />

			<rect
   x="10"
   class="st3"
   width="1"
   height="1"
   id="rect1435"
   y="0" />

			<rect
   x="11"
   class="st3"
   width="1"
   height="1"
   id="rect1437"
   y="0" />

			<rect
   x="12"
   class="st3"
   width="1"
   height="1"
   id="rect1439"
   y="0" />

			<rect
   x="13"
   class="st2"
   width="1"
   height="1"
   id="rect1441"
   y="0" />

			<rect
   x="14"
   class="st1"
   width="1"
   height="1"
   id="rect1443"
   y="0" />

			<rect
   x="15"
   class="st0"
   width="1"
   height="1"
   id="rect1445"
   y="0" />

			<rect
   y="1"
   class="st1"
   width="1"
   height="1"
   id="rect1447"
   x="0" />

			<rect
   x="1"
   y="1"
   class="st3"
   width="1"
   height="1"
   id="rect1449" />

			<rect
   x="2"
   y="1"
   class="st3"
   width="1"
   height="1"
   id="rect1451" />

			<rect
   x="3"
   y="1"
   class="st3"
   width="1"
   height="1"
   id="rect1453" />

			<rect
   x="4"
   y="1"
   class="st3"
   width="1"
   height="1"
   id="rect1455" />

			<rect
   x="5"
   y="1"
   class="st3"
   width="1"
   height="1"
   id="rect1457" />

			<rect
   x="6"
   y="1"
   class="st3"
   width="1"
   height="1"
   id="rect1459" />

			<rect
   x="7"
   y="1"
   class="st3"
   width="1"
   height="1"
   id="rect1461" />

			<rect
   x="8"
   y="1"
   class="st3"
   width="1"
   height="1"
   id="rect1463" />

			<rect
   x="9"
   y="1"
   class="st3"
   width="1"
   height="1"
   id="rect1465" />

			<rect
   x="10"
   y="1"
   class="st3"
   width="1"
   height="1"
   id="rect1467" />

			<rect
   x="11"
   y="1"
   class="st3"
   width="1"
   height="1"
   id="rect1469" />

			<rect
   x="12"
   y="1"
   class="st3"
   width="1"
   height="1"
   id="rect1471" />

			<rect
   x="13"
   y="1"
   class="st3"
   width="1"
   height="1"
   id="rect1473" />

			<rect
   x="14"
   y="1"
   class="st3"
   width="1"
   height="1"
   id="rect1475" />

			<rect
   x="15"
   y="1"
   class="st1"
   width="1"
   height="1"
   id="rect1477" />

			<rect
   y="2"
   class="st2"
   width="1"
   height="1"
   id="rect1479"
   x="0" />

			<rect
   x="1"
   y="2"
   class="st3"
   width="1"
   height="1"
   id="rect1481" />

			<rect
   x="2"
   y="2"
   class="st3"
   width="1"
   height="1"
   id="rect1483" />

			<rect
   x="3"
   y="2"
   class="st3"
   width="1"
   height="1"
   id="rect1485" />

			<rect
   x="4"
   y="2"
   class="st3"
   width="1"
   height="1"
   id="rect1487" />

			<rect
   x="5"
   y="2"
   class="st3"
   width="1"
   height="1"
   id="rect1489" />

			<rect
   x="6"
   y="2"
   class="st3"
   width="1"
   height="1"
   id="rect1491" />

			<rect
   x="7"
   y="2"
   class="st3"
   width="1"
   height="1"
   id="rect1493" />

			<rect
   x="8"
   y="2"
   class="st3"
   width="1"
   height="1"
   id="rect1495" />

			<rect
   x="9"
   y="2"
   class="st3"
   width="1"
   height="1"
   id="rect1497" />

			<rect
   x="10"
   y="2"
   class="st3"
   width="1"
   height="1"
   id="rect1499" />

			<rect
   x="11"
   y="2"
   class="st3"
   width="1"
   height="1"
   id="rect1501" />

			<rect
   x="12"
   y="2"
   class="st3"
   width="1"
   height="1"
   id="rect1503" />

			<rect
   x="13"
   y="2"
   class="st3"
   width="1"
   height="1"
   id="rect1505" />

			<rect
   x="14"
   y="2"
   class="st3"
   width="1"
   height="1"
   id="rect1507" />

			<rect
   x="15"
   y="2"
   class="st2"
   width="1"
   height="1"
   id="rect1509" />

			<rect
   y="3"
   class="st3"
   width="1"
   height="1"
   id="rect1511"
   x="0" />

			<rect
   x="1"
   y="3"
   class="st3"
   width="1"
   height="1"
   id="rect1513" />

			<rect
   x="2"
   y="3"
   class="st3"
   width="1"
   height="1"
   id="rect1515" />

			<rect
   x="3"
   y="3"
   class="st3"
   width="1"
   height="1"
   id="rect1517" />

			<rect
   x="4"
   y="3"
   class="st3"
   width="1"
   height="1"
   id="rect1519" />

			<rect
   x="5"
   y="3"
   class="st4"
   width="1"
   height="1"
   id="rect1521" />

			<rect
   x="6"
   y="3"
   class="st3"
   width="1"
   height="1"
   id="rect1523" />

			<rect
   x="7"
   y="3"
   class="st3"
   width="1"
   height="1"
   id="rect1525" />

			<rect
   x="8"
   y="3"
   class="st3"
   width="1"
   height="1"
   id="rect1527" />

			<rect
   x="9"
   y="3"
   class="st3"
   width="1"
   height="1"
   id="rect1529" />

			<rect
   x="10"
   y="3"
   class="st3"
   width="1"
   height="1"
   id="rect1531" />

			<rect
   x="11"
   y="3"
   class="st3"
   width="1"
   height="1"
   id="rect1533" />

			<rect
   x="12"
   y="3"
   class="st3"
   width="1"
   height="1"
   id="rect1535" />

			<rect
   x="13"
   y="3"
   class="st3"
   width="1"
   height="1"
   id="rect1537" />

			<rect
   x="14"
   y="3"
   class="st3"
   width="1"
   height="1"
   id="rect1539" />

			<rect
   x="15"
   y="3"
   class="st3"
   width="1"
   height="1"
   id="rect1541" />

			<rect
   y="4"
   class="st3"
   width="1"
   height="1"
   id="rect1543"
   x="0" />

			<rect
   x="1"
   y="4"
   class="st3"
   width="1"
   height="1"
   id="rect1545" />

			<rect
   x="2"
   y="4"
   class="st3"
   width="1"
   height="1"
   id="rect1547" />

			<rect
   x="3"
   y="4"
   class="st3"
   width="1"
   height="1"
   id="rect1549" />

			<rect
   x="4"
   y="4"
   class="st4"
   width="1"
   height="1"
   id="rect1551" />

			<rect
   x="5"
   y="4"
   class="st4"
   width="1"
   height="1"
   id="rect1553" />

			<rect
   x="6"
   y="4"
   class="st4"
   width="1"
   height="1"
   id="rect1555" />

			<rect
   x="7"
   y="4"
   class="st3"
   width="1"
   height="1"
   id="rect1557" />

			<rect
   x="8"
   y="4"
   class="st3"
   width="1"
   height="1"
   id="rect1559" />

			<rect
   x="9"
   y="4"
   class="st3"
   width="1"
   height="1"
   id="rect1561" />

			<rect
   x="10"
   y="4"
   class="st3"
   width="1"
   height="1"
   id="rect1563" />

			<rect
   x="11"
   y="4"
   class="st3"
   width="1"
   height="1"
   id="rect1565" />

			<rect
   x="12"
   y="4"
   class="st3"
   width="1"
   height="1"
   id="rect1567" />

			<rect
   x="13"
   y="4"
   class="st3"
   width="1"
   height="1"
   id="rect1569" />

			<rect
   x="14"
   y="4"
   class="st3"
   width="1"
   height="1"
   id="rect1571" />

			<rect
   x="15"
   y="4"
   class="st3"
   width="1"
   height="1"
   id="rect1573" />

			<rect
   y="5"
   class="st3"
   width="1"
   height="1"
   id="rect1575"
   x="0" />

			<rect
   x="1"
   y="5"
   class="st3"
   width="1"
   height="1"
   id="rect1577" />

			<rect
   x="2"
   y="5"
   class="st3"
   width="1"
   height="1"
   id="rect1579" />

			<rect
   x="3"
   y="5"
   class="st4"
   width="1"
   height="1"
   id="rect1581" />

			<rect
   x="4"
   y="5"
   class="st3"
   width="1"
   height="1"
   id="rect1583" />

			<rect
   x="5"
   y="5"
   class="st3"
   width="1"
   height="1"
   id="rect1585" />

			<rect
   x="6"
   y="5"
   class="st3"
   width="1"
   height="1"
   id="rect1587" />

			<rect
   x="7"
   y="5"
   class="st4"
   width="1"
   height="1"
   id="rect1589" />

			<rect
   x="8"
   y="5"
   class="st3"
   width="1"
   height="1"
   id="rect1591" />

			<rect
   x="9"
   y="5"
   class="st3"
   width="1"
   height="1"
   id="rect1593" />

			<rect
   x="10"
   y="5"
   class="st3"
   width="1"
   height="1"
   id="rect1595" />

			<rect
   x="11"
   y="5"
   class="st3"
   width="1"
   height="1"
   id="rect1597" />

			<rect
   x="12"
   y="5"
   class="st3"
   width="1"
   height="1"
   id="rect1599" />

			<rect
   x="13"
   y="5"
   class="st3"
   width="1"
   height="1"
   id="rect1601" />

			<rect
   x="14"
   y="5"
   class="st3"
   width="1"
   height="1"
   id="rect1603" />

			<rect
   x="15"
   y="5"
   class="st3"
   width="1"
   height="1"
   id="rect1605" />

			<rect
   y="6"
   class="st3"
   width="1"
   height="1"
   id="rect1607"
   x="0" />

			<rect
   x="1"
   y="6"
   class="st3"
   width="1"
   height="1"
   id="rect1609" />

			<rect
   x="2"
   y="6"
   class="st3"
   width="1"
   height="1"
   id="rect1611" />

			<rect
   x="3"
   y="6"
   class="st4"
   width="1"
   height="1"
   id="rect1613" />

			<rect
   x="4"
   y="6"
   class="st3"
   width="1"
   height="1"
   id="rect1615" />

			<rect
   x="5"
   y="6"
   class="st3"
   width="1"
   height="1"
   id="rect1617" />

			<rect
   x="6"
   y="6"
   class="st3"
   width="1"
   height="1"
   id="rect1619" />

			<rect
   x="7"
   y="6"
   class="st3"
   width="1"
   height="1"
   id="rect1621" />

			<rect
   x="8"
   y="6"
   class="st3"
   width="1"
   height="1"
   id="rect1623" />

			<rect
   x="9"
   y="6"
   class="st3"
   width="1"
   height="1"
   id="rect1625" />

			<rect
   x="10"
   y="6"
   class="st3"
   width="1"
   height="1"
   id="rect1627" />

			<rect
   x="11"
   y="6"
   class="st3"
   width="1"
   height="1"
   id="rect1629" />

			<rect
   x="12"
   y="6"
   class="st3"
   width="1"
   height="1"
   id="rect1631" />

			<rect
   x="13"
   y="6"
   class="st3"
   width="1"
   height="1"
   id="rect1633" />

			<rect
   x="14"
   y="6"
   class="st3"
   width="1"
   height="1"
   id="rect1635" />

			<rect
   x="15"
   y="6"
   class="st3"
   width="1"
   height="1"
   id="rect1637" />

			<rect
   y="7"
   class="st3"
   width="1"
   height="1"
   id="rect1639"
   x="0" />

			<rect
   x="1"
   y="7"
   class="st3"
   width="1"
   height="1"
   id="rect1641" />

			<rect
   x="2"
   y="7"
   class="st3"
   width="1"
   height="1"
   id="rect1643" />

			<rect
   x="3"
   y="7"
   class="st3"
   width="1"
   height="1"
   id="rect1645" />

			<rect
   x="4"
   y="7"
   class="st4"
   width="1"
   height="1"
   id="rect1647" />

			<rect
   x="5"
   y="7"
   class="st4"
   width="1"
   height="1"
   id="rect1649" />

			<rect
   x="6"
   y="7"
   class="st4"
   width="1"
   height="1"
   id="rect1651" />

			<rect
   x="7"
   y="7"
   class="st3"
   width="1"
   height="1"
   id="rect1653" />

			<rect
   x="8"
   y="7"
   class="st3"
   width="1"
   height="1"
   id="rect1655" />

			<rect
   x="9"
   y="7"
   class="st3"
   width="1"
   height="1"
   id="rect1657" />

			<rect
   x="10"
   y="7"
   class="st3"
   width="1"
   height="1"
   id="rect1659" />

			<rect
   x="11"
   y="7"
   class="st3"
   width="1"
   height="1"
   id="rect1661" />

			<rect
   x="12"
   y="7"
   class="st3"
   width="1"
   height="1"
   id="rect1663" />

			<rect
   x="13"
   y="7"
   class="st3"
   width="1"
   height="1"
   id="rect1665" />

			<rect
   x="14"
   y="7"
   class="st3"
   width="1"
   height="1"
   id="rect1667" />

			<rect
   x="15"
   y="7"
   class="st3"
   width="1"
   height="1"
   id="rect1669" />

			<rect
   y="8"
   class="st3"
   width="1"
   height="1"
   id="rect1671"
   x="0" />

			<rect
   x="1"
   y="8"
   class="st3"
   width="1"
   height="1"
   id="rect1673" />

			<rect
   x="2"
   y="8"
   class="st3"
   width="1"
   height="1"
   id="rect1675" />

			<rect
   x="3"
   y="8"
   class="st3"
   width="1"
   height="1"
   id="rect1677" />

			<rect
   x="4"
   y="8"
   class="st3"
   width="1"
   height="1"
   id="rect1679" />

			<rect
   x="5"
   y="8"
   class="st3"
   width="1"
   height="1"
   id="rect1681" />

			<rect
   x="6"
   y="8"
   class="st3"
   width="1"
   height="1"
   id="rect1683" />

			<rect
   x="7"
   y="8"
   class="st4"
   width="1"
   height="1"
   id="rect1685" />

			<rect
   x="8"
   y="8"
   class="st3"
   width="1"
   height="1"
   id="rect1687" />

			<rect
   x="9"
   y="8"
   class="st3"
   width="1"
   height="1"
   id="rect1689" />

			<rect
   x="10"
   y="8"
   class="st3"
   width="1"
   height="1"
   id="rect1691" />

			<rect
   x="11"
   y="8"
   class="st3"
   width="1"
   height="1"
   id="rect1693" />

			<rect
   x="12"
   y="8"
   class="st3"
   width="1"
   height="1"
   id="rect1695" />

			<rect
   x="13"
   y="8"
   class="st3"
   width="1"
   height="1"
   id="rect1697" />

			<rect
   x="14"
   y="8"
   class="st3"
   width="1"
   height="1"
   id="rect1699" />

			<rect
   x="15"
   y="8"
   class="st3"
   width="1"
   height="1"
   id="rect1701" />

			<rect
   y="9"
   class="st3"
   width="1"
   height="1"
   id="rect1703"
   x="0" />

			<rect
   x="1"
   y="9"
   class="st3"
   width="1"
   height="1"
   id="rect1705" />

			<rect
   x="2"
   y="9"
   class="st3"
   width="1"
   height="1"
   id="rect1707" />

			<rect
   x="3"
   y="9"
   class="st4"
   width="1"
   height="1"
   id="rect1709" />

			<rect
   x="4"
   y="9"
   class="st3"
   width="1"
   height="1"
   id="rect1711" />

			<rect
   x="5"
   y="9"
   class="st3"
   width="1"
   height="1"
   id="rect1713" />

			<rect
   x="6"
   y="9"
   class="st3"
   width="1"
   height="1"
   id="rect1715" />

			<rect
   x="7"
   y="9"
   class="st4"
   width="1"
   height="1"
   id="rect1717" />

			<rect
   x="8"
   y="9"
   class="st3"
   width="1"
   height="1"
   id="rect1719" />

			<rect
   x="9"
   y="9"
   class="st3"
   width="1"
   height="1"
   id="rect1721" />

			<rect
   x="10"
   y="9"
   class="st3"
   width="1"
   height="1"
   id="rect1723" />

			<rect
   x="11"
   y="9"
   class="st3"
   width="1"
   height="1"
   id="rect1725" />

			<rect
   x="12"
   y="9"
   class="st3"
   width="1"
   height="1"
   id="rect1727" />

			<rect
   x="13"
   y="9"
   class="st3"
   width="1"
   height="1"
   id="rect1729" />

			<rect
   x="14"
   y="9"
   class="st3"
   width="1"
   height="1"
   id="rect1731" />

			<rect
   x="15"
   y="9"
   class="st3"
   width="1"
   height="1"
   id="rect1733" />

			<rect
   y="10"
   class="st3"
   width="1"
   height="1"
   id="rect1735"
   x="0" />

			<rect
   x="1"
   y="10"
   class="st3"
   width="1"
   height="1"
   id="rect1737" />

			<rect
   x="2"
   y="10"
   class="st3"
   width="1"
   height="1"
   id="rect1739" />

			<rect
   x="3"
   y="10"
   class="st3"
   width="1"
   height="1"
   id="rect1741" />

			<rect
   x="4"
   y="10"
   class="st4"
   width="1"
   height="1"
   id="rect1743" />

			<rect
   x="5"
   y="10"
   class="st4"
   width="1"
   height="1"
   id="rect1745" />

			<rect
   x="6"
   y="10"
   class="st4"
   width="1"
   height="1"
   id="rect1747" />

			<rect
   x="7"
   y="10"
   class="st3"
   width="1"
   height="1"
   id="rect1749" />

			<rect
   x="8"
   y="10"
   class="st3"
   width="1"
   height="1"
   id="rect1751" />

			<rect
   x="9"
   y="10"
   class="st3"
   width="1"
   height="1"
   id="rect1753" />

			<rect
   x="10"
   y="10"
   class="st3"
   width="1"
   height="1"
   id="rect1755" />

			<rect
   x="11"
   y="10"
   class="st3"
   width="1"
   height="1"
   id="rect1757" />

			<rect
   x="12"
   y="10"
   class="st3"
   width="1"
   height="1"
   id="rect1759" />

			<rect
   x="13"
   y="10"
   class="st3"
   width="1"
   height="1"
   id="rect1761" />

			<rect
   x="14"
   y="10"
   class="st3"
   width="1"
   height="1"
   id="rect1763" />

			<rect
   x="15"
   y="10"
   class="st3"
   width="1"
   height="1"
   id="rect1765" />

			<rect
   y="11"
   class="st3"
   width="1"
   height="1"
   id="rect1767"
   x="0" />

			<rect
   x="1"
   y="11"
   class="st3"
   width="1"
   height="1"
   id="rect1769" />

			<rect
   x="2"
   y="11"
   class="st3"
   width="1"
   height="1"
   id="rect1771" />

			<rect
   x="3"
   y="11"
   class="st3"
   width="1"
   height="1"
   id="rect1773" />

			<rect
   x="4"
   y="11"
   class="st3"
   width="1"
   height="1"
   id="rect1775" />

			<rect
   x="5"
   y="11"
   class="st4"
   width="1"
   height="1"
   id="rect1777" />

			<rect
   x="6"
   y="11"
   class="st3"
   width="1"
   height="1"
   id="rect1779" />

			<rect
   x="7"
   y="11"
   class="st3"
   width="1"
   height="1"
   id="rect1781" />

			<rect
   x="8"
   y="11"
   class="st3"
   width="1"
   height="1"
   id="rect1783" />

			<rect
   x="9"
   y="11"
   class="st3"
   width="1"
   height="1"
   id="rect1785" />

			<rect
   x="10"
   y="11"
   class="st3"
   width="1"
   height="1"
   id="rect1787" />

			<rect
   x="11"
   y="11"
   class="st3"
   width="1"
   height="1"
   id="rect1789" />

			<rect
   x="12"
   y="11"
   class="st3"
   width="1"
   height="1"
   id="rect1791" />

			<rect
   x="13"
   y="11"
   class="st3"
   width="1"
   height="1"
   id="rect1793" />

			<rect
   x="14"
   y="11"
   class="st3"
   width="1"
   height="1"
   id="rect1795" />

			<rect
   x="15"
   y="11"
   class="st3"
   width="1"
   height="1"
   id="rect1797" />

			<rect
   y="12"
   class="st3"
   width="1"
   height="1"
   id="rect1799"
   x="0" />

			<rect
   x="1"
   y="12"
   class="st3"
   width="1"
   height="1"
   id="rect1801" />

			<rect
   x="2"
   y="12"
   class="st3"
   width="1"
   height="1"
   id="rect1803" />

			<rect
   x="3"
   y="12"
   class="st3"
   width="1"
   height="1"
   id="rect1805" />

			<rect
   x="4"
   y="12"
   class="st3"
   width="1"
   height="1"
   id="rect1807" />

			<rect
   x="5"
   y="12"
   class="st3"
   width="1"
   height="1"
   id="rect1809" />

			<rect
   x="6"
   y="12"
   class="st3"
   width="1"
   height="1"
   id="rect1811" />

			<rect
   x="7"
   y="12"
   class="st3"
   width="1"
   height="1"
   id="rect1813" />

			<rect
   x="8"
   y="12"
   class="st3"
   width="1"
   height="1"
   id="rect1815" />

			<rect
   x="9"
   y="12"
   class="st4"
   width="1"
   height="1"
   id="rect1817" />

			<rect
   x="10"
   y="12"
   class="st4"
   width="1"
   height="1"
   id="rect1819" />

			<rect
   x="11"
   y="12"
   class="st4"
   width="1"
   height="1"
   id="rect1821" />

			<rect
   x="12"
   y="12"
   class="st4"
   width="1"
   height="1"
   id="rect1823" />

			<rect
   x="13"
   y="12"
   class="st3"
   width="1"
   height="1"
   id="rect1825" />

			<rect
   x="14"
   y="12"
   class="st3"
   width="1"
   height="1"
   id="rect1827" />

			<rect
   x="15"
   y="12"
   class="st3"
   width="1"
   height="1"
   id="rect1829" />

			<rect
   y="13"
   class="st2"
   width="1"
   height="1"
   id="rect1831"
   x="0" />

			<rect
   x="1"
   y="13"
   class="st3"
   width="1"
   height="1"
   id="rect1833" />

			<rect
   x="2"
   y="13"
   class="st3"
   width="1"
   height="1"
   id="rect1835" />

			<rect
   x="3"
   y="13"
   class="st3"
   width="1"
   height="1"
   id="rect1837" />

			<rect
   x="4"
   y="13"
   class="st3"
   width="1"
   height="1"
   id="rect1839" />

			<rect
   x="5"
   y="13"
   class="st3"
   width="1"
   height="1"
   id="rect1841" />

			<rect
   x="6"
   y="13"
   class="st3"
   width="1"
   height="1"
   id="rect1843" />

			<rect
   x="7"
   y="13"
   class="st3"
   width="1"
   height="1"
   id="rect1845" />

			<rect
   x="8"
   y="13"
   class="st3"
   width="1"
   height="1"
   id="rect1847" />

			<rect
   x="9"
   y="13"
   class="st3"
   width="1"
   height="1"
   id="rect1849" />

			<rect
   x="10"
   y="13"
   class="st3"
   width="1"
   height="1"
   id="rect1851" />

			<rect
   x="11"
   y="13"
   class="st3"
   width="1"
   height="1"
   id="rect1853" />

			<rect
   x="12"
   y="13"
   class="st3"
   width="1"
   height="1"
   id="rect1855" />

			<rect
   x="13"
   y="13"
   class="st3"
   width="1"
   height="1"
   id="rect1857" />

			<rect
   x="14"
   y="13"
   class="st3"
   width="1"
   height="1"
   id="rect1859" />

			<rect
   x="15"
   y="13"
   class="st2"
   width="1"
   height="1"
   id="rect1861" />

			<rect
   y="14"
   class="st1"
   width="1"
   height="1"
   id="rect1863"
   x="0" />

			<rect
   x="1"
   y="14"
   class="st3"
   width="1"
   height="1"
   id="rect1865" />

			<rect
   x="2"
   y="14"
   class="st3"
   width="1"
   height="1"
   id="rect1867" />

			<rect
   x="3"
   y="14"
   class="st3"
   width="1"
   height="1"
   id="rect1869" />

			<rect
   x="4"
   y="14"
   class="st3"
   width="1"
   height="1"
   id="rect1871" />

			<rect
   x="5"
   y="14"
   class="st3"
   width="1"
   height="1"
   id="rect1873" />

			<rect
   x="6"
   y="14"
   class="st3"
   width="1"
   height="1"
   id="rect1875" />

			<rect
   x="7"
   y="14"
   class="st3"
   width="1"
   height="1"
   id="rect1877" />

			<rect
   x="8"
   y="14"
   class="st3"
   width="1"
   height="1"
   id="rect1879" />

			<rect
   x="9"
   y="14"
   class="st3"
   width="1"
   height="1"
   id="rect1881" />

			<rect
   x="10"
   y="14"
   class="st3"
   width="1"
   height="1"
   id="rect1883" />

			<rect
   x="11"
   y="14"
   class="st3"
   width="1"
   height="1"
   id="rect1885" />

			<rect
   x="12"
   y="14"
   class="st3"
   width="1"
   height="1"
   id="rect1887" />

			<rect
   x="13"
   y="14"
   class="st3"
   width="1"
   height="1"
   id="rect1889" />

			<rect
   x="14"
   y="14"
   class="st3"
   width="1"
   height="1"
   id="rect1891" />

			<rect
   x="15"
   y="14"
   class="st1"
   width="1"
   height="1"
   id="rect1893" />

			<rect
   y="15"
   class="st0"
   width="1"
   height="1"
   id="rect1895"
   x="0" />

			<rect
   x="1"
   y="15"
   class="st1"
   width="1"
   height="1"
   id="rect1897" />

			<rect
   x="2"
   y="15"
   class="st2"
   width="1"
   height="1"
   id="rect1899" />

			<rect
   x="3"
   y="15"
   class="st3"
   width="1"
   height="1"
   id="rect1901" />

			<rect
   x="4"
   y="15"
   class="st3"
   width="1"
   height="1"
   id="rect1903" />

			<rect
   x="5"
   y="15"
   class="st3"
   width="1"
   height="1"
   id="rect1905" />

			<rect
   x="6"
   y="15"
   class="st3"
   width="1"
   height="1"
   id="rect1907" />

			<rect
   x="7"
   y="15"
   class="st3"
   width="1"
   height="1"
   id="rect1909" />

			<rect
   x="8"
   y="15"
   class="st3"
   width="1"
   height="1"
   id="rect1911" />

			<rect
   x="9"
   y="15"
   class="st3"
   width="1"
   height="1"
   id="rect1913" />

			<rect
   x="10"
   y="15"
   class="st3"
   width="1"
   height="1"
   id="rect1915" />

			<rect
   x="11"
   y="15"
   class="st3"
   width="1"
   height="1"
   id="rect1917" />

			<rect
   x="12"
   y="15"
   class="st3"
   width="1"
   height="1"
   id="rect1919" />

			<rect
   x="13"
   y="15"
   class="st2"
   width="1"
   height="1"
   id="rect1921" />

			<rect
   x="14"
   y="15"
   class="st1"
   width="1"
   height="1"
   id="rect1923" />

			<rect
   x="15"
   y="15"
   class="st0"
   width="1"
   height="1"
   id="rect1925" />

		</g>

	</g>

</switch>
s
</svg>
